<svg width="28" height="31" viewBox="0 0 28 31" fill="none" xmlns="http://www.w3.org/2000/svg">
<path d="M2.50052 30.5C2.21624 30.5046 1.93361 30.4559 1.66718 30.3567L15.0905 16.9283L19.5338 21.3767L4.10885 30.0433C3.62024 30.3297 3.06672 30.4869 2.50052 30.5ZM0.560518 29.3917C0.287648 28.8975 0.15185 28.3393 0.167184 27.775V3.26667C0.164932 2.89464 0.221174 2.52457 0.333851 2.17L14.0555 15.895L0.555518 29.395L0.560518 29.3917ZM20.8588 20.6283L16.1239 15.8967L21.3455 10.6767L25.9838 13.2817C26.8742 13.6801 27.47 14.5397 27.5305 15.5133C27.4703 16.4879 26.8737 17.3484 25.9822 17.7467L20.8588 20.6283ZM15.0905 14.8567L1.19052 0.958335C1.57216 0.67613 2.0342 0.523673 2.50885 0.523335C3.06942 0.543239 3.6163 0.701863 4.10052 0.985001L20.0189 9.93167L15.0922 14.8567H15.0905Z" fill="#ACE96B"/>
</svg>
