<svg width="199" height="32" viewBox="0 0 199 32" fill="none" xmlns="http://www.w3.org/2000/svg">
<path d="M135 1.35V13.5C135 23.4 126.9 31.5 117 31.5H107.46C106.65 31.5 106.29 30.51 106.83 29.97L107.73 29.07C107.91 28.89 108.09 28.8 108.36 28.8H117C125.46 28.8 132.3 21.96 132.3 13.5V2.7H117C115.29 2.7 113.58 2.97 112.05 3.51C111.15 3.87 110.25 4.23 109.44 4.68C108.72 5.04 108.09 5.58 107.46 6.03C106.74 6.66 106.02 7.29 105.48 7.92C103.14 10.62 101.7 14.13 101.7 18V27.72L113.85 15.57C114.03 15.39 114.21 15.3 114.48 15.3H118.62L125.55 8.37C125.73 8.19 125.91 8.1 126.18 8.1H127.44C128.25 8.1 128.61 9.09 128.07 9.63L119.97 17.73C119.79 17.91 119.61 18 119.34 18H115.2L101.97 31.23C101.79 31.41 101.61 31.5 101.34 31.5H100.35C99.63 31.5 99 30.87 99 30.15V18C99 16.47 99.18 14.94 99.54 13.5C100.26 10.71 101.7 8.1 103.59 6.03C104.13 5.4 104.76 4.77 105.48 4.14C106.83 3.06 108.36 2.07 109.98 1.44C112.14 0.54 114.48 0 117 0H133.65C134.37 0 135 0.63 135 1.35Z" fill="url(#paint0_linear_0_1)"/>
<path d="M1.16 24C1 24 0.864 23.944 0.752 23.832C0.64 23.72 0.584 23.584 0.584 23.424V12.12C0.584 11.944 0.64 11.8 0.752 11.688C0.864 11.576 1 11.52 1.16 11.52H3.104C3.264 11.52 3.4 11.576 3.512 11.688C3.64 11.8 3.704 11.944 3.704 12.12V13.104C4.072 12.592 4.544 12.2 5.12 11.928C5.712 11.656 6.392 11.52 7.16 11.52H8.144C8.32 11.52 8.456 11.576 8.552 11.688C8.664 11.8 8.72 11.936 8.72 12.096V13.824C8.72 13.984 8.664 14.12 8.552 14.232C8.456 14.344 8.32 14.4 8.144 14.4H6.272C5.504 14.4 4.904 14.616 4.472 15.048C4.056 15.48 3.848 16.072 3.848 16.824V23.424C3.848 23.584 3.792 23.72 3.68 23.832C3.568 23.944 3.424 24 3.248 24H1.16ZM15.0838 24.24C13.3077 24.24 11.8997 23.728 10.8597 22.704C9.81975 21.68 9.25975 20.224 9.17975 18.336C9.16375 18.176 9.15575 17.976 9.15575 17.736C9.15575 17.48 9.16375 17.28 9.17975 17.136C9.24375 15.936 9.51575 14.896 9.99575 14.016C10.4917 13.136 11.1717 12.464 12.0357 12C12.8997 11.52 13.9158 11.28 15.0838 11.28C16.3798 11.28 17.4678 11.552 18.3478 12.096C19.2278 12.624 19.8918 13.368 20.3397 14.328C20.7877 15.272 21.0117 16.368 21.0117 17.616V18.12C21.0117 18.28 20.9557 18.416 20.8438 18.528C20.7318 18.64 20.5877 18.696 20.4118 18.696H12.4437C12.4437 18.696 12.4437 18.72 12.4437 18.768C12.4437 18.816 12.4437 18.856 12.4437 18.888C12.4597 19.448 12.5637 19.968 12.7557 20.448C12.9638 20.912 13.2598 21.288 13.6437 21.576C14.0438 21.864 14.5158 22.008 15.0597 22.008C15.5077 22.008 15.8837 21.944 16.1878 21.816C16.4918 21.672 16.7398 21.512 16.9318 21.336C17.1237 21.16 17.2597 21.016 17.3397 20.904C17.4837 20.712 17.5958 20.6 17.6758 20.568C17.7718 20.52 17.9078 20.496 18.0838 20.496H20.1478C20.3078 20.496 20.4358 20.544 20.5318 20.64C20.6438 20.736 20.6918 20.856 20.6757 21C20.6597 21.256 20.5238 21.568 20.2678 21.936C20.0278 22.304 19.6758 22.664 19.2118 23.016C18.7478 23.368 18.1638 23.664 17.4598 23.904C16.7718 24.128 15.9798 24.24 15.0838 24.24ZM12.4437 16.68H17.7478V16.608C17.7478 15.984 17.6438 15.44 17.4358 14.976C17.2278 14.512 16.9238 14.144 16.5238 13.872C16.1238 13.6 15.6438 13.464 15.0838 13.464C14.5238 13.464 14.0438 13.6 13.6437 13.872C13.2437 14.144 12.9397 14.512 12.7317 14.976C12.5397 15.44 12.4437 15.984 12.4437 16.608V16.68ZM27.4713 24.24C26.6393 24.24 25.9033 24.104 25.2633 23.832C24.6393 23.544 24.1193 23.144 23.7033 22.632C23.2873 22.12 22.9673 21.52 22.7433 20.832C22.5193 20.128 22.3913 19.36 22.3593 18.528C22.3433 18.24 22.3353 17.984 22.3353 17.76C22.3353 17.52 22.3433 17.256 22.3593 16.968C22.3913 16.168 22.5113 15.424 22.7193 14.736C22.9433 14.048 23.2633 13.448 23.6793 12.936C24.1113 12.408 24.6393 12 25.2633 11.712C25.9033 11.424 26.6393 11.28 27.4713 11.28C28.3353 11.28 29.0633 11.432 29.6553 11.736C30.2633 12.024 30.7673 12.4 31.1673 12.864V7.536C31.1673 7.376 31.2153 7.24 31.3113 7.128C31.4233 7.016 31.5673 6.96 31.7433 6.96H33.7833C33.9433 6.96 34.0793 7.016 34.1913 7.128C34.3033 7.24 34.3593 7.376 34.3593 7.536V23.424C34.3593 23.584 34.3033 23.72 34.1913 23.832C34.0793 23.944 33.9433 24 33.7833 24H31.8873C31.7113 24 31.5673 23.944 31.4553 23.832C31.3593 23.72 31.3113 23.584 31.3113 23.424V22.536C30.9113 23.032 30.3993 23.44 29.7753 23.76C29.1673 24.08 28.3993 24.24 27.4713 24.24ZM28.3593 21.672C29.0313 21.672 29.5673 21.52 29.9673 21.216C30.3673 20.912 30.6633 20.528 30.8553 20.064C31.0473 19.584 31.1513 19.096 31.1673 18.6C31.1833 18.312 31.1913 18.008 31.1913 17.688C31.1913 17.352 31.1833 17.04 31.1673 16.752C31.1513 16.272 31.0393 15.816 30.8313 15.384C30.6233 14.936 30.3193 14.568 29.9193 14.28C29.5193 13.992 28.9993 13.848 28.3593 13.848C27.6873 13.848 27.1513 14 26.7513 14.304C26.3673 14.592 26.0873 14.976 25.9113 15.456C25.7353 15.936 25.6313 16.464 25.5993 17.04C25.5833 17.52 25.5833 18 25.5993 18.48C25.6313 19.056 25.7353 19.584 25.9113 20.064C26.0873 20.544 26.3673 20.936 26.7513 21.24C27.1513 21.528 27.6873 21.672 28.3593 21.672ZM36.3101 24C36.1661 24 36.0381 23.952 35.9261 23.856C35.8301 23.744 35.7821 23.616 35.7821 23.472C35.7821 23.424 35.7901 23.368 35.8061 23.304C35.8381 23.24 35.8861 23.16 35.9501 23.064L40.0301 17.592L36.2381 12.456C36.1901 12.376 36.1501 12.304 36.1181 12.24C36.1021 12.176 36.0941 12.112 36.0941 12.048C36.0941 11.904 36.1421 11.784 36.2381 11.688C36.3501 11.576 36.4781 11.52 36.6221 11.52H38.7101C38.9021 11.52 39.0461 11.568 39.1421 11.664C39.2381 11.76 39.3101 11.848 39.3581 11.928L42.0701 15.528L44.7821 11.928C44.8461 11.848 44.9181 11.76 44.9981 11.664C45.0941 11.568 45.2381 11.52 45.4301 11.52H47.4221C47.5661 11.52 47.6861 11.576 47.7821 11.688C47.8941 11.784 47.9501 11.896 47.9501 12.024C47.9501 12.104 47.9341 12.176 47.9021 12.24C47.8861 12.304 47.8541 12.376 47.8061 12.456L43.9661 17.64L48.0701 23.064C48.1341 23.16 48.1741 23.24 48.1901 23.304C48.2221 23.368 48.2381 23.424 48.2381 23.472C48.2381 23.616 48.1821 23.744 48.0701 23.856C47.9741 23.952 47.8541 24 47.7101 24H45.5261C45.3501 24 45.2141 23.96 45.1181 23.88C45.0221 23.784 44.9421 23.696 44.8781 23.616L41.9981 19.8L39.0701 23.616C39.0061 23.696 38.9261 23.784 38.8301 23.88C38.7501 23.96 38.6141 24 38.4221 24H36.3101ZM53.1014 24.24C52.2694 24.24 51.5174 24.08 50.8454 23.76C50.1734 23.424 49.6374 22.984 49.2374 22.44C48.8534 21.88 48.6614 21.256 48.6614 20.568C48.6614 19.448 49.1094 18.56 50.0054 17.904C50.9174 17.232 52.1174 16.784 53.6054 16.56L56.8934 16.08V15.576C56.8934 14.904 56.7254 14.384 56.3894 14.016C56.0534 13.648 55.4774 13.464 54.6614 13.464C54.0854 13.464 53.6134 13.584 53.2454 13.824C52.8934 14.048 52.6294 14.352 52.4534 14.736C52.3254 14.944 52.1414 15.048 51.9014 15.048H50.0054C49.8294 15.048 49.6934 15 49.5974 14.904C49.5174 14.808 49.4774 14.68 49.4774 14.52C49.4934 14.264 49.5974 13.952 49.7894 13.584C49.9814 13.216 50.2854 12.864 50.7014 12.528C51.1174 12.176 51.6534 11.88 52.3094 11.64C52.9654 11.4 53.7574 11.28 54.6854 11.28C55.6934 11.28 56.5414 11.408 57.2294 11.664C57.9334 11.904 58.4934 12.232 58.9094 12.648C59.3254 13.064 59.6294 13.552 59.8214 14.112C60.0134 14.672 60.1094 15.264 60.1094 15.888V23.424C60.1094 23.584 60.0534 23.72 59.9414 23.832C59.8294 23.944 59.6934 24 59.5334 24H57.5894C57.4134 24 57.2694 23.944 57.1574 23.832C57.0614 23.72 57.0134 23.584 57.0134 23.424V22.488C56.8054 22.792 56.5254 23.08 56.1734 23.352C55.8214 23.608 55.3894 23.824 54.8774 24C54.3814 24.16 53.7894 24.24 53.1014 24.24ZM53.9174 21.96C54.4774 21.96 54.9814 21.84 55.4294 21.6C55.8934 21.36 56.2534 20.992 56.5094 20.496C56.7814 19.984 56.9174 19.344 56.9174 18.576V18.072L54.5174 18.456C53.5734 18.6 52.8694 18.832 52.4054 19.152C51.9414 19.472 51.7094 19.864 51.7094 20.328C51.7094 20.68 51.8134 20.984 52.0214 21.24C52.2454 21.48 52.5254 21.664 52.8614 21.792C53.1974 21.904 53.5494 21.96 53.9174 21.96ZM63.0444 24C62.8844 24 62.7484 23.944 62.6364 23.832C62.5244 23.72 62.4684 23.584 62.4684 23.424V12.096C62.4684 11.936 62.5244 11.8 62.6364 11.688C62.7484 11.576 62.8844 11.52 63.0444 11.52H64.9164C65.0764 11.52 65.2124 11.576 65.3244 11.688C65.4364 11.8 65.4924 11.936 65.4924 12.096V12.912C65.8284 12.464 66.2764 12.088 66.8364 11.784C67.4124 11.464 68.0924 11.296 68.8764 11.28C70.7004 11.248 71.9724 11.96 72.6924 13.416C73.0604 12.776 73.5884 12.264 74.2764 11.88C74.9804 11.48 75.7564 11.28 76.6044 11.28C77.4364 11.28 78.1884 11.472 78.8604 11.856C79.5484 12.24 80.0844 12.824 80.4684 13.608C80.8684 14.376 81.0684 15.352 81.0684 16.536V23.424C81.0684 23.584 81.0124 23.72 80.9004 23.832C80.7884 23.944 80.6524 24 80.4924 24H78.5244C78.3644 24 78.2284 23.944 78.1164 23.832C78.0044 23.72 77.9484 23.584 77.9484 23.424V16.728C77.9484 16.008 77.8444 15.44 77.6364 15.024C77.4284 14.592 77.1484 14.288 76.7964 14.112C76.4444 13.936 76.0524 13.848 75.6204 13.848C75.2684 13.848 74.9164 13.936 74.5644 14.112C74.2124 14.288 73.9244 14.592 73.7004 15.024C73.4764 15.44 73.3644 16.008 73.3644 16.728V23.424C73.3644 23.584 73.3084 23.72 73.1964 23.832C73.0844 23.944 72.9484 24 72.7884 24H70.8204C70.6444 24 70.5004 23.944 70.3884 23.832C70.2924 23.72 70.2444 23.584 70.2444 23.424V16.728C70.2444 16.008 70.1324 15.44 69.9084 15.024C69.6844 14.592 69.3964 14.288 69.0444 14.112C68.6924 13.936 68.3164 13.848 67.9164 13.848C67.5484 13.848 67.1884 13.944 66.8364 14.136C66.4844 14.312 66.1964 14.608 65.9724 15.024C65.7484 15.44 65.6364 16.008 65.6364 16.728V23.424C65.6364 23.584 65.5804 23.72 65.4684 23.832C65.3564 23.944 65.2204 24 65.0604 24H63.0444Z" fill="#2A3037"/>
<path d="M151.48 31.56V25.584C151.48 24.224 151.88 23.136 152.68 22.32C153.384 21.616 154.328 21.216 155.512 21.12C155.08 20.448 154.864 19.56 154.864 18.456C154.864 16.696 155.344 15.304 156.304 14.28C157.152 13.384 158.272 12.936 159.664 12.936C161.088 12.936 162.2 13.392 163 14.304C163.688 15.088 164.032 16.112 164.032 17.376V20.232C164.016 21.416 163.616 22.336 162.832 22.992C162.048 23.648 160.944 23.984 159.52 24H156.184C155.576 24 155.144 24.128 154.888 24.384C154.632 24.656 154.504 25.104 154.504 25.728V29.976L151.48 31.56ZM161.008 17.328C161.008 16.272 160.56 15.744 159.664 15.744C159.088 15.744 158.632 15.976 158.296 16.44C157.976 16.904 157.816 17.544 157.816 18.36C157.816 20.184 158.416 21.096 159.616 21.096C160.544 21.096 161.008 20.648 161.008 19.752V17.328ZM167.393 24V10.128L170.417 8.52V24H167.393ZM178.339 10.92C177.859 10.92 177.475 10.776 177.187 10.488C176.899 10.2 176.755 9.808 176.755 9.312C176.755 8.848 176.899 8.472 177.187 8.184C177.475 7.896 177.859 7.752 178.339 7.752C178.819 7.752 179.195 7.896 179.467 8.184C179.755 8.456 179.899 8.832 179.899 9.312C179.899 10.384 179.379 10.92 178.339 10.92ZM179.899 22.512C179.899 24.368 179.387 25.872 178.363 27.024C177.419 28.096 176.171 28.632 174.619 28.632C173.611 28.632 172.627 28.376 171.667 27.864V25.224C172.499 25.688 173.315 25.92 174.115 25.92C174.995 25.92 175.675 25.632 176.155 25.056C176.651 24.496 176.899 23.712 176.899 22.704V14.952L179.899 13.344V22.512ZM181.588 24L183.1 21.096H186.892C187.708 21.096 188.116 20.624 188.116 19.68C188.116 17.904 187.268 16.544 185.572 15.6L187.06 13.056C189.78 14.656 191.14 16.88 191.14 19.728C191.14 22.576 189.908 24 187.444 24H181.588ZM198.545 22.512C198.545 24.368 198.033 25.872 197.009 27.024C196.065 28.096 194.817 28.632 193.265 28.632C192.257 28.632 191.273 28.376 190.313 27.864V25.224C191.145 25.688 191.961 25.92 192.761 25.92C193.641 25.92 194.321 25.632 194.801 25.056C195.297 24.496 195.545 23.712 195.545 22.704V14.952L198.545 13.344V22.512Z" fill="#2A3037"/>
<defs>
<linearGradient id="paint0_linear_0_1" x1="99" y1="0" x2="115.386" y2="51.0012" gradientUnits="userSpaceOnUse">
<stop stop-color="#9EF01A"/>
<stop offset="0.552864" stop-color="#70E000"/>
<stop offset="1" stop-color="#38B000"/>
</linearGradient>
</defs>
</svg>
