<svg width="35" height="35" viewBox="0 0 35 35" fill="none" xmlns="http://www.w3.org/2000/svg">
<path d="M17.5007 34.1667C8.29591 34.1667 0.833984 26.7047 0.833984 17.5C0.833984 8.29525 8.29591 0.833332 17.5007 0.833332C26.7054 0.833332 34.1673 8.29525 34.1673 17.5C34.1572 26.7006 26.7012 34.1566 17.5007 34.1667ZM10.379 22.145C10.164 22.1463 9.94983 22.172 9.74065 22.2217L9.49065 22.29L8.50065 23.985C8.1251 24.6114 8.30629 25.4223 8.91277 25.8293C9.51926 26.2363 10.3383 26.0966 10.7757 25.5117L10.879 25.3567L12.1957 23.0717C11.7631 22.4931 11.0847 22.1502 10.3623 22.145H10.379ZM19.519 11.9333C19.0004 12.4205 18.6566 13.0647 18.5407 13.7667C18.3548 14.7346 18.5329 15.737 19.0407 16.5817L24.1073 25.3583C24.3548 25.7768 24.8045 26.0339 25.2907 26.035C25.4992 26.0343 25.7049 25.9865 25.8923 25.895C26.5348 25.5781 26.8253 24.8201 26.559 24.155L26.4773 23.9883L25.144 21.67H27.1273C27.848 21.664 28.4411 21.1013 28.485 20.3819C28.5288 19.6626 28.0086 19.0319 27.294 18.9383L27.1273 18.9283H23.5607L19.904 12.595L19.5223 11.9283L19.519 11.9333ZM7.93399 18.9167C7.75735 18.9169 7.58244 18.9514 7.41898 19.0183C7.25334 19.0875 7.10276 19.1883 6.97565 19.315C6.71888 19.5724 6.57498 19.9214 6.57565 20.285C6.57589 20.9756 7.08898 21.5587 7.77398 21.6467L7.94065 21.655H20.4073C20.687 21.0927 20.6764 20.4297 20.379 19.8767C20.1256 19.3581 19.6294 19.0009 19.0573 18.925L18.8557 18.915H14.604L20.484 8.73333C20.6651 8.41771 20.7142 8.04333 20.6207 7.69167C20.5276 7.33937 20.297 7.03915 19.9807 6.85833C19.3856 6.51572 18.629 6.66519 18.209 7.20833L18.1057 7.36167L17.5007 8.41833L16.9023 7.36167C16.6548 6.9432 16.2052 6.68607 15.719 6.685C15.5099 6.68575 15.3037 6.7336 15.1157 6.825C14.4735 7.14313 14.1834 7.90109 14.449 8.56667L14.5307 8.73333L15.914 11.1667L11.439 18.9167H7.93399Z" fill="#ACE96B"/>
</svg>
