<svg width="29" height="29" viewBox="0 0 29 29" fill="none" xmlns="http://www.w3.org/2000/svg">
<g filter="url(#filter0_di_2078_15125)">
<path d="M20.4649 18.4649C23.6801 15.2497 23.6801 10.0368 20.4649 6.82164C17.2497 3.60644 12.0368 3.60644 8.82164 6.82164C5.60644 10.0368 5.60644 15.2497 8.82164 18.4649C12.0368 21.6801 17.2497 21.6801 20.4649 18.4649Z" fill="#ACE96B"/>
</g>
<path d="M15.133 21.0513C10.4878 21.0513 6.72656 17.2727 6.72656 12.6448C6.72656 7.99959 10.5051 4.23836 15.133 4.23836C19.7782 4.23836 23.5395 8.01693 23.5395 12.6448C23.5395 17.2727 19.7782 21.0513 15.133 21.0513ZM15.133 4.56768C10.6958 4.56768 7.07322 8.19026 7.07322 12.6275C7.07322 17.0647 10.6958 20.6873 15.133 20.6873C19.5702 20.6873 23.1928 17.0647 23.1928 12.6275C23.1928 8.19026 19.5876 4.56768 15.133 4.56768Z" fill="white"/>
<path d="M14.2839 21.8486C10.3667 21.8486 6.91742 19.0753 6.10277 15.2447C6.08544 15.1754 6.13744 15.1061 6.20677 15.0888C6.2761 15.0714 6.34543 15.1234 6.36276 15.1927C7.16008 18.902 10.488 21.6059 14.2839 21.6059C15.1505 21.6059 15.9825 21.4673 16.7972 21.2073C16.8665 21.1899 16.9358 21.2246 16.9532 21.2939C16.9705 21.3633 16.9358 21.4326 16.8665 21.4499C16.0518 21.7099 15.1679 21.8486 14.2839 21.8486ZM19.7957 19.734C19.7611 19.734 19.7264 19.7166 19.6918 19.6993C19.6398 19.6473 19.6398 19.5606 19.7091 19.5086C21.4077 17.966 22.3957 15.7821 22.3957 13.4941V13.4595C22.3957 13.3901 22.4477 13.3208 22.517 13.3208C22.5863 13.3208 22.6383 13.3728 22.6557 13.4421V13.4768C22.6557 15.8341 21.6504 18.1047 19.8997 19.6993C19.8651 19.7166 19.8304 19.734 19.7957 19.734ZM6.05077 13.6155C5.98144 13.6155 5.91211 13.5635 5.91211 13.4941V13.4768C5.91211 11.1195 6.91742 8.86625 8.66804 7.27162C8.72004 7.21962 8.8067 7.21962 8.8587 7.28895C8.9107 7.34095 8.9107 7.42762 8.84137 7.47962C7.14274 9.02224 6.1721 11.2062 6.1721 13.4941C6.18944 13.5635 6.1201 13.6155 6.05077 13.6155ZM22.3437 11.8648C22.2917 11.8648 22.2224 11.8302 22.2224 11.7608C21.425 8.0516 18.0971 5.365 14.3012 5.365C13.4346 5.365 12.5853 5.50367 11.7706 5.76366C11.7013 5.78099 11.632 5.74633 11.6146 5.677C11.5973 5.60766 11.632 5.53833 11.7013 5.521C12.5333 5.24367 13.4172 5.10501 14.3186 5.10501C18.2358 5.10501 21.6677 7.87827 22.4997 11.6915C22.517 11.7608 22.465 11.8302 22.3957 11.8475C22.361 11.8648 22.3437 11.8648 22.3437 11.8648Z" fill="#219653"/>
<path d="M13.417 17.082L9.89844 13.5808L11.1637 12.3155L13.417 14.5687L19.0849 8.88356L20.3502 10.1489L13.417 17.082Z" fill="white"/>
<path d="M13.4187 17.394L9.60547 13.5808L11.1654 12.0208L13.4187 14.2741L19.0866 8.60623L20.6465 10.1662L13.4187 17.394ZM10.2121 13.5808L13.4187 16.7874L20.0572 10.1489L19.0866 9.17822L13.4187 14.8461L11.1654 12.5928L10.2121 13.5808Z" fill="white"/>
<defs>
<filter id="filter0_di_2078_15125" x="0.410156" y="0.410248" width="28.4668" height="28.4661" filterUnits="userSpaceOnUse" color-interpolation-filters="sRGB">
<feFlood flood-opacity="0" result="BackgroundImageFix"/>
<feColorMatrix in="SourceAlpha" type="matrix" values="0 0 0 0 0 0 0 0 0 0 0 0 0 0 0 0 0 0 127 0" result="hardAlpha"/>
<feOffset dy="2"/>
<feGaussianBlur stdDeviation="3"/>
<feComposite in2="hardAlpha" operator="out"/>
<feColorMatrix type="matrix" values="0 0 0 0 0.713726 0 0 0 0 0.921569 0 0 0 0 0.482353 0 0 0 1 0"/>
<feBlend mode="normal" in2="BackgroundImageFix" result="effect1_dropShadow_2078_15125"/>
<feBlend mode="normal" in="SourceGraphic" in2="effect1_dropShadow_2078_15125" result="shape"/>
<feColorMatrix in="SourceAlpha" type="matrix" values="0 0 0 0 0 0 0 0 0 0 0 0 0 0 0 0 0 0 127 0" result="hardAlpha"/>
<feOffset dx="0.941659" dy="0.941659"/>
<feGaussianBlur stdDeviation="2.82498"/>
<feComposite in2="hardAlpha" operator="arithmetic" k2="-1" k3="1"/>
<feColorMatrix type="matrix" values="0 0 0 0 1 0 0 0 0 1 0 0 0 0 1 0 0 0 0.6 0"/>
<feBlend mode="normal" in2="shape" result="effect2_innerShadow_2078_15125"/>
</filter>
</defs>
</svg>
