<svg width="20" height="19" viewBox="0 0 20 19" fill="none" xmlns="http://www.w3.org/2000/svg">
<path fill-rule="evenodd" clip-rule="evenodd" d="M9.63361 17.6332C9.3992 17.8745 9.08131 18.01 8.74985 18.01C8.41839 18.01 8.1005 17.8745 7.86609 17.6332L0.365988 9.91205C0.131646 9.67073 0 9.34347 0 9.00224C0 8.66101 0.131646 8.33375 0.365988 8.09243L7.86609 0.371247C8.10184 0.136835 8.4176 0.0071264 8.74535 0.0100584C9.0731 0.0129904 9.38662 0.148329 9.61838 0.386923C9.85015 0.625518 9.98161 0.94828 9.98446 1.28569C9.98731 1.6231 9.86131 1.94817 9.63361 2.19087L4.26729 7.71538H18.75C19.0815 7.71538 19.3995 7.85096 19.6339 8.09229C19.8683 8.33362 20 8.66094 20 9.00224C20 9.34354 19.8683 9.67086 19.6339 9.91219C19.3995 10.1535 19.0815 10.2891 18.75 10.2891H4.26729L9.63361 15.8136C9.86795 16.0549 9.9996 16.3822 9.9996 16.7234C9.9996 17.0647 9.86795 17.3919 9.63361 17.6332Z" fill="white"/>
</svg>
