<svg width="480" height="448" viewBox="0 0 480 448" fill="none" xmlns="http://www.w3.org/2000/svg">
<path d="M480 95.9998V112C480 114.122 479.157 116.156 477.657 117.657C476.157 119.157 474.122 120 472 120H448V132C448 138.627 442.627 144 436 144H44C37.373 144 32 138.627 32 132V120H8C5.87827 120 3.84344 119.157 2.34315 117.657C0.842854 116.156 0 114.122 0 112V95.9998C1.14414e-05 94.4171 0.469478 92.8699 1.349 91.5541C2.22852 90.2383 3.47858 89.213 4.941 88.6078L236.941 0.607783C238.9 -0.203245 241.1 -0.203245 243.059 0.607783L475.059 88.6078C476.521 89.213 477.771 90.2383 478.651 91.5541C479.531 92.8699 480 94.4171 480 95.9998ZM456 400H24C10.745 400 0 410.745 0 424V440C0 442.122 0.842854 444.156 2.34315 445.657C3.84344 447.157 5.87827 448 8 448H472C474.122 448 476.157 447.157 477.657 445.657C479.157 444.156 480 442.122 480 440V424C480 410.745 469.255 400 456 400ZM80 160V352H44C37.373 352 32 357.373 32 364V384H448V364C448 357.373 442.627 352 436 352H400V160H336V352H272V160H208V352H144V160H80Z" fill="#58BE05"/>
</svg>
