<svg width="28" height="28" viewBox="0 0 28 28" fill="none" xmlns="http://www.w3.org/2000/svg">
<g clip-path="url(#clip0_2393_62484)">
<path d="M27.9955 14C27.9955 21.7302 21.728 27.9978 13.9944 27.9989C6.26639 27.9989 -0.0011194 21.7302 6.00241e-07 13.9989C-0.00223939 6.26752 6.26527 0 13.9966 0C21.728 0 27.9955 6.26864 27.9955 14Z" fill="#EAB300"/>
<path d="M19.5047 10.5713C19.3244 8.6964 17.706 8.06807 15.6609 7.88887V5.28711H14.0783V7.81943C13.6628 7.81943 13.2372 7.82727 12.815 7.83623V5.28711H11.2324L11.2313 7.88663C10.8886 7.89335 10.5515 7.90007 10.2233 7.90007V7.89223L8.04043 7.89111V9.58232C8.04043 9.58232 9.2097 9.55992 9.18954 9.5812C9.8313 9.5812 10.0396 9.95304 10.1001 10.2745V13.238C10.1449 13.238 10.202 13.2402 10.267 13.2492H10.1001L10.099 17.4011C10.071 17.6027 9.95226 17.9241 9.50426 17.9252C9.52442 17.9431 8.35403 17.9252 8.35403 17.9252L8.03931 19.8158H10.1001C10.4831 19.8158 10.8606 19.8225 11.2302 19.8247L11.2313 22.4556H12.8127V19.8527C13.2462 19.8617 13.6662 19.8651 14.0772 19.8651L14.0761 22.4556H15.6586V19.8303C18.3197 19.678 20.1845 19.0071 20.4152 16.5073C20.6023 14.4946 19.6559 13.5953 18.145 13.2324C19.0645 12.7665 19.6391 11.9433 19.5047 10.5713ZM17.2893 16.1959C17.2893 18.1615 13.9238 17.9387 12.8497 17.9387V14.4521C13.9238 14.4543 17.2893 14.1463 17.2893 16.1959ZM16.5524 11.278C16.5524 13.0666 13.7434 12.8572 12.8497 12.8583V9.69768C13.7446 9.69768 16.5535 9.4132 16.5524 11.278Z" fill="white"/>
<path d="M10.1023 13.168H10.3375V13.3416H10.1023V13.168Z" fill="white"/>
</g>
<defs>
<clipPath id="clip0_2393_62484">
<rect width="27.9955" height="28" fill="white"/>
</clipPath>
</defs>
</svg>
