<svg width="39" height="39" viewBox="0 0 39 39" fill="none" xmlns="http://www.w3.org/2000/svg">
<path d="M21.375 0.806274V4.59378C29.6062 5.60628 35.4375 13.0875 34.425 21.3188C33.5625 28.1438 28.2 33.5625 21.375 34.3688V38.1188C31.6875 37.0875 39.1875 27.9375 38.1563 17.625C37.3125 8.71878 30.2437 1.68752 21.375 0.806274ZM17.625 0.862524C13.9688 1.21877 10.4812 2.62503 7.63125 4.98753L10.3125 7.76253C12.4125 6.07502 14.9437 4.98752 17.625 4.61252V0.862524ZM4.9875 7.63128C2.6431 10.4763 1.20038 13.9558 0.84375 17.625H4.59375C4.95 14.9625 6 12.4313 7.66875 10.3125L4.9875 7.63128ZM0.8625 21.375C1.2375 25.05 2.68125 28.5188 5.00625 31.3688L7.66875 28.6875C6.01299 26.568 4.95741 24.0424 4.6125 21.375H0.8625ZM10.3125 31.4438L7.63125 34.0125C10.4715 36.3801 13.9486 37.8545 17.625 38.25V34.5C14.9576 34.1551 12.432 33.0995 10.3125 31.4438ZM20.4375 10.125V19.9688L28.875 24.975L27.4688 27.2813L17.625 21.375V10.125H20.4375Z" fill="#5C1F8A"/>
</svg>
