<svg width="31" height="35" viewBox="0 0 31 35" fill="none" xmlns="http://www.w3.org/2000/svg">
<path d="M17.5 33.5C8.66344 33.5 1.5 26.3366 1.5 17.5C1.5 8.66344 8.66344 1.5 17.5 1.5C22.2781 1.5 26.5662 3.59277 29.5 6.91666V28.0833C26.5662 31.4072 22.2781 33.5 17.5 33.5Z" fill="#2A3037" stroke="#2A3037" stroke-width="3"/>
<path fill-rule="evenodd" clip-rule="evenodd" d="M16.4706 9.39226C16.7299 9.1411 17.0817 9.00001 17.4484 9.00001C17.8152 9.00001 18.167 9.1411 18.4263 9.39226L26.7253 17.4307C26.9846 17.6819 27.1302 18.0226 27.1302 18.3779C27.1302 18.7331 26.9846 19.0738 26.7253 19.3251L18.4263 27.3635C18.1655 27.6075 17.8161 27.7426 17.4534 27.7395C17.0908 27.7364 16.7439 27.5955 16.4874 27.3471C16.231 27.0988 16.0855 26.7627 16.0823 26.4115C16.0792 26.0602 16.2186 25.7218 16.4706 25.4691L22.4084 19.7176L6.3832 19.7176C6.01636 19.7176 5.66455 19.5765 5.40516 19.3252C5.14576 19.074 5.00004 18.7332 5.00004 18.3779C5.00004 18.0225 5.14576 17.6818 5.40516 17.4305C5.66455 17.1793 6.01636 17.0381 6.3832 17.0381L22.4084 17.0381L16.4706 11.2866C16.2113 11.0354 16.0656 10.6947 16.0656 10.3395C16.0656 9.9842 16.2113 9.6435 16.4706 9.39226V9.39226Z" fill="white"/>
</svg>
