<svg width="24" height="25" viewBox="0 0 24 25" fill="none" xmlns="http://www.w3.org/2000/svg">
<path d="M17.1667 16.1463C16.4489 16.1463 15.8067 16.4475 15.3156 16.9194L8.58167 12.7527C8.62889 12.5218 8.66667 12.2909 8.66667 12.0499C8.66667 11.809 8.62889 11.578 8.58167 11.3471L15.24 7.22061C15.75 7.72262 16.4206 8.03386 17.1667 8.03386C18.7344 8.03386 20 6.68848 20 5.02181C20 3.35515 18.7344 2.00977 17.1667 2.00977C15.5989 2.00977 14.3333 3.35515 14.3333 5.02181C14.3333 5.26278 14.3711 5.4937 14.4183 5.72463L7.76 9.85113C7.25 9.34912 6.57944 9.03788 5.83333 9.03788C4.26556 9.03788 3 10.3833 3 12.0499C3 13.7166 4.26556 15.062 5.83333 15.062C6.57944 15.062 7.25 14.7507 7.76 14.2487L14.4844 18.4254C14.4372 18.6363 14.4089 18.8572 14.4089 19.078C14.4089 20.6945 15.6461 22.0098 17.1667 22.0098C18.6872 22.0098 19.9244 20.6945 19.9244 19.078C19.9244 17.4616 18.6872 16.1463 17.1667 16.1463Z" fill="white"/>
</svg>
