<svg width="35" height="31" viewBox="0 0 35 31" fill="none" xmlns="http://www.w3.org/2000/svg">
<path d="M34.0234 27.8047H3.78906V0.382812C3.78906 0.189453 3.63086 0.03125 3.4375 0.03125H0.976562C0.783203 0.03125 0.625 0.189453 0.625 0.382812V30.6172C0.625 30.8105 0.783203 30.9688 0.976562 30.9688H34.0234C34.2168 30.9688 34.375 30.8105 34.375 30.6172V28.1562C34.375 27.9629 34.2168 27.8047 34.0234 27.8047ZM8.43848 21.0239C8.57471 21.1602 8.79443 21.1602 8.93506 21.0239L15.0127 14.9771L20.6201 20.6196C20.7563 20.7559 20.9805 20.7559 21.1167 20.6196L33.2192 8.52149C33.3555 8.38525 33.3555 8.16113 33.2192 8.0249L31.479 6.28467C31.4129 6.21924 31.3237 6.18254 31.2307 6.18254C31.1377 6.18254 31.0485 6.21924 30.9824 6.28467L20.875 16.3877L15.2764 10.7539C15.2103 10.6885 15.1211 10.6518 15.0281 10.6518C14.9351 10.6518 14.8459 10.6885 14.7798 10.7539L6.70264 18.7827C6.63721 18.8488 6.60051 18.938 6.60051 19.031C6.60051 19.124 6.63721 19.2132 6.70264 19.2793L8.43848 21.0239Z" fill="#219653"/>
</svg>
