<svg xmlns="http://www.w3.org/2000/svg" viewBox="0 0 191 50">
  <path d="M175.7 32.4c0-.4.3-.8.8-.8.4 0 .8.3.8.8s-.3.8-.8.8-.8-.3-.8-.8m.1 0c0 .3.3.6.7.6.3 0 .6-.3.6-.6s-.3-.6-.6-.6c-.4 0-.7.3-.7.6" class="red"></path>
  <path d="M176.8 32.9h-.2l-.3-.4h-.2v.4h-.1V32h.4l.2.1.1.2c0 .2-.1.2-.3.2l.4.4zm-.4-.5.3-.1-.2-.1h-.2v.3h.1zm-3.7.8a73.4 73.4 0 0 1 17.4-10.9l-2.8-1.7a63.4 63.4 0 0 0-17.5 10.3l2.9 2.3z" class="red"></path>
  <path d="m170.2 20.5-2.4-1.1c-2.1 1-4.7 2.6-8.1 5l2.3 1.3c2.7-1.9 5.3-3.7 8.2-5.2z" class="blue"></path>
  <path d="M175.1 18.2c-1-.5-4.4-1.8-6.8-2.4l-2.4.9c.9.2 4.1 1.1 6.8 2.5l2.4-1z" class="red"></path>
  <path d="M163.5 17.9c-3 1.4-6.2 3.3-8 4.5l2.1.9c3.9-2.6 6.9-4.2 8.1-4.7l-2.2-.7z" class="blue"></path>
  <path d="m177.4 17.4 2.2-.7c-2-.9-4.6-1.8-6.9-2.3l-2.2.6c.8.3 3.4.9 6.9 2.4zm-12.8 9.8 2.6 1.7a57.7 57.7 0 0 1 17.5-9.8l-2.6-1.3c-3.8 1-10.1 3.6-17.5 9.4z" class="red"></path>
  <path d="M2.7 31.8h4.2c2.1 0 3.1-1.1 3.1-2.6 0-1.2-.7-2.1-2-2.3 1.2-.3 1.7-1 1.7-2.1 0-1.4-1-2.4-3.1-2.4H2.7v9.4zm3.6-4c.8 0 1.3.4 1.3 1.2 0 .8-.5 1.2-1.3 1.2H4.9v-2.4h1.4zM6 24c.8 0 1.3.3 1.3 1.1s-.5 1.1-1.3 1.1H4.9V24H6zm12.3-1.7H16l-3.6 9.5h2.4l.7-2h3.4l.7 2H22l-3.7-9.5zm-1.1 2.3 1.1 3.5H16l1.2-3.5zm16.6-2.3h-2.2v6.4l-4.1-6.4h-2.4v9.5h2.2v-6.4l4.1 6.4h2.4v-9.5zm10 9.5L40.6 27v4.8h-2.3v-9.5h2.3v4.6l3-4.6h2.6l-3.1 4.6 3.4 4.9h-2.7zm10.9-4.7c0 1.9 1.1 3.1 2.6 3.1s2.6-1.2 2.6-3.1c0-1.9-1.1-3.1-2.6-3.1s-2.6 1.2-2.6 3.1zm-2.5 0c0-2.8 2-5 5.1-5 3.1 0 5.1 2.2 5.1 5s-2 5-5.1 5c-3.1 0-5-2.2-5.1-5zm13.4 4.7h2.3v-3.7h3v-1.8h-3v-2.1h3.6l.4-1.8h-6.4l.1 9.4zm17.1-9.5h-2.3l-3.6 9.5h2.4l.7-2h3.4l.7 2h2.4l-3.7-9.5zm-1.1 2.3 1.1 3.5h-2.3l1.2-3.5zm18.5-2.3h-2.7l-2.5 5.2-2.5-5.2h-2.7v9.5h2.1v-6.4l3.1 6.4 3.1-6.4v6.4h2.2l-.1-9.5zm4.5 9.5h6.5V30h-4.2v-2.1h3.3v-1.8h-3.3v-2h3.8l.4-1.8h-6.6v9.5zm15.3 0h2.5l-2.4-4c1.3-.4 1.9-1.3 1.9-2.6 0-1.7-1-2.9-3.4-2.9h-3.7v9.5h2.3v-3.7h.6l2.2 3.7zm-1.7-7.7c1 0 1.5.4 1.5 1.2s-.5 1.2-1.5 1.2h-1v-2.4h1zm7.7 7.7h2.3v-9.5h-2.3v9.5zm13.7-2.5c-.9.6-1.7.8-2.5.8-1.8 0-3-1.2-3-3s1.2-3 2.9-3c.8 0 1.6.2 2.4.8v-2.2a6 6 0 0 0-2.7-.6 5 5 0 0 0-5.2 5c0 2.8 2 5 5.2 5a6 6 0 0 0 2.8-.6l.1-2.2zm8.5-7h-2.3l-3.6 9.5h2.4l.7-2h3.4l.7 2h2.4l-3.7-9.5zm-1.2 2.3 1.1 3.5h-2.3l1.2-3.5z" class="blue"></path>
</svg>