<svg xmlns="http://www.w3.org/2000/svg" version="1" viewBox="0 0 298.72 56.52">
  <path fill="#117aca" d="M261.93.28a1.94 1.94 0 0 0-1.94 1.94v13.6h35.94L279.56.28h-17.63m35.31 19.66A1.93 1.93 0 0 0 295.3 18h-13.6v35.94l15.54-16.38V19.94m-19.66 35.3c1.07 0 1.94-.87 1.94-1.94V39.7h-35.94l16.37 15.54h17.63m-35.32-19.66c0 1.08.87 1.95 1.95 1.95h13.6V1.58l-15.55 16.37v17.63" class="logo"></path>
  <path fill="#211e1e" d="M77.52 6.84v16.6H54.4V6.84l-8.43-.01v41.85h8.43V30.7h23.12v17.98h8.44V6.84h-8.44m112.05 0v41.83h36.95l-4.68-7.36H198V30.7h23.07v-7.1H198v-9.58h23.79l4.58-7.2h-36.81m-174.9 0c-8.77 0-13.2 5.32-13.2 13.07v15.63c0 8.96 5.71 13.15 13.15 13.15h26.43l-4.9-7.65h-19.9c-4.22 0-6.06-1.53-6.06-6.26V20.6c0-4.58 1.55-6.36 6.18-6.36h19.99l4.7-7.41h-26.4m137.95-.01c-5.06 0-10.25 3.04-10.25 10.86v2.01c0 8.15 4.99 11.27 9.98 11.29h17.53c1.82 0 3.3.3 3.3 3.38v3.55c-.05 2.76-1.43 3.4-3.37 3.4h-23.05l-4.72 7.36h28.32c6.83 0 11.46-3.4 11.46-11.24v-2.89c0-7.58-4.3-11.17-10.98-11.17h-16.74c-1.85 0-3.14-.5-3.14-3.25v-2.9c0-2.34.88-3.2 3.04-3.2h21.96l4.59-7.21H152.6m-42.18.03L90.58 48.68h9.38l3.87-8.64h21.56l3.85 8.64h9.42L118.77 6.84h-8.34zm4.16 8.68 7.62 17.4H107l7.58-17.4" class="text"></path>
</svg>