<svg xmlns="http://www.w3.org/2000/svg" viewBox="0 0 300 194.955">
  <path d="m92.13 156.05-.53.51c-8.53 8.7-18.41 13.3-28.59 13.3-21.24 0-36.67-15.93-36.67-37.93 0-21.95 15.43-37.9 36.67-37.9 10.18 0 20.06 4.62 28.6 13.34l.52.53 13.66-16.53-.36-.44c-11.37-13.43-25-19.97-41.76-19.97-16.82 0-32.2 5.66-43.27 15.87C8.36 97.9 2 113.47 2 131.93c0 18.45 6.36 34.08 18.4 45.14 11.08 10.26 26.45 15.89 43.27 15.89 16.76 0 30.4-6.54 41.76-19.97l.36-.42-13.66-16.52zm27.47 34.66h24.14V72.88H119.6V190.7zm118.69-25.62c-6.44 3.92-12.44 5.89-17.82 5.89-7.8 0-11.32-4.12-11.32-13.29V95.17h24.58V72.98h-24.58V36.32l-23.66 12.66v24h-20.41v22.2h20.41v66.5c0 18.12 10.73 30.5 26.76 30.82 10.88.22 17.44-3.03 21.42-5.4l.23-.17 5.81-22.72-1.42.87zm19.99 25.62h24.15V72.88h-24.15V190.7z" class="text"></path>
  <path fill-rule="evenodd" d="M296.89 51.97C274.79 20.67 238.09 2 200.76 2c-37.31 0-74.02 18.67-96.07 49.97l-1.14 1.61h27.83l.3-.33c18.94-19.55 43.66-29.88 69.08-29.88 25.43 0 50.15 10.33 69.12 29.88l.3.33H298l-1.11-1.61z" class="curve"></path>
</svg>