<svg xmlns="http://www.w3.org/2000/svg" viewBox="0 0 211 22">
  <path d="M45.11 14.17h2.06V21H30v-2.49h2.43V3.48h-3.94l-5 17.52H19.5L15.46 6.49 11.29 21H7.3l-5-17.52H0V1h9.31v2.48H6.63l3.34 12.06 4-14.54h4.12l4.08 14.57 3.29-12.09h-2.8V1h24.22v6.49h-2.06l-.2-.78c-.62-2.4-1.28-3.22-3.2-3.22h-4.74V9.5h5.74c.22.43.33.9.32 1.38a3 3 0 0 1-.32 1.42h-5.74v6.2h4.94c1.86 0 2.7-.8 3.26-3.34l.23-1zm18.06 1c-.57 2.54-1.37 3.34-3.26 3.34h-3.97V3.48h2.71V1h-9.4v2.48h2.43v15.04h-2.43V21h16.2v-6.83H63.4l-.23 1zm18 0c-.58 2.54-1.37 3.34-3.26 3.34h-3.97V3.48h2.71V1h-9.4v2.48h2.43v15.04h-2.43V21h16.2v-6.83H81.4l-.22 1zm15.05-5.88-3.63-.83c-2.11-.49-3-1.32-3-2.72C89.6 4.06 90.94 3 93.56 3c2.63 0 4.18.94 4.78 3.17l.25.97h2.06V2.2A16 16 0 0 0 93.39.43c-4.88 0-8.03 2.34-8.03 6.11 0 2.92 1.83 5.06 5.35 5.83l3.63.8c2.31.51 3.17 1.43 3.17 2.94 0 1.86-1.4 2.89-4.2 2.89-3.17 0-4.8-1.26-5.52-3.66l-.37-1.23h-2.06v5.6a17.78 17.78 0 0 0 8.43 1.86c4.8 0 7.95-2.4 7.95-6.14 0-3.15-1.92-5.32-5.52-6.15zm27.54-5.8c1.92 0 2.57.82 3.2 3.22l.2.78h2.06V1h-17.23v2.48h2.43v15.04h-2.43V21h9.54v-2.49h-2.85v-5.83h5.88a3 3 0 0 0 .32-1.42 2.85 2.85 0 0 0-.32-1.37h-5.88v-6.4h5.08zm43.54 15.25c.34.75.34 1.6 0 2.35-.74.1-1.48.14-2.23.14-2.77 0-4.11-1.14-4.43-3.8l-.11-1c-.34-2.89-1.29-4-4.43-4h-1.57v6.08h2.71V21h-17.97v-2.49h2.35l-1.32-3.57h-7.43l-1.31 3.57h2.4V21h-7.57v-2.49h2l7-17.51h3.8l7.14 17.51h3.94V3.48h-2.43V1h11.49c4.09 0 6.74 2.03 6.74 5.29 0 3.22-2.65 4.94-5.23 5.05v.09c2.6.2 3.66 1.66 3.92 3.91l.11 1.06c.17 1.66.52 2.4 1.83 2.4.2 0 .4-.02.6-.06zm-27.91-6.23-2.8-7.57-2.8 7.57h5.6zm22.37-5.82c0-2.09-1.29-3.2-3.86-3.2h-3.37V9.9h3.37c2.54 0 3.86-1.17 3.86-3.22zm17.06 5.2c-.02.48.1.96.32 1.4h3.4v5.05a8.75 8.75 0 0 1-3.38.66c-4.11 0-6.25-2.94-6.25-8.03 0-5.08 2.14-8.03 6.02-8.03a4.96 4.96 0 0 1 5 3.52l.32.8h2.06V2.14a16.72 16.72 0 0 0-7.58-1.77c-6.28 0-10.5 4.2-10.5 10.63 0 6.46 4.1 10.57 10.5 10.57a18 18 0 0 0 8-2.11v-8.92h-7.6c-.22.42-.32.88-.3 1.35zm31.8-.92a10.63 10.63 0 0 1-21.25 0 10.63 10.63 0 0 1 21.26 0zm-4.68 0c0-5.06-2.08-8-5.94-8-3.86 0-5.95 2.94-5.95 8 0 5.09 2.06 8 5.95 8 3.88 0 5.94-2.91 5.94-8z" class="text"></path>
</svg>