<?xml version="1.0" standalone="no"?>
<!DOCTYPE svg PUBLIC "-//W3C//DTD SVG 20010904//EN"
 "http://www.w3.org/TR/2001/REC-SVG-20010904/DTD/svg10.dtd">
<svg version="1.0" xmlns="http://www.w3.org/2000/svg"
 width="320.000000pt" height="320.000000pt" viewBox="0 0 320.000000 320.000000"
 preserveAspectRatio="xMidYMid meet">
<metadata>
Created by potrace 1.14, written by Peter Selinger 2001-2017
</metadata>
<g transform="translate(0.000000,320.000000) scale(0.100000,-0.100000)"
fill="#000000" stroke="none">
<path d="M1400 3193 c-77 -10 -268 -56 -342 -84 -211 -78 -403 -197 -560 -348
-248 -238 -394 -498 -470 -838 -19 -85 -22 -129 -22 -323 0 -212 1 -232 28
-344 70 -299 204 -549 405 -758 238 -248 498 -394 838 -470 85 -19 129 -22
323 -22 212 0 232 1 344 28 299 70 549 204 758 405 248 238 394 498 470 838
19 85 22 129 22 323 0 212 -1 232 -28 344 -70 299 -204 549 -405 758 -238 249
-503 397 -838 469 -77 17 -139 22 -293 24 -107 2 -211 1 -230 -2z m1080 -808
c21 -11 31 -25 36 -50 3 -19 4 -196 1 -392 -5 -388 -7 -407 -67 -563 -76 -196
-248 -383 -445 -482 -80 -41 -204 -76 -308 -87 -53 -6 -209 -11 -346 -11 -214
0 -252 2 -265 16 -23 22 -20 39 14 78 l30 34 298 4 c288 5 300 6 387 32 228
69 390 205 490 411 75 156 79 184 80 560 l0 330 -400 3 c-443 3 -522 -3 -650
-49 -203 -74 -347 -203 -440 -394 -73 -151 -77 -179 -82 -527 -3 -170 -1 -308
4 -308 4 0 150 142 323 315 l315 315 115 0 115 0 180 180 180 181 60 -3 c55
-3 60 -5 63 -27 3 -20 -35 -63 -215 -243 l-218 -218 -115 0 -115 0 -345 -345
c-313 -312 -349 -345 -378 -345 -53 0 -90 25 -98 65 -3 19 -4 196 -1 392 5
391 10 429 67 567 130 312 414 527 749 566 36 4 265 8 509 9 376 1 447 -1 472
-14z"/>
</g>
</svg>
