<svg width="70" height="70" viewBox="0 0 70 70" fill="none" xmlns="http://www.w3.org/2000/svg">
<path d="M4.375 35C4.375 18.0863 18.0863 4.375 35 4.375C51.9137 4.375 65.625 18.0863 65.625 35C65.625 51.9137 51.9137 65.625 35 65.625C18.0863 65.625 4.375 51.9137 4.375 35Z" fill="#172A73"/>
<path d="M12.1943 21.3164V22.6196L16.9586 23.3697C20.3343 23.9012 23.0551 26.4386 23.8416 29.7889L29.4187 53.5446C29.5567 54.1325 30.0777 54.5478 30.6773 54.5478H38.5035C39.0198 54.5478 39.4866 54.2384 39.6911 53.7608L53.1913 22.2261C53.3754 21.796 53.0624 21.3164 52.5975 21.3164H45.3868C44.8661 21.3164 44.3962 21.631 44.1945 22.1147L35.1508 43.7965L31.5432 24.5021C31.1977 22.6546 29.5961 21.3164 27.7303 21.3164H12.1943Z" fill="white"/>
</svg>
