<svg width="70" height="70" viewBox="0 0 70 70" fill="none" xmlns="http://www.w3.org/2000/svg">
<path d="M54.3561 21.0377C55.0378 16.5926 54.3561 13.6291 51.9699 10.8937C49.3564 7.81626 44.584 6.5625 38.448 6.5625H20.8356C19.5857 6.5625 18.563 7.47432 18.3358 8.72808L10.9499 55.459C10.8363 56.3709 11.518 57.1687 12.4271 57.1687H23.3354L22.54 61.9558C22.4264 62.7536 22.9945 63.4375 23.9036 63.4375H33.1075C34.2438 63.4375 35.1528 62.6397 35.2664 61.6139L37.1981 49.5322C37.3118 48.5064 38.3344 47.7085 39.3571 47.7085H40.7206C49.5837 47.7085 56.6286 44.0612 58.6739 33.5753C59.4693 29.2441 59.1285 25.4828 56.8559 22.9753C56.1741 22.1775 55.3787 21.6076 54.3561 21.0377Z" fill="#009CDE"/>
<path d="M54.3561 21.0377C55.0378 16.5926 54.3561 13.6291 51.9699 10.8937C49.3564 7.81626 44.584 6.5625 38.448 6.5625H20.8356C19.5857 6.5625 18.563 7.47432 18.3358 8.72808L10.9499 55.459C10.8363 56.3709 11.518 57.1687 12.4271 57.1687H23.3354L25.9489 40.3C26.1761 39.0462 27.1988 38.1344 28.4487 38.1344H33.6756C43.9022 38.1344 51.8562 34.0312 54.1288 21.9495C54.2424 21.7216 54.2424 21.3796 54.3561 21.0377Z" fill="#012169"/>
<path d="M29.0169 21.1517C29.1305 20.3538 30.1531 19.328 31.1758 19.328H45.0385C46.6293 19.328 48.2201 19.442 49.5836 19.67C50.8336 19.8979 53.1061 20.4678 54.2424 21.1517C54.9242 16.7065 54.2424 13.7431 51.8562 11.0076C49.3564 7.81626 44.584 6.5625 38.448 6.5625H20.8356C19.5857 6.5625 18.563 7.47432 18.3358 8.72808L10.9499 55.459C10.8363 56.3709 11.518 57.1687 12.4271 57.1687H23.3354L29.0169 21.1517Z" fill="#003087"/>
</svg>
