<svg width="400" height="400" viewBox="0 0 400 400" fill="none" xmlns="http://www.w3.org/2000/svg">
<circle cx="200" cy="200" r="200" fill="#ECF9F0"/>
<path d="M368.805 104.132H255.606V190.96H368.805V104.132Z" fill="#E0E0E0"/>
<path d="M373.041 195.291C373.041 194.343 372.999 157.393 372.93 99.7956L373.041 99.9121H251.376L251.514 99.7744C251.514 134.22 251.514 166.786 251.514 195.269L251.392 195.148L373.041 195.291L251.365 195.418H251.27V195.291C251.27 166.807 251.27 134.241 251.27 99.7956V99.658H251.418L373.083 99.6844H373.2V99.7956C373.089 157.393 373.041 194.343 373.041 195.291Z" fill="#E0E0E0"/>
<path d="M315.125 102.506H312.192V190.976H315.125V102.506Z" fill="white"/>
<path d="M255.606 146.291V149.288H368.805V146.291H255.606Z" fill="white"/>
<path d="M292.211 135.813C289.925 135.819 287.683 135.183 285.74 133.978C283.798 132.774 282.232 131.048 281.221 128.997C280.21 126.947 279.794 124.654 280.022 122.379C280.249 120.104 281.11 117.939 282.507 116.129C281.13 117.19 279.996 118.533 279.18 120.068C278.363 121.603 277.884 123.294 277.774 125.029C277.663 126.764 277.924 128.502 278.539 130.128C279.154 131.754 280.109 133.23 281.34 134.458C282.571 135.685 284.05 136.636 285.677 137.247C287.305 137.857 289.044 138.113 290.779 137.998C292.513 137.883 294.203 137.399 295.736 136.578C297.268 135.758 298.608 134.62 299.666 133.24C297.535 134.901 294.913 135.806 292.211 135.813Z" fill="#FAFAFA"/>
<path d="M347.008 136.946L347.575 137.259L347.003 137.566C346.707 137.73 346.463 137.974 346.299 138.27L345.981 138.837L345.674 138.27C345.512 137.971 345.268 137.725 344.97 137.561L344.403 137.248L344.98 136.946C345.279 136.786 345.525 136.544 345.69 136.248L346.002 135.676L346.309 136.248C346.473 136.541 346.715 136.783 347.008 136.946Z" fill="#FAFAFA"/>
<path d="M280.357 165.499L280.924 165.812L280.352 166.124C280.053 166.284 279.807 166.527 279.642 166.823L279.33 167.389L279.023 166.823C278.861 166.524 278.617 166.278 278.319 166.113L277.742 165.801L278.314 165.489C278.611 165.328 278.855 165.086 279.018 164.79L279.335 164.218L279.642 164.79C279.807 165.09 280.056 165.336 280.357 165.499Z" fill="#FAFAFA"/>
<path d="M299.237 158.082L299.459 158.209L299.237 158.33C299.119 158.394 299.022 158.489 298.956 158.606L298.835 158.828L298.713 158.606C298.646 158.489 298.549 158.392 298.432 158.325L298.21 158.203L298.432 158.082C298.55 158.016 298.648 157.919 298.713 157.801L298.84 157.579L298.962 157.801C299.024 157.92 299.119 158.018 299.237 158.082Z" fill="#FAFAFA"/>
<path d="M338.061 170.868L338.283 170.989L338.061 171.111C337.941 171.175 337.844 171.272 337.78 171.392L337.653 171.614L337.531 171.392C337.47 171.273 337.374 171.175 337.256 171.111L337.028 170.984L337.256 170.862C337.374 170.799 337.471 170.703 337.537 170.587L337.658 170.359L337.78 170.587C337.845 170.705 337.943 170.802 338.061 170.868Z" fill="#FAFAFA"/>
<path d="M304.743 135.686L304.971 135.808L304.743 135.93C304.626 135.997 304.529 136.093 304.462 136.21L304.341 136.433L304.219 136.21C304.155 136.091 304.057 135.994 303.938 135.93L303.716 135.803L303.938 135.681C304.057 135.619 304.155 135.523 304.219 135.406L304.346 135.183L304.468 135.406C304.531 135.523 304.626 135.621 304.743 135.686Z" fill="#FAFAFA"/>
<path d="M375.254 123.806H247.108V127.083H375.254V123.806Z" fill="#F5F5F5"/>
<path d="M375.254 117.595H247.108V120.873H375.254V117.595Z" fill="#F5F5F5"/>
<path d="M375.254 111.385H247.108V114.662H375.254V111.385Z" fill="#F5F5F5"/>
<path d="M375.254 105.169H247.108V108.447H375.254V105.169Z" fill="#F5F5F5"/>
<path d="M375.254 98.9591H247.108V102.236H375.254V98.9591Z" fill="#F5F5F5"/>
<path d="M81.2245 240.335V248.494H46.1597C45.6239 248.494 45.0933 248.388 44.5984 248.183C44.1034 247.978 43.6538 247.677 43.2752 247.298C42.8965 246.919 42.5964 246.469 42.3918 245.974C42.1872 245.479 42.0823 244.948 42.083 244.412C42.083 243.331 42.5125 242.294 43.277 241.529C44.0416 240.765 45.0785 240.335 46.1597 240.335" fill="#E0E0E0"/>
<path d="M68.2322 242.045H81.2246V246.784H68.2322C67.9865 246.784 67.7508 246.686 67.577 246.513C67.4033 246.339 67.3057 246.103 67.3057 245.857V242.972C67.3057 242.726 67.4033 242.491 67.577 242.317C67.7508 242.143 67.9865 242.045 68.2322 242.045Z" fill="#FAFAFA"/>
<path d="M81.2245 232.182V240.335H46.1597C45.6241 240.336 45.0937 240.231 44.5988 240.026C44.1039 239.822 43.6542 239.521 43.2755 239.143C42.8968 238.764 42.5965 238.314 42.3919 237.819C42.1873 237.325 42.0823 236.794 42.083 236.259C42.083 235.177 42.5125 234.14 43.277 233.376C44.0416 232.611 45.0785 232.182 46.1597 232.182H81.2245Z" fill="#F5F5F5"/>
<path d="M68.2322 233.892H81.2246V238.631H68.2322C67.9865 238.631 67.7508 238.533 67.577 238.359C67.4033 238.185 67.3057 237.95 67.3057 237.704V234.819C67.3057 234.573 67.4033 234.337 67.577 234.163C67.7508 233.99 67.9865 233.892 68.2322 233.892Z" fill="#E0E0E0"/>
<path d="M40.791 286.312H36.6455V302.783H40.791V286.312Z" fill="#EBEBEB"/>
<path d="M93.084 286.312H88.9385V302.783H93.084V286.312Z" fill="#EBEBEB"/>
<path d="M93.1579 248.33H36.6455V286.312H93.1579V248.33Z" fill="#EBEBEB"/>
<path d="M87.8156 266.315C87.8156 266.315 87.8156 266.241 87.8156 266.103C87.8156 265.965 87.8156 265.748 87.8156 265.484C87.8156 264.954 87.8156 264.139 87.7892 263.112C87.7892 261.042 87.7627 258.034 87.7415 254.238L87.8315 254.328L42.3474 254.387L42.4956 254.238V266.31L42.3474 266.161L74.7914 266.23L84.3478 266.272H86.9262H87.5986H87.8315C87.7593 266.278 87.6867 266.278 87.6145 266.272H86.9632H84.4166L74.8867 266.315L42.3421 266.384H42.1938V266.235C42.1938 264.294 42.1938 262.314 42.1938 260.295V254.244L42.3474 254.09L87.8315 254.148H87.9268V254.244C87.9268 258.066 87.8845 261.089 87.8739 263.175C87.8739 264.192 87.8739 264.981 87.8739 265.526C87.8739 265.78 87.8739 265.976 87.8739 266.124C87.8596 266.189 87.8401 266.253 87.8156 266.315Z" fill="#E0E0E0"/>
<path d="M67.0672 260.274C67.0682 260.669 66.9519 261.056 66.733 261.385C66.5141 261.714 66.2024 261.971 65.8375 262.122C65.4725 262.274 65.0708 262.314 64.6831 262.237C64.2954 262.16 63.9393 261.97 63.6598 261.691C63.3803 261.411 63.1901 261.055 63.1133 260.667C63.0364 260.28 63.0764 259.878 63.2281 259.513C63.3799 259.148 63.6365 258.836 63.9656 258.618C64.2946 258.399 64.6813 258.282 65.0765 258.283C65.604 258.285 66.1095 258.495 66.4826 258.868C66.8556 259.241 67.0658 259.746 67.0672 260.274Z" fill="#E0E0E0"/>
<path d="M87.8159 280.721C87.8159 280.721 87.8159 280.647 87.8159 280.504C87.8159 280.361 87.8159 280.154 87.8159 279.89C87.8159 279.36 87.8159 278.545 87.7894 277.518C87.7894 275.448 87.763 272.441 87.7418 268.644L87.8318 268.734L42.3318 268.777L42.48 268.629V280.7L42.3318 280.552L74.7758 280.62L84.3322 280.663H86.9106H87.5829H87.8159C87.7436 280.668 87.6711 280.668 87.5988 280.663H86.9476H84.401L74.8711 280.705L42.3265 280.774H42.1782V280.626C42.1782 278.681 42.1782 276.701 42.1782 274.685V268.65L42.3318 268.496L87.8159 268.554H87.9112V268.65C87.9112 272.467 87.8688 275.495 87.8583 277.581C87.8583 278.598 87.8583 279.381 87.8583 279.932C87.8583 280.186 87.8583 280.382 87.8583 280.53C87.8491 280.595 87.8349 280.659 87.8159 280.721Z" fill="#E0E0E0"/>
<path d="M67.0672 274.68C67.0682 275.075 66.9519 275.462 66.733 275.791C66.5141 276.12 66.2024 276.377 65.8375 276.528C65.4725 276.68 65.0708 276.72 64.6831 276.643C64.2954 276.566 63.9393 276.376 63.6598 276.097C63.3803 275.817 63.1901 275.461 63.1133 275.073C63.0364 274.686 63.0764 274.284 63.2281 273.919C63.3799 273.554 63.6365 273.242 63.9656 273.024C64.2946 272.805 64.6813 272.688 65.0765 272.689C65.6044 272.689 66.1108 272.899 66.4841 273.272C66.8574 273.646 67.0672 274.152 67.0672 274.68Z" fill="#E0E0E0"/>
<path d="M124.141 284.236V302.788H151.264H181.177V284.236H124.141Z" fill="#F5F5F5"/>
<path d="M121.748 279.053V284.236H183.173V279.053H151.264H121.748Z" fill="#E0E0E0"/>
<path d="M152.461 302.788H181.177V284.236H183.173V279.053H151.264V283.76L152.461 302.788Z" fill="#E0E0E0"/>
<path d="M143.688 287.228H132.12V290.018H143.688V287.228Z" fill="#E0E0E0"/>
<path d="M145.483 293.512H130.632V299.405H145.483V293.512Z" fill="white"/>
<path d="M363.315 302.788C363.315 302.862 288.495 302.926 196.219 302.926C103.943 302.926 29.1011 302.862 29.1011 302.788C29.1011 302.714 103.906 302.661 196.208 302.661C288.51 302.661 363.315 302.709 363.315 302.788Z" fill="#263238"/>
<path d="M304.95 259.109H105.457V238.451L304.727 237.858L304.95 259.109Z" fill="#F5F5F5"/>
<path d="M304.743 249.362C304.743 249.442 259.894 249.5 204.578 249.5C149.262 249.5 104.408 249.442 104.408 249.362C104.408 249.283 149.246 249.225 204.578 249.225C259.91 249.225 304.743 249.288 304.743 249.362Z" fill="#263238"/>
<path d="M105.044 239.017C107.116 241.973 109.994 244.272 113.336 245.637C116.678 247.003 120.342 247.379 123.892 246.72C127.55 245.979 130.981 244.126 134.708 243.898C139.203 243.634 143.566 245.767 148.066 245.598C150.299 245.493 152.469 244.829 154.379 243.668C156.289 242.508 157.877 240.887 158.999 238.953C155.822 236.041 152.551 233.13 148.537 231.615C144.72 230.186 140.543 230.149 136.471 230.128C131.368 230.101 126.608 228.921 121.51 228.921C115.474 228.921 107.935 229.424 105.044 239.017Z" fill="#455A64"/>
<path d="M155.828 238.069C155.795 238.099 155.759 238.126 155.722 238.149L155.393 238.371C155.102 238.567 154.663 238.837 154.086 239.16C152.453 240.082 150.709 240.794 148.897 241.278C147.641 241.611 146.348 241.789 145.048 241.807C143.563 241.755 142.083 241.592 140.622 241.32C137.546 240.87 134.099 240.293 130.563 240.881C128.848 241.226 127.161 241.7 125.517 242.299C123.967 242.857 122.354 243.223 120.715 243.39C117.925 243.543 115.132 243.132 112.504 242.183C110.736 241.575 109.004 240.868 107.315 240.065L105.944 239.403L105.589 239.223C105.51 239.181 105.467 239.16 105.473 239.155L105.6 239.197L105.965 239.356L107.357 239.965C109.059 240.731 110.797 241.411 112.567 242.003C115.174 242.916 117.936 243.303 120.694 243.141C122.311 242.969 123.902 242.603 125.432 242.051C127.089 241.441 128.79 240.959 130.52 240.611C137.795 239.472 144.222 242.818 148.865 241.098C150.669 240.631 152.409 239.948 154.049 239.065C154.636 238.757 155.108 238.503 155.378 238.323L155.722 238.127L155.828 238.069Z" fill="#263238"/>
<path d="M309.122 206.081H306.787C306.24 206.081 305.717 206.298 305.33 206.684C304.944 207.07 304.727 207.594 304.727 208.14V259.109H105.457V208.14C105.457 207.594 105.24 207.07 104.854 206.684C104.467 206.298 103.943 206.081 103.397 206.081H101.057C100.512 206.082 99.9894 206.3 99.6043 206.686C99.2192 207.072 99.0029 207.595 99.0029 208.14V302.788H105.457V272.859H304.743V302.788H311.197V208.834C311.181 207.002 310.26 206.081 309.122 206.081Z" fill="#263238"/>
<path d="M198.463 212.058L174.136 214.319L157.951 213.233C155.779 213.089 153.605 213.461 151.605 214.318C149.604 215.174 147.835 216.492 146.441 218.162L142.512 222.864L150.84 237.916L208.888 237.789L198.463 212.058Z" fill="#5EB355"/>
<path d="M154.382 227.878L123.918 225.426C123.062 225.314 122.192 225.386 121.366 225.637C120.54 225.887 119.777 226.312 119.128 226.881C118.479 227.45 117.959 228.152 117.603 228.938C117.247 229.724 117.062 230.577 117.062 231.441C117.061 233.022 117.678 234.541 118.781 235.674C119.883 236.807 121.385 237.465 122.965 237.508L150.814 237.916L154.382 227.878Z" fill="#5EB355"/>
<path d="M126.55 214.652C126.602 213.889 126.808 213.145 127.156 212.465C127.504 211.784 127.986 211.181 128.573 210.691C129.161 210.202 129.841 209.837 130.573 209.618C131.306 209.398 132.075 209.33 132.834 209.416C136.392 209.818 140.712 210.443 143.264 211.327C148.341 213.074 148.352 217.151 148.352 217.257L151.995 217.707C153.181 217.831 154.296 218.336 155.171 219.147C155.766 219.697 156.195 220.403 156.41 221.184C156.626 221.965 156.618 222.791 156.389 223.568C155.547 226.999 149.575 228.036 149.559 228.042L127.471 225.961L125.771 225.696L126.55 214.652Z" fill="#FFBE9D"/>
<path d="M134.793 213.641C134.714 213.546 135.175 213.085 135.28 212.354C135.386 211.624 135.095 211.031 135.201 210.962C135.307 210.893 135.392 211.041 135.529 211.301C135.701 211.65 135.761 212.044 135.699 212.429C135.645 212.809 135.471 213.161 135.201 213.434C134.995 213.636 134.82 213.715 134.793 213.641Z" fill="#263238"/>
<path d="M133.448 220.502C133.374 220.402 133.845 219.973 133.978 219.232C134.11 218.491 133.835 217.903 133.941 217.839C134.047 217.776 134.126 217.919 134.258 218.183C134.421 218.538 134.469 218.934 134.396 219.316C134.33 219.696 134.144 220.045 133.867 220.312C133.649 220.502 133.48 220.55 133.448 220.502Z" fill="#263238"/>
<path d="M139.643 216.24C139.594 215.834 139.594 215.424 139.643 215.017C139.643 214.827 139.643 214.647 139.532 214.594C139.346 214.534 139.146 214.534 138.96 214.594L137.446 214.89C136.155 215.187 134.843 215.382 133.522 215.473C134.785 215.073 136.077 214.774 137.387 214.578L138.907 214.303C139.152 214.226 139.416 214.238 139.653 214.334C139.715 214.372 139.766 214.424 139.804 214.486C139.842 214.548 139.865 214.617 139.87 214.689C139.884 214.796 139.884 214.905 139.87 215.012C139.849 215.43 139.772 215.843 139.643 216.24Z" fill="#263238"/>
<path d="M148.352 217.257C147.949 219.748 146.865 222.079 145.218 223.991C145.218 223.991 149.146 222.779 149.586 217.41L148.352 217.257Z" fill="#EB996E"/>
<path d="M131.67 217.024C131.855 217.13 131.632 217.839 131.585 218.713C131.537 219.587 131.648 220.301 131.452 220.402C131.357 220.439 131.193 220.285 131.05 219.973C130.879 219.56 130.805 219.113 130.833 218.667C130.862 218.221 130.992 217.788 131.214 217.4C131.4 217.109 131.58 216.976 131.67 217.024Z" fill="#263238"/>
<path d="M133.025 210.639C133.168 210.798 132.903 211.269 132.792 211.873C132.681 212.476 132.707 213.006 132.511 213.09C132.416 213.127 132.268 213.016 132.151 212.767C132.008 212.434 131.974 212.063 132.056 211.708C132.123 211.355 132.299 211.031 132.559 210.782C132.771 210.607 132.951 210.57 133.025 210.639Z" fill="#263238"/>
<path d="M126.661 204.063C126.231 203.984 125.786 204.047 125.396 204.243C125.041 204.33 124.733 204.547 124.533 204.852C124.425 205.229 124.461 205.633 124.633 205.985C125.041 207.261 125.03 208.828 124.051 209.75C123.294 210.464 122.102 210.639 121.462 211.46C120.758 212.365 120.996 213.673 121.382 214.753C121.769 215.833 122.267 216.982 121.97 218.088C121.758 218.888 121.165 219.518 120.715 220.206C119.876 221.479 119.578 223.033 119.884 224.526C120.046 225.264 120.385 225.951 120.871 226.529C121.357 227.107 121.976 227.559 122.674 227.846C123.38 228.116 124.148 228.178 124.888 228.025C125.628 227.871 126.307 227.507 126.846 226.978C126.915 226.925 126.973 226.872 127.037 226.813C129.774 227.253 137.096 227.92 137.297 226.665C137.483 225.691 130.219 224.177 130.219 224.177C129.843 221.747 127.445 221.27 127.042 220.598C126.64 219.925 127.625 217.268 129.16 215.092C131.045 212.376 131.204 207.754 131.198 206.144C131.211 206.003 131.211 205.861 131.198 205.721C131.198 205.62 131.198 205.567 131.198 205.567C131.177 205.46 131.141 205.357 131.092 205.26C130.768 204.765 130.269 204.412 129.695 204.27C129.212 204.053 128.681 203.966 128.154 204.016C127.964 204.046 127.783 204.12 127.625 204.231C127.467 204.342 127.337 204.487 127.243 204.656C127.208 204.514 127.136 204.384 127.033 204.28C126.931 204.176 126.802 204.101 126.661 204.063Z" fill="#263238"/>
<path d="M127.836 207.171C127.739 207.131 127.656 207.063 127.598 206.975C127.502 206.856 127.436 206.715 127.406 206.565C127.376 206.415 127.381 206.26 127.423 206.112C127.484 205.916 127.605 205.744 127.77 205.62C127.934 205.497 128.133 205.428 128.339 205.424C128.544 205.42 128.746 205.48 128.915 205.597C129.084 205.714 129.213 205.882 129.281 206.075C129.396 206.405 129.396 206.763 129.281 207.092C129.07 207.822 128.323 208.262 127.608 208.58C127.233 208.734 126.867 208.91 126.512 209.109C126.15 209.314 125.852 209.614 125.649 209.977C125.559 210.17 125.508 210.379 125.5 210.592C125.492 210.805 125.526 211.017 125.602 211.216C125.734 211.65 125.962 212.074 126.131 212.55C126.305 213.044 126.351 213.575 126.264 214.091C126.176 214.611 125.997 215.111 125.734 215.568C125.192 216.433 124.539 217.224 123.791 217.919C123.121 218.557 122.557 219.297 122.118 220.111C121.753 220.855 121.661 221.704 121.859 222.509C122.059 223.38 122.584 224.143 123.327 224.641C124.069 225.14 124.973 225.337 125.856 225.193C126.242 225.128 126.619 225.024 126.984 224.881C126.902 224.945 126.813 224.998 126.719 225.04C126.45 225.163 126.168 225.252 125.877 225.305C125.413 225.392 124.938 225.392 124.474 225.305C123.855 225.183 123.278 224.906 122.796 224.5C122.219 223.991 121.811 223.319 121.626 222.573C121.399 221.713 121.486 220.801 121.869 220C122.315 219.153 122.894 218.384 123.585 217.723C124.31 217.039 124.947 216.267 125.48 215.425C125.733 215 125.912 214.534 126.009 214.049C126.085 213.578 126.046 213.097 125.893 212.646C125.739 212.201 125.517 211.772 125.363 211.301C125.196 210.83 125.223 210.312 125.438 209.861C125.919 208.982 126.835 208.67 127.555 208.357C128.275 208.045 128.942 207.648 129.144 207.028C129.239 206.741 129.239 206.431 129.144 206.144C129.105 206.019 129.037 205.906 128.945 205.814C128.852 205.721 128.739 205.653 128.614 205.615C128.404 205.551 128.177 205.571 127.98 205.669C127.783 205.768 127.631 205.938 127.555 206.144C127.513 206.277 127.501 206.418 127.52 206.557C127.539 206.695 127.589 206.827 127.667 206.944C127.719 207.023 127.775 207.099 127.836 207.171Z" fill="#455A64"/>
<path d="M128.789 205.069C128.789 205.069 128.874 205.069 129.011 205.133C129.208 205.222 129.387 205.346 129.541 205.498C129.792 205.744 129.974 206.05 130.07 206.388C130.2 206.847 130.168 207.336 129.98 207.775C129.722 208.281 129.335 208.711 128.858 209.019C128.622 209.19 128.416 209.399 128.249 209.638C128.171 209.761 128.119 209.897 128.097 210.04C128.074 210.183 128.081 210.329 128.117 210.47C128.206 210.791 128.321 211.104 128.461 211.407C128.589 211.746 128.663 212.103 128.678 212.466C128.678 213.24 128.496 214.003 128.148 214.695C127.465 216.108 126.433 217.183 125.798 218.321C125.154 219.284 124.911 220.459 125.12 221.598C125.216 221.972 125.393 222.32 125.638 222.618C125.883 222.917 126.191 223.158 126.539 223.324C126.806 223.426 127.085 223.491 127.37 223.515C127.297 223.539 127.22 223.549 127.142 223.547C126.922 223.545 126.704 223.505 126.496 223.43C126.115 223.274 125.773 223.034 125.498 222.726C125.223 222.419 125.021 222.053 124.908 221.657C124.654 220.462 124.884 219.214 125.549 218.189C126.195 217.003 127.222 215.923 127.868 214.567C128.19 213.918 128.357 213.202 128.355 212.476C128.346 212.138 128.281 211.804 128.164 211.486C128.056 211.177 127.971 210.86 127.91 210.538C127.868 210.364 127.863 210.183 127.894 210.006C127.925 209.83 127.992 209.661 128.09 209.511C128.274 209.249 128.501 209.02 128.762 208.834C129.217 208.559 129.591 208.17 129.848 207.706C130.029 207.31 130.072 206.864 129.97 206.441C129.886 206.122 129.724 205.829 129.498 205.588C129.288 205.382 129.049 205.207 128.789 205.069Z" fill="#455A64"/>
<path d="M141.903 216.082C141.972 216.082 141.988 216.235 141.935 216.357C141.882 216.479 141.782 216.563 141.713 216.532C141.644 216.5 141.628 216.378 141.681 216.251C141.734 216.124 141.829 216.05 141.903 216.082Z" fill="#263238"/>
<path opacity="0.2" d="M180.696 213.609C179.637 213.853 178.954 214.896 178.758 215.949C178.642 217.01 178.698 218.083 178.922 219.126C179.355 222.072 179.437 225.06 179.165 228.026C178.948 230.361 178.567 232.944 179.917 234.866C180.764 236.079 182.151 236.777 183.48 237.434C184.162 237.755 184.908 237.915 185.662 237.9C186.609 237.9 187.298 237.265 187.869 236.746C188.277 236.375 188.171 235.274 187.806 234.162C185.529 227.258 183.254 220.354 180.981 213.45" fill="black"/>
<path d="M304.446 237.789C306.437 234.972 305.786 230.419 303.89 227.539C301.995 224.659 299.046 222.663 296.176 220.746C290.623 217.04 284.984 213.281 278.673 211.078C270.266 208.145 261.127 208.129 252.243 208.797C243.359 209.464 234.491 210.782 225.591 210.385C218.423 210.067 211.328 208.648 204.154 208.458C196.981 208.267 189.452 209.442 183.708 213.752L193.031 238.768L304.446 237.789Z" fill="#5EB355"/>
<path opacity="0.3" d="M304.446 237.789C306.437 234.972 305.786 230.419 303.89 227.539C301.995 224.659 299.046 222.663 296.176 220.746C290.623 217.04 284.984 213.281 278.673 211.078C270.266 208.145 261.127 208.129 252.243 208.797C243.359 209.464 234.491 210.782 225.591 210.385C218.423 210.067 211.328 208.648 204.154 208.458C196.981 208.267 189.452 209.442 183.708 213.752L193.031 238.768L304.446 237.789Z" fill="black"/>
<path d="M186.355 212.058C186.355 212.058 181.59 212.556 180.87 213.694C180.303 214.589 180.69 216.669 180.87 217.723C181.722 222.779 182.575 227.851 184.073 232.759C184.687 234.766 185.455 236.815 186.953 238.281C188.833 240.124 191.623 240.78 194.249 240.616C196.875 240.452 199.39 239.557 201.868 238.683C203.281 238.186 204.864 237.519 205.351 236.105C205.77 234.877 205.203 233.553 204.621 232.399C202.979 229.117 201.121 225.866 198.469 223.33C196.563 221.508 194.307 220.111 192.195 218.533C190.082 216.955 187.525 214.425 186.371 212.063" fill="#FAFAFA"/>
<path d="M207.109 218.554C207.389 217.639 207.756 216.752 208.205 215.907C208.574 215.032 209.025 214.194 209.55 213.403C209.273 214.319 208.906 215.206 208.454 216.05C208.09 216.927 207.64 217.766 207.109 218.554Z" fill="#FAFAFA"/>
<path d="M217.1 228.635C216.025 228.226 214.982 227.735 213.982 227.168C212.94 226.679 211.94 226.107 210.99 225.458C212.067 225.863 213.11 226.353 214.109 226.925C215.151 227.411 216.152 227.983 217.1 228.635Z" fill="#FAFAFA"/>
<path d="M222.018 216.362C221.179 217.353 220.271 218.283 219.302 219.147C218.398 220.08 217.426 220.945 216.396 221.736C217.235 220.746 218.142 219.815 219.112 218.951C220.016 218.018 220.987 217.153 222.018 216.362Z" fill="#FAFAFA"/>
<path d="M216.152 234.967C215.256 235.061 214.353 235.061 213.457 234.967C212.556 234.963 211.656 234.871 210.773 234.692C211.669 234.597 212.572 234.597 213.468 234.692C214.369 234.695 215.268 234.788 216.152 234.967Z" fill="#FAFAFA"/>
<path d="M229.351 229.312C228.628 230.104 227.84 230.834 226.995 231.494C226.209 232.224 225.36 232.883 224.458 233.463C225.181 232.671 225.969 231.942 226.815 231.282C227.6 230.552 228.449 229.893 229.351 229.312Z" fill="#FAFAFA"/>
<path d="M233.994 222.467C233.957 222.541 232.771 221.937 231.22 221.487C229.668 221.037 228.361 220.836 228.371 220.757C230.367 220.798 232.313 221.389 233.994 222.467Z" fill="#FAFAFA"/>
<path d="M244.986 225.892C244.064 227.454 242.985 228.917 241.767 230.26C242.688 228.698 243.767 227.235 244.986 225.892Z" fill="#FAFAFA"/>
<path d="M238.833 216.86C238.529 216.345 238.307 215.786 238.176 215.203C237.962 214.644 237.83 214.057 237.785 213.461C238.086 213.977 238.308 214.536 238.441 215.118C238.655 215.677 238.787 216.263 238.833 216.86Z" fill="#FAFAFA"/>
<path d="M249.681 214.467C248.938 215.168 248.132 215.799 247.272 216.352C246.465 216.976 245.606 217.53 244.705 218.009C245.449 217.309 246.255 216.678 247.114 216.124C247.921 215.5 248.78 214.946 249.681 214.467Z" fill="#FAFAFA"/>
<path d="M252.562 233.214C253.017 232.368 253.549 231.566 254.15 230.816C254.686 230.011 255.298 229.26 255.976 228.571C255.524 229.421 254.992 230.225 254.388 230.975C253.856 231.78 253.244 232.531 252.562 233.214Z" fill="#FAFAFA"/>
<path d="M263.076 221C262.158 220.676 261.271 220.267 260.429 219.777C259.551 219.37 258.714 218.879 257.93 218.311C258.848 218.637 259.734 219.047 260.577 219.534C261.455 219.941 262.292 220.432 263.076 221Z" fill="#FAFAFA"/>
<path d="M271.886 229.069C271.209 229.825 270.463 230.516 269.657 231.134C268.914 231.825 268.109 232.447 267.253 232.992C267.933 232.236 268.679 231.544 269.482 230.922C270.227 230.235 271.032 229.615 271.886 229.069Z" fill="#FAFAFA"/>
<path d="M274.788 220.037C273.338 218.442 272.029 216.726 270.875 214.906C271.631 215.675 272.322 216.506 272.94 217.389C273.627 218.22 274.245 219.105 274.788 220.037Z" fill="#FAFAFA"/>
<path d="M280.437 224.182C280.981 223.362 281.602 222.594 282.29 221.89C282.91 221.122 283.599 220.413 284.349 219.772C283.802 220.591 283.182 221.358 282.496 222.064C281.874 222.83 281.185 223.539 280.437 224.182Z" fill="#FAFAFA"/>
<path d="M289.659 234.474C289.141 233.857 288.695 233.182 288.33 232.462C287.889 231.786 287.523 231.064 287.24 230.308C287.759 230.926 288.205 231.603 288.569 232.325C289.013 232.997 289.379 233.718 289.659 234.474Z" fill="#FAFAFA"/>
<path d="M297.59 226.39C297.366 227.901 296.961 229.38 296.383 230.795C296.608 229.283 297.013 227.805 297.59 226.39Z" fill="#FAFAFA"/>
<path d="M200.767 212.27C199.985 212.562 199.174 212.766 198.347 212.879C197.539 213.086 196.709 213.2 195.875 213.217C197.465 212.722 199.106 212.404 200.767 212.27Z" fill="#FAFAFA"/>
<path d="M129.409 227.12C129.423 228.839 129.349 230.556 129.186 232.267C129.109 233.981 128.943 235.69 128.689 237.386C128.671 235.67 128.745 233.954 128.911 232.245C128.981 230.529 129.148 228.818 129.409 227.12Z" fill="#FAFAFA"/>
<path d="M137.001 226.951C137.039 228.746 136.986 230.541 136.842 232.33C136.794 234.124 136.651 235.914 136.413 237.693C136.339 237.693 136.413 235.279 136.567 232.314C136.618 230.52 136.763 228.73 137.001 226.951Z" fill="#FAFAFA"/>
<path d="M145.35 227.777C145.394 228.267 145.394 228.759 145.35 229.249C145.313 230.249 145.265 231.457 145.212 232.791C145.16 234.125 145.075 235.438 144.995 236.327C144.98 236.82 144.916 237.309 144.805 237.789C144.759 237.299 144.759 236.806 144.805 236.317C144.847 235.321 144.89 234.114 144.942 232.775C144.995 231.435 145.085 230.128 145.165 229.238C145.176 228.746 145.238 228.256 145.35 227.777Z" fill="#FAFAFA"/>
<path d="M153.609 226.887C153.65 228.708 153.597 230.53 153.45 232.346C153.399 234.166 153.254 235.983 153.016 237.789C152.942 237.789 153.016 235.337 153.175 232.33C153.334 229.323 153.535 226.882 153.609 226.887Z" fill="#FAFAFA"/>
<path d="M152.794 213.969C152.841 215.251 152.702 216.534 152.381 217.776C152.335 216.494 152.474 215.212 152.794 213.969Z" fill="#FAFAFA"/>
<path d="M162.07 237.847C161.99 237.847 161.736 232.42 161.503 225.717C161.27 219.015 161.133 213.577 161.212 213.572C161.291 213.567 161.54 218.999 161.779 225.707C162.017 232.415 162.144 237.847 162.07 237.847Z" fill="#FAFAFA"/>
<path d="M170.551 237.704C170.488 237.399 170.449 237.089 170.435 236.777C170.376 236.137 170.302 235.284 170.212 234.247L169.503 225.892C169.233 222.631 169.01 219.671 168.878 217.532C168.809 216.473 168.762 215.595 168.74 214.991C168.721 214.681 168.721 214.369 168.74 214.059C168.807 214.364 168.846 214.674 168.857 214.986C168.915 215.626 168.989 216.484 169.084 217.516C169.265 219.698 169.513 222.626 169.789 225.871C170.064 229.116 170.281 232.087 170.413 234.231C170.482 235.29 170.53 236.169 170.551 236.767C170.574 237.079 170.574 237.392 170.551 237.704Z" fill="#FAFAFA"/>
<path d="M175.502 214.297C175.581 214.297 176.301 219.534 177.117 226.009C177.932 232.484 178.53 237.741 178.456 237.752C178.382 237.762 177.657 232.521 176.841 226.04C176.026 219.56 175.428 214.308 175.502 214.297Z" fill="#FAFAFA"/>
<path d="M351.265 265.309C355.41 266.76 360.794 265.463 364.358 262.879C367.921 260.295 370.457 256.579 372.717 252.82C373.681 251.231 374.623 249.537 374.925 247.689C375.227 245.842 374.782 243.761 373.337 242.559C371.113 240.685 367.698 241.633 365.168 243.089C361.219 245.389 357.889 248.615 355.465 252.489C353.041 256.363 351.596 260.768 351.254 265.325" fill="#5EB355"/>
<path d="M355.718 275.231C358.206 278.513 362.479 279.996 366.592 280.165C370.706 280.335 374.778 279.217 378.621 277.74C380.019 277.211 381.544 276.47 382.026 275.056C382.179 274.508 382.192 273.93 382.064 273.375C381.937 272.82 381.672 272.306 381.295 271.879C380.534 271.033 379.581 270.383 378.515 269.984C374.73 268.369 370.394 268.295 366.412 269.328C362.431 270.36 358.947 272.674 355.718 275.22" fill="#5EB355"/>
<path d="M351.206 247.557C354.637 247.626 357.231 244.624 358.783 241.564C360.941 237.287 361.658 232.426 360.826 227.708C360.514 225.956 359.852 224.066 358.285 223.224C356.718 222.382 354.616 222.933 353.276 224.15C351.937 225.368 351.212 227.11 350.677 228.841C348.834 234.797 349.232 241.643 351.206 247.557Z" fill="#5EB355"/>
<path d="M339.94 266.532C345.764 256.579 346.759 244.402 343.308 233.384C342.746 231.6 341.687 229.551 339.818 229.434C337.754 229.302 336.451 231.61 335.885 233.606C333.878 240.6 334.296 248.028 334.746 255.313C335.022 259.787 336.557 263.61 339.94 266.553" fill="#5EB355"/>
<path d="M333.862 270.625C332.774 267.215 330.934 264.092 328.478 261.488C326.023 258.884 323.014 256.864 319.673 255.578C318.117 254.99 316.142 254.657 314.988 255.848C313.833 257.039 314.199 258.961 314.929 260.417C316.105 262.768 318.016 264.653 319.922 266.469C321.653 268.115 323.453 269.772 325.645 270.731C327.837 271.689 331.861 271.932 333.862 270.625Z" fill="#5EB355"/>
<path d="M370.118 245.053C370.086 245.087 370.051 245.117 370.012 245.143L369.7 245.392L368.471 246.308L367.582 246.964C367.264 247.208 366.931 247.493 366.565 247.79C365.84 248.399 364.977 249.05 364.125 249.865L362.743 251.12C362.266 251.56 361.806 252.052 361.313 252.544C360.307 253.513 359.333 254.662 358.28 255.806C353.823 260.969 350.215 266.807 347.59 273.102C347.018 274.558 346.441 275.935 346.028 277.269C345.811 277.936 345.573 278.566 345.393 279.191C345.213 279.816 345.049 280.409 344.89 280.98C344.541 282.119 344.361 283.172 344.128 284.094C344.022 284.554 343.916 284.978 343.842 285.375C343.768 285.772 343.709 286.137 343.651 286.465C343.535 287.101 343.445 287.604 343.376 287.969C343.344 288.128 343.323 288.255 343.302 288.361C343.295 288.406 343.283 288.451 343.265 288.493C343.26 288.447 343.26 288.401 343.265 288.356C343.265 288.255 343.296 288.123 343.318 287.964C343.371 287.593 343.445 287.09 343.54 286.444C343.588 286.116 343.646 285.751 343.704 285.354C343.762 284.957 343.874 284.522 343.969 284.062C344.175 283.135 344.361 282.076 344.699 280.933C344.853 280.356 345.017 279.752 345.187 279.127C345.356 278.503 345.594 277.867 345.806 277.2C346.214 275.856 346.78 274.474 347.352 273.002C349.963 266.671 353.588 260.807 358.084 255.642C359.143 254.477 360.127 253.349 361.144 252.38C361.673 251.893 362.113 251.401 362.595 250.967L363.987 249.722C364.861 248.907 365.729 248.266 366.465 247.673C366.835 247.382 367.174 247.102 367.497 246.858L368.403 246.218L369.663 245.344L369.991 245.122C370.031 245.094 370.073 245.071 370.118 245.053Z" fill="#263238"/>
<path d="M377.859 272.647C377.725 272.633 377.592 272.61 377.462 272.578C377.197 272.531 376.816 272.43 376.318 272.345C374.919 272.077 373.504 271.9 372.083 271.816C367.381 271.526 362.676 272.316 358.328 274.124C353.979 275.933 350.101 278.713 346.992 282.251C346.048 283.315 345.174 284.44 344.377 285.618C344.086 286.031 343.89 286.37 343.736 286.592C343.672 286.711 343.594 286.821 343.503 286.921C343.556 286.796 343.618 286.676 343.689 286.561C343.826 286.333 344.006 285.984 344.287 285.56C345.055 284.353 345.912 283.204 346.849 282.124C349.943 278.521 353.838 275.694 358.222 273.87C362.606 272.045 367.357 271.275 372.093 271.62C373.518 271.716 374.934 271.92 376.329 272.229C376.826 272.324 377.202 272.446 377.462 272.509C377.599 272.539 377.732 272.585 377.859 272.647Z" fill="#263238"/>
<path d="M356.263 227.195C356.267 227.246 356.267 227.297 356.263 227.348C356.263 227.465 356.205 227.613 356.167 227.798C356.077 228.211 355.945 228.783 355.781 229.514C355.447 230.996 354.934 233.146 354.288 235.793C352.996 241.087 351.111 248.388 349.174 256.473C348.205 260.518 347.326 264.383 346.574 267.903C345.822 271.424 345.197 274.617 344.726 277.301C344.472 278.64 344.282 279.858 344.107 280.922C343.932 281.987 343.779 282.913 343.667 283.665C343.556 284.417 343.461 284.983 343.397 285.401C343.366 285.587 343.339 285.735 343.323 285.851C343.316 285.904 343.304 285.955 343.286 286.005C343.282 285.952 343.282 285.899 343.286 285.846C343.286 285.73 343.318 285.581 343.339 285.391C343.392 284.973 343.466 284.39 343.556 283.649C343.646 282.908 343.779 281.971 343.948 280.901C344.117 279.832 344.287 278.609 344.53 277.264C344.975 274.574 345.589 271.387 346.32 267.856C347.051 264.324 347.908 260.444 348.904 256.409C350.852 248.319 352.758 241.029 354.092 235.761C354.754 233.114 355.294 230.996 355.68 229.503L356.115 227.798L356.231 227.359C356.237 227.303 356.247 227.248 356.263 227.195Z" fill="#263238"/>
<path d="M342.831 285.19C342.831 285.19 342.831 285.153 342.794 285.073L342.715 284.713C342.646 284.374 342.545 283.908 342.424 283.326C342.18 282.124 341.852 280.377 341.476 278.206C340.724 273.881 339.835 267.866 339.289 261.174C339.025 257.828 338.876 254.636 338.813 251.729C338.749 248.822 338.813 246.202 338.882 244.005C338.882 242.909 338.977 241.887 339.025 241.045C339.072 240.203 339.136 239.42 339.189 238.811C339.242 238.202 339.289 237.752 339.321 237.402L339.358 237.037C339.351 236.995 339.351 236.952 339.358 236.91C339.364 236.952 339.364 236.995 339.358 237.037C339.358 237.138 339.358 237.259 339.358 237.408C339.358 237.752 339.316 238.223 339.279 238.816C339.242 239.409 339.194 240.182 339.168 241.05C339.141 241.919 339.072 242.914 339.056 244.015C338.993 246.207 338.988 248.822 339.056 251.724C339.125 254.625 339.289 257.812 339.554 261.153C340.083 267.829 340.957 273.86 341.672 278.175C342.021 280.345 342.323 282.098 342.535 283.305L342.773 284.703L342.826 285.068C342.863 285.158 342.863 285.19 342.831 285.19Z" fill="#263238"/>
<path d="M343.265 286.466C343.201 286.357 343.149 286.242 343.112 286.121C343.016 285.867 342.889 285.534 342.725 285.121C342.646 284.898 342.55 284.66 342.455 284.395L342.079 283.554C341.941 283.252 341.799 282.929 341.65 282.59C341.502 282.251 341.301 281.902 341.121 281.531C340.941 281.161 340.729 280.774 340.523 280.366L339.813 279.149C339.342 278.286 338.754 277.433 338.151 276.501C336.79 274.549 335.317 272.677 333.74 270.895C332.144 269.121 330.456 267.432 328.684 265.833C327.842 265.124 327.096 264.414 326.297 263.821L325.19 262.937L324.131 262.164C323.469 261.635 322.845 261.238 322.299 260.872C321.754 260.507 321.277 260.179 320.88 259.941L319.975 259.369C319.867 259.304 319.765 259.232 319.668 259.152C319.784 259.195 319.896 259.25 320.002 259.316L320.933 259.845C321.346 260.068 321.828 260.375 322.384 260.735C322.94 261.095 323.575 261.502 324.248 262L325.307 262.763L326.429 263.636C327.218 264.224 328.017 264.928 328.843 265.637C330.632 267.232 332.333 268.923 333.936 270.704C335.519 272.504 336.991 274.398 338.347 276.374C338.929 277.312 339.533 278.174 339.993 279.022L340.697 280.255L341.28 281.431C341.46 281.806 341.65 282.156 341.809 282.489L342.217 283.469C342.344 283.776 342.466 284.057 342.577 284.321L342.826 285.057C342.969 285.481 343.08 285.82 343.164 286.079C343.212 286.204 343.245 286.333 343.265 286.466Z" fill="#263238"/>
<path d="M367.947 256.6C367.947 256.642 367.238 256.642 366.1 256.706C364.618 256.787 363.143 256.964 361.684 257.235C360.226 257.515 358.789 257.89 357.38 258.358C356.321 258.712 355.638 258.972 355.622 258.935C355.757 258.836 355.905 258.756 356.062 258.696C356.353 258.559 356.782 258.379 357.316 258.167C360.126 257.117 363.095 256.553 366.094 256.499C366.666 256.499 367.153 256.499 367.45 256.526C367.619 256.524 367.787 256.549 367.947 256.6Z" fill="#263238"/>
<path d="M372.358 278.148C371.155 275.461 369.098 273.246 366.507 271.848C366.93 271.96 367.332 272.139 367.699 272.377C369.537 273.434 371.013 275.021 371.934 276.93C372.142 277.31 372.286 277.721 372.358 278.148Z" fill="#263238"/>
<path d="M357.316 235.279C357.369 235.338 356.295 236.402 355.119 237.847C353.944 239.292 353.107 240.563 353.039 240.521C353.52 239.488 354.147 238.531 354.902 237.678C355.585 236.764 356.399 235.956 357.316 235.279Z" fill="#263238"/>
<path d="M353.78 229.175C354.227 230.693 354.494 232.259 354.574 233.839C354.127 232.321 353.86 230.755 353.78 229.175Z" fill="#263238"/>
<path d="M342.862 248.325C342.372 249.562 341.799 250.765 341.147 251.925C340.573 253.126 339.921 254.288 339.193 255.403C339.679 254.163 340.25 252.958 340.903 251.798C341.473 250.595 342.128 249.434 342.862 248.325Z" fill="#263238"/>
<path d="M336.33 241.823C337.375 243.514 338.262 245.299 338.977 247.155C338.413 246.333 337.927 245.461 337.526 244.55C337.045 243.679 336.645 242.767 336.33 241.823Z" fill="#263238"/>
<path d="M326.757 264.054C326.757 264.134 325.576 263.906 324.11 263.811C322.643 263.715 321.462 263.763 321.462 263.684C322.329 263.475 323.225 263.424 324.11 263.535C325.016 263.548 325.913 263.724 326.757 264.054Z" fill="#263238"/>
<path d="M333.295 283.712L336.546 300.834C336.651 301.384 336.944 301.88 337.375 302.236C337.806 302.593 338.348 302.788 338.907 302.788H348.527C349.096 302.787 349.646 302.584 350.079 302.216C350.513 301.847 350.801 301.337 350.894 300.776L353.721 283.712H333.295Z" fill="#263238"/>
<path d="M334.349 289.277H352.747L353.721 283.712H333.295L334.349 289.277Z" fill="#455A64"/>
<path d="M334.349 289.277L334.736 291.305H352.461L352.747 289.277H334.349Z" fill="#FAFAFA"/>
<path d="M148.495 193.612L158.189 183.913L234.603 184.162L234.608 92.4259L28.1006 92.6642V184.268H148.717L148.495 193.612Z" fill="white"/>
<path d="M129.334 109.299L129.79 108.288C130.353 108.674 131.019 108.882 131.701 108.886C132.495 108.886 132.818 108.622 132.818 108.267C132.818 107.208 129.451 107.923 129.451 105.773C129.451 104.788 130.245 103.968 131.892 103.968C132.598 103.958 133.293 104.141 133.904 104.497L133.491 105.514C133.009 105.229 132.462 105.072 131.902 105.058C131.108 105.058 130.801 105.355 130.801 105.72C130.801 106.779 134.174 106.054 134.174 108.182C134.174 109.151 133.369 109.977 131.712 109.977C130.869 109.999 130.039 109.763 129.334 109.299Z" fill="#455A64"/>
<path d="M135.068 104.074H136.413V108.775H139.32V109.866H135.084L135.068 104.074Z" fill="#455A64"/>
<path d="M144.561 108.791V109.85H140.087V104.074H144.466V105.132H141.422V106.393H144.111V107.451H141.422V108.791H144.561Z" fill="#455A64"/>
<path d="M150.115 108.791V109.85H145.625V104.074H150.009V105.132H146.97V106.393H149.66V107.451H146.97V108.791H150.115Z" fill="#455A64"/>
<path d="M156.209 106.175C156.209 107.467 155.24 108.293 153.689 108.293H152.524V109.882H151.206V104.074H153.71C155.24 104.074 156.209 104.873 156.209 106.175ZM154.848 106.175C154.848 105.535 154.435 105.164 153.615 105.164H152.524V107.176H153.615C154.435 107.176 154.848 106.806 154.848 106.175Z" fill="#455A64"/>
<path d="M163.383 108.627H160.736L160.206 109.866H158.83L161.413 104.074H162.737L165.331 109.866H163.912L163.383 108.627ZM162.959 107.605L162.043 105.387L161.122 107.605H162.959Z" fill="#455A64"/>
<path d="M171.245 104.074V109.866H170.144L167.253 106.35V109.866H165.929V104.074H167.036L169.921 107.589V104.074H171.245Z" fill="#455A64"/>
<path d="M176.434 108.627H173.744L173.215 109.866H171.854L174.438 104.074H175.767L178.356 109.866H176.947L176.434 108.627ZM176.015 107.605L175.094 105.387L174.173 107.605H176.015Z" fill="#455A64"/>
<path d="M178.959 104.074H180.325V108.775H183.232V109.866H178.996L178.959 104.074Z" fill="#455A64"/>
<path d="M186.149 107.827V109.876H184.804V107.796L182.559 104.089H183.983L185.535 106.663L187.08 104.089H188.399L186.149 107.827Z" fill="#455A64"/>
<path d="M188.383 109.299L188.838 108.288C189.401 108.674 190.067 108.882 190.749 108.886C191.544 108.886 191.867 108.621 191.867 108.267C191.867 107.208 188.499 107.923 188.499 105.773C188.499 104.788 189.293 103.968 190.94 103.968C191.646 103.958 192.342 104.141 192.952 104.497L192.539 105.514C192.057 105.228 191.51 105.071 190.951 105.058C190.151 105.058 189.849 105.355 189.849 105.72C189.849 106.779 193.217 106.054 193.217 108.182C193.217 109.151 192.412 109.977 190.76 109.977C189.917 109.999 189.088 109.762 188.383 109.299Z" fill="#455A64"/>
<path d="M194.122 104.074H195.462V109.866H194.122V104.074Z" fill="#455A64"/>
<path d="M196.377 109.299L196.833 108.288C197.398 108.674 198.065 108.882 198.749 108.886C199.543 108.886 199.866 108.621 199.866 108.267C199.866 107.208 196.494 107.923 196.494 105.773C196.494 104.788 197.288 103.968 198.94 103.968C199.646 103.959 200.341 104.142 200.952 104.497L200.539 105.514C200.057 105.229 199.51 105.072 198.951 105.058C198.156 105.058 197.849 105.355 197.849 105.72C197.849 106.779 201.222 106.054 201.222 108.182C201.222 109.151 200.417 109.977 198.76 109.977C197.915 109.999 197.084 109.763 196.377 109.299Z" fill="#455A64"/>
<path d="M103.646 156.536H105.335C106.553 156.536 107.384 157.272 107.384 158.394C107.384 159.517 106.553 160.252 105.335 160.252H103.646V156.536ZM105.293 159.548C105.45 159.559 105.609 159.537 105.758 159.484C105.907 159.431 106.043 159.348 106.159 159.24C106.274 159.132 106.366 159.001 106.429 158.856C106.492 158.711 106.525 158.555 106.525 158.397C106.525 158.239 106.492 158.082 106.429 157.937C106.366 157.792 106.274 157.661 106.159 157.553C106.043 157.445 105.907 157.362 105.758 157.309C105.609 157.256 105.45 157.235 105.293 157.245H104.509V159.548H105.293Z" fill="#455A64"/>
<path d="M110.905 159.538V160.242H108.03V156.536H110.836V157.229H108.887V158.034H110.608V158.654H108.887V159.517L110.905 159.538Z" fill="#455A64"/>
<path d="M114.468 159.538V160.242H111.593V156.536H114.399V157.229H112.445V158.034H114.171V158.654H112.445V159.517L114.468 159.538Z" fill="#455A64"/>
<path d="M118.38 157.859C118.38 158.685 117.756 159.204 116.766 159.204H116.014V160.242H115.151V156.536H116.739C117.75 156.536 118.38 157.028 118.38 157.859ZM117.507 157.859C117.507 157.452 117.242 157.213 116.718 157.213H116.014V158.5H116.718C117.237 158.5 117.502 158.262 117.502 157.859H117.507Z" fill="#455A64"/>
<path d="M103.355 166.23L103.646 165.579C104.006 165.831 104.435 165.968 104.874 165.97C105.404 165.97 105.589 165.796 105.589 165.568C105.589 164.874 103.429 165.351 103.429 163.98C103.429 163.344 103.959 162.82 105.017 162.82C105.468 162.811 105.913 162.925 106.304 163.148L106.039 163.805C105.729 163.617 105.375 163.515 105.012 163.508C104.483 163.508 104.308 163.704 104.308 163.937C104.308 164.62 106.468 164.149 106.468 165.526C106.468 166.15 105.939 166.68 104.88 166.68C104.337 166.69 103.805 166.532 103.355 166.23Z" fill="#455A64"/>
<path d="M107.035 162.889H107.892V165.907H109.756V166.595H107.035V162.889Z" fill="#455A64"/>
<path d="M113.112 165.907V166.595H110.237V162.889H113.043V163.577H111.09V164.387H112.816V165.054H111.09V165.917L113.112 165.907Z" fill="#455A64"/>
<path d="M116.676 165.907V166.595H113.801V162.889H116.607V163.577H114.674V164.387H116.4V165.054H114.674V165.917L116.676 165.907Z" fill="#455A64"/>
<path d="M120.583 164.229C120.583 165.054 119.958 165.568 118.995 165.568H118.243V166.595H117.385V162.889H118.974C119.969 162.889 120.583 163.418 120.583 164.229ZM119.709 164.229C119.709 163.821 119.445 163.577 118.921 163.577H118.216V164.869H118.91C119.439 164.869 119.709 164.631 119.709 164.229Z" fill="#455A64"/>
<path d="M103.355 145.799L103.646 145.153C104.008 145.401 104.436 145.536 104.874 145.539C105.404 145.539 105.589 145.37 105.589 145.137C105.589 144.443 103.429 144.92 103.429 143.549C103.429 142.913 103.959 142.389 105.017 142.389C105.468 142.38 105.913 142.493 106.304 142.717L106.039 143.374C105.727 143.191 105.374 143.09 105.012 143.083C104.483 143.083 104.308 143.273 104.308 143.506C104.308 144.189 106.468 143.718 106.468 145.094C106.468 145.719 105.939 146.249 104.88 146.249C104.337 146.258 103.805 146.101 103.355 145.799Z" fill="#455A64"/>
<path d="M107.035 142.447H107.892V145.465H109.756V146.164H107.035V142.447Z" fill="#455A64"/>
<path d="M113.112 145.476V146.164H110.237V142.458H113.043V143.152H111.09V143.956H112.816V144.623H111.09V145.486L113.112 145.476Z" fill="#455A64"/>
<path d="M116.676 145.476V146.164H113.801V142.458H116.607V143.152H114.674V143.956H116.4V144.623H114.674V145.486L116.676 145.476Z" fill="#455A64"/>
<path d="M120.583 143.797C120.583 144.623 119.958 145.137 118.995 145.137H118.243V146.164H117.385V142.458H118.974C119.969 142.447 120.583 142.966 120.583 143.797ZM119.709 143.797C119.709 143.39 119.445 143.151 118.921 143.151H118.216V144.438H118.91C119.439 144.438 119.709 144.2 119.709 143.797Z" fill="#455A64"/>
<path d="M106.092 129.534H104.372L104.038 130.329H103.159L104.816 126.622H105.674L107.336 130.329H106.436L106.092 129.534ZM105.822 128.883L105.235 127.459L104.647 128.883H105.822Z" fill="#455A64"/>
<path d="M113.123 126.607L111.911 130.313H110.968L110.153 127.798L109.311 130.313H108.39L107.172 126.607H108.062L108.904 129.217L109.777 126.607H110.571L111.424 129.254L112.287 126.607H113.123Z" fill="#455A64"/>
<path d="M115.929 129.534H114.203L113.875 130.329H112.991L114.648 126.622H115.495L117.157 130.329H116.263L115.929 129.534ZM115.654 128.883L115.066 127.459L114.478 128.883H115.654Z" fill="#455A64"/>
<path d="M118.91 128.862L118.412 129.391V130.329H117.554V126.622H118.38V128.354L120.021 126.622H121.027L119.439 128.258L121.07 130.318H120.064L118.91 128.862Z" fill="#455A64"/>
<path d="M124.348 129.63V130.318H121.473V126.612H124.279V127.3H122.325V128.105H124.051V128.777H122.325V129.635L124.348 129.63Z" fill="#455A64"/>
<path d="M59.729 136.29V137.349L57.14 143.279H55.377L57.8759 137.619H55.5676V138.757H54.1328V136.306L59.729 136.29Z" fill="#263238"/>
<path d="M60.248 139.774C60.248 137.476 61.524 136.168 63.2394 136.168C64.9548 136.168 66.2254 137.476 66.2254 139.774C66.2254 142.071 64.9601 143.379 63.2394 143.379C61.5187 143.379 60.248 142.077 60.248 139.774ZM64.6053 139.774C64.6053 138.185 64.0441 137.534 63.2394 137.534C62.4346 137.534 61.884 138.191 61.884 139.774C61.884 141.357 62.4135 142.019 63.2394 142.019C64.0653 142.019 64.6053 141.362 64.6053 139.774Z" fill="#263238"/>
<path d="M72.1661 141.95V143.263H66.8717V142.204L69.5612 139.668C70.1807 139.08 70.2919 138.72 70.2919 138.381C70.2919 137.852 69.9107 137.513 69.1747 137.513C68.8949 137.501 68.6165 137.559 68.3643 137.681C68.1122 137.803 67.8941 137.985 67.7294 138.212L66.5752 137.476C66.8943 137.048 67.314 136.706 67.7971 136.48C68.2801 136.254 68.8115 136.15 69.3442 136.179C70.9007 136.179 71.9331 136.978 71.9331 138.244C71.9331 138.921 71.7478 139.535 70.7684 140.446L69.18 141.96L72.1661 141.95Z" fill="#263238"/>
<path d="M55.626 148.181C55.626 149.092 54.943 149.658 53.8524 149.658H53.0318V150.786H52.0894V146.699H53.8524C54.943 146.699 55.626 147.265 55.626 148.181ZM54.673 148.181C54.673 147.731 54.3765 147.472 53.7994 147.472H53.0318V148.891H53.7889C54.3765 148.891 54.673 148.626 54.673 148.181Z" fill="#263238"/>
<path d="M56.1024 148.742C56.0781 148.295 56.1885 147.85 56.4196 147.466C56.6506 147.082 56.9916 146.776 57.3984 146.588C57.8052 146.4 58.2591 146.338 58.7014 146.411C59.1437 146.483 59.554 146.687 59.8793 146.995C60.2046 147.304 60.4299 147.702 60.526 148.14C60.6222 148.578 60.5848 149.035 60.4186 149.451C60.2525 149.867 59.9652 150.224 59.5941 150.475C59.2229 150.726 58.7849 150.861 58.3367 150.86C58.0489 150.876 57.761 150.833 57.4904 150.734C57.2199 150.634 56.9725 150.481 56.7633 150.283C56.5542 150.084 56.3877 149.846 56.274 149.581C56.1604 149.316 56.102 149.031 56.1024 148.742ZM59.6126 148.742C59.6074 148.49 59.5277 148.245 59.3836 148.037C59.2394 147.83 59.0372 147.67 58.8024 147.577C58.5675 147.484 58.3105 147.463 58.0636 147.516C57.8167 147.569 57.5909 147.693 57.4146 147.874C57.2383 148.055 57.1193 148.284 57.0725 148.532C57.0258 148.78 57.0534 149.036 57.1519 149.269C57.2505 149.501 57.4155 149.699 57.6262 149.838C57.837 149.977 58.0842 150.051 58.3367 150.05C58.508 150.054 58.6783 150.022 58.8369 149.958C58.9955 149.893 59.1392 149.796 59.2588 149.674C59.3785 149.551 59.4717 149.405 59.5325 149.245C59.5934 149.085 59.6206 148.914 59.6126 148.742Z" fill="#263238"/>
<path d="M61.2803 146.699H62.228V150.786H61.2803V146.699Z" fill="#263238"/>
<path d="M66.9399 146.699V150.786H66.1616L64.1286 148.303V150.786H63.1968V146.699H63.9751L66.0081 149.182V146.699H66.9399Z" fill="#263238"/>
<path d="M68.756 147.472H67.4482V146.699H71.0061V147.472H69.6984V150.786H68.756V147.472Z" fill="#263238"/>
<path d="M71.165 150.384L71.488 149.669C71.8825 149.945 72.3514 150.094 72.8328 150.098C73.394 150.098 73.6216 149.907 73.6216 149.658C73.6216 148.896 71.2445 149.42 71.2445 147.901C71.2445 147.207 71.8057 146.63 72.9651 146.63C73.4628 146.618 73.9539 146.745 74.384 146.995L74.0928 147.71C73.7497 147.506 73.3592 147.394 72.9598 147.387C72.4039 147.387 72.1869 147.599 72.1869 147.858C72.1869 148.61 74.5587 148.091 74.5587 149.589C74.5587 150.272 73.9922 150.855 72.8275 150.855C72.2384 150.87 71.6586 150.706 71.165 150.384Z" fill="#263238"/>
<path d="M63.1655 169.957C57.8859 169.957 52.7248 168.391 48.335 165.458C43.9451 162.525 40.5236 158.356 38.5032 153.478C36.4828 148.6 35.9541 143.233 36.9841 138.055C38.0141 132.877 40.5565 128.12 44.2898 124.387C48.0231 120.654 52.7795 118.111 57.9577 117.081C63.1359 116.051 68.5033 116.58 73.381 118.6C78.2588 120.621 82.4278 124.042 85.3611 128.432C88.2943 132.822 89.8599 137.983 89.8599 143.263C89.8515 150.34 87.0363 157.125 82.032 162.129C77.0277 167.134 70.2427 169.949 63.1655 169.957ZM63.1655 118.686C58.3048 118.686 53.5531 120.128 49.5115 122.828C45.4699 125.529 42.3199 129.367 40.4597 133.858C38.5996 138.348 38.1129 143.29 39.0612 148.057C40.0095 152.825 42.3502 157.204 45.7873 160.641C49.2244 164.078 53.6035 166.419 58.3709 167.367C63.1383 168.315 68.0798 167.829 72.5706 165.969C77.0614 164.108 80.8997 160.958 83.6002 156.917C86.3007 152.875 87.7421 148.123 87.7421 143.263C87.7337 136.747 85.1417 130.501 80.5345 125.894C75.9273 121.287 69.6811 118.695 63.1655 118.686Z" fill="#E0E0E0"/>
<path d="M63.1653 171.016C55.8047 171.016 48.7456 168.092 43.5408 162.887C38.3361 157.682 35.4121 150.623 35.4121 143.263C35.4121 135.902 38.3361 128.843 43.5408 123.638C48.7456 118.434 55.8047 115.51 63.1653 115.51C63.727 115.51 64.2656 115.733 64.6628 116.13C65.06 116.527 65.2831 117.066 65.2831 117.627C65.2831 118.189 65.06 118.728 64.6628 119.125C64.2656 119.522 63.727 119.745 63.1653 119.745C58.514 119.745 53.9671 121.124 50.0996 123.708C46.2321 126.293 43.2178 129.966 41.4378 134.263C39.6578 138.56 39.1921 143.289 40.0995 147.851C41.0069 152.413 43.2468 156.603 46.5358 159.892C49.8248 163.181 54.0153 165.421 58.5772 166.329C63.1392 167.236 67.8679 166.77 72.1652 164.99C76.4625 163.21 80.1354 160.196 82.7196 156.328C85.3037 152.461 86.683 147.914 86.683 143.263C86.683 142.701 86.9061 142.162 87.3033 141.765C87.7005 141.368 88.2391 141.145 88.8008 141.145C89.3624 141.145 89.9011 141.368 90.2983 141.765C90.6954 142.162 90.9185 142.701 90.9185 143.263C90.9087 150.62 87.9816 157.674 82.779 162.876C77.5764 168.079 70.5229 171.006 63.1653 171.016Z" fill="#5EB355"/>
<path d="M203.673 158.717C196.155 155.863 187.509 163.747 180.145 160.533C175.856 158.664 173.913 153.814 171.811 149.632C169.709 145.449 166.088 141.044 161.44 141.531C156.791 142.018 152.969 147.451 148.421 146.143C145.562 145.317 144.132 142.151 143.417 139.26C142.703 136.369 142.205 133.182 140.029 131.16C137.853 129.137 133.31 129.677 132.966 132.632V168.183H217.735C217.735 168.183 206.267 159.712 203.673 158.717Z" fill="#5EB355"/>
<path d="M219.996 168.183C219.996 168.258 199.448 168.321 174.114 168.321C148.781 168.321 128.223 168.258 128.223 168.183C128.223 168.109 148.765 168.046 174.114 168.046C199.464 168.046 219.996 168.125 219.996 168.183Z" fill="#263238"/>
<path d="M219.996 152.666C219.996 152.74 199.448 152.803 174.114 152.803C148.781 152.803 128.223 152.74 128.223 152.666C128.223 152.591 148.765 152.528 174.114 152.528C199.464 152.528 219.996 152.591 219.996 152.666Z" fill="#263238"/>
<path d="M219.996 137.132C219.996 137.206 199.448 137.269 174.114 137.269C148.781 137.269 128.223 137.206 128.223 137.132C128.223 137.058 148.765 136.994 174.114 136.994C199.464 136.994 219.996 137.058 219.996 137.132Z" fill="#263238"/>
<path d="M219.996 122.366C219.996 122.445 199.448 122.509 174.114 122.509C148.781 122.509 128.223 122.445 128.223 122.366C128.223 122.286 148.765 122.228 174.114 122.228C199.464 122.228 219.996 122.292 219.996 122.366Z" fill="#263238"/>
<path d="M28.1006 184.268C28.1006 183.5 28.0635 149.272 28 92.5691V92.4738H28.1006L234.471 92.4368H234.608V99.0918C234.608 128.608 234.608 157.14 234.608 184.03V184.162H234.476H158.194L158.279 184.13L148.691 193.708L148.5 193.904V184.268L148.612 184.379L28.1059 184.268L148.612 184.162H148.723V193.597L148.532 193.517L158.115 183.934L158.147 183.897H158.194H234.476L234.344 184.03C234.344 157.14 234.344 128.608 234.344 99.0918V92.5691L234.481 92.7068L28.1006 92.6644L28.1959 92.5691C28.1377 149.272 28.1006 183.5 28.1006 184.268Z" fill="#263238"/>
</svg>
