<svg width="70" height="70" viewBox="0 0 70 70" fill="none" xmlns="http://www.w3.org/2000/svg">
<circle cx="35" cy="35" r="30.625" fill="#299D37"/>
<path d="M50.1645 19.7182L48.2857 18.0196L26.4376 30.3872L16.0235 24.4953L14.9499 26.6186L26.4376 33.2005L50.1645 19.7182Z" fill="white"/>
<path d="M46.0312 16.5864L43.5081 15.3125L26.4376 25.0261L18.8686 20.7267L17.3118 22.5845L26.4376 27.7332L46.0312 16.5864Z" fill="white"/>
<path d="M53.2244 23.3276L51.8287 21.4698L26.4376 35.9075L14.091 28.901L13.5005 31.2365L26.4376 38.5615L53.2244 23.3276Z" fill="white"/>
<path d="M56.875 35.2173C56.875 32.8107 56.4809 30.5113 55.694 28.317L54.513 25.3445L26.4379 41.2685L13.125 33.7842V35.2173C13.125 38.1187 13.6972 40.9319 14.8428 43.6581C15.9164 46.241 17.4731 48.5415 19.513 50.5585C21.5884 52.5395 23.8966 54.0618 26.4379 55.1234C29.1573 56.2901 32.0024 56.875 34.9731 56.875C37.9084 56.875 40.7535 56.2911 43.5084 55.1234C46.1216 54.0618 48.4471 52.5395 50.4869 50.5585C52.4913 48.5415 54.0481 46.241 55.1572 43.6581L55.694 42.2239C56.4809 39.9595 56.875 37.624 56.875 35.2173Z" fill="white"/>
</svg>
