<svg width="70" height="70" viewBox="0 0 70 70" fill="none" xmlns="http://www.w3.org/2000/svg">
<circle cx="35" cy="35" r="30.625" fill="#0B0006"/>
<path d="M8.75 26.25H10.1398L15.5603 45.3906H14.1704L8.75 26.25Z" fill="#FFFDFE"/>
<path d="M12.5026 26.25H13.8924L19.3128 45.3906H17.923L12.5026 26.25Z" fill="#FFFDFE"/>
<path d="M20.4244 26.25H16.2549L21.6753 45.3906H25.8448L29.5488 32.9492L33.489 45.3906H37.4501L42.662 26.25H38.562L35.3194 38.4863L31.5432 26.25H27.5822L23.8296 38.2742L20.4244 26.25Z" fill="#FEDB32"/>
<path d="M42.662 35.1367L45.0248 26.25H46.8316V38.418C46.8316 40.2302 48.325 41.6992 50.1672 41.6992H51.5571C53.3993 41.6992 54.8927 40.2302 54.8927 38.418V26.25H59.0623V38.418C59.0623 42.5709 55.6399 45.9375 51.4181 45.9375H50.3062C46.0844 45.9375 42.662 42.5709 42.662 38.418V35.1367Z" fill="#FEDB32"/>
</svg>
