<svg width="22" height="22" viewBox="0 0 22 22" fill="none" xmlns="http://www.w3.org/2000/svg">
<path d="M13.75 18.334H4.58333V6.41732C4.58333 5.91315 4.17083 5.50065 3.66667 5.50065C3.1625 5.50065 2.75 5.91315 2.75 6.41732V18.334C2.75 19.3423 3.575 20.1673 4.58333 20.1673H13.75C14.2542 20.1673 14.6667 19.7548 14.6667 19.2507C14.6667 18.7465 14.2542 18.334 13.75 18.334ZM18.3333 14.6673V3.66732C18.3333 2.65898 17.5083 1.83398 16.5 1.83398H8.25C7.24167 1.83398 6.41667 2.65898 6.41667 3.66732V14.6673C6.41667 15.6757 7.24167 16.5007 8.25 16.5007H16.5C17.5083 16.5007 18.3333 15.6757 18.3333 14.6673ZM16.5 14.6673H8.25V3.66732H16.5V14.6673Z" fill="#B3B5B2"/>
</svg>
