<svg width="342" height="181" viewBox="0 0 342 181" fill="none" xmlns="http://www.w3.org/2000/svg">
<path opacity="0.02" d="M246.472 0.738657C234.826 1.55894 221.648 3.91727 207.193 7.76236L205.405 8.22377C194.678 11.0948 181.041 13.6069 164.798 15.7602C159.23 15.9652 105.598 17.6571 75.0534 16.3754C71.8355 16.2216 68.5154 16.2728 65.2975 16.5292C45.2238 17.9647 27.7039 26.0137 15.9049 39.2921C3.08428 53.6984 -2.12569 73.6416 0.785764 96.9173C0.785764 96.9685 0.785764 97.0198 0.785764 97.0198C2.62458 118.552 9.00935 135.368 19.6336 146.903C29.9514 158.131 43.9468 164.335 61.2623 165.36C68.1578 166.078 76.126 166.129 85.0136 165.514C89.151 165.206 93.5437 164.796 98.0386 164.181C99.1112 164.027 100.286 163.924 101.563 163.822C111.217 163.155 125.416 163.924 143.754 166.231C148.912 167.103 154.122 168.026 159.69 169.051C174.145 171.615 189.111 174.332 204.23 176.331C207.806 177.049 233.089 181.868 259.548 179.971C285.751 178.126 304.854 170.384 316.296 157.003C319.258 154.03 321.914 150.697 324.213 147.16C335.041 130.293 340.966 112.503 341.886 94.3539C342.703 77.7943 339.127 61.3886 331.517 46.8798C318.083 21.092 293.464 3.91727 265.728 0.94373C259.956 0.328515 253.469 0.225978 246.472 0.738657Z" fill="black"/>
<path opacity="0.02" d="M34.6169 155.333C36.7944 158.483 39.2623 161.245 41.8753 163.717C69.9414 194.783 140.784 173.022 141.655 172.732C161.398 168.273 181.19 162.457 198.997 157.707C216.369 153.976 233.886 151.213 245.306 151.892C261.226 152.861 271.921 151.746 278.502 150.438C305.552 146.609 323.504 126.787 323.94 83.9434C323.94 83.895 323.94 83.798 323.94 83.7496C326.553 29.5655 288.809 11.8272 257.5 15.8014C226.192 19.7755 170.399 22.1019 170.399 22.1019C155.688 21.2295 137.936 14.5275 125.5 11.9103C109.144 8.51778 83.6461 5.61471 67 8.91034C16.3359 18.8457 -7.57908 94.7995 34.6169 155.333Z" fill="black"/>
<path opacity="0.8" d="M65.295 113.185C65.1909 112.392 64.4968 111.863 63.768 111.977C63.0392 112.09 62.5534 112.845 62.6575 113.638C62.831 114.998 63.0739 119.189 61.7552 120.888C61.4775 121.266 61.1305 121.493 60.6794 121.568L60.8182 113.525C60.8529 112.354 59.9853 111.41 58.9095 111.41C57.8337 111.41 56.9661 112.392 57.0008 113.563L57.3478 128.819C56.8967 128.743 56.5149 128.516 56.2373 128.139C54.8838 126.44 55.1267 122.21 55.335 120.888C55.4391 120.095 54.9532 119.34 54.2245 119.227C53.4957 119.114 52.8363 119.642 52.6975 120.435C52.5934 121.115 51.8299 127.006 54.2245 130.027C55.0574 131.084 56.1332 131.651 57.4519 131.764L57.5907 138.41H60.5058L60.7141 124.551C61.9634 124.438 63.0739 123.872 63.8721 122.852C66.1626 119.756 65.3991 113.827 65.295 113.185Z" fill="#98A3AA"/>
<path opacity="0.5" d="M65.5946 124.265C65.6427 123.883 65.963 123.628 66.2994 123.683C66.6357 123.737 66.86 124.101 66.8119 124.483C66.7318 125.137 66.6197 126.156 67.2284 126.974C67.3565 127.156 67.5167 127.265 67.7249 127.301L67.6608 123.428C67.6448 122.865 68.0453 122.41 68.5418 122.41C69.0383 122.41 69.4387 122.883 69.4227 123.447L69.2626 130.792C69.4708 130.756 69.647 130.647 69.7751 130.465C70.3998 129.647 70.2877 128.61 70.1916 127.974C70.1435 127.592 70.3677 127.228 70.7041 127.174C71.0405 127.119 71.3448 127.374 71.4089 127.756C71.4569 128.083 71.8093 129.919 70.7041 131.374C70.3197 131.883 69.8231 132.156 69.2145 132.21L69.1504 135.41H67.805L67.7089 128.737C67.1323 128.683 66.6197 128.41 66.2513 127.919C65.1942 126.428 65.5466 124.574 65.5946 124.265Z" fill="#98A3AA"/>
<path opacity="0.8" d="M266.18 98.0825C266.002 96.8744 264.898 96.0691 263.722 96.2521C262.547 96.4352 261.763 97.57 261.942 98.778C262.262 100.828 262.654 107.234 260.481 109.833C260.018 110.382 259.448 110.712 258.736 110.858L258.95 98.6316C258.985 96.8378 257.596 95.4102 255.851 95.4102C254.106 95.4102 252.717 96.8744 252.753 98.6682L253.322 121.877C252.575 121.767 252.005 121.401 251.506 120.852C249.333 118.253 249.725 111.847 250.046 109.797C250.224 108.589 249.44 107.454 248.265 107.271C247.09 107.088 245.986 107.893 245.807 109.101C245.665 110.126 244.418 119.095 248.229 123.707C249.547 125.282 251.328 126.197 253.394 126.307L253.643 136.41H258.309L258.665 115.324C260.695 115.178 262.44 114.263 263.722 112.725C267.569 108.076 266.358 99.0709 266.18 98.0825Z" fill="#98A3AA"/>
<path opacity="0.8" d="M189.294 85.4663C189.535 85.1412 189.465 84.6934 189.147 84.4607C188.828 84.228 188.378 84.3104 188.137 84.6355C187.731 85.1914 186.321 86.7856 185.202 86.8856C184.965 86.9058 184.754 86.8494 184.552 86.7167L187.47 83.8995C187.899 83.4872 187.908 82.8267 187.498 82.4174C187.089 82.0082 186.42 82.0258 186.008 82.4548L180.699 88.0312C180.549 87.83 180.501 87.6105 180.513 87.3648C180.613 86.2458 182.207 84.8354 182.763 84.4298C183.088 84.1883 183.171 83.7384 182.938 83.4198C182.705 83.1013 182.258 83.0312 181.932 83.2728C181.659 83.4797 179.263 85.2906 179.075 87.266C179.015 87.9442 179.218 88.5764 179.677 89.0866L177.366 91.5144L178.46 92.6086L183.488 87.7473C183.999 88.1891 184.623 88.3837 185.284 88.3238C187.276 88.1356 189.104 85.7398 189.294 85.4663Z" fill="#98A3AA"/>
<path opacity="0.5" d="M232.658 112.406C232.738 111.789 233.272 111.378 233.832 111.466C234.393 111.554 234.767 112.142 234.687 112.758C234.553 113.816 234.366 115.46 235.381 116.782C235.594 117.076 235.861 117.252 236.208 117.311L236.101 111.055C236.075 110.144 236.742 109.41 237.57 109.41C238.397 109.41 239.065 110.174 239.038 111.084L238.771 122.95C239.118 122.891 239.412 122.715 239.625 122.421C240.666 121.1 240.479 119.426 240.319 118.398C240.239 117.781 240.613 117.193 241.173 117.105C241.734 117.017 242.241 117.428 242.348 118.045C242.428 118.574 243.015 121.54 241.173 123.89C240.533 124.712 239.705 125.153 238.691 125.241L238.584 130.41H236.342L236.181 119.631C235.22 119.543 234.366 119.102 233.752 118.309C231.99 115.901 232.578 112.905 232.658 112.406Z" fill="#98A3AA"/>
<mask id="mask0_1942_25180" style="mask-type:alpha" maskUnits="userSpaceOnUse" x="0" y="0" width="342" height="181">
<path d="M246.472 0.738657C234.826 1.55894 221.648 3.91727 207.193 7.76236L205.405 8.22377C194.678 11.0948 181.041 13.6069 164.798 15.7602C159.23 15.9652 105.598 17.6571 75.0534 16.3754C71.8355 16.2216 68.5154 16.2728 65.2975 16.5292C45.2238 17.9647 27.7039 26.0137 15.9049 39.2921C3.08428 53.6984 -2.12569 73.6416 0.785764 96.9173C0.785764 96.9685 0.785764 97.0198 0.785764 97.0198C2.62458 118.552 9.00935 135.368 19.6336 146.903C29.9514 158.131 43.9468 164.335 61.2623 165.36C68.1578 166.078 76.126 166.129 85.0136 165.514C89.151 165.206 93.5437 164.796 98.0386 164.181C99.1112 164.027 100.286 163.924 101.563 163.822C111.217 163.155 125.416 163.924 143.754 166.231C148.912 167.103 154.122 168.026 159.69 169.051C174.145 171.615 189.111 174.332 204.23 176.331C207.806 177.049 233.089 181.868 259.548 179.971C285.751 178.126 304.854 170.384 316.296 157.003C319.258 154.03 321.914 150.697 324.213 147.16C335.041 130.293 340.966 112.503 341.886 94.3539C342.703 77.7943 339.127 61.3886 331.517 46.8798C318.083 21.092 293.464 3.91727 265.728 0.94373C259.956 0.328515 253.469 0.225978 246.472 0.738657Z" fill="url(#paint0_linear_1942_25180)"/>
</mask>
<g mask="url(#mask0_1942_25180)">
<path d="M163.5 234.41C250.761 234.41 321.5 209.562 321.5 178.91C321.5 148.259 250.761 123.41 163.5 123.41C76.239 123.41 5.5 148.259 5.5 178.91C5.5 209.562 76.239 234.41 163.5 234.41Z" fill="url(#paint1_linear_1942_25180)"/>
</g>
<mask id="mask1_1942_25180" style="mask-type:alpha" maskUnits="userSpaceOnUse" x="12" y="7" width="313" height="174">
<path d="M34.6169 155.333C36.7944 158.483 39.2623 161.246 41.8753 163.717C69.9414 194.783 140.784 173.023 141.655 172.732C161.398 168.273 181.19 162.457 198.997 157.708C216.369 153.976 233.886 151.213 245.306 151.892C261.226 152.861 271.921 151.746 278.502 150.438C305.552 146.609 323.504 126.787 323.94 83.9437C323.94 83.8952 323.94 83.7983 323.94 83.7498C326.553 29.5658 288.809 11.8275 257.5 15.8016C226.192 19.7758 170.399 22.1021 170.399 22.1021C155.688 21.2297 137.936 14.5277 125.5 11.9106C109.144 8.51802 83.6461 5.61496 67 8.91059C16.3359 18.8459 -7.57908 94.7998 34.6169 155.333Z" fill="url(#paint2_linear_1942_25180)"/>
</mask>
<g mask="url(#mask1_1942_25180)">
<path d="M163.5 234.41C250.761 234.41 321.5 209.562 321.5 178.91C321.5 148.259 250.761 123.41 163.5 123.41C76.239 123.41 5.5 148.259 5.5 178.91C5.5 209.562 76.239 234.41 163.5 234.41Z" fill="url(#paint3_linear_1942_25180)"/>
</g>
<path opacity="0.3" d="M177.241 55.4106L100.5 138.731L211.632 139.8L206.655 65.3372L177.241 55.4106Z" fill="white"/>
<path d="M208.826 76.5462C209.107 76.6306 209.388 76.6587 209.698 76.6306C210.794 76.5181 211.582 75.5058 211.441 74.4372L210.344 64.9887C210.232 63.892 209.22 63.1047 208.151 63.2453C207.054 63.3577 206.267 64.3701 206.408 65.4387L207.504 74.8871C207.561 75.6745 208.123 76.2931 208.826 76.5462Z" fill="#BFC1C3"/>
<path d="M209.67 78.6834C211.906 78.6834 213.719 76.8704 213.719 74.634C213.719 72.3977 211.906 70.5847 209.67 70.5847C207.433 70.5847 205.62 72.3977 205.62 74.634C205.62 76.8704 207.433 78.6834 209.67 78.6834Z" fill="#95989B"/>
<path d="M168.333 62.8798C168.052 62.7955 167.799 62.6268 167.602 62.4299C166.814 61.6707 166.786 60.4052 167.545 59.6179L174.126 52.7565C174.885 51.9691 176.15 51.941 176.938 52.7002C177.725 53.4595 177.753 54.7249 176.994 55.5123L170.414 62.3737C169.851 62.9642 169.036 63.1329 168.333 62.8798Z" fill="#BFC1C3"/>
<path d="M168.811 64.9043C171.047 64.9043 172.86 63.0914 172.86 60.855C172.86 58.6186 171.047 56.8057 168.811 56.8057C166.574 56.8057 164.761 58.6186 164.761 60.855C164.761 63.0914 166.574 64.9043 168.811 64.9043Z" fill="#95989B"/>
<path d="M192.91 58.7179C184.052 55.7372 175.981 52.5314 169.345 49.4663C173.31 55.8215 180.79 61.5862 190.323 64.7919C199.771 67.9695 209.135 67.9695 216.109 65.3543C209.22 63.8077 201.29 61.5581 192.91 58.7179Z" fill="#95989B"/>
<path d="M238.409 66.1418C237.087 70.0787 216.447 66.6761 192.347 58.5493C168.22 50.4225 149.745 40.6366 151.067 36.6998C152.388 32.7629 173.029 36.1655 197.128 44.2923C221.255 52.4191 239.73 62.205 238.409 66.1418Z" fill="#D4D6D7"/>
<path opacity="0.2" d="M192.882 56.9463C170.414 49.3819 152.866 40.3834 151.629 35.9966C151.348 36.1934 151.179 36.4465 151.095 36.6996C149.773 40.6364 168.248 50.4224 192.376 58.5492C216.503 66.6759 237.115 70.0785 238.437 66.1417C238.521 65.8605 238.521 65.5793 238.437 65.2418C234.753 67.9695 215.35 64.5107 192.882 56.9463Z" fill="white"/>
<path d="M196.397 48.2853C207.589 52.0534 218.472 53.5719 218.472 53.5719C220.496 42.3237 214.057 30.9631 202.893 27.2231C191.701 23.4549 179.665 28.6291 174.491 38.8649C174.519 38.8649 185.205 44.5171 196.397 48.2853Z" fill="#EAEAEB"/>
<path d="M197.5 96.4104C197.5 96.9627 197.052 96.4104 196.5 96.4104C195.948 96.4104 195.5 96.9627 195.5 96.4104C195.5 95.8581 195.948 95.4104 196.5 95.4104C197.052 95.4104 197.5 95.8581 197.5 96.4104Z" fill="#D4D6D7"/>
<path d="M192.5 100.213C192.5 100.657 192.276 100.213 192 100.213C191.724 100.213 191.5 100.657 191.5 100.213C191.5 99.7699 191.724 99.4104 192 99.4104C192.276 99.4104 192.5 99.7699 192.5 100.213Z" fill="#D4D6D7"/>
<path d="M168.5 84.2133C168.5 84.6568 168.276 84.2133 168 84.2133C167.724 84.2133 167.5 84.6568 167.5 84.2133C167.5 83.7699 167.724 83.4104 168 83.4104C168.276 83.4104 168.5 83.7699 168.5 84.2133Z" fill="#D4D6D7"/>
<path d="M159.722 106.41C159.722 107.515 158.105 107.91 157 107.91C155.895 107.91 155.722 107.515 155.722 106.41C155.722 105.306 157.117 104.91 158.222 104.91C159.326 104.91 159.722 105.306 159.722 106.41Z" fill="#D4D6D7"/>
<defs>
<linearGradient id="paint0_linear_1942_25180" x1="171" y1="0.4104" x2="171" y2="180.41" gradientUnits="userSpaceOnUse">
<stop stop-color="#DADADA"/>
<stop offset="1" stop-color="#DADADA" stop-opacity="0"/>
</linearGradient>
<linearGradient id="paint1_linear_1942_25180" x1="163.5" y1="123.41" x2="163.5" y2="234.41" gradientUnits="userSpaceOnUse">
<stop stop-color="#DADADA"/>
<stop offset="1" stop-color="#DADADA" stop-opacity="0"/>
</linearGradient>
<linearGradient id="paint2_linear_1942_25180" x1="168.49" y1="7.46265" x2="168.49" y2="180.41" gradientUnits="userSpaceOnUse">
<stop stop-color="#DADADA"/>
<stop offset="1" stop-color="#DADADA" stop-opacity="0"/>
</linearGradient>
<linearGradient id="paint3_linear_1942_25180" x1="163.5" y1="123.41" x2="163.5" y2="234.41" gradientUnits="userSpaceOnUse">
<stop stop-color="#DADADA"/>
<stop offset="1" stop-color="#DADADA" stop-opacity="0"/>
</linearGradient>
</defs>
</svg>
