<svg width="342" height="179" viewBox="0 0 342 179" fill="none" xmlns="http://www.w3.org/2000/svg">
<path opacity="0.02" d="M246.472 0.354946C234.826 1.17054 221.648 3.51539 207.193 7.33851L205.405 7.79729C194.678 10.6519 181.041 13.1497 164.798 15.2906C159.23 15.4945 105.598 17.1767 75.0534 15.9023C71.8355 15.7494 68.5154 15.8004 65.2975 16.0552C45.2238 17.4825 27.7039 25.4856 15.9049 38.6881C3.08428 53.0121 -2.12569 72.8413 0.785764 95.9839C0.785764 96.0349 0.785764 96.0859 0.785764 96.0859C2.62458 117.495 9.00935 134.215 19.6336 145.685C29.9514 156.848 43.9468 163.016 61.2623 164.036C68.1578 164.749 76.126 164.8 85.0136 164.188C89.151 163.883 93.5437 163.475 98.0386 162.863C99.1112 162.71 100.286 162.608 101.563 162.506C111.217 161.844 125.416 162.608 143.754 164.902C148.912 165.769 154.122 166.686 159.69 167.706C174.145 170.254 189.111 172.956 204.23 174.944C207.806 175.658 233.089 180.449 259.548 178.563C285.751 176.728 304.854 169.031 316.296 155.727C319.258 152.77 321.914 149.457 324.213 145.939C335.041 129.169 340.966 111.48 341.886 93.4352C342.703 76.9703 339.127 60.6583 331.517 46.2324C318.083 20.592 293.464 3.51539 265.728 0.558846C259.956 -0.0528533 253.469 -0.154804 246.472 0.354946Z" fill="black"/>
<path opacity="0.02" d="M34.6169 154.065C36.7944 157.198 39.2623 159.944 41.8753 162.402C69.9414 193.291 140.784 171.654 141.655 171.365C161.398 166.932 181.19 161.149 198.997 156.427C216.369 152.716 233.886 149.969 245.306 150.644C261.226 151.608 271.921 150.5 278.502 149.198C305.552 145.392 323.504 125.683 323.94 83.0843C323.94 83.0361 323.94 82.9397 323.94 82.8915C326.553 29.0171 288.809 11.3802 257.5 15.3316C226.192 19.2831 170.399 21.5961 170.399 21.5961C155.688 20.7287 137.936 14.065 125.5 11.4628C109.144 8.08963 83.6461 5.20315 67 8.47995C16.3359 18.3585 -7.57908 93.8784 34.6169 154.065Z" fill="black"/>
<path d="M111.68 39.8514C112.105 39.8514 112.531 40.0164 112.863 40.3462L114.258 41.7365L115.654 40.3462C116.316 39.6865 117.357 39.6865 118.02 40.3462C118.682 41.006 118.682 42.0428 118.02 42.7026L116.624 44.0928L118.02 45.4831C118.682 46.1428 118.682 47.1796 118.02 47.8394C117.357 48.4992 116.316 48.4992 115.654 47.8394L114.258 46.4492L112.863 47.8394C112.2 48.4992 111.159 48.4992 110.497 47.8394C109.834 47.1796 109.834 46.1428 110.497 45.4831L111.893 44.0928L110.497 42.7026C109.834 42.0428 109.834 41.006 110.497 40.3462C110.804 40.0164 111.254 39.8514 111.68 39.8514ZM243.163 86.2621C243.589 86.2621 244.015 86.4271 244.346 86.7569L245.742 88.1472L247.137 86.7569C247.8 86.0972 248.841 86.0972 249.503 86.7569C250.166 87.4167 250.166 88.4535 249.503 89.1133L248.107 90.5035L249.503 91.8938C250.166 92.5535 250.166 93.5903 249.503 94.2501C248.841 94.9099 247.8 94.9099 247.137 94.2501L245.742 92.8598L244.346 94.2501C243.684 94.9099 242.643 94.9099 241.98 94.2501C241.318 93.5903 241.318 92.5535 241.98 91.8938L243.376 90.5035L241.98 89.1133C241.318 88.4535 241.318 87.4167 241.98 86.7569C242.311 86.4271 242.737 86.2621 243.163 86.2621ZM119.605 137.757C120.031 137.757 120.456 137.922 120.788 138.252C121.45 138.912 121.45 139.949 120.788 140.608L119.392 141.999L120.788 143.389C121.45 144.049 121.45 145.085 120.788 145.745C120.125 146.405 119.084 146.405 118.422 145.745L117.026 144.355L115.63 145.745C114.968 146.405 113.927 146.405 113.265 145.745C112.602 145.085 112.602 144.049 113.265 143.389L114.66 141.999L113.265 140.608C112.602 139.949 112.602 138.912 113.265 138.252C113.927 137.592 114.968 137.592 115.63 138.252L117.026 139.642L118.422 138.252C118.753 137.922 119.179 137.757 119.605 137.757Z" fill="#CBD1D4"/>
<path d="M84.5615 96.1989C84.4429 96.247 84.3241 96.252 84.2051 96.214C84.08 96.1611 83.9934 96.0754 83.9453 95.9568L83.7378 95.4453C83.589 94.7804 83.5933 94.1312 83.7506 93.4976C83.9228 92.858 84.2013 92.0975 84.5863 91.2161C84.8682 90.5492 85.0677 90.0194 85.1846 89.6266C85.2956 89.219 85.2953 88.8565 85.1838 88.5392C85.0418 88.0615 84.7388 87.7614 84.2747 87.6389C83.8194 87.4955 83.3471 87.5231 82.8578 87.7216C81.7014 88.1907 81.2153 89.0354 81.3995 90.2556C81.4252 90.6596 81.2676 90.9307 80.9266 91.0691L78.2133 92.1697C78.0502 92.2359 77.8957 92.2381 77.7499 92.1765C77.6128 92.0939 77.5082 91.9637 77.436 91.7858C77.1348 90.9583 77.0815 90.0821 77.2761 89.1571C77.4646 88.2173 77.9401 87.3251 78.7026 86.4806C79.465 85.636 80.506 84.9461 81.8256 84.4108C83.1748 83.8634 84.3591 83.6333 85.3787 83.7205C86.3922 83.7928 87.2032 84.0681 87.8116 84.5465C88.4289 85.004 88.8668 85.5515 89.1255 86.1891C89.4202 86.9156 89.5083 87.6223 89.3898 88.3092C89.2862 88.9901 89.0525 89.8187 88.6889 90.795C88.463 91.3874 88.2916 91.8799 88.1746 92.2727C88.0725 92.6595 88.0283 93.04 88.042 93.4143C88.0517 93.5658 88.081 93.787 88.13 94.0779C88.0956 94.3336 88.0519 94.524 87.999 94.649C87.9462 94.7741 87.8382 94.8697 87.6751 94.9358L84.5615 96.1989ZM86.5187 100.896C86.3556 100.962 86.2011 100.964 86.0552 100.902C85.9093 100.841 85.8033 100.728 85.7371 100.565L84.7086 98.0299C84.6425 97.8668 84.6402 97.7123 84.7019 97.5664C84.7636 97.4205 84.876 97.3145 85.0391 97.2483L87.8858 96.0935C88.0488 96.0274 88.2033 96.0251 88.3492 96.0868C88.5099 96.1425 88.6234 96.2519 88.6895 96.415L89.718 98.9503C89.7842 99.1134 89.779 99.2709 89.7025 99.4228C89.6408 99.5687 89.5284 99.6747 89.3653 99.7409L86.5187 100.896Z" fill="#CBD1D4"/>
<path d="M252.508 47.4571C252.424 47.4043 252.368 47.3277 252.34 47.2274C252.32 47.1149 252.337 47.0099 252.394 46.9127L252.636 46.4931C253.005 46.0285 253.43 45.6747 253.914 45.4317C254.407 45.1952 255.027 44.9634 255.773 44.7361C256.333 44.558 256.767 44.4001 257.075 44.2624C257.39 44.1125 257.627 43.9132 257.785 43.6644C258.034 43.3072 258.096 42.94 257.971 42.5629C257.864 42.1802 257.637 41.88 257.292 41.6624C256.475 41.1481 255.708 41.2877 254.993 42.081C254.74 42.3201 254.494 42.3638 254.253 42.2122L252.336 41.0055C252.221 40.933 252.151 40.8311 252.127 40.6998C252.12 40.563 252.159 40.4216 252.243 40.2757C252.651 39.62 253.199 39.1031 253.889 38.7248C254.586 38.3343 255.379 38.1616 256.267 38.2067C257.155 38.2517 258.066 38.5676 258.998 39.1544C259.951 39.7545 260.624 40.4187 261.018 41.1472C261.418 41.8636 261.596 42.5562 261.553 43.2252C261.526 43.8886 261.362 44.4818 261.06 45.0047C260.716 45.6006 260.293 46.0477 259.792 46.3459C259.302 46.6508 258.657 46.9501 257.859 47.2436C257.373 47.4183 256.975 47.5744 256.667 47.7122C256.369 47.8565 256.101 48.036 255.863 48.2508C255.768 48.3405 255.637 48.4816 255.468 48.6741C255.286 48.7916 255.143 48.867 255.038 48.9004C254.933 48.9338 254.823 48.9143 254.707 48.8417L252.508 47.4571ZM250.305 51.3439C250.189 51.2714 250.12 51.1695 250.096 51.0382C250.071 50.9069 250.098 50.7744 250.175 50.6406L251.377 48.5612C251.454 48.4274 251.554 48.341 251.677 48.3021C251.799 48.2631 251.918 48.2799 252.033 48.3524L254.044 49.6184C254.16 49.6909 254.229 49.7928 254.253 49.9241C254.288 50.062 254.267 50.1978 254.189 50.3316L252.988 52.411C252.91 52.5448 252.805 52.6279 252.672 52.6602C252.55 52.6992 252.431 52.6824 252.316 52.6099L250.305 51.3439Z" fill="#CBD1D4"/>
<path opacity="0.8" d="M278.68 111.672C278.502 110.464 277.398 109.659 276.222 109.842C275.047 110.025 274.263 111.16 274.442 112.368C274.762 114.418 275.154 120.824 272.981 123.423C272.518 123.972 271.948 124.302 271.236 124.448L271.45 112.221C271.485 110.428 270.096 109 268.351 109C266.606 109 265.217 110.464 265.253 112.258L265.822 135.467C265.075 135.357 264.505 134.991 264.006 134.442C261.833 131.843 262.225 125.437 262.546 123.387C262.724 122.179 261.94 121.044 260.765 120.861C259.59 120.678 258.486 121.483 258.307 122.691C258.165 123.716 256.918 132.685 260.729 137.297C262.047 138.871 263.828 139.787 265.894 139.896L266.143 150H270.809L271.165 128.914C273.195 128.768 274.94 127.853 276.222 126.315C280.069 121.666 278.858 112.661 278.68 111.672Z" fill="#98A3AA"/>
<path opacity="0.8" d="M77.795 138.775C77.6909 137.982 76.9968 137.453 76.268 137.566C75.5392 137.68 75.0534 138.435 75.1575 139.228C75.331 140.587 75.5739 144.779 74.2552 146.478C73.9775 146.856 73.6305 147.083 73.1794 147.158L73.3182 139.115C73.3529 137.944 72.4853 137 71.4095 137C70.3337 137 69.4661 137.982 69.5008 139.152L69.8478 154.408C69.3967 154.333 69.0149 154.106 68.7373 153.729C67.3838 152.029 67.6267 147.8 67.835 146.478C67.9391 145.685 67.4532 144.93 66.7245 144.817C65.9957 144.704 65.3363 145.232 65.1975 146.025C65.0934 146.705 64.3299 152.596 66.7245 155.617C67.5574 156.674 68.6332 157.241 69.9519 157.354L70.0907 164H73.0058L73.2141 150.141C74.4634 150.028 75.5739 149.462 76.3721 148.442C78.6626 145.345 77.8991 139.417 77.795 138.775Z" fill="#98A3AA"/>
<path opacity="0.5" d="M80.0946 152.855C80.1427 152.473 80.463 152.218 80.7994 152.273C81.1357 152.327 81.36 152.691 81.3119 153.073C81.2318 153.727 81.1197 154.745 81.7284 155.564C81.8565 155.745 82.0167 155.855 82.2249 155.891L82.1608 152.018C82.1448 151.455 82.5453 151 83.0418 151C83.5383 151 83.9387 151.473 83.9227 152.036L83.7626 159.382C83.9708 159.345 84.147 159.236 84.2751 159.055C84.8998 158.236 84.7877 157.2 84.6916 156.564C84.6435 156.182 84.8677 155.818 85.2041 155.764C85.5405 155.709 85.8448 155.964 85.9089 156.345C85.9569 156.673 86.3093 158.509 85.2041 159.964C84.8197 160.473 84.3231 160.745 83.7145 160.8L83.6504 164H82.305L82.2089 157.327C81.6323 157.273 81.1197 157 80.7513 156.509C79.6942 155.018 80.0466 153.164 80.0946 152.855Z" fill="#98A3AA"/>
<path opacity="0.5" d="M245.158 132.996C245.238 132.379 245.772 131.968 246.332 132.056C246.893 132.144 247.267 132.731 247.187 133.348C247.053 134.406 246.866 136.05 247.881 137.372C248.094 137.666 248.361 137.842 248.708 137.901L248.601 131.645C248.575 130.734 249.242 130 250.07 130C250.897 130 251.565 130.764 251.538 131.674L251.271 143.54C251.618 143.481 251.912 143.305 252.125 143.011C253.166 141.69 252.979 140.015 252.819 138.987C252.739 138.371 253.113 137.783 253.673 137.695C254.234 137.607 254.741 138.018 254.848 138.635C254.928 139.164 255.515 142.13 253.673 144.48C253.033 145.302 252.205 145.743 251.191 145.831L251.084 151H248.842L248.681 140.221C247.72 140.133 246.866 139.692 246.252 138.899C244.49 136.491 245.078 133.495 245.158 132.996Z" fill="#98A3AA"/>
<path fill-rule="evenodd" clip-rule="evenodd" d="M177.098 52.5C175.943 50.5 173.057 50.5 171.902 52.5L127.302 129.75C126.147 131.75 127.59 134.25 129.9 134.25H219.1C221.41 134.25 222.853 131.75 221.698 129.75L177.098 52.5ZM175.626 54.95C175.125 54.0833 173.875 54.0833 173.374 54.95L130.159 129.8C129.659 130.667 130.285 131.75 131.285 131.75H217.715C218.715 131.75 219.341 130.667 218.841 129.8L175.626 54.95Z" fill="#98A3AA"/>
<path d="M173.349 53.1714C173.861 52.2762 175.139 52.2762 175.651 53.1714L219.82 130.486C220.331 131.381 219.692 132.5 218.669 132.5H130.331C129.308 132.5 128.669 131.381 129.18 130.486L173.349 53.1714Z" fill="white"/>
<path d="M170.632 106.856C170.205 106.856 169.821 106.707 169.48 106.408C169.181 106.067 169.032 105.683 169.032 105.256V77.8C169.032 77.3307 169.181 76.9467 169.48 76.648C169.821 76.3493 170.205 76.2 170.632 76.2H177.992C178.461 76.2 178.845 76.3493 179.144 76.648C179.443 76.9467 179.592 77.3307 179.592 77.8V105.256C179.592 105.683 179.443 106.067 179.144 106.408C178.845 106.707 178.461 106.856 177.992 106.856H170.632ZM170.376 121C169.907 121 169.523 120.851 169.224 120.552C168.925 120.253 168.776 119.869 168.776 119.4V111.528C168.776 111.059 168.925 110.675 169.224 110.376C169.523 110.035 169.907 109.864 170.376 109.864H178.248C178.675 109.864 179.037 110.035 179.336 110.376C179.677 110.675 179.848 111.059 179.848 111.528V119.4C179.848 119.827 179.699 120.211 179.4 120.552C179.101 120.851 178.717 121 178.248 121H170.376Z" fill="#E7EAEB"/>
<path d="M169.48 106.408L168.276 107.462L168.346 107.542L168.426 107.612L169.48 106.408ZM169.48 76.648L168.426 75.4439L168.386 75.479L168.349 75.5166L169.48 76.648ZM179.144 76.648L178.013 77.7794L178.013 77.7794L179.144 76.648ZM179.144 106.408L180.275 107.539L180.313 107.502L180.348 107.462L179.144 106.408ZM169.224 120.552L168.093 121.683L168.093 121.683L169.224 120.552ZM169.224 110.376L170.355 111.507L170.393 111.47L170.428 111.43L169.224 110.376ZM179.336 110.376L178.132 111.43L178.202 111.51L178.282 111.58L179.336 110.376ZM179.4 120.552L180.531 121.683L180.569 121.646L180.604 121.606L179.4 120.552ZM170.632 105.256C170.619 105.256 170.612 105.255 170.61 105.254C170.608 105.254 170.606 105.254 170.604 105.253C170.602 105.252 170.578 105.243 170.534 105.204L168.426 107.612C169.039 108.149 169.792 108.456 170.632 108.456V105.256ZM170.684 105.354C170.645 105.31 170.636 105.286 170.635 105.284C170.634 105.282 170.634 105.28 170.634 105.278C170.633 105.276 170.632 105.269 170.632 105.256H167.432C167.432 106.096 167.739 106.849 168.276 107.462L170.684 105.354ZM170.632 105.256V77.8H167.432V105.256H170.632ZM170.632 77.8C170.632 77.7675 170.635 77.7482 170.636 77.7398C170.637 77.7318 170.638 77.7327 170.635 77.7399C170.632 77.7474 170.628 77.7567 170.622 77.7659C170.616 77.7749 170.611 77.7795 170.611 77.7794L168.349 75.5166C167.715 76.15 167.432 76.958 167.432 77.8H170.632ZM170.534 77.8521C170.578 77.813 170.602 77.804 170.604 77.8032C170.606 77.8024 170.608 77.8019 170.61 77.8015C170.612 77.8011 170.619 77.8 170.632 77.8V74.6C169.792 74.6 169.039 74.9075 168.426 75.4439L170.534 77.8521ZM170.632 77.8H177.992V74.6H170.632V77.8ZM177.992 77.8C178.024 77.8 178.044 77.8026 178.052 77.804C178.06 77.8055 178.059 77.806 178.052 77.8032C178.045 77.8003 178.035 77.7957 178.026 77.7897C178.017 77.7837 178.013 77.7793 178.013 77.7794L180.275 75.5166C179.642 74.8832 178.834 74.6 177.992 74.6V77.8ZM178.013 77.7794C178.013 77.7795 178.008 77.7749 178.002 77.7659C177.996 77.7567 177.992 77.7474 177.989 77.7399C177.986 77.7327 177.987 77.7318 177.988 77.7398C177.989 77.7482 177.992 77.7675 177.992 77.8H181.192C181.192 76.958 180.909 76.15 180.275 75.5166L178.013 77.7794ZM177.992 77.8V105.256H181.192V77.8H177.992ZM177.992 105.256C177.992 105.269 177.991 105.276 177.99 105.278C177.99 105.28 177.99 105.282 177.989 105.284C177.988 105.286 177.979 105.31 177.94 105.354L180.348 107.462C180.885 106.849 181.192 106.096 181.192 105.256H177.992ZM178.013 105.277C178.013 105.277 178.017 105.272 178.026 105.266C178.035 105.26 178.045 105.256 178.052 105.253C178.059 105.25 178.06 105.251 178.052 105.252C178.044 105.253 178.024 105.256 177.992 105.256V108.456C178.834 108.456 179.642 108.173 180.275 107.539L178.013 105.277ZM177.992 105.256H170.632V108.456H177.992V105.256ZM170.376 119.4C170.344 119.4 170.324 119.397 170.316 119.396C170.308 119.395 170.309 119.394 170.316 119.397C170.323 119.4 170.333 119.404 170.342 119.41C170.351 119.416 170.355 119.421 170.355 119.421L168.093 121.683C168.726 122.317 169.534 122.6 170.376 122.6V119.4ZM170.355 119.421C170.355 119.421 170.36 119.425 170.366 119.434C170.372 119.443 170.376 119.453 170.379 119.46C170.382 119.467 170.381 119.468 170.38 119.46C170.379 119.452 170.376 119.432 170.376 119.4H167.176C167.176 120.242 167.459 121.05 168.093 121.683L170.355 119.421ZM170.376 119.4V111.528H167.176V119.4H170.376ZM170.376 111.528C170.376 111.496 170.379 111.476 170.38 111.468C170.381 111.46 170.382 111.461 170.379 111.468C170.376 111.475 170.372 111.485 170.366 111.494C170.36 111.503 170.355 111.507 170.355 111.507L168.093 109.245C167.459 109.878 167.176 110.686 167.176 111.528H170.376ZM170.428 111.43C170.434 111.423 170.433 111.425 170.424 111.432C170.415 111.439 170.401 111.447 170.386 111.454C170.37 111.461 170.359 111.464 170.354 111.465C170.349 111.466 170.356 111.464 170.376 111.464V108.264C169.464 108.264 168.634 108.62 168.02 109.322L170.428 111.43ZM170.376 111.464H178.248V108.264H170.376V111.464ZM178.248 111.464C178.247 111.464 178.236 111.464 178.218 111.46C178.199 111.456 178.178 111.449 178.159 111.44C178.116 111.42 178.109 111.403 178.132 111.43L180.54 109.322C179.959 108.659 179.168 108.264 178.248 108.264V111.464ZM178.282 111.58C178.289 111.586 178.287 111.585 178.28 111.576C178.273 111.567 178.265 111.553 178.258 111.538C178.251 111.522 178.248 111.511 178.247 111.506C178.246 111.501 178.248 111.508 178.248 111.528H181.448C181.448 110.616 181.092 109.786 180.39 109.172L178.282 111.58ZM178.248 111.528V119.4H181.448V111.528H178.248ZM178.248 119.4C178.248 119.413 178.247 119.42 178.246 119.422C178.246 119.424 178.246 119.426 178.245 119.428C178.244 119.43 178.235 119.454 178.196 119.498L180.604 121.606C181.141 120.993 181.448 120.24 181.448 119.4H178.248ZM178.269 119.421C178.269 119.421 178.273 119.416 178.282 119.41C178.291 119.404 178.301 119.4 178.308 119.397C178.315 119.394 178.316 119.395 178.308 119.396C178.3 119.397 178.28 119.4 178.248 119.4V122.6C179.09 122.6 179.898 122.317 180.531 121.683L178.269 119.421ZM178.248 119.4H170.376V122.6H178.248V119.4Z" fill="#98A3AA"/>
</svg>
