<svg width="342" height="181" viewBox="0 0 342 181" fill="none" xmlns="http://www.w3.org/2000/svg">
<path opacity="0.02" d="M246.472 0.838023C234.826 1.65831 221.648 4.01663 207.193 7.86173L205.405 8.32314C194.678 11.1941 181.041 13.7063 164.798 15.8595C159.23 16.0646 105.598 17.7564 75.0534 16.4747C71.8355 16.3209 68.5154 16.3722 65.2975 16.6285C45.2238 18.064 27.7039 26.1131 15.9049 39.3915C3.08428 53.7978 -2.12569 73.741 0.785764 97.0166C0.785764 97.0679 0.785764 97.1192 0.785764 97.1192C2.62458 118.652 9.00935 135.468 19.6336 147.003C29.9514 158.23 43.9468 164.434 61.2623 165.459C68.1578 166.177 76.126 166.228 85.0136 165.613C89.151 165.305 93.5437 164.895 98.0386 164.28C99.1112 164.126 100.286 164.024 101.563 163.921C111.217 163.255 125.416 164.024 143.754 166.331C148.912 167.202 154.122 168.125 159.69 169.151C174.145 171.714 189.111 174.431 204.23 176.431C207.806 177.148 233.089 181.968 259.548 180.071C285.751 178.225 304.854 170.484 316.296 157.103C319.258 154.129 321.914 150.797 324.213 147.259C335.041 130.392 340.966 112.602 341.886 94.4532C342.703 77.8937 339.127 61.488 331.517 46.9791C318.083 21.1914 293.464 4.01663 265.728 1.04309C259.956 0.42788 253.469 0.325343 246.472 0.838023Z" fill="black"/>
<path opacity="0.02" d="M34.6169 155.432C36.7944 158.582 39.2623 161.345 41.8753 163.816C69.9414 194.883 140.784 173.122 141.655 172.831C161.398 168.372 181.19 162.556 198.997 157.807C216.369 154.075 233.886 151.312 245.306 151.991C261.226 152.96 271.921 151.845 278.502 150.537C305.552 146.708 323.504 126.886 323.94 84.0428C323.94 83.9943 323.94 83.8974 323.94 83.8489C326.553 29.6649 288.809 11.9266 257.5 15.9008C226.192 19.8749 170.399 22.2012 170.399 22.2012C155.688 21.3289 137.936 14.6268 125.5 12.0097C109.144 8.61714 83.6461 5.71408 67 9.00971C16.3359 18.9451 -7.57908 94.8989 34.6169 155.432Z" fill="black"/>
<g opacity="0.6">
<path d="M283.42 59.9605H273.113C270.839 59.9605 269 58.1188 269 55.8409V54.6293C269 52.3514 270.839 50.5098 273.113 50.5098H283.42C285.694 50.5098 287.533 52.3514 287.533 54.6293V55.8409C287.533 58.0703 285.694 59.9605 283.42 59.9605Z" stroke="#636369" stroke-width="0.75" stroke-miterlimit="10" stroke-linecap="round"/>
<path d="M282.936 57.5373H282.307C281.146 57.5373 280.178 56.568 280.178 55.4048V54.7748C280.178 53.6116 281.146 52.6423 282.307 52.6423H282.936C284.098 52.6423 285.065 53.6116 285.065 54.7748V55.4048C285.065 56.568 284.098 57.5373 282.936 57.5373Z" stroke="#636369" stroke-width="0.75" stroke-miterlimit="10" stroke-linecap="round"/>
<path d="M271.952 53.7568H277.516" stroke="#636369" stroke-width="0.75" stroke-miterlimit="10" stroke-linecap="round"/>
<path d="M271.952 55.2109H277.516" stroke="#636369" stroke-width="0.75" stroke-miterlimit="10" stroke-linecap="round"/>
<path d="M271.952 56.6648H277.516" stroke="#636369" stroke-width="0.75" stroke-miterlimit="10" stroke-linecap="round"/>
</g>
<g opacity="0.6">
<path d="M55.3389 65.8491V79.4678H71.4527" stroke="#636369" stroke-width="0.75" stroke-miterlimit="10" stroke-linecap="round"/>
<path d="M70.5817 65.8491L66.4685 73.9913L64.049 70.1141L61.6295 76.1237L59.7423 73.4097L57.2261 77.6746L55.3389 75.3483" stroke="#636369" stroke-width="0.75" stroke-miterlimit="10" stroke-linecap="round"/>
<path d="M69.7588 65.9944L70.7266 65.7036L70.9201 66.6245" stroke="#636369" stroke-width="0.75" stroke-miterlimit="10" stroke-linecap="round"/>
<path d="M66.4684 74.7666C66.6554 74.7666 66.8071 74.6148 66.8071 74.4274C66.8071 74.24 66.6554 74.0881 66.4684 74.0881C66.2813 74.0881 66.1296 74.24 66.1296 74.4274C66.1296 74.6148 66.2813 74.7666 66.4684 74.7666Z" fill="#636369"/>
<path d="M64.0973 70.1624C64.2843 70.1624 64.436 70.0105 64.436 69.8231C64.436 69.6358 64.2843 69.4839 64.0973 69.4839C63.9102 69.4839 63.7585 69.6358 63.7585 69.8231C63.7585 70.0105 63.9102 70.1624 64.0973 70.1624Z" fill="#636369"/>
<path d="M61.6295 76.7051C61.8166 76.7051 61.9682 76.5532 61.9682 76.3659C61.9682 76.1785 61.8166 76.0266 61.6295 76.0266C61.4424 76.0266 61.2908 76.1785 61.2908 76.3659C61.2908 76.5532 61.4424 76.7051 61.6295 76.7051Z" fill="#636369"/>
<path d="M59.7423 73.3611C59.9294 73.3611 60.081 73.2092 60.081 73.0219C60.081 72.8345 59.9294 72.6826 59.7423 72.6826C59.5552 72.6826 59.4036 72.8345 59.4036 73.0219C59.4036 73.2092 59.5552 73.3611 59.7423 73.3611Z" fill="#636369"/>
<path d="M57.1776 78.3531C57.3647 78.3531 57.5163 78.2012 57.5163 78.0138C57.5163 77.8265 57.3647 77.6746 57.1776 77.6746C56.9905 77.6746 56.8389 77.8265 56.8389 78.0138C56.8389 78.2012 56.9905 78.3531 57.1776 78.3531Z" fill="#636369"/>
<path d="M71.4525 79.8069C71.6396 79.8069 71.7912 79.655 71.7912 79.4677C71.7912 79.2803 71.6396 79.1284 71.4525 79.1284C71.2654 79.1284 71.1138 79.2803 71.1138 79.4677C71.1138 79.655 71.2654 79.8069 71.4525 79.8069Z" fill="#636369"/>
<path d="M55.3387 66.1883C55.5258 66.1883 55.6775 66.0364 55.6775 65.849C55.6775 65.6617 55.5258 65.5098 55.3387 65.5098C55.1517 65.5098 55 65.6617 55 65.849C55 66.0364 55.1517 66.1883 55.3387 66.1883Z" fill="#636369"/>
</g>
<g opacity="0.6">
<path d="M265.517 141.238V125.245" stroke="#636369" stroke-miterlimit="10" stroke-linecap="round"/>
<path d="M281.293 115.019C281.293 106.44 274.373 99.5098 265.808 99.5098C257.243 99.5098 250.323 106.44 250.323 115.019C250.323 116.036 249.5 116.86 248.484 116.86H246.21C243.887 116.86 242 118.75 242 121.077C242 132.418 251.146 141.578 262.469 141.578H268.518C279.841 141.578 288.987 132.418 288.987 121.077C288.987 118.75 287.099 116.86 284.777 116.86H283.083C282.115 116.86 281.293 116.036 281.293 115.019Z" stroke="#636369" stroke-width="0.75" stroke-miterlimit="10" stroke-linecap="round"/>
<path d="M259.13 128.104V128.589C259.13 130.673 260.824 132.369 262.905 132.369H268.131C270.211 132.369 271.905 130.673 271.905 128.589" stroke="#636369" stroke-width="0.75" stroke-miterlimit="10" stroke-linecap="round"/>
</g>
<g opacity="0.6">
<path d="M57.9905 155.243V142.322" stroke="#636369" stroke-miterlimit="10" stroke-linecap="round"/>
<path d="M70.7398 134.05C70.7398 127.113 65.1454 121.51 58.219 121.51C51.2925 121.51 45.6981 127.113 45.6981 134.05C45.6981 134.851 45.0511 135.537 44.2139 135.537H42.3871C40.5223 135.537 39 137.061 39 138.929C39 148.077 46.4212 155.51 55.5549 155.51H60.4263C69.56 155.51 76.9812 148.077 76.9812 138.929C76.9812 137.061 75.4589 135.537 73.5941 135.537H72.224C71.3868 135.537 70.7398 134.889 70.7398 134.05Z" stroke="#636369" stroke-width="0.75" stroke-miterlimit="10" stroke-linecap="round"/>
<path d="M52.8147 144.646V145.066C52.8147 146.743 54.1848 148.115 55.8593 148.115H60.0836C61.7582 148.115 63.1282 146.743 63.1282 145.066" stroke="#636369" stroke-width="0.75" stroke-miterlimit="10" stroke-linecap="round"/>
</g>
<g opacity="0.6">
<path d="M294.565 152.011V144.159" stroke="#636369" stroke-miterlimit="10" stroke-linecap="round"/>
<path d="M302.308 139.119C302.308 134.902 298.92 131.51 294.71 131.51C290.5 131.51 287.113 134.902 287.113 139.119C287.113 139.603 286.726 140.04 286.194 140.04H285.081C283.919 140.04 283 140.96 283 142.124C283 147.697 287.5 152.204 293.065 152.204H296.017C301.582 152.204 306.082 147.697 306.082 142.124C306.082 140.96 305.163 140.04 304.001 140.04H303.179C302.695 140.04 302.308 139.652 302.308 139.119Z" stroke="#636369" stroke-width="0.75" stroke-miterlimit="10" stroke-linecap="round"/>
<path d="M291.42 145.565V145.807C291.42 146.825 292.243 147.649 293.259 147.649H295.823C296.84 147.649 297.662 146.825 297.662 145.807" stroke="#636369" stroke-width="0.75" stroke-miterlimit="10" stroke-linecap="round"/>
</g>
<path d="M246.661 52.2012L244.58 57.387H93.0234L91.1846 51.4258L169.044 13.6714L246.661 52.2012Z" stroke="#636369" stroke-width="0.75" stroke-miterlimit="10" stroke-linecap="round"/>
<path d="M100.476 52.4434L168.996 19.1963L235.919 52.4434H100.476Z" stroke="#636369" stroke-width="0.75" stroke-miterlimit="10" stroke-linecap="round"/>
<path d="M99.8464 57.387V65.0929H236.112V57.387" stroke="#636369" stroke-width="0.75" stroke-miterlimit="10" stroke-linecap="round"/>
<path d="M107.395 65.0928C107.395 65.0928 104.443 65.0444 103.814 67.9038C103.185 70.7633 104.734 73.5258 107.395 73.5742C110.057 73.6227 111.266 71.9264 111.266 70.9087C111.266 69.8909 111.266 68.2431 109.573 68.0492C107.879 67.8069 107.492 69.3093 107.492 69.3093" stroke="#636369" stroke-width="0.75" stroke-miterlimit="10" stroke-linecap="round"/>
<path d="M122.299 65.0928C122.299 65.0928 125.251 65.0444 125.88 67.9038C126.509 70.7633 124.961 73.5258 122.299 73.5742C119.638 73.6227 118.428 71.9264 118.428 70.9087C118.428 69.8909 118.428 68.2431 120.122 68.0492C121.815 67.8069 122.202 69.3093 122.202 69.3093" stroke="#636369" stroke-width="0.75" stroke-miterlimit="10" stroke-linecap="round"/>
<path d="M111.315 70.9087H118.428" stroke="#636369" stroke-width="0.75" stroke-miterlimit="10" stroke-linecap="round"/>
<path d="M107.443 73.5742V123.881H122.251V73.5742" stroke="#636369" stroke-width="0.75" stroke-miterlimit="10" stroke-linecap="round"/>
<path d="M113.444 77.3062H110.25V123.881H113.444V77.3062Z" stroke="#636369" stroke-width="0.75" stroke-miterlimit="10" stroke-linecap="round"/>
<path d="M119.444 77.3062H116.25V123.881H119.444V77.3062Z" stroke="#636369" stroke-width="0.75" stroke-miterlimit="10" stroke-linecap="round"/>
<path d="M124.089 123.881H105.556V130.424H124.089V123.881Z" stroke="#636369" stroke-width="0.75" stroke-miterlimit="10" stroke-linecap="round"/>
<path d="M143.397 65.0928C143.397 65.0928 140.445 65.0444 139.816 67.9038C139.187 70.7633 140.736 73.5258 143.397 73.5742C146.058 73.6227 147.268 71.9264 147.268 70.9087C147.268 69.8909 147.268 68.2431 145.575 68.0492C143.881 67.8553 143.494 69.3093 143.494 69.3093" stroke="#636369" stroke-width="0.75" stroke-miterlimit="10" stroke-linecap="round"/>
<path d="M158.253 65.0928C158.253 65.0928 161.205 65.0444 161.834 67.9038C162.463 70.7633 160.914 73.5258 158.253 73.5742C155.591 73.6712 154.382 71.9264 154.382 70.9086C154.382 69.8909 154.382 68.2431 156.075 68.0492C157.769 67.8553 158.156 69.3093 158.156 69.3093" stroke="#636369" stroke-width="0.75" stroke-miterlimit="10" stroke-linecap="round"/>
<path d="M147.268 70.9087H154.381" stroke="#636369" stroke-width="0.75" stroke-miterlimit="10" stroke-linecap="round"/>
<path d="M143.397 73.5742V123.881H158.253V73.5742" stroke="#636369" stroke-width="0.75" stroke-miterlimit="10" stroke-linecap="round"/>
<path d="M149.397 77.3062H146.204V123.881H149.397V77.3062Z" stroke="#636369" stroke-width="0.75" stroke-miterlimit="10" stroke-linecap="round"/>
<path d="M155.398 77.3062H152.204V123.881H155.398V77.3062Z" stroke="#636369" stroke-width="0.75" stroke-miterlimit="10" stroke-linecap="round"/>
<path d="M160.043 123.881H141.51V130.424H160.043V123.881Z" stroke="#636369" stroke-width="0.75" stroke-miterlimit="10" stroke-linecap="round"/>
<path d="M179.544 65.0928C179.544 65.0928 176.592 65.0444 175.963 67.9038C175.334 70.7633 176.883 73.5258 179.544 73.5742C182.206 73.6712 183.415 71.9264 183.415 70.9086C183.415 69.8909 183.415 68.2431 181.722 68.0492C180.028 67.8553 179.641 69.3093 179.641 69.3093" stroke="#636369" stroke-width="0.75" stroke-miterlimit="10" stroke-linecap="round"/>
<path d="M194.448 65.0928C194.448 65.0928 197.4 65.0444 198.029 67.9038C198.658 70.7633 197.11 73.5258 194.448 73.5742C191.787 73.6712 190.577 71.9264 190.577 70.9086C190.577 69.8909 190.577 68.2431 192.271 68.0492C193.964 67.8553 194.352 69.3093 194.352 69.3093" stroke="#636369" stroke-width="0.75" stroke-miterlimit="10" stroke-linecap="round"/>
<path d="M183.464 70.9087H190.577" stroke="#636369" stroke-width="0.75" stroke-miterlimit="10" stroke-linecap="round"/>
<path d="M179.593 73.5742V123.881H194.4V73.5742" stroke="#636369" stroke-width="0.75" stroke-miterlimit="10" stroke-linecap="round"/>
<path d="M185.593 77.3062H182.399V123.881H185.593V77.3062Z" stroke="#636369" stroke-width="0.75" stroke-miterlimit="10" stroke-linecap="round"/>
<path d="M191.593 77.3062H188.399V123.881H191.593V77.3062Z" stroke="#636369" stroke-width="0.75" stroke-miterlimit="10" stroke-linecap="round"/>
<path d="M196.239 123.881H177.705V130.424H196.239V123.881Z" stroke="#636369" stroke-width="0.75" stroke-miterlimit="10" stroke-linecap="round"/>
<path d="M215.546 65.0928C215.546 65.0928 212.595 65.0444 211.966 67.9038C211.337 70.7633 212.885 73.5258 215.546 73.5742C218.208 73.6712 219.418 71.9264 219.418 70.9086C219.418 69.8909 219.418 68.2431 217.724 68.0492C216.03 67.8553 215.643 69.3093 215.643 69.3093" stroke="#636369" stroke-width="0.75" stroke-miterlimit="10" stroke-linecap="round"/>
<path d="M230.451 65.0928C230.451 65.0928 233.402 65.0444 234.031 67.9038C234.66 70.7633 233.112 73.5258 230.451 73.5742C227.789 73.6712 226.579 71.9264 226.579 70.9086C226.579 69.8909 226.579 68.2431 228.273 68.0492C229.967 67.8553 230.354 69.3093 230.354 69.3093" stroke="#636369" stroke-width="0.75" stroke-miterlimit="10" stroke-linecap="round"/>
<path d="M219.418 70.9087H226.531" stroke="#636369" stroke-width="0.75" stroke-miterlimit="10" stroke-linecap="round"/>
<path d="M215.595 73.5742V123.881H230.402V73.5742" stroke="#636369" stroke-width="0.75" stroke-miterlimit="10" stroke-linecap="round"/>
<path d="M221.547 77.3062H218.353V123.881H221.547V77.3062Z" stroke="#636369" stroke-width="0.75" stroke-miterlimit="10" stroke-linecap="round"/>
<path d="M227.547 77.3062H224.353V123.881H227.547V77.3062Z" stroke="#636369" stroke-width="0.75" stroke-miterlimit="10" stroke-linecap="round"/>
<path d="M232.192 123.881H213.659V130.424H232.192V123.881Z" stroke="#636369" stroke-width="0.75" stroke-miterlimit="10" stroke-linecap="round"/>
<path d="M235.144 130.375H102.701V134.204H235.144V130.375Z" stroke="#636369" stroke-width="0.75" stroke-miterlimit="10" stroke-linecap="round"/>
<path d="M241.87 134.253H95.9751V147.241H241.87V134.253Z" stroke="#636369" stroke-width="0.75" stroke-miterlimit="10" stroke-linecap="round"/>
<path d="M248.548 147.241H89.2974V151.846H248.548V147.241Z" stroke="#636369" stroke-width="0.75" stroke-miterlimit="10" stroke-linecap="round"/>
<path d="M155.487 42.0068C155.98 42.0958 156.392 42.3383 156.723 42.7346C157.062 43.1308 157.231 43.5957 157.231 44.1294C157.231 44.5661 157.126 44.9582 156.916 45.306C156.714 45.6456 156.408 45.9165 155.996 46.1186C155.592 46.3127 155.1 46.4097 154.518 46.4097H151.818V37.895H154.47C155.318 37.895 155.956 38.0931 156.383 38.4893C156.819 38.8775 157.037 39.3829 157.037 40.0055C157.037 40.5473 156.892 40.988 156.601 41.3276C156.311 41.6591 155.939 41.8855 155.487 42.0068ZM152.363 41.7642H154.494C155.132 41.7642 155.621 41.6146 155.96 41.3154C156.307 41.0082 156.48 40.5877 156.48 40.054C156.48 39.5365 156.311 39.1282 155.972 38.829C155.633 38.5298 155.12 38.3802 154.434 38.3802H152.363V41.7642ZM154.482 45.9367C155.168 45.9367 155.705 45.7749 156.093 45.4515C156.488 45.12 156.686 44.6671 156.686 44.093C156.686 43.527 156.484 43.0782 156.081 42.7467C155.685 42.4071 155.14 42.2373 154.446 42.2373H152.363V45.9367H154.482Z" fill="#636369"/>
<path d="M163.651 44.2265H159.618L158.807 46.4097H158.213L161.338 38.0891H161.943L165.056 46.4097H164.462L163.651 44.2265ZM163.481 43.7655L161.641 38.8047L159.788 43.7655H163.481Z" fill="#636369"/>
<path d="M172.503 46.4097H171.958L166.969 38.7926V46.4097H166.424V37.9071H166.969L171.958 45.5V37.9071H172.503V46.4097Z" fill="#636369"/>
<path d="M178.958 46.4097L175.046 42.3949V46.4097H174.501V37.895H175.046V41.9462L178.958 37.895H179.66L175.518 42.1645L179.672 46.4097H178.958Z" fill="#636369"/>
<g opacity="0.6">
<path d="M83.177 132.319V123.607" stroke="#636369" stroke-miterlimit="10" stroke-linecap="round"/>
<path d="M91.7989 118.028C91.7989 113.367 88.0221 109.584 83.3677 109.584C78.7134 109.584 74.9365 113.367 74.9365 118.028C74.9365 118.563 74.4787 119.022 73.9446 119.022H72.7238C71.4649 119.022 70.4348 120.053 70.4348 121.314C70.4348 127.504 75.4325 132.51 81.6128 132.51H84.8938C91.0741 132.51 96.0718 127.504 96.0718 121.314C96.0718 120.053 95.0417 119.022 93.7828 119.022H92.8672C92.2186 119.022 91.7989 118.601 91.7989 118.028Z" stroke="#636369" stroke-width="0.75" stroke-miterlimit="10" stroke-linecap="round"/>
<path d="M79.7053 125.174V125.441C79.7053 126.587 80.6209 127.504 81.7654 127.504H84.6267C85.7712 127.504 86.6868 126.587 86.6868 125.441" stroke="#636369" stroke-width="0.75" stroke-miterlimit="10" stroke-linecap="round"/>
</g>
</svg>
