<svg width="342" height="179" viewBox="0 0 342 179" fill="none" xmlns="http://www.w3.org/2000/svg">
<path opacity="0.02" d="M246.472 0.354946C234.826 1.17054 221.648 3.51539 207.193 7.33851L205.405 7.79729C194.678 10.6519 181.041 13.1497 164.798 15.2906C159.23 15.4945 105.598 17.1767 75.0534 15.9023C71.8355 15.7494 68.5154 15.8004 65.2975 16.0552C45.2238 17.4825 27.7039 25.4856 15.9049 38.6881C3.08428 53.0121 -2.12569 72.8413 0.785764 95.9839C0.785764 96.0349 0.785764 96.0859 0.785764 96.0859C2.62458 117.495 9.00935 134.215 19.6336 145.685C29.9514 156.848 43.9468 163.016 61.2623 164.036C68.1578 164.749 76.126 164.8 85.0136 164.188C89.151 163.883 93.5437 163.475 98.0386 162.863C99.1112 162.71 100.286 162.608 101.563 162.506C111.217 161.844 125.416 162.608 143.754 164.902C148.912 165.769 154.122 166.686 159.69 167.706C174.145 170.254 189.111 172.956 204.23 174.944C207.806 175.658 233.089 180.449 259.548 178.563C285.751 176.728 304.854 169.031 316.296 155.727C319.258 152.77 321.914 149.457 324.213 145.939C335.041 129.169 340.966 111.48 341.886 93.4352C342.703 76.9703 339.127 60.6583 331.517 46.2324C318.083 20.592 293.464 3.51539 265.728 0.558846C259.956 -0.0528533 253.469 -0.154804 246.472 0.354946Z" fill="black"/>
<path opacity="0.02" d="M34.6168 154.065C36.7943 157.198 39.2622 159.944 41.8753 162.402C69.9414 193.291 140.784 171.654 141.655 171.365C161.398 166.932 181.19 161.149 198.997 156.427C216.369 152.716 233.886 149.969 245.306 150.644C261.226 151.608 271.921 150.5 278.502 149.198C305.552 145.392 323.504 125.683 323.94 83.0843C323.94 83.0361 323.94 82.9397 323.94 82.8915C326.553 29.0171 288.809 11.3802 257.5 15.3316C226.192 19.2831 170.399 21.5961 170.399 21.5961C155.688 20.7287 137.936 14.065 125.5 11.4628C109.144 8.08963 83.6461 5.20315 67 8.47995C16.3358 18.3585 -7.57914 93.8784 34.6168 154.065Z" fill="black"/>
<g opacity="0.6">
<path d="M265.517 139.953V124.051" stroke="#636369" stroke-miterlimit="10" stroke-linecap="round"/>
<path d="M281.293 113.883C281.293 105.354 274.373 98.4629 265.808 98.4629C257.243 98.4629 250.323 105.354 250.323 113.883C250.323 114.895 249.5 115.714 248.484 115.714H246.21C243.887 115.714 242 117.594 242 119.907C242 131.183 251.146 140.29 262.469 140.29H268.518C279.841 140.29 288.987 131.183 288.987 119.907C288.987 117.594 287.099 115.714 284.777 115.714H283.083C282.115 115.714 281.293 114.895 281.293 113.883Z" stroke="#636369" stroke-width="0.75" stroke-miterlimit="10" stroke-linecap="round"/>
<path d="M259.13 126.894V127.376C259.13 129.448 260.824 131.135 262.904 131.135H268.13C270.211 131.135 271.905 129.448 271.905 127.376" stroke="#636369" stroke-width="0.75" stroke-miterlimit="10" stroke-linecap="round"/>
</g>
<g opacity="0.6">
<path d="M57.9906 153.877V141.03" stroke="#636369" stroke-miterlimit="10" stroke-linecap="round"/>
<path d="M70.7398 132.806C70.7398 125.908 65.1454 120.337 58.219 120.337C51.2925 120.337 45.6981 125.908 45.6981 132.806C45.6981 133.602 45.0511 134.284 44.2139 134.284H42.3871C40.5223 134.284 39 135.8 39 137.657C39 146.753 46.4212 154.143 55.555 154.143H60.4263C69.5601 154.143 76.9812 146.753 76.9812 137.657C76.9812 135.8 75.4589 134.284 73.5941 134.284H72.2241C71.3868 134.284 70.7398 133.64 70.7398 132.806Z" stroke="#636369" stroke-width="0.75" stroke-miterlimit="10" stroke-linecap="round"/>
<path d="M52.8148 143.342V143.759C52.8148 145.426 54.1848 146.791 55.8593 146.791H60.0837C61.7582 146.791 63.1283 145.426 63.1283 143.759" stroke="#636369" stroke-width="0.75" stroke-miterlimit="10" stroke-linecap="round"/>
</g>
<g opacity="0.6">
<path d="M294.565 150.664V142.857" stroke="#636369" stroke-miterlimit="10" stroke-linecap="round"/>
<path d="M302.308 137.846C302.308 133.653 298.92 130.28 294.71 130.28C290.5 130.28 287.113 133.653 287.113 137.846C287.113 138.327 286.726 138.761 286.194 138.761H285.081C283.919 138.761 283 139.677 283 140.833C283 146.375 287.5 150.856 293.065 150.856H296.017C301.582 150.856 306.082 146.375 306.082 140.833C306.082 139.677 305.163 138.761 304.001 138.761H303.179C302.695 138.761 302.308 138.376 302.308 137.846Z" stroke="#636369" stroke-width="0.75" stroke-miterlimit="10" stroke-linecap="round"/>
<path d="M291.42 144.255V144.496C291.42 145.508 292.242 146.327 293.259 146.327H295.823C296.839 146.327 297.662 145.508 297.662 144.496" stroke="#636369" stroke-width="0.75" stroke-miterlimit="10" stroke-linecap="round"/>
</g>
<g opacity="0.6">
<path d="M83.177 131.084V122.422" stroke="#636369" stroke-miterlimit="10" stroke-linecap="round"/>
<path d="M91.7989 116.876C91.7989 112.241 88.0221 108.479 83.3677 108.479C78.7134 108.479 74.9365 112.241 74.9365 116.876C74.9365 117.407 74.4787 117.863 73.9446 117.863H72.7238C71.4649 117.863 70.4348 118.889 70.4348 120.143C70.4348 126.297 75.4325 131.274 81.6128 131.274H84.8938C91.0741 131.274 96.0718 126.297 96.0718 120.143C96.0718 118.889 95.0417 117.863 93.7828 117.863H92.8672C92.2186 117.863 91.7989 117.445 91.7989 116.876Z" stroke="#636369" stroke-width="0.75" stroke-miterlimit="10" stroke-linecap="round"/>
<path d="M79.7053 123.98V124.246C79.7053 125.386 80.6209 126.297 81.7654 126.297H84.6266C85.7711 126.297 86.6868 125.386 86.6868 124.246" stroke="#636369" stroke-width="0.75" stroke-miterlimit="10" stroke-linecap="round"/>
</g>
<path d="M235.32 137.24C234.894 137.24 234.469 137.075 234.137 136.745L232.742 135.355L231.346 136.745C230.683 137.405 229.643 137.405 228.98 136.745C228.318 136.085 228.318 135.049 228.98 134.389L230.376 132.998L228.98 131.608C228.318 130.948 228.318 129.912 228.98 129.252C229.643 128.592 230.683 128.592 231.346 129.252L232.742 130.642L234.137 129.252C234.8 128.592 235.841 128.592 236.503 129.252C237.165 129.912 237.165 130.948 236.503 131.608L235.107 132.998L236.503 134.389C237.165 135.049 237.165 136.085 236.503 136.745C236.196 137.075 235.746 137.24 235.32 137.24ZM73.8368 80.8292C73.411 80.8292 72.9852 80.6643 72.654 80.3344L71.2582 78.9441L69.8624 80.3344C69.2 80.9941 68.1591 80.9941 67.4967 80.3344C66.8343 79.6746 66.8343 78.6378 67.4967 77.978L68.8925 76.5878L67.4967 75.1976C66.8343 74.5378 66.8343 73.501 67.4967 72.8412C68.1591 72.1814 69.2 72.1814 69.8624 72.8412L71.2582 74.2315L72.654 72.8412C73.3164 72.1814 74.3573 72.1814 75.0197 72.8412C75.6821 73.501 75.6821 74.5378 75.0197 75.1976L73.6239 76.5878L75.0197 77.978C75.6821 78.6378 75.6821 79.6746 75.0197 80.3344C74.6885 80.6643 74.2626 80.8292 73.8368 80.8292ZM227.395 39.3341C226.969 39.3341 226.543 39.1692 226.212 38.8393C225.55 38.1795 225.55 37.1427 226.212 36.483L227.608 35.0927L226.212 33.7025C225.55 33.0427 225.55 32.0059 226.212 31.3461C226.875 30.6864 227.916 30.6864 228.578 31.3461L229.974 32.7364L231.37 31.3461C232.032 30.6864 233.073 30.6864 233.735 31.3461C234.398 32.0059 234.398 33.0427 233.735 33.7025L232.339 35.0927L233.735 36.483C234.398 37.1427 234.398 38.1795 233.735 38.8393C233.073 39.4991 232.032 39.4991 231.37 38.8393L229.974 37.4491L228.578 38.8393C228.247 39.1692 227.821 39.3341 227.395 39.3341Z" fill="#CBD1D4"/>
<path fill-rule="evenodd" clip-rule="evenodd" d="M169.994 38.4521C199.541 38.4521 223.517 62.2917 223.517 91.6722C223.517 121.053 199.541 144.892 169.994 144.892C140.446 144.892 116.471 121.053 116.471 91.6722C116.471 62.2917 140.446 38.4521 169.994 38.4521Z" fill="#CBD1D4"/>
<path d="M170 143.205C141.33 143.205 118 120.008 118 91.5026C118 62.997 141.33 39.7998 170 39.7998C198.669 39.7998 222 62.997 222 91.5026C222 120.008 198.669 143.205 170 143.205Z" fill="white"/>
<path fill-rule="evenodd" clip-rule="evenodd" d="M168.117 49.7435V56.0651C168.117 57.0934 168.96 57.9121 169.975 57.9121C171.009 57.9121 171.832 57.0743 171.832 56.0651V49.7435C171.832 48.7152 171.009 47.8965 169.975 47.8965C168.96 47.8965 168.117 48.7152 168.117 49.7435Z" fill="#AAACAE"/>
<path fill-rule="evenodd" clip-rule="evenodd" d="M168.117 127.146V133.467C168.117 134.496 168.96 135.314 169.975 135.314C171.009 135.314 171.832 134.496 171.832 133.467V127.146C171.832 126.118 171.009 125.299 169.975 125.299C168.96 125.299 168.117 126.137 168.117 127.146Z" fill="#AAACAE"/>
<path fill-rule="evenodd" clip-rule="evenodd" d="M212.085 89.749H205.727C204.693 89.749 203.869 90.5678 203.869 91.596C203.869 92.6243 204.712 93.443 205.727 93.443H212.085C213.119 93.443 213.942 92.6243 213.942 91.596C213.961 90.5868 213.119 89.749 212.085 89.749Z" fill="#AAACAE"/>
<path fill-rule="evenodd" clip-rule="evenodd" d="M134.242 89.749H127.884C126.85 89.749 126.027 90.5678 126.027 91.596C126.027 92.6243 126.85 93.443 127.884 93.443H134.242C135.276 93.443 136.099 92.6243 136.099 91.596C136.099 90.5868 135.257 89.749 134.242 89.749Z" fill="#AAACAE"/>
<path fill-rule="evenodd" clip-rule="evenodd" d="M133.055 71.4695L136.578 73.4879C137.018 73.7354 137.593 73.5831 137.842 73.1451C138.091 72.7072 137.938 72.1359 137.497 71.8884L133.974 69.87C133.533 69.6225 132.959 69.7748 132.71 70.2128C132.461 70.6507 132.614 71.222 133.055 71.4695Z" fill="#AAACAE"/>
<path fill-rule="evenodd" clip-rule="evenodd" d="M202.471 111.323L205.995 113.341C206.435 113.589 207.01 113.436 207.259 112.998C207.508 112.56 207.354 111.989 206.914 111.742L203.39 109.723C202.95 109.476 202.376 109.628 202.127 110.066C201.859 110.504 202.012 111.056 202.471 111.323Z" fill="#AAACAE"/>
<path fill-rule="evenodd" clip-rule="evenodd" d="M148.125 55.7986L150.155 59.3022C150.404 59.7401 150.978 59.8925 151.419 59.6449C151.859 59.3974 152.013 58.8262 151.764 58.3882L149.734 54.8846C149.485 54.4467 148.91 54.2944 148.47 54.5419C148.029 54.8085 147.876 55.3607 148.125 55.7986Z" fill="#AAACAE"/>
<path fill-rule="evenodd" clip-rule="evenodd" d="M188.205 124.823L190.235 128.326C190.484 128.764 191.058 128.917 191.499 128.669C191.939 128.422 192.092 127.85 191.843 127.412L189.814 123.909C189.565 123.471 188.99 123.319 188.55 123.566C188.09 123.814 187.937 124.385 188.205 124.823Z" fill="#AAACAE"/>
<path fill-rule="evenodd" clip-rule="evenodd" d="M205.995 69.87L202.471 71.8884C202.031 72.1359 201.878 72.7072 202.127 73.1451C202.376 73.5831 202.95 73.7354 203.391 73.4879L206.914 71.4695C207.355 71.222 207.508 70.6507 207.259 70.2128C207.01 69.7748 206.435 69.6225 205.995 69.87Z" fill="#AAACAE"/>
<path fill-rule="evenodd" clip-rule="evenodd" d="M136.578 109.723L133.055 111.742C132.614 111.989 132.461 112.56 132.71 112.998C132.959 113.436 133.533 113.589 133.974 113.341L137.497 111.323C137.938 111.075 138.091 110.504 137.842 110.066C137.593 109.609 137.018 109.457 136.578 109.723Z" fill="#AAACAE"/>
<path fill-rule="evenodd" clip-rule="evenodd" d="M190.235 54.8846L188.205 58.3882C187.956 58.8262 188.109 59.3974 188.55 59.6449C188.99 59.8925 189.565 59.7401 189.814 59.3022L191.844 55.7986C192.092 55.3607 191.939 54.7894 191.499 54.5419C191.058 54.2944 190.484 54.4467 190.235 54.8846Z" fill="#AAACAE"/>
<path fill-rule="evenodd" clip-rule="evenodd" d="M150.155 123.89L148.125 127.393C147.876 127.831 148.029 128.403 148.47 128.65C148.91 128.898 149.485 128.745 149.734 128.307L151.764 124.804C152.013 124.366 151.859 123.795 151.419 123.547C150.978 123.299 150.423 123.452 150.155 123.89Z" fill="#AAACAE"/>
<path d="M166.451 98.0511C166.451 98.0511 166.662 97.518 167.026 96.585C167.39 95.6519 167.888 94.3191 168.481 92.7006C169.075 91.0821 169.764 89.216 170.454 87.1786C170.798 86.1695 171.143 85.1031 171.507 84.0368C171.871 82.9705 172.234 81.8852 172.598 80.7999C172.962 79.7145 173.364 78.6482 173.766 77.5819C174.169 76.5346 174.552 75.4874 174.992 74.5163C175.413 73.5261 175.854 72.5931 176.294 71.7172C176.715 70.8223 177.137 70.0035 177.501 69.2228C177.884 68.4422 178.228 67.7376 178.535 67.1093C178.841 66.4809 179.128 65.9478 179.339 65.4908C179.799 64.5958 180.067 64.1008 180.067 64.1008C180.373 63.5486 181.043 63.3582 181.599 63.6628C182.058 63.9104 182.288 64.4435 182.154 64.9386C182.154 64.9386 182.001 65.4908 181.713 66.4619C181.56 66.9379 181.388 67.5282 181.177 68.1946C180.967 68.8611 180.718 69.6037 180.45 70.4224C180.181 71.2412 179.894 72.1171 179.588 73.0501C179.281 73.9831 178.956 74.9733 178.573 75.9634C178.19 76.9726 177.769 77.9818 177.309 79.01C176.869 80.0382 176.409 81.0855 175.911 82.1327C175.432 83.161 174.935 84.2082 174.456 85.2174C173.977 86.2266 173.498 87.2358 173.039 88.2069C172.12 90.149 171.315 91.977 170.607 93.5384C169.917 95.0997 169.343 96.4136 168.96 97.3466C168.577 98.2606 168.347 98.7937 168.347 98.7937C168.136 99.3078 167.543 99.5363 167.026 99.3269C166.509 99.1174 166.26 98.5462 166.451 98.0511Z" fill="#98A3AA"/>
<path d="M164.919 87.1212C164.919 87.1212 166.279 88.0543 168.347 89.4062C169.381 90.0726 170.588 90.8533 171.89 91.6911C173.192 92.5289 174.552 93.4429 175.95 94.3188C177.328 95.2137 178.764 96.0515 180.105 96.8132C180.794 97.194 181.541 97.4035 182.25 97.632C182.958 97.8604 183.571 98.1461 184.069 98.5269C185.046 99.2695 185.658 100.203 185.984 100.964C186.309 101.726 186.386 102.354 186.386 102.354C186.482 103.211 185.907 103.973 185.084 104.163C185.084 104.163 184.471 104.296 183.648 104.22C182.805 104.144 181.733 103.877 180.718 103.192C180.201 102.849 179.741 102.354 179.301 101.764C178.86 101.174 178.401 100.526 177.826 99.9931C176.658 98.9648 175.413 97.8985 174.13 96.8703C172.866 95.823 171.545 94.8329 170.339 93.8618C169.132 92.9097 168.002 92.0148 167.026 91.2532C165.092 89.7299 163.77 88.7397 163.77 88.7397C163.33 88.416 163.234 87.7877 163.56 87.3497C163.866 86.9118 164.479 86.8166 164.919 87.1212Z" fill="#98A3AA"/>
<path fill-rule="evenodd" clip-rule="evenodd" d="M169.994 88.7207C171.622 88.7207 172.943 90.0346 172.943 91.6531C172.943 93.2716 171.622 94.5854 169.994 94.5854C168.366 94.5854 167.045 93.2716 167.045 91.6531C167.026 90.0536 168.347 88.7207 169.994 88.7207Z" fill="#AAACAE"/>
</svg>
