<svg width="342" height="180" viewBox="0 0 342 180" fill="none" xmlns="http://www.w3.org/2000/svg">
<path opacity="0.02" d="M246.472 0.328257C234.826 1.14854 221.648 3.50687 207.193 7.35196L205.405 7.81337C194.678 10.6844 181.041 13.1965 164.798 15.3498C159.23 15.5548 105.598 17.2467 75.0534 15.965C71.8355 15.8112 68.5154 15.8624 65.2975 16.1188C45.2238 17.5543 27.7039 25.6033 15.9049 38.8817C3.08428 53.288 -2.12569 73.2312 0.785764 96.5069C0.785764 96.5581 0.785764 96.6094 0.785764 96.6094C2.62458 118.142 9.00935 134.958 19.6336 146.493C29.9514 157.721 43.9468 163.924 61.2623 164.95C68.1578 165.667 76.126 165.719 85.0136 165.103C89.151 164.796 93.5437 164.386 98.0386 163.77C99.1112 163.617 100.286 163.514 101.563 163.411C111.217 162.745 125.416 163.514 143.754 165.821C148.912 166.693 154.122 167.615 159.69 168.641C174.145 171.204 189.111 173.921 204.23 175.921C207.806 176.639 233.089 181.458 259.548 179.561C285.751 177.715 304.854 169.974 316.296 156.593C319.258 153.619 321.914 150.287 324.213 146.749C335.041 129.882 340.966 112.092 341.886 93.9435C342.703 77.3839 339.127 60.9782 331.517 46.4694C318.083 20.6816 293.464 3.50687 265.728 0.533329C259.956 -0.0818856 253.469 -0.184422 246.472 0.328257Z" fill="black"/>
<path opacity="0.02" d="M34.6166 154.922C36.7941 158.072 39.262 160.835 41.8751 163.307C69.9412 194.373 140.784 172.612 141.655 172.321C161.398 167.862 181.189 162.047 198.997 157.297C216.369 153.565 233.886 150.803 245.306 151.481C261.226 152.45 271.92 151.336 278.501 150.027C305.551 146.198 323.504 126.376 323.939 83.533C323.939 83.4846 323.939 83.3876 323.939 83.3392C326.553 29.1551 288.808 11.4168 257.5 15.391C226.192 19.3651 170.398 21.6915 170.398 21.6915C155.688 20.8191 137.936 14.1171 125.5 11.4999C109.144 8.10738 83.6459 5.20431 66.9998 8.49994C16.3356 18.4353 -7.57932 94.3891 34.6166 154.922Z" fill="black"/>
<path opacity="0.8" d="M65.295 112.775C65.1909 111.982 64.4968 111.453 63.768 111.566C63.0392 111.679 62.5534 112.435 62.6575 113.228C62.831 114.587 63.0739 118.779 61.7552 120.478C61.4775 120.856 61.1305 121.082 60.6794 121.158L60.8182 113.114C60.8529 111.944 59.9853 111 58.9095 111C57.8337 111 56.9661 111.982 57.0008 113.152L57.3478 128.408C56.8967 128.333 56.5149 128.106 56.2373 127.728C54.8838 126.029 55.1267 121.8 55.335 120.478C55.4391 119.685 54.9532 118.93 54.2245 118.817C53.4957 118.703 52.8363 119.232 52.6975 120.025C52.5934 120.705 51.8299 126.596 54.2245 129.617C55.0574 130.674 56.1332 131.24 57.4519 131.354L57.5907 138H60.5058L60.7141 124.141C61.9634 124.028 63.0739 123.461 63.8721 122.442C66.1626 119.345 65.3991 113.417 65.295 112.775Z" fill="#98A3AA"/>
<path opacity="0.5" d="M65.5946 123.854C65.6427 123.472 65.963 123.218 66.2994 123.272C66.6357 123.327 66.86 123.691 66.8119 124.072C66.7318 124.727 66.6197 125.745 67.2284 126.563C67.3565 126.745 67.5167 126.854 67.7249 126.891L67.6608 123.018C67.6448 122.454 68.0453 122 68.5418 122C69.0383 122 69.4387 122.472 69.4227 123.036L69.2626 130.382C69.4708 130.345 69.647 130.236 69.7751 130.054C70.3998 129.236 70.2877 128.2 70.1916 127.563C70.1435 127.182 70.3677 126.818 70.7041 126.763C71.0405 126.709 71.3448 126.963 71.4089 127.345C71.4569 127.672 71.8093 129.509 70.7041 130.963C70.3197 131.472 69.8231 131.745 69.2145 131.8L69.1504 135H67.805L67.7089 128.327C67.1323 128.272 66.6197 128 66.2513 127.509C65.1942 126.018 65.5466 124.163 65.5946 123.854Z" fill="#98A3AA"/>
<path opacity="0.8" d="M266.18 97.6721C266.002 96.464 264.898 95.6587 263.722 95.8417C262.547 96.0248 261.763 97.1596 261.942 98.3676C262.262 100.418 262.654 106.824 260.481 109.423C260.018 109.972 259.448 110.302 258.736 110.448L258.95 98.2212C258.985 96.4274 257.596 94.9998 255.851 94.9998C254.106 94.9998 252.717 96.464 252.753 98.2578L253.322 121.467C252.575 121.357 252.005 120.991 251.506 120.442C249.333 117.843 249.725 111.436 250.046 109.386C250.224 108.178 249.44 107.043 248.265 106.86C247.09 106.677 245.986 107.483 245.807 108.691C245.665 109.716 244.418 118.685 248.229 123.297C249.547 124.871 251.328 125.786 253.394 125.896L253.643 136H258.309L258.665 114.914C260.695 114.768 262.44 113.852 263.722 112.315C267.569 107.666 266.358 98.6605 266.18 97.6721Z" fill="#98A3AA"/>
<path opacity="0.5" d="M232.658 111.996C232.738 111.379 233.272 110.968 233.832 111.056C234.393 111.144 234.767 111.731 234.687 112.348C234.553 113.405 234.366 115.05 235.381 116.372C235.594 116.665 235.861 116.842 236.208 116.9L236.101 110.645C236.075 109.734 236.742 109 237.57 109C238.397 109 239.065 109.763 239.038 110.674L238.771 122.54C239.118 122.481 239.412 122.305 239.625 122.011C240.666 120.689 240.479 119.015 240.319 117.987C240.239 117.37 240.613 116.783 241.173 116.695C241.734 116.607 242.241 117.018 242.348 117.635C242.428 118.163 243.015 121.13 241.173 123.479C240.533 124.302 239.705 124.742 238.691 124.831L238.584 130H236.342L236.181 119.221C235.22 119.133 234.366 118.692 233.752 117.899C231.99 115.491 232.578 112.495 232.658 111.996Z" fill="#98A3AA"/>
<mask id="mask0_1947_19184" style="mask-type:alpha" maskUnits="userSpaceOnUse" x="0" y="0" width="342" height="180">
<path d="M246.472 0.328257C234.826 1.14854 221.648 3.50687 207.193 7.35196L205.405 7.81337C194.678 10.6844 181.041 13.1965 164.798 15.3498C159.23 15.5548 105.598 17.2467 75.0534 15.965C71.8355 15.8112 68.5154 15.8624 65.2975 16.1188C45.2238 17.5543 27.7039 25.6033 15.9049 38.8817C3.08428 53.288 -2.12569 73.2312 0.785764 96.5069C0.785764 96.5581 0.785764 96.6094 0.785764 96.6094C2.62458 118.142 9.00935 134.958 19.6336 146.493C29.9514 157.721 43.9468 163.924 61.2623 164.95C68.1578 165.667 76.126 165.719 85.0136 165.103C89.151 164.796 93.5437 164.386 98.0386 163.77C99.1112 163.617 100.286 163.514 101.563 163.411C111.217 162.745 125.416 163.514 143.754 165.821C148.912 166.693 154.122 167.615 159.69 168.641C174.145 171.204 189.111 173.921 204.23 175.921C207.806 176.639 233.089 181.458 259.548 179.561C285.751 177.715 304.854 169.974 316.296 156.593C319.258 153.619 321.914 150.287 324.213 146.749C335.041 129.882 340.966 112.092 341.886 93.9435C342.703 77.3839 339.127 60.9782 331.517 46.4694C318.083 20.6816 293.464 3.50687 265.728 0.533329C259.956 -0.0818856 253.469 -0.184422 246.472 0.328257Z" fill="url(#paint0_linear_1947_19184)"/>
</mask>
<g mask="url(#mask0_1947_19184)">
<path d="M163.5 234C250.761 234 321.5 209.152 321.5 178.5C321.5 147.848 250.761 123 163.5 123C76.239 123 5.5 147.848 5.5 178.5C5.5 209.152 76.239 234 163.5 234Z" fill="url(#paint1_linear_1947_19184)"/>
</g>
<mask id="mask1_1947_19184" style="mask-type:alpha" maskUnits="userSpaceOnUse" x="12" y="7" width="313" height="173">
<path d="M34.6166 154.922C36.7941 158.073 39.262 160.835 41.8751 163.307C69.9412 194.373 140.784 172.612 141.655 172.321C161.398 167.863 181.189 162.047 198.997 157.297C216.369 153.565 233.886 150.803 245.306 151.481C261.226 152.451 271.92 151.336 278.501 150.027C305.551 146.199 323.504 126.376 323.939 83.5333C323.939 83.4848 323.939 83.3879 323.939 83.3394C326.553 29.1554 288.808 11.4171 257.5 15.3912C226.192 19.3654 170.398 21.6917 170.398 21.6917C155.688 20.8193 137.936 14.1173 125.5 11.5002C109.144 8.10762 83.6459 5.20456 66.9998 8.50019C16.3356 18.4355 -7.57932 94.3894 34.6166 154.922Z" fill="url(#paint2_linear_1947_19184)"/>
</mask>
<g mask="url(#mask1_1947_19184)">
<path d="M163.5 234C250.761 234 321.5 209.152 321.5 178.5C321.5 147.848 250.761 123 163.5 123C76.239 123 5.5 147.848 5.5 178.5C5.5 209.152 76.239 234 163.5 234Z" fill="url(#paint3_linear_1947_19184)"/>
</g>
<path d="M164.9 114.549L157.04 122.409C155.274 124.175 152.882 125.172 150.375 125.172C147.841 125.172 145.477 124.204 143.711 122.409C141.945 120.644 140.949 118.251 140.949 115.745C140.949 113.21 141.917 110.847 143.711 109.081L154.533 98.2586C154.733 98.0592 154.961 97.8598 155.188 97.6605C155.274 97.6035 155.331 97.5466 155.473 97.4611C155.473 97.4611 155.815 97.2048 155.872 97.1478C155.986 97.0624 156.1 97.0054 156.271 96.8915C156.385 96.8346 156.499 96.7491 156.584 96.6922C156.726 96.6067 156.897 96.5213 157.068 96.4359L157.324 96.3219C157.495 96.2365 157.695 96.1795 157.866 96.0941L158.036 96.0371C158.976 95.6954 159.945 95.5245 160.913 95.496H161.141C161.312 95.496 161.454 95.496 161.682 95.5245H161.91C162.081 95.5245 162.251 95.553 162.394 95.5815C162.508 95.6099 162.65 95.6099 162.764 95.6384C162.906 95.6669 163.049 95.6954 163.22 95.7239C163.362 95.7523 163.505 95.7808 163.618 95.8378C163.761 95.8663 163.875 95.9232 164.017 95.9517C164.074 95.9802 164.16 96.0087 164.217 96.0087L164.53 96.1226C164.615 96.1511 164.729 96.208 164.843 96.2365C165.014 96.2935 165.156 96.3789 165.384 96.4928C165.47 96.5213 165.555 96.5783 165.612 96.6067C165.868 96.7491 166.125 96.8915 166.352 97.0624C166.58 97.2048 166.808 97.3757 167.036 97.575L167.121 97.632C167.378 97.8314 167.606 98.0592 167.833 98.287C167.862 98.3155 167.89 98.344 167.919 98.3725L168.118 98.4864C168.261 98.5718 168.375 98.6288 168.46 98.6573L168.859 98.7142L169.2 98.9136C169.742 99.1414 170.283 99.2838 170.881 99.2838C171.963 99.2838 172.988 98.8566 173.729 98.1162L174.099 97.7459C173.444 96.5213 172.618 95.4391 171.65 94.4708C168.859 91.6798 165.128 90.1418 161.169 90.1418C157.211 90.1418 153.48 91.6798 150.689 94.4708L139.866 105.293C139.61 105.549 139.325 105.863 139.012 106.233C138.898 106.375 138.784 106.518 138.67 106.66C138.556 106.802 138.442 106.973 138.328 107.144C134.057 113.068 134.712 121.099 139.866 126.254C142.657 129.045 146.388 130.583 150.347 130.583C154.306 130.583 158.036 129.045 160.827 126.254L171.621 115.46C171.365 115.46 171.109 115.489 170.824 115.489C168.83 115.432 166.837 115.147 164.9 114.549Z" fill="#BFC1C3"/>
<path d="M212.574 53.5457C209.783 50.7547 206.052 49.2168 202.094 49.2168C198.135 49.2168 194.404 50.7547 191.613 53.5457L180.819 64.3395C181.076 64.3395 181.332 64.311 181.617 64.311C183.639 64.311 185.632 64.6243 187.569 65.1939L195.429 57.305C197.195 55.5393 199.587 54.5425 202.094 54.5425C204.6 54.5425 206.992 55.5108 208.758 57.305C210.524 59.0708 211.52 61.4631 211.52 63.9693C211.52 66.504 210.552 68.8678 208.758 70.6335L197.936 81.4558C197.565 81.826 197.195 82.1393 196.796 82.4241C195.202 83.5918 193.293 84.1898 191.3 84.1898C189.961 84.1898 188.623 83.905 187.427 83.3639C187.398 83.3639 187.398 83.3639 187.37 83.3354C187.142 83.2785 186.8 83.1361 186.344 82.9082L186.259 82.8798C185.775 82.6234 185.319 82.3386 184.835 81.9684L184.693 81.8545L184.436 81.5697C184.237 81.3703 184.038 81.1995 183.81 81.0571C183.155 80.6299 182.386 80.402 181.588 80.402C181.218 80.402 180.876 80.459 180.535 80.5444C179.851 80.7153 179.225 81.0855 178.74 81.5982L178.37 81.9684C178.826 82.7658 179.338 83.5348 179.908 84.2183C180.193 84.5601 180.506 84.9018 180.819 85.2151C183.61 88.0061 187.341 89.544 191.3 89.544C195.259 89.544 198.989 88.0061 201.78 85.2151L212.603 74.3928C218.356 68.7254 218.356 59.3271 212.574 53.5457Z" fill="#BFC1C3"/>
<path d="M159.147 72.456C160.969 73.3673 162.621 74.535 164.074 75.902L168.602 74.3926L174.526 72.399C174.811 72.3136 175.095 72.2281 175.38 72.1712C175.466 72.1427 175.551 72.1427 175.722 72.1142C175.722 72.1142 176.149 72.0288 176.235 72.0288C176.377 72.0003 176.519 72.0003 176.69 71.9718C176.804 71.9718 176.947 71.9434 177.06 71.9434C177.231 71.9434 177.402 71.9434 177.602 71.9434H177.886C178.086 71.9434 178.285 71.9718 178.456 71.9718L178.655 72.0003C179.652 72.1142 180.592 72.399 181.475 72.7977L181.674 72.8832C181.817 72.9401 181.959 73.0256 182.13 73.1395L182.329 73.2534C182.472 73.3389 182.614 73.4243 182.756 73.5097C182.87 73.5667 182.956 73.6521 183.07 73.7091C183.184 73.7945 183.297 73.88 183.44 73.9939C183.554 74.0793 183.668 74.1648 183.753 74.2787C183.867 74.3641 183.953 74.4496 184.066 74.5635C184.123 74.6204 184.18 74.6774 184.209 74.7059L184.437 74.9337C184.522 75.0192 184.579 75.0761 184.665 75.1616C184.778 75.304 184.892 75.4464 185.035 75.6457C185.092 75.7027 185.149 75.7881 185.206 75.8451C185.377 76.0729 185.519 76.3292 185.69 76.5855C185.832 76.8419 185.975 77.0697 186.088 77.3545L186.117 77.4399C186.259 77.7247 186.373 78.038 186.459 78.3513C186.459 78.3798 186.487 78.4367 186.487 78.4652L186.601 78.6361C186.687 78.7785 186.772 78.8924 186.829 78.9494L187.142 79.1772L187.37 79.5189C187.74 79.9746 188.196 80.3164 188.709 80.5727C189.677 81.0568 190.759 81.1423 191.784 80.8005L192.297 80.6297C192.24 79.2341 191.984 77.8956 191.557 76.614C190.873 74.5635 189.734 72.7123 188.31 71.1744L188.395 71.1459C187.199 69.8928 185.804 68.8106 184.209 68.0132C180.649 66.2474 176.633 65.9626 172.902 67.2157L172.817 67.2442L165.298 69.7504L158.406 72.0573C158.663 72.2281 158.89 72.3421 159.147 72.456Z" fill="#95989B"/>
<path d="M194.376 102.901C192.44 102.303 190.617 101.448 188.937 100.309L179.197 105.521C179.054 105.606 178.883 105.663 178.741 105.749C178.656 105.777 178.599 105.834 178.513 105.863C178.285 105.948 178.057 106.034 177.83 106.119C175.95 106.774 173.956 106.802 172.048 106.204C170.767 105.806 169.571 105.151 168.574 104.296C168.545 104.296 168.545 104.268 168.517 104.268C168.317 104.154 168.033 103.926 167.662 103.584L167.605 103.527C167.235 103.157 166.865 102.73 166.523 102.246L166.409 102.103L166.238 101.762C166.096 101.505 165.954 101.277 165.783 101.078C165.27 100.48 164.615 100.024 163.846 99.7965C163.504 99.6826 163.134 99.6256 162.792 99.6256C162.08 99.5971 161.397 99.768 160.77 100.11L160.286 100.366C160.485 101.277 160.742 102.132 161.084 102.986C161.254 103.413 161.454 103.812 161.653 104.211C162.308 105.435 163.134 106.575 164.102 107.543L164.017 107.571C165.754 109.366 167.919 110.704 170.368 111.445C174.156 112.612 178.171 112.214 181.646 110.362L181.731 110.334L189.221 106.347L195.145 103.186C194.86 103.072 194.604 102.986 194.376 102.901Z" fill="#95989B"/>
<path d="M131.953 61.1687L129.985 63.9629L150.988 78.7544L152.956 75.9602L131.953 61.1687Z" fill="#95989B"/>
<path d="M148.076 83.6312L119.078 84.8169L119.218 88.2317L148.215 87.046L148.076 83.6312Z" fill="#95989B"/>
<path d="M223.087 88.4497L201.487 91.0803L201.9 94.4729L223.5 91.8423L223.087 88.4497Z" fill="#95989B"/>
<path d="M200.145 99.8211L198.486 102.809L214.771 111.85L216.43 108.862L200.145 99.8211Z" fill="#95989B"/>
<defs>
<linearGradient id="paint0_linear_1947_19184" x1="171" y1="0" x2="171" y2="180" gradientUnits="userSpaceOnUse">
<stop stop-color="#DADADA"/>
<stop offset="1" stop-color="#DADADA" stop-opacity="0"/>
</linearGradient>
<linearGradient id="paint1_linear_1947_19184" x1="163.5" y1="123" x2="163.5" y2="234" gradientUnits="userSpaceOnUse">
<stop stop-color="#DADADA"/>
<stop offset="1" stop-color="#DADADA" stop-opacity="0"/>
</linearGradient>
<linearGradient id="paint2_linear_1947_19184" x1="168.49" y1="7.05225" x2="168.49" y2="180" gradientUnits="userSpaceOnUse">
<stop stop-color="#DADADA"/>
<stop offset="1" stop-color="#DADADA" stop-opacity="0"/>
</linearGradient>
<linearGradient id="paint3_linear_1947_19184" x1="163.5" y1="123" x2="163.5" y2="234" gradientUnits="userSpaceOnUse">
<stop stop-color="#DADADA"/>
<stop offset="1" stop-color="#DADADA" stop-opacity="0"/>
</linearGradient>
</defs>
</svg>
