<svg width="70" height="70" viewBox="0 0 70 70" fill="none" xmlns="http://www.w3.org/2000/svg">
<path d="M6.28239 13.9302C4.375 17.6736 4.375 22.5741 4.375 32.375V37.625C4.375 47.4259 4.375 52.3264 6.28239 56.0698C7.96017 59.3627 10.6373 62.0398 13.9302 63.7176C17.6736 65.625 22.5741 65.625 32.375 65.625H37.625C47.4259 65.625 52.3264 65.625 56.0698 63.7176C59.3627 62.0398 62.0398 59.3627 63.7176 56.0698C65.625 52.3264 65.625 47.4259 65.625 37.625V32.375C65.625 22.5741 65.625 17.6736 63.7176 13.9302C62.0398 10.6373 59.3627 7.96017 56.0698 6.28239C52.3264 4.375 47.4259 4.375 37.625 4.375H32.375C22.5741 4.375 17.6736 4.375 13.9302 6.28239C10.6373 7.96017 7.96017 10.6373 6.28239 13.9302Z" fill="url(#paint0_linear)"/>
<path d="M4.95517 18.1114C4.375 21.4086 4.375 25.7835 4.375 32.3748V37.6248C4.375 47.4257 4.375 52.3262 6.28239 56.0696C7.96017 59.3625 10.6373 62.0396 13.9302 63.7174C17.6736 65.6248 22.5741 65.6248 32.375 65.6248H37.625C47.4259 65.6248 52.3264 65.6248 56.0698 63.7174C59.3627 62.0396 62.0398 59.3625 63.7176 56.0696C65.625 52.3262 65.625 47.4257 65.625 37.6248V32.3748C65.625 22.5739 65.625 17.6734 63.7176 13.93C62.0982 10.7517 59.5478 8.14702 56.4113 6.46094L4.95517 18.1114Z" fill="url(#paint1_linear)"/>
<path d="M64.9911 52.1807C64.7099 53.6589 64.3038 54.919 63.7174 56.0697C62.0396 59.3626 59.3625 62.0397 56.0696 63.7175C52.4382 65.5678 47.718 65.6232 38.4916 65.6248H35.1279V58.7054L64.9911 52.1807Z" fill="url(#paint2_linear)"/>
<path d="M37.625 4.375H32.375C30.4682 4.375 28.747 4.375 27.1836 4.38905V13.0605L56.4056 6.45805C56.2944 6.39834 56.1825 6.33978 56.0698 6.28239C53.9916 5.22349 51.5569 4.75245 48.125 4.54291C45.3751 4.375 41.9849 4.375 37.625 4.375Z" fill="url(#paint3_linear)"/>
<path d="M65.6249 38.0043C65.6246 44.579 65.613 48.9128 64.9912 52.1807L54.605 54.45V38.9722L65.6249 36.4094V38.0043Z" fill="url(#paint4_linear)"/>
<path fill-rule="evenodd" clip-rule="evenodd" d="M32.6832 29.264C32.6832 27.8582 33.8326 27.3175 35.7363 27.3175C38.4662 27.3175 41.9144 28.1465 44.6442 29.6245V21.1533C41.663 19.9637 38.7176 19.4951 35.7363 19.4951C28.4448 19.4951 23.5957 23.3162 23.5957 29.6966C23.5957 39.6457 37.2449 38.0596 37.2449 42.3493C37.2449 44.0075 35.8082 44.5482 33.7967 44.5482C30.8154 44.5482 27.008 43.3226 23.9908 41.6644V50.2437C27.3313 51.6856 30.7077 52.2985 33.7967 52.2985C41.2679 52.2985 46.4043 48.5856 46.4043 42.133C46.3684 31.3908 32.6832 33.3014 32.6832 29.264Z" fill="white"/>
<defs>
<linearGradient id="paint0_linear" x1="4.375" y1="4.375" x2="24.4927" y2="18.5983" gradientUnits="userSpaceOnUse">
<stop stop-color="#392993"/>
<stop offset="1" stop-color="#4B47B9"/>
</linearGradient>
<linearGradient id="paint1_linear" x1="6.68149" y1="18.7565" x2="51.0926" y2="55.3894" gradientUnits="userSpaceOnUse">
<stop stop-color="#594BB9"/>
<stop offset="1" stop-color="#60A8F2"/>
</linearGradient>
<linearGradient id="paint2_linear" x1="35.1279" y1="58.9618" x2="65.6248" y2="65.625" gradientUnits="userSpaceOnUse">
<stop stop-color="#61A2EF"/>
<stop offset="1" stop-color="#58E6FD"/>
</linearGradient>
<linearGradient id="paint3_linear" x1="27.1836" y1="8.7317" x2="65.625" y2="4.375" gradientUnits="userSpaceOnUse">
<stop stop-color="#534EBE"/>
<stop offset="1" stop-color="#6875E2"/>
</linearGradient>
<linearGradient id="paint4_linear" x1="54.605" y1="39.1003" x2="65.6249" y2="52.2985" gradientUnits="userSpaceOnUse">
<stop stop-color="#71A5F3"/>
<stop offset="1" stop-color="#6CC3FA"/>
</linearGradient>
</defs>
</svg>
