<svg width="70" height="70" viewBox="0 0 70 70" fill="none" xmlns="http://www.w3.org/2000/svg">
<circle cx="35" cy="35" r="30.625" fill="#036CB5"/>
<path d="M34.8959 13.125C38.3092 13.125 41.5566 13.9191 44.4707 15.3395C44.9277 15.5489 45.3877 15.7995 45.8433 16.0503L43.8451 17.8476L40.8496 14.7134L35.688 19.3097L32.6484 16.008L23.157 24.5749L29.2337 31.3029L26.8614 33.3918L32.8567 40.1198L30.4842 42.2078L39.0601 51.7775L44.1359 47.097L48.5505 52.1129C47.6756 52.7816 46.7182 53.4516 45.6787 54.0356C42.5144 55.8323 38.8505 56.875 34.938 56.875C22.9063 56.875 13.1251 47.0568 13.1251 34.9812C13.0826 22.9872 22.8655 13.125 34.8959 13.125ZM30.899 33.643L36.1027 28.9625L40.766 34.1859L35.5613 38.8659L30.899 33.643ZM34.6049 42.6695L39.7663 37.9475L44.4707 43.1705L39.2668 47.8512L34.6049 42.6695ZM27.1962 24.7426L32.3984 20.0621L37.0607 25.2855L31.8568 29.9657L27.1962 24.7426ZM36.7272 22.2345L40.599 18.7246L44.0966 22.611L40.2248 26.1624L36.7272 22.2345ZM43.6383 38.3229L47.5088 34.8127L51.0062 38.7397L47.1342 42.2521L43.6383 38.3229ZM47.0513 46.2216L50.9233 42.7107L54.4179 46.5969L50.5475 50.1479L47.0513 46.2216ZM48.6335 28.1684L51.2141 25.8281L53.5445 28.4199L50.9643 30.7594L48.6335 28.1684ZM45.3031 20.4377L47.8839 18.0563L50.2161 20.6885L47.6333 23.0286L45.3031 20.4377ZM51.9217 35.8999L54.5023 33.5597L56.875 36.1507L54.2534 38.4902L51.9217 35.8999ZM40.3077 30.0912L44.1797 26.5809L47.6756 30.4665L43.8054 33.9774L40.3077 30.0912Z" fill="white"/>
</svg>
