<svg width="70" height="70" viewBox="0 0 70 70" fill="none" xmlns="http://www.w3.org/2000/svg">
<rect x="4.375" y="4.375" width="61.25" height="61.25" fill="#1271CD"/>
<path d="M18.646 36.2245L28.4429 14.3276H37.777L41.094 21.7542V14.3276H52.7423L54.6709 20.0698L56.6765 14.3276H65.6249V16.9309H58.5281L54.7482 27.3434L50.814 16.9309H43.5628V33.6981L36.1572 16.9309H30.0631L22.5804 33.6981H27.7488L29.0602 30.4059H36.9286L38.3172 33.6981H43.5628H48.1912V22.0606L52.5111 33.6981H56.6767L61.1509 22.0606V33.6981H65.6249V36.2246H59.6081L54.5939 41.584L49.6569 36.2246H43.6399H29.1374V53.0684H43.6399H49.6569L54.5939 47.709L59.6081 53.0684H65.6249V55.5948H58.3736L54.6709 51.4605L50.7367 55.5948H26.4372V36.2245H18.646Z" fill="white"/>
<path d="M65.6249 53.0684V49.6194L61.0736 44.723L65.6249 39.9548V36.2246L57.6024 44.7231L65.6249 53.0684Z" fill="white"/>
<path d="M43.6399 53.0684V49.3168H33.6887V46.6371H43.3313V42.8856H33.6887V40.2059H43.6399V36.2246L51.6626 44.7231L43.6399 53.0684Z" fill="white"/>
<path d="M33.0716 21.0653L30.6802 26.6543H35.3858L33.0716 21.0653Z" fill="white"/>
</svg>
