<svg width="70" height="70" viewBox="0 0 70 70" fill="none" xmlns="http://www.w3.org/2000/svg">
<circle cx="35" cy="35" r="30.625" fill="#F11E15"/>
<path fill-rule="evenodd" clip-rule="evenodd" d="M41.5999 55.147C43.7057 54.1913 46.0239 53.0136 48.2701 51.6215C46.0998 54.1199 43.774 54.782 41.5999 55.147ZM36.4475 59.5606C36.2351 59.5606 34.4215 59.5606 34.4215 58.8984C34.4215 58.5334 35.0019 57.3519 35.5103 57.2089C36.5955 56.7649 38.9174 56.1742 39.0616 56.1742C39.2779 56.1742 41.1674 56.4 41.3799 56.4C41.5241 56.4 42.9051 56.3209 43.7057 56.1065C44.6428 55.8807 45.8077 55.4443 46.8929 54.7821C47.9818 54.1198 49.5754 52.7202 50.3001 51.5425C50.7326 50.8802 50.9525 49.9997 51.4647 49.409C52.1135 48.5323 53.3466 47.7911 54.3596 46.8392C55.3765 45.8045 56.3971 44.7058 57.3342 43.5318C55.3765 52.7954 43.4857 59.5606 36.4475 59.5606ZM40.879 9.19403C44.5745 10.003 48.7822 11.6134 52.4019 15.2971C53.5667 16.471 54.5836 18.0926 55.0162 19.338C55.2286 19.8497 55.2287 20.6625 55.5967 21.1742C56.1772 22.0622 57.1901 22.7921 57.9148 23.7516C58.8596 24.7788 59.4363 25.885 59.9485 27.059C60.161 27.4239 60.2369 27.9395 60.4531 28.3835C60.7415 28.9667 61.25 31.7623 61.25 32.7971C61.25 34.9305 60.5291 37.5755 59.5806 39.6337C59.5806 39.709 59.6602 39.709 59.6602 39.9272V41.7634C58.8596 53.0927 45.4433 61.25 37.0279 61.25C36.0148 61.25 33.1161 61.1033 33.1161 59.0451C33.1161 58.8193 33.2641 58.1609 33.4083 57.6454C31.8072 57.8711 28.6883 58.4581 26.8747 58.4581C25.505 58.4581 19.1915 58.3867 19.1915 54.9288C19.1915 51.6892 24.8487 51.4709 25.9376 51.4709C28.9805 51.4709 32.1713 52.3514 35.2901 53.8226C34.7779 53.9731 33.8408 54.2666 33.6966 54.2666C33.4766 54.2666 33.1882 54.0408 32.8961 53.9731C30.87 53.2319 28.5442 52.7953 26.4422 52.7953C25.2129 52.7953 24.9928 52.7201 23.5434 53.0926C23.3993 53.0926 20.8609 53.7549 20.8609 54.7821C20.8609 55.512 22.8909 55.956 23.3234 56.0275C24.1923 56.1742 26.0059 56.321 26.1501 56.321C39.0616 56.321 59.0797 45.4394 59.0797 32.4244C59.0797 30.0013 57.9907 26.5472 55.8091 24.3348C55.6649 25.2943 55.4525 26.3215 55.0845 27.3562C54.872 28.0185 54.2915 29.1924 54.2915 29.3392C54.2915 29.3392 57.9148 33.3802 57.9148 34.2682C57.9148 34.7837 57.1219 37.0563 57.1219 37.1315C56.3972 35.1486 55.3766 33.1619 53.3467 31.179C53.0583 31.4725 52.77 31.909 52.4778 32.2815C52.1136 32.797 51.6772 33.3125 51.2447 33.8242C50.2999 34.9304 48.126 36.8381 48.126 37.0563C48.126 37.0563 50.7325 39.7089 51.6089 42.7943C51.7531 43.2383 51.9695 44.115 51.9695 44.2655C51.9695 44.7057 50.5201 45.6652 50.5201 45.7367C50.4442 43.2383 49.4312 40.5894 46.7449 38.091C43.6299 40.4427 40.3669 42.3578 37.2481 43.8967C39.1338 45.5184 40.2227 47.8701 40.2227 49.5595C40.2227 50.3685 39.7864 52.1369 39.4222 52.3514C38.9858 52.6487 38.4849 52.7954 37.9727 52.9459C38.5532 52.2046 39.0616 50.5152 39.0616 49.7853C39.0616 48.4608 38.1927 46.3989 36.7396 45.2927C36.3791 45.0745 35.8708 44.559 35.7266 44.559C35.5104 44.559 33.6967 45.368 32.6837 45.7367C31.5189 46.1807 30.2896 46.5456 29.0565 46.9106C25.3572 48.0168 21.874 48.679 18.3226 48.679C16.9453 48.679 10.9202 48.5323 10.9202 45.2212C10.9202 40.2959 22.0979 39.852 23.6117 39.852C26.9506 39.852 30.1454 40.2245 33.5526 41.7634C32.8962 41.9816 31.663 42.497 31.5189 42.497C31.3026 42.497 27.5312 41.3984 24.124 41.3984C22.5987 41.3984 20.7168 41.5489 19.2675 41.8348C18.1026 42.0606 16.9454 42.3578 15.9286 42.7943C15.5643 42.8696 12.8818 44.0473 12.8818 45.0745C12.8818 45.2213 13.3144 45.5184 13.6065 45.6652C15.0597 46.3989 16.3648 46.3274 17.8142 46.3274C31.5187 46.3274 52.5461 35.3669 53.783 23.9699V22.1337C53.1266 14.7063 41.8162 9.92399 36.3033 9.92399C36.1591 9.92399 35.2219 10.0029 34.6338 10.1422C35.0019 10.2927 35.4343 10.2927 35.8024 10.4394C36.0907 10.5185 36.4475 10.6653 36.8155 10.8045C37.396 11.0302 38.409 11.5457 39.0616 12.1289C39.5662 12.5729 39.8545 13.2351 40.3668 13.6C40.731 13.9725 41.4557 13.8973 42.0362 14.1231C43.9181 14.7063 46.2439 15.5867 48.2017 16.4709C48.9947 16.9074 50.0079 17.3514 50.8843 17.8669C51.1765 18.0926 51.3889 18.5291 51.6089 18.8941C51.9694 19.4848 52.402 20.4442 52.5461 21.2532C48.7823 18.3786 45.007 16.9074 41.2356 15.662H41.0233C41.1675 17.6486 40.3667 19.6316 38.9856 21.6182C43.1251 22.7245 47.4696 24.3348 51.7532 27.3562C51.5332 27.868 51.2448 28.455 50.8843 28.9667C49.0707 27.6422 47.1128 26.615 45.2991 25.7345C44.8628 25.5201 38.7732 23.2362 37.8284 23.2362C37.6084 23.2362 36.159 24.7073 35.3661 25.3695C33.4083 26.9837 31.4504 28.2367 29.4888 29.4106C34.7779 30.1518 40.0784 31.3258 45.3675 34.8514C45.007 35.2164 44.2064 35.9577 43.994 35.9577C43.8498 35.9577 42.4687 34.9304 41.6719 34.5579C37.9726 32.718 30.9382 30.9609 26.6622 30.9609C26.298 30.9609 22.0978 32.797 21.0734 33.0868C18.1026 33.971 14.8396 35.0696 11.8005 35.0696C10.776 35.0696 8.75 35.0019 8.75 33.3125C8.75 30.0014 20.2804 29.1924 21.0734 29.1924H23.6117C21.7981 29.9261 19.6279 30.735 17.8902 31.179C16.2207 31.623 14.483 31.909 12.8818 32.4244C12.5897 32.4997 12.3013 32.718 12.0129 32.8685C12.0129 32.8685 11.9446 32.9437 12.1571 32.9437C12.3013 32.9437 14.6955 32.5712 15.9969 32.2815C22.5987 30.6636 29.7014 28.0184 36.2349 21.9154C37.8285 20.3652 38.9858 18.4576 39.3538 16.7682V15.2971C39.1338 13.6791 36.8154 11.9897 35.3661 11.5457C34.4213 11.2484 32.6076 10.8835 32.3952 10.8835C32.0271 10.8835 31.5187 11.1017 31.1583 11.6924C33.4765 12.2079 36.159 11.6924 38.1927 14.6347C38.1927 14.6347 38.2648 14.7063 38.1927 14.853C37.6084 14.6348 30.502 12.9378 29.3448 12.9378C28.9123 12.9378 25.505 15.3685 24.7044 15.8803C22.5304 17.2047 20.2805 18.4576 18.1026 19.5563L25.5733 19.6315C28.8325 19.8498 32.5394 20.2938 35.8707 20.956C35.7265 21.0275 34.4213 22.4272 34.1329 22.4272C33.9887 22.4272 31.663 21.9832 30.502 21.8364C28.4 21.5392 26.2259 21.4715 24.048 21.321L14.6271 21.5392C14.1149 21.4715 13.1019 21.4 13.1019 20.512C13.1019 19.8498 13.8948 19.4134 14.4829 19.1876C14.9155 19.0409 15.4201 18.7549 15.8526 18.6044C20.4967 16.6215 25.2811 13.9725 30.0011 10.9549C29.8569 10.8834 29.5573 10.8835 29.4131 10.8835C29.2006 10.8835 28.6201 10.9549 28.1876 11.1016C28.2559 11.1807 28.3317 11.1806 28.4 11.1806C27.7512 11.5456 26.6623 12.2756 26.4422 12.2756C25.9376 12.2756 25.2129 11.6133 25.2129 11.1806C25.2129 9.8562 28.1875 9.77724 28.4 9.77724C31.3708 9.70575 31.5947 9.85624 31.8072 9.85624C31.9514 9.85624 33.1883 9.19403 33.9889 9.04729C35.1461 8.75004 35.7266 8.75 36.8155 8.75C38.0486 8.75 39.4979 8.89679 40.879 9.19403Z" fill="white"/>
</svg>
