<svg width="70" height="70" viewBox="0 0 70 70" fill="none" xmlns="http://www.w3.org/2000/svg">
<path d="M67.8125 49.3611C67.8125 54.7083 63.2396 59.0625 57.6238 59.0625H2.1875V20.6389C2.1875 15.2917 6.76039 10.9375 12.3762 10.9375H67.8125V49.3611Z" fill="white"/>
<path d="M53.4921 14.1843C49.4808 14.1843 46.1915 17.2781 46.1915 21.1357V28.3545H56.5005C56.7412 28.3545 57.022 28.3545 57.2226 28.3927C59.5491 28.5072 61.274 29.6531 61.274 31.6392C61.274 33.2052 60.1107 34.542 57.9446 34.8093V34.8857C60.3113 35.0385 62.1164 36.2989 62.1164 38.2468C62.1164 40.3475 60.1107 41.7225 57.4633 41.7225H46.1514V55.8545H56.8616C60.8729 55.8545 64.1621 52.7607 64.1621 48.9031V14.1843H53.4921Z" fill="url(#paint0_linear)"/>
<path d="M49.7616 39.5072H53.9735C54.0336 39.5072 54.1339 39.4977 54.2342 39.4881C54.3345 39.4786 54.4348 39.469 54.4949 39.469C55.2972 39.3163 55.9791 38.6288 55.9791 37.6739C55.9791 36.7572 55.2972 36.0697 54.4949 35.8788C54.3746 35.8406 54.1339 35.8406 53.9735 35.8406H49.7616V39.5072Z" fill="url(#paint1_linear)"/>
<path d="M53.9735 30.455C54.7757 30.5695 55.4577 31.1806 55.4577 32.0973C55.4577 33.014 54.7757 33.6251 53.9735 33.7397C53.9334 33.7779 53.6927 33.7779 53.5723 33.7779H49.7616V30.4168H53.5723C53.6386 30.4168 53.7292 30.4283 53.8106 30.4387C53.877 30.4472 53.9374 30.455 53.9735 30.455Z" fill="url(#paint2_linear)"/>
<path d="M13.1385 14.1843C9.12724 14.1843 5.83796 17.2781 5.83796 21.1357V38.285C7.88373 39.2399 10.0097 39.851 12.1357 39.851C14.6628 39.851 16.0267 38.3996 16.0267 36.4135V28.3163H22.2843V36.3753C22.2843 39.5072 20.2386 42.0663 13.299 42.0663C9.08712 42.0663 5.79785 41.1878 5.79785 41.1878V55.8163H16.508C20.5194 55.8163 23.8086 52.7225 23.8086 48.8649V14.1843H13.1385Z" fill="url(#paint3_linear)"/>
<path d="M33.3152 14.1843C29.3039 14.1843 26.0146 17.2781 26.0146 21.1357V30.226C27.8598 28.7364 31.0689 27.7815 36.2435 28.0107C39.0113 28.1253 41.9797 28.851 41.9797 28.851V31.792C40.4955 31.0663 38.7305 30.417 36.444 30.2642C32.513 29.9968 30.1463 31.8302 30.1463 35.0385C30.1463 38.285 32.513 40.1184 36.444 39.8128C38.7305 39.66 40.4955 38.9725 41.9797 38.285V41.226C41.9797 41.226 39.0514 41.9517 36.2435 42.0663C31.0689 42.2954 27.8598 41.3406 26.0146 39.851V55.8927H36.7248C40.7361 55.8927 44.0254 52.7989 44.0254 48.9413V14.1843H33.3152Z" fill="url(#paint4_linear)"/>
<defs>
<linearGradient id="paint0_linear" x1="46.1836" y1="32.0916" x2="64.21" y2="32.0916" gradientUnits="userSpaceOnUse">
<stop stop-color="#007940"/>
<stop offset="0.2285" stop-color="#00873F"/>
<stop offset="0.7433" stop-color="#40A737"/>
<stop offset="1" stop-color="#5CB531"/>
</linearGradient>
<linearGradient id="paint1_linear" x1="46.1836" y1="32.0916" x2="64.21" y2="32.0916" gradientUnits="userSpaceOnUse">
<stop stop-color="#007940"/>
<stop offset="0.2285" stop-color="#00873F"/>
<stop offset="0.7433" stop-color="#40A737"/>
<stop offset="1" stop-color="#5CB531"/>
</linearGradient>
<linearGradient id="paint2_linear" x1="46.1836" y1="32.0916" x2="64.21" y2="32.0916" gradientUnits="userSpaceOnUse">
<stop stop-color="#007940"/>
<stop offset="0.2285" stop-color="#00873F"/>
<stop offset="0.7433" stop-color="#40A737"/>
<stop offset="1" stop-color="#5CB531"/>
</linearGradient>
<linearGradient id="paint3_linear" x1="5.82884" y1="35.002" x2="24.1341" y2="35.002" gradientUnits="userSpaceOnUse">
<stop stop-color="#1F286F"/>
<stop offset="0.4751" stop-color="#004E94"/>
<stop offset="0.8261" stop-color="#0066B1"/>
<stop offset="1" stop-color="#006FBC"/>
</linearGradient>
<linearGradient id="paint4_linear" x1="25.9104" y1="35.002" x2="43.6884" y2="35.002" gradientUnits="userSpaceOnUse">
<stop stop-color="#6C2C2F"/>
<stop offset="0.1735" stop-color="#882730"/>
<stop offset="0.5731" stop-color="#BE1833"/>
<stop offset="0.8585" stop-color="#DC0436"/>
<stop offset="1" stop-color="#E60039"/>
</linearGradient>
</defs>
</svg>
