<svg width="41" height="29" viewBox="0 0 41 29" fill="none" xmlns="http://www.w3.org/2000/svg">
<path d="M30.1384 0.448793C26.3556 0.552856 23.4236 1.57942 20.5689 2.57223C17.5159 3.63254 14.6345 4.63239 10.6422 4.67317C7.97453 4.71536 5.30266 4.25411 2.67719 3.34567L0.8125 2.70161V26.7232L1.74906 27.0564C4.19453 27.9213 6.69484 28.4205 9.18391 28.5386C9.57906 28.5569 9.96578 28.5668 10.3455 28.5668C14.5825 28.5668 17.8267 27.4418 20.9725 26.3561C24.2884 25.2086 27.4159 24.1244 31.6839 24.3255C33.9461 24.4417 36.1791 24.889 38.3116 25.653L40.1875 26.3168V2.28536L39.2622 1.94786C36.8693 1.0764 34.3574 0.575627 31.8133 0.462856C31.2553 0.438087 30.6967 0.433396 30.1384 0.448793ZM30.2144 3.24161C30.6925 3.22754 31.1819 3.22754 31.6895 3.24723C32.2155 3.26973 32.7414 3.31754 33.2659 3.37942C33.4799 4.26177 34.0275 5.02683 34.7938 5.51381C35.5601 6.00079 36.4853 6.17178 37.375 5.99082V18.7905C36.9143 18.6968 36.4395 18.6965 35.9788 18.7899C35.518 18.8832 35.0807 19.0681 34.6928 19.3338C34.305 19.5994 33.9744 19.9403 33.7208 20.3361C33.4673 20.732 33.2958 21.1748 33.2167 21.6382C32.7509 21.5903 32.2839 21.5556 31.8161 21.5341C27.0138 21.3232 23.4728 22.5311 20.05 23.718C16.7298 24.8683 13.5841 25.9554 9.31891 25.7529C8.7877 25.7251 8.25767 25.6782 7.72984 25.6122C7.51406 24.7323 6.96628 23.97 6.20116 23.4848C5.43605 22.9996 4.51291 22.8292 3.625 23.0093V10.2096C4.08843 10.3039 4.56614 10.3035 5.0294 10.2083C5.49265 10.1132 5.93187 9.92529 6.32062 9.65597C6.70936 9.38665 7.0396 9.04145 7.29145 8.64117C7.5433 8.24088 7.71156 7.79378 7.78609 7.32676C8.74937 7.42661 9.71266 7.48426 10.6731 7.46879C15.1239 7.42379 18.3597 6.29739 21.4914 5.20895C24.2491 4.24848 26.8773 3.34567 30.2144 3.24161ZM20.5 7.46879C17.3978 7.46879 14.875 10.623 14.875 14.5C14.875 18.3771 17.3978 21.5313 20.5 21.5313C23.6022 21.5313 26.125 18.3771 26.125 14.5C26.125 10.623 23.6022 7.46879 20.5 7.46879ZM20.5 10.2813C22.0244 10.2813 23.3125 12.2135 23.3125 14.5C23.3125 16.7866 22.0244 18.7188 20.5 18.7188C18.9756 18.7188 17.6875 16.7866 17.6875 14.5C17.6875 12.2135 18.9756 10.2813 20.5 10.2813ZM31.0469 10.2813C30.4874 10.2813 29.9509 10.5035 29.5553 10.8991C29.1597 11.2947 28.9375 11.8312 28.9375 12.3907C28.9375 12.9501 29.1597 13.4866 29.5553 13.8822C29.9509 14.2778 30.4874 14.5 31.0469 14.5C31.6063 14.5 32.1428 14.2778 32.5384 13.8822C32.934 13.4866 33.1562 12.9501 33.1562 12.3907C33.1562 11.8312 32.934 11.2947 32.5384 10.8991C32.1428 10.5035 31.6063 10.2813 31.0469 10.2813ZM9.95312 14.5C9.39368 14.5 8.85716 14.7223 8.46157 15.1179C8.06599 15.5134 7.84375 16.05 7.84375 16.6094C7.84375 17.1689 8.06599 17.7054 8.46157 18.101C8.85716 18.4966 9.39368 18.7188 9.95312 18.7188C10.5126 18.7188 11.0491 18.4966 11.4447 18.101C11.8403 17.7054 12.0625 17.1689 12.0625 16.6094C12.0625 16.05 11.8403 15.5134 11.4447 15.1179C11.0491 14.7223 10.5126 14.5 9.95312 14.5Z" fill="#CA6F05"/>
</svg>
