<svg width="40" height="41" viewBox="0 0 40 41" fill="none" xmlns="http://www.w3.org/2000/svg">
<g clip-path="url(#clip0_3938_35123)">
<path d="M20 40.0098C31.0457 40.0098 40 31.0555 40 20.0098C40 8.96407 31.0457 0.00976562 20 0.00976562C8.9543 0.00976562 0 8.96407 0 20.0098C0 31.0555 8.9543 40.0098 20 40.0098Z" fill="#988430"/>
<path d="M20 39.3691C30.6919 39.3691 39.3593 30.7016 39.3593 20.0098C39.3593 9.31787 30.6919 0.650391 20 0.650391C9.3081 0.650391 0.640625 9.31787 0.640625 20.0098C0.640625 30.7016 9.3081 39.3691 20 39.3691Z" fill="#7A6A2A"/>
<path d="M19.9998 38.961C30.4664 38.961 38.9513 30.4762 38.9513 20.0096C38.9513 9.54297 30.4664 1.05811 19.9998 1.05811C9.5332 1.05811 1.04834 9.54297 1.04834 20.0096C1.04834 30.4762 9.5332 38.961 19.9998 38.961Z" fill="#BA9F33"/>
<path fill-rule="evenodd" clip-rule="evenodd" d="M8.74439 17.874C8.63111 17.7706 8.51143 17.6669 8.40135 17.5634C8.29127 17.46 8.1782 17.3563 8.06492 17.2528L7.72828 16.9328C7.67324 16.8778 7.615 16.8294 7.55996 16.7741C7.50492 16.7257 7.44028 16.6706 7.38524 16.622C6.93852 16.1981 6.48924 15.7742 6.04871 15.3501C6.50503 15.7676 6.95175 16.1821 7.40807 16.6058L7.56658 16.7645C7.62162 16.8193 7.67986 16.868 7.7349 16.923L8.07132 17.2336C8.1846 17.3371 8.29468 17.4408 8.40796 17.5536C8.52124 17.6665 8.63132 17.7704 8.7446 17.8736L8.74439 17.874ZM2.81564 17.81C2.81564 17.81 4.44018 17.9782 5.23314 18.0914C5.96764 18.1951 8.26546 18.5478 8.26546 18.5478L2.81564 17.81ZM2.81564 17.81C3.27196 17.8489 3.72828 17.8973 4.1846 17.9459C4.41756 17.9686 4.64092 17.9944 4.86428 18.017L5.20711 18.056C5.32039 18.072 5.43047 18.0882 5.54375 18.1044L6.90311 18.3212L7.58258 18.4345C7.80594 18.4733 8.0293 18.5155 8.26226 18.5544C8.0389 18.5318 7.80594 18.4993 7.58258 18.4669L6.90311 18.3698L5.54375 18.1693C5.43047 18.1531 5.32039 18.1303 5.20711 18.1143L4.86407 18.0748C4.64071 18.0522 4.40775 18.0198 4.18439 17.9937C3.72807 17.9389 3.27175 17.8804 2.81543 17.8094L2.81564 17.81ZM8.10375 18.971C8.10375 18.971 6.36914 19.4113 5.78332 19.5796C5.20732 19.7382 3.4629 20.2689 3.4629 20.2689L8.10354 18.9712L8.10375 18.971Z" fill="#CFB66C"/>
<path fill-rule="evenodd" clip-rule="evenodd" d="M8.1037 18.9707C7.71863 19.084 7.3357 19.1941 6.94509 19.2977L5.78647 19.6084C5.40141 19.7216 5.01847 19.8317 4.63447 19.945L4.05847 20.1035C3.86754 20.1585 3.67341 20.207 3.47607 20.2622C3.66679 20.1982 3.86114 20.1327 4.05207 20.0777L4.62807 19.8934C5.01314 19.7735 5.39607 19.6602 5.78007 19.5405C6.17154 19.4435 6.55682 19.3398 6.94829 19.2459C7.32034 19.152 7.71202 19.0584 8.1037 18.9709V18.9707ZM3.70583 21.3366C3.89655 21.2653 6.0973 20.2396 6.60866 20C6.86466 19.8801 7.60877 19.616 7.60877 19.616L3.70583 21.3366Z" fill="#CFB66C"/>
<path fill-rule="evenodd" clip-rule="evenodd" d="M3.70578 21.3365C3.87389 21.2725 4.03261 21.1942 4.19431 21.1197L4.67325 20.8964L5.63453 20.4336C5.95453 20.2815 6.26557 20.1136 6.59559 19.9707C6.76391 19.8997 6.93223 19.8414 7.10034 19.7864L7.35634 19.7055C7.44359 19.6829 7.52466 19.6569 7.61234 19.6343C7.29234 19.7864 6.95549 19.9159 6.63506 20.0646C6.31506 20.2233 5.98781 20.3528 5.65757 20.4951L4.68029 20.9254C4.35218 21.0583 4.03218 21.2006 3.70557 21.3365H3.70578ZM3.91911 22.2325C3.91911 22.2325 5.9125 21.0643 6.59858 20.6888C6.95783 20.4883 8.11965 19.912 8.11965 19.912L3.91911 22.2325Z" fill="#CFB66C"/>
<path fill-rule="evenodd" clip-rule="evenodd" d="M3.91895 22.2331C4.25537 22.0259 4.59841 21.8156 4.94145 21.602L5.45345 21.2912C5.62817 21.1877 5.79649 21.0907 5.97462 20.9872C6.14934 20.8835 6.31766 20.7801 6.49558 20.683C6.58028 20.6307 6.66903 20.5853 6.76097 20.5471L7.03276 20.4112C7.39201 20.2365 7.75126 20.0584 8.12993 19.9062C7.78689 20.1232 7.43404 20.3077 7.0814 20.4985C6.90668 20.5955 6.72854 20.683 6.55382 20.7801C6.3791 20.8771 6.21078 20.9808 6.03265 21.0747C5.85793 21.1781 5.68961 21.2752 5.51169 21.3691L4.98412 21.6571L3.91937 22.2331H3.91895ZM8.10326 20.1682C8.10326 20.1682 6.8638 21.1197 6.46252 21.4239C6.06124 21.7281 4.88001 22.5825 4.88001 22.5825L8.10326 20.1682Z" fill="#CFB66C"/>
<path fill-rule="evenodd" clip-rule="evenodd" d="M15.2168 27.8416L14.5825 26.6409L14.9514 25.1393L17.5824 24.1232L16.4626 21.8256L17.016 19.5051L18.0549 17.4273L21.2654 16.9225L23.6244 14.6733L28.7184 15.0584L29.7183 20.505L27.7928 27.3626L26.6958 30.9129L22.2491 31.0812L20.1844 29.6508L17.7669 28.6409L15.2168 27.8416Z" fill="#E2CC85"/>
<path fill-rule="evenodd" clip-rule="evenodd" d="M23.0165 27.8026C23.0165 27.8026 22.4015 28.0842 21.3525 28.0193C21.0489 27.6116 18.9229 27.4207 18.9229 27.4207C18.9229 27.4207 18.6575 27.3399 18.1881 27.534C17.7158 27.726 17.2691 27.7023 16.8516 27.8058C16.4341 27.9092 16.0196 27.3657 15.6996 27.2524C15.3796 27.1327 14.9553 26.8447 14.9553 26.8447L14.0593 26.7572L12.26 25.9967L9.40157 23.1489L8.62483 24.3649L8.38525 25.8698L9.24947 27.653L11.5763 29.7727L16.1135 30.9247L18.8027 30.1324L22.1717 28.7084L23.0165 27.8024V27.8026Z" fill="#F1D789"/>
<path fill-rule="evenodd" clip-rule="evenodd" d="M6.89645 17.7378L7.47245 15.9936L8.15874 14.8672L10.3689 14.6826L9.70541 16.618L7.85773 19.9061L8.62466 22.8413L7.26552 23.5208L6.84781 22.8802L6.51138 21.4109L6.48877 19.7604L6.89645 17.7378Z" fill="#F4ECB4"/>
<path fill-rule="evenodd" clip-rule="evenodd" d="M9.37538 27.6829L8.95148 27.0907C8.95148 27.0907 8.8382 26.8091 8.90305 26.5631C8.96706 26.314 8.95788 26.2977 8.92567 26.2039C8.89346 26.11 8.62146 25.7864 8.63767 25.508C8.65367 25.2264 8.61506 25.1325 8.82199 24.9094C9.03874 24.6926 8.9741 24.3172 8.9741 24.3172L9.2557 24.4919L9.31969 24.3948C9.31969 24.3948 9.42316 24.4757 9.42316 24.602C9.44578 24.4272 9.35191 23.6181 9.56546 23.4337C9.779 23.2494 10.1577 24.2977 10.1577 24.2977L9.92471 22.7767L9.32588 21.217L8.26113 19.793L8.19713 18.2233V18.0874C8.19713 18.0874 7.70839 18.8383 7.57249 19.4314C7.47543 19.8391 7.70839 20.3342 7.65996 20.92C7.62092 21.5027 7.5725 21.4572 7.71479 21.688C7.85708 21.9189 8.20354 22.3935 8.06764 22.7366C7.94796 23.0312 7.54007 22.824 7.54007 22.824C7.54007 22.824 7.45921 23.0634 7.34913 23.1509C7.31031 23.0086 7.26828 22.9179 7.19063 22.8309C7.18402 22.8859 7.16802 22.9604 7.16802 22.9604C7.16802 22.9604 7.09676 22.737 7.02551 22.4554C6.92866 22.0801 6.82497 21.585 6.73111 21.3196C6.69228 21.4717 6.59521 21.9344 6.59521 21.9344L6.65026 22.6465L6.91564 23.6238L7.17164 24.2638L7.42082 25.047L7.63735 25.5731L7.81207 25.9743L7.96418 26.8774L8.69868 27.6539L9.09036 27.8288L9.37495 27.6831L9.37538 27.6829Z" fill="#F3E19D"/>
<path fill-rule="evenodd" clip-rule="evenodd" d="M7.28144 16.3137C7.28144 16.3137 6.75386 17.2097 6.60197 18.113C6.45007 19.0163 6.31397 19.9707 6.40997 21.2004C6.50703 22.44 6.69157 23.2004 6.84047 23.7441C7.09647 24.6472 7.75952 25.9029 7.75952 25.9029L7.78213 25.8542C7.67068 25.643 7.58173 25.4206 7.51674 25.1908C7.42928 24.8477 7.39685 24.44 7.31599 24.2555C7.24474 24.0712 7.12506 23.9125 7.06682 23.6859C7.01178 23.4692 7.00282 23.1261 6.83386 22.8705C6.76261 22.7669 6.67514 22.4951 6.64933 22.2233C6.6169 21.8154 6.66554 21.3591 6.62671 20.9838C6.55546 20.3592 6.50703 19.9353 6.57167 19.6083C6.63631 19.2812 6.97317 18.3528 7.18031 17.6149C7.31621 17.1423 7.23514 16.7443 7.48431 16.3332C7.73349 15.9255 7.88581 15.5662 7.94064 15.3171C8.00464 15.0905 7.28058 16.3137 7.28058 16.3137H7.28144Z" fill="#F2E8B0"/>
<path fill-rule="evenodd" clip-rule="evenodd" d="M9.78311 15.9546C9.78311 15.9546 9.51132 16.0357 9.38183 16.178C9.25234 16.3138 9.1973 16.4271 9.02258 16.6569C8.84786 16.8866 8.83804 17.0744 8.69554 17.3624C8.55324 17.644 8.23922 18.0679 8.20039 18.22C8.16156 18.3721 8.09692 19.084 8.01607 19.4206C7.94482 19.7573 8.09692 20.1715 8.09692 20.1715L8.28124 20.1325C8.28124 20.1325 8.28124 20.3721 8.46578 20.534C8.6501 20.6925 8.68252 19.9966 8.68252 19.9966L9.3718 17.6698L10.4105 16.9643L10.5238 16.3947L9.78268 15.9546H9.78311Z" fill="#F5EEC0"/>
<path fill-rule="evenodd" clip-rule="evenodd" d="M10.2881 17.0098C10.2881 17.0098 9.79934 17.042 9.55998 17.2169C9.46291 17.288 9.42408 17.3462 9.32062 17.4337C9.12968 17.5922 8.93534 17.7379 8.84168 17.9457C8.738 18.1526 8.62472 18.4666 8.54707 19.0589C8.51464 19.308 8.51464 19.5378 8.49203 19.7385C8.4596 20.0103 8.41118 20.2271 8.43699 20.3785C8.46942 20.6891 8.78984 20.8511 8.82099 21.2037L9.48446 20.8673L10.1091 18.4043L11.436 17.5723L10.6851 16.731L10.2872 17.0083L10.2881 17.0098Z" fill="#E6DB9D"/>
<path fill-rule="evenodd" clip-rule="evenodd" d="M6.78781 33.5945C6.79058 33.5702 6.79336 33.5459 6.79613 33.5209C6.89298 32.6889 6.90941 32.0583 6.98045 31.6634C7.08392 31.1036 7.15517 30.8954 7.13896 30.6859C7.11634 30.3495 7.09053 30.1035 7.12296 29.8445C7.17138 29.5015 7.50802 29.0938 7.49842 28.8122C7.49181 28.5888 7.37853 28.4434 7.28146 28.3075C7.1844 28.1716 7.10674 28.0583 7.10674 28.0583C7.10674 28.0583 7.77021 27.602 7.76381 25.7637C7.77736 25.7675 7.7904 25.7729 7.80264 25.7799L8.12946 26.7085L8.35282 26.9803L9.21042 28.579L10.314 29.6504L11.9449 30.7474L12.9677 31.8603L13.0711 34.828L11.7346 36.5626L11.5157 36.959C9.77676 36.086 8.18215 34.9512 6.7876 33.5943L6.78781 33.5945Z" fill="#E5CB7A"/>
<path fill-rule="evenodd" clip-rule="evenodd" d="M10.8706 36.4337C10.8706 36.4337 10.8932 36.0648 11.1974 35.8252C11.2461 35.9061 11.2783 35.984 11.2687 36.042C11.3237 35.9451 11.7088 35.3237 12.5794 35.1618C13.45 35.0033 13.6604 34.369 13.6604 34.369L15.508 32.6895L17.6213 30.7445L20.1909 29.8415L21.3918 29.5468C21.3918 29.5468 21.4144 29.6343 21.3692 29.8284C21.5923 29.8124 22.0875 29.6992 22.602 29.5178C22.8092 29.437 23.0035 29.4045 23.107 29.5114C23.2591 29.6537 23.2817 29.9904 23.2913 30.1909C23.5405 30.1359 23.8285 29.8965 24.0593 29.9191C24.4284 29.9579 24.7552 30.3916 25.1307 30.3916C25.6258 30.3916 25.849 30.0874 26.1954 29.8479C26.4026 29.7056 26.7002 29.5279 26.8685 29.4077C27.2698 29.1131 31.5157 27.8154 31.5157 27.8154L33.0044 27.9125L33.2439 29.5112L33.1159 33.6904C33.1002 33.7056 33.0844 33.7213 33.0684 33.7365L26.2997 37.2716L16.9173 38.7099C14.8156 38.3666 12.7875 37.6689 10.9192 36.6468L10.8712 36.4335L10.8706 36.4337Z" fill="#D8C173"/>
<path fill-rule="evenodd" clip-rule="evenodd" d="M7.35693 34.1262C7.49027 33.8473 7.61016 33.6142 7.63128 33.5308C7.64792 33.6989 7.67843 34.0677 7.73987 34.4598C7.61087 34.3502 7.48323 34.2389 7.35693 34.126V34.1262Z" fill="#F1D789"/>
<path fill-rule="evenodd" clip-rule="evenodd" d="M14.2105 38.0594L15.4239 37.7219L15.5274 37.7544C15.5274 37.7544 15.5824 37.7868 15.5824 37.8966C15.7345 37.8094 15.864 37.8254 15.9579 37.7674C16.0063 37.8708 16.0547 38.2139 16.2685 38.2559C16.4917 38.3045 16.7312 38.1588 16.974 37.9745C17.2134 37.7836 17.486 37.544 17.6923 37.4469C17.768 37.5861 17.835 37.7298 17.893 37.8772C18.1648 37.6605 18.6374 36.7803 19.3104 36.7963C19.505 36.3365 19.83 35.9439 20.2453 35.6669C20.8699 35.243 21.2614 35.2106 21.7501 35.2494C21.9442 34.9972 22.1834 34.7833 22.4556 34.6184C22.5365 34.6508 22.7598 34.7867 23.0382 34.6572C23.3198 34.5279 23.6368 34.0261 24.0543 33.9615C24.2793 33.9305 24.508 33.9786 24.7016 34.0974C24.7016 34.0974 25.9176 32.8901 26.7566 32.4889C26.7242 32.3918 26.6595 32.0261 27.6432 31.217C27.6983 31.2656 27.6594 31.4015 27.6983 31.409C27.7143 31.409 27.9543 31.3055 28.2581 31.0723C28.6335 30.7909 29.0832 30.4963 29.355 30.4155C29.867 30.2634 30.4102 30.574 30.4102 30.574C30.4563 30.5416 30.5078 30.5175 30.5623 30.5027C30.6915 30.4801 30.7854 30.4639 30.8567 30.4387C30.8503 30.607 30.9441 30.895 30.8567 31.1442C30.958 31.2012 31.0653 31.2468 31.1767 31.2801C31.1218 31.3998 31.0019 31.704 30.8014 31.8497C30.9695 31.9306 30.9921 32.0244 31.2317 32.1057C31.1346 32.2416 30.9757 32.4748 30.9049 32.6177C30.8336 32.7698 30.5778 33.4009 30.4646 33.6402C30.3449 33.8798 30.1832 34.3199 30.1053 34.4082C30.0274 34.4965 29.7461 34.8709 29.5293 35.0553C29.7213 34.984 30.5068 34.7446 30.84 34.654C30.7408 34.7995 30.238 35.5455 29.7546 36.2629C27.44 37.6502 24.8564 38.5283 22.1758 38.8386C19.4952 39.1489 16.7793 38.8844 14.209 38.0626L14.2105 38.0594Z" fill="#E0CD81"/>
<path fill-rule="evenodd" clip-rule="evenodd" d="M10.3679 16.9225C10.3679 16.9225 10.0865 16.9225 10.0314 16.9613C9.97639 17.0002 10.313 17.0812 10.4165 17.1201C10.52 17.1589 10.7433 17.3368 10.8016 17.4793C10.8566 17.6152 12.8242 18.408 12.8242 18.408L14.2157 18.3367L14.6955 17.6739L13.7829 16.8745L14.4229 14.9878L13.5751 15.1237L11.5363 16.3397L10.5136 16.7314L10.3679 16.9225Z" fill="#DFC57C"/>
<path fill-rule="evenodd" clip-rule="evenodd" d="M13.4242 17.5473C13.4443 17.5798 13.4726 17.6065 13.5063 17.6247C13.54 17.6429 13.5779 17.6518 13.6162 17.6507C13.9042 17.6507 14.1694 17.722 14.2794 17.8675C14.464 18.1007 14.9753 18.845 14.9753 18.845L16.1986 19.2851L16.2775 17.8447L14.941 16.916L13.4199 17.4758V17.5471H13.4233L13.4242 17.5473Z" fill="#E5CC7C"/>
<path fill-rule="evenodd" clip-rule="evenodd" d="M13.1842 18.0811C13.1842 18.0811 13.4073 18.0973 13.6889 17.9936C13.9705 17.8899 14.4332 17.6668 14.634 17.7543C14.9154 17.8739 14.8571 18.2494 15.1616 18.5863C15.3459 18.7934 15.6825 18.787 15.8735 19.0104C16.0644 19.2337 16.7212 19.1301 16.7212 19.1301L16.9704 20.4741L15.9705 21.7558L15.6435 23.3479H14.2914L13.0562 22.8578L12.4478 21.3858L12.752 19.8972L13.1842 18.0811Z" fill="#D2C281"/>
<path fill-rule="evenodd" clip-rule="evenodd" d="M15.7996 18.1456C15.8331 18.1559 15.868 18.1613 15.903 18.1618C15.8642 18.1942 15.7831 18.2652 15.8156 18.4498C15.848 18.6343 15.9515 18.8673 15.8642 19.0096C15.9339 19.0857 15.9858 19.1763 16.0163 19.2749C16.0714 19.4337 16.0876 19.5792 16.4466 19.602C16.3948 19.6339 16.347 19.6719 16.3043 19.7153C16.3043 19.7153 16.5535 19.932 16.6798 20.1325C16.8091 20.127 17.1521 20.0203 17.1521 20.0203L17.2234 20.069L17.3755 20.005C17.3755 20.005 17.2332 19.9499 17.3366 19.6037C17.4337 19.2995 17.5212 19.3157 17.5286 19.2931C17.5361 19.2705 17.5999 18.95 17.5999 18.8205C17.6483 18.6524 17.6871 18.1411 17.6871 18.1411L17.5837 17.0117L17.0013 16.6588L16.5277 16.2017L16.081 17.043L15.7868 17.3364L15.7642 18.0645L15.7996 18.1456Z" fill="#E2C270"/>
<path fill-rule="evenodd" clip-rule="evenodd" d="M17.2007 17.2008C17.2007 17.2008 17.3042 17.4952 17.3432 17.7217C17.3569 17.6777 17.3646 17.632 17.3658 17.5859C17.3658 17.5859 17.4467 18.0326 17.4627 18.2171C17.4951 18.2105 17.5267 18.2009 17.5339 18.2331C17.5412 18.2653 17.615 18.6248 17.5979 18.8253C17.7327 18.603 17.9192 18.4165 18.1415 18.2817C18.271 18.2007 18.4231 18.1134 18.5818 18.1068C18.831 18.1004 19.0121 18.2655 19.3099 18.2655C20.0282 18.2655 20.6789 17.738 21.1578 17.5763C21.5104 17.4564 21.8147 17.3691 22.0282 17.1748C22.1319 17.0875 22.3164 16.8934 22.4845 16.6052C22.7079 16.2212 22.9408 15.8869 23.174 15.8448C23.0685 15.8642 22.9612 15.8718 22.854 15.8675C22.854 15.8675 22.9253 15.7962 23.046 15.6991C23.1668 15.6021 23.3114 15.4824 23.5183 15.4824C23.8874 15.4824 24.0717 15.5372 24.2789 15.5372C24.486 15.5308 24.6057 15.4824 24.6057 15.4824C24.6057 15.4824 24.8227 15.6345 25.3112 15.6345C25.7999 15.6409 26.1268 15.6829 26.3826 15.7057C26.6383 15.7286 27.4957 15.6345 27.7417 15.6417C27.9021 15.6479 28.0595 15.6865 28.2046 15.755L27.4117 13.451L24.5632 10.9614L22.8675 12.1621L20.2588 14.7705L17.7347 15.7057L17.2071 16.298V17.2008H17.2007Z" fill="#CCB360"/>
<path fill-rule="evenodd" clip-rule="evenodd" d="M22.8642 15.8805C22.8642 15.8805 22.9354 15.8094 23.0549 15.7124C23.1744 15.6153 23.3205 15.4954 23.5274 15.4954C23.8963 15.4954 24.0808 15.5505 24.288 15.5505C24.4951 15.5441 24.6148 15.4954 24.6148 15.4954C24.6148 15.4954 24.832 15.6473 25.3203 15.6473C25.809 15.6537 26.1359 15.6957 26.3916 15.7183C26.6474 15.741 27.5048 15.6473 27.7508 15.6543C27.9111 15.6604 28.0685 15.6989 28.2135 15.7676L27.8543 14.7287L27.437 13.9359L26.2459 12.6316C26.2459 12.6316 24.8166 11.7902 24.8057 11.7838C24.7993 11.7774 24.3106 11.6479 24.3106 11.6479L23.0161 12.4311L21.8415 15.47L21.8188 16.11L22.5792 16.4693C22.7701 16.1493 22.9807 15.8933 23.178 15.8609C22.9999 15.8803 22.864 15.8803 22.864 15.8803L22.8642 15.8805Z" fill="#D5B457"/>
<path fill-rule="evenodd" clip-rule="evenodd" d="M22.8478 16.0974C22.7345 16.1038 22.6408 16.0812 22.6148 16.0003C22.5178 15.7285 22.4401 15.6897 22.3588 15.6897C22.2775 15.6897 22.1679 15.8644 22.1028 15.8804C22.0378 15.8964 21.9605 15.6799 21.9605 15.6799L21.8893 15.6475C21.8893 15.6475 21.4718 15.9192 21.1774 16.2397C20.883 16.5601 20.4006 17.1039 20.1839 17.2007C19.9671 17.2976 19.2226 17.3302 18.9679 17.3853C18.7132 17.4403 18.4307 17.6248 18.3919 17.6669C18.3531 17.7089 18.5054 17.7541 18.528 17.7962C18.5506 17.835 18.2786 17.8188 18.256 17.8602C18.24 17.8926 18.32 18.0769 18.3597 18.1708C18.4291 18.1362 18.5053 18.1175 18.5828 18.1157C18.832 18.1093 19.0133 18.2744 19.3109 18.2744C20.0294 18.2744 20.6799 17.7469 21.1588 17.585C21.5117 17.4653 21.8159 17.3778 22.0294 17.1837C22.1329 17.0964 22.3174 16.9021 22.4858 16.6141C22.6086 16.4167 22.7285 16.2322 22.8484 16.0963L22.8478 16.0974Z" fill="#D2B257"/>
<path fill-rule="evenodd" clip-rule="evenodd" d="M12.5439 32.1133C12.5439 32.1133 12.4799 31.8738 11.8868 31.2557C11.7185 31.081 11.615 30.9357 11.5018 30.8319C11.2202 30.5663 11.055 30.4952 10.8545 30.3431C10.4144 30.0163 9.93546 30.0163 9.5666 29.615C9.19775 29.2137 8.76788 28.447 8.46922 27.6634C8.17482 26.8803 8.09375 26.6311 8.09375 26.6085C8.09375 26.5859 8.17482 26.4338 8.27828 26.4564C8.38175 26.479 8.38175 26.6795 8.40778 26.7282C8.45933 26.8076 8.51779 26.8822 8.5825 26.9513C8.7346 27.1263 8.95135 27.3353 9.06143 27.6472C9.03882 27.3818 8.94815 27.0874 8.94815 27.0874C8.94815 27.0874 9.51775 27.4467 10.0031 27.8219C10.4918 28.1974 10.6924 28.3269 10.8351 28.5663C10.9778 28.8056 11.314 29.4369 11.4751 29.6214C11.6362 29.8059 13.8431 30.5016 13.8431 30.5016L14.8929 31.2843L15.4141 32.4267L15.0062 33.0667L14.223 33.2351L12.9511 32.6655L12.5439 32.1131V32.1133Z" fill="#D2B159"/>
<path fill-rule="evenodd" clip-rule="evenodd" d="M9.71826 28.178C9.71826 28.178 9.98365 28.6019 10.6309 29.0032C11.2135 29.356 12.1358 29.6765 12.9579 29.8674C13.4303 29.9807 13.9028 30.0679 14.3267 30.0746C15.4691 30.0906 16.2554 29.7639 17.2297 29.6571C17.7573 29.602 18.4046 29.56 19.0776 29.4011C19.9416 29.1939 20.453 28.9607 21.1489 28.6331C21.6536 28.4001 22.1166 28.2254 22.4918 28.002C23.0194 27.6914 23.4044 27.3452 23.8512 27.2417C23.7961 27.3938 23.7379 27.6656 23.2978 27.9472C23.5307 27.9406 23.8512 27.9246 23.8512 27.9246C23.8512 27.9246 23.5406 28.1089 22.9936 28.5232C22.6569 28.7792 22.2104 29.2125 21.7541 29.5005C21.4595 29.685 21.1391 29.8205 20.9287 29.931C20.4167 30.2126 20.2102 30.3549 19.8738 30.699C19.9935 30.6926 20.0033 30.699 20.0033 30.699C20.0033 30.699 19.5792 30.754 19.2752 30.9157C19.2112 30.9157 19.1002 30.8931 18.9061 30.9482C18.754 30.9966 18.5532 31.1069 18.3463 31.1649C18.0517 31.2524 17.9548 31.2135 17.9548 31.2135L18.0033 31.3106C18.0033 31.3106 17.6193 31.304 17.4913 31.317C17.5139 31.3234 17.5075 31.3332 17.5075 31.3332C17.485 31.337 17.4633 31.3446 17.4435 31.3558C17.3819 31.3957 17.3141 31.4252 17.243 31.4431C17.2041 31.4495 17.1717 31.4495 17.1231 31.4593C17.1393 31.4981 17.2656 31.7153 17.3238 31.8433C17.2754 31.8757 16.5471 32.4259 16.5471 32.4259C16.5696 32.4615 16.5881 32.4995 16.6021 32.5392C16.6247 32.6102 16.6345 32.7139 16.6571 32.7623C16.712 32.8594 16.7444 32.8756 16.7444 32.8756C16.7444 32.8756 16.6571 32.8918 16.5048 32.9307C16.3755 32.9631 16.2168 33.0179 15.9928 33.0503C15.9241 33.0593 15.855 33.0647 15.7857 33.0666C15.8181 33.1378 15.9604 33.4096 15.6982 33.7234C15.436 34.0372 15.3552 34.0829 15.2743 34.2834C15.2336 34.2526 15.1903 34.2255 15.1448 34.2023C15.0576 34.1635 14.9377 34.1055 14.8956 34.0276C14.8711 34.1314 14.8387 34.2331 14.7986 34.3318C14.7177 34.5486 14.598 34.7623 14.5754 34.924C14.488 34.827 14.3263 34.636 14.1029 34.6749C13.8795 34.7137 13.7016 35.0179 13.6628 35.1054C13.6628 35.0503 13.624 35.0083 13.6144 35.073C13.6078 35.1442 13.4849 35.8883 12.7988 36.4903C12.7924 36.3382 12.7924 36.0016 12.7762 35.8917C12.7122 35.9557 12.6339 36.0502 12.1678 36.251C11.7114 36.4515 11.7838 36.6523 11.7838 36.6523C11.7838 36.6523 11.7449 36.3323 11.9909 35.9952C12.2401 35.6588 12.3922 35.5 12.3922 35.4742C12.3882 35.4479 12.3769 35.4233 12.3598 35.403C12.3273 35.3706 12.2627 35.3317 12.2627 35.3059C12.3015 35.2899 12.6866 35.1054 12.664 34.7233C12.6414 34.3805 12.4959 34.2023 12.3922 34.0763C12.3762 34.06 12.5445 33.9404 12.5217 33.9015C12.5055 33.8789 12.2985 33.7266 12.2725 33.6455C12.2786 33.5972 12.2895 33.5495 12.3049 33.5032C12.3275 33.432 12.3438 33.3834 12.3374 33.3349C12.3211 33.2541 12.2337 33.0307 12.2079 33.0081C12.2305 33.0145 12.3922 33.0081 12.3922 33.0081C12.3922 33.0081 12.2629 32.801 12.2401 32.7039C12.2172 32.6068 12.1688 32.351 12.143 32.3026C12.198 32.309 12.3339 32.3186 12.3339 32.3026C12.3406 32.254 12.2143 32.1731 12.2699 32.1106C12.3088 32.117 12.3832 32.1494 12.4543 32.2401C12.4154 32.1364 12.3508 31.9359 12.2147 31.855C12.2787 31.8324 12.4963 31.774 12.6872 31.8872C12.8782 32.0005 12.9432 32.159 12.9432 32.159C12.9432 32.159 13.0565 32.2465 13.2314 32.376C13.432 32.5345 13.6875 32.76 14.0954 32.9196C14.1829 32.9682 14.406 32.9682 14.568 32.9358C14.6385 32.919 14.7061 32.8917 14.7685 32.8549C14.791 32.8416 14.8149 32.8308 14.8398 32.8225C14.805 32.7527 14.765 32.6856 14.7201 32.6218C14.7751 32.6218 14.8398 32.6284 14.8398 32.6284C14.8398 32.6284 14.8786 32.5409 14.7039 32.3724C14.7427 32.3335 14.7913 32.3084 14.7913 32.2429C14.7363 32.2365 14.6392 32.1556 14.6166 32.1232C14.6488 32.1006 14.6975 32.0261 14.7525 32.0035C14.7039 31.9647 14.5842 31.8028 14.5291 31.7868C14.5817 31.7672 14.6326 31.7434 14.6812 31.7155C14.6812 31.7155 14.4095 31.6443 14.322 31.586C14.2345 31.522 14.1052 31.4113 14.0276 31.3789C13.9465 31.3464 13.8042 31.3304 13.746 31.2656C13.8008 31.2818 13.8883 31.2656 13.9531 31.2656C14.0016 31.2656 14.0244 31.272 14.0404 31.272C14.034 31.2494 14.034 31.2007 14.1603 31.1847C14.221 31.1756 14.28 31.157 14.335 31.1297C14.335 31.1297 14.2151 31.1233 14.079 30.9938C13.9429 30.8643 13.8298 30.7608 13.7522 30.7446C13.6713 30.7284 13.5192 30.7997 13.4254 30.7931C13.2959 30.7771 13.2408 30.7122 13.2408 30.7122C13.2408 30.7122 12.8105 30.751 11.8559 30.1686C11.0305 29.6637 10.6712 29.2172 10.6712 29.2172C10.594 29.1891 10.5193 29.1544 10.4481 29.1135C10.1375 28.9518 9.70696 28.6151 9.71997 28.1748L9.71826 28.178Z" fill="#C2A44D"/>
<path fill-rule="evenodd" clip-rule="evenodd" d="M21.6247 8.75413C21.6996 8.77845 21.7661 8.82332 21.8167 8.88363C21.9688 9.05835 22.0659 9.38837 21.7197 9.74123C21.8556 9.78965 21.9117 9.80523 22.0303 9.78965C21.9106 9.93216 21.6388 10.2364 21.6226 10.5018C21.6064 10.7185 21.7423 10.7834 21.7423 10.7834C21.7423 10.7834 21.5351 11.0227 21.5255 11.4234C21.6234 11.313 21.7304 11.2113 21.8455 11.1191C22.0851 10.9282 22.4151 10.7115 22.6385 10.5756C22.6355 10.6325 22.6431 10.6895 22.6611 10.7437C22.6611 10.7437 23.0784 10.4006 23.4291 10.553C23.5876 10.6242 23.5164 10.8474 23.5164 10.8474C23.5164 10.8474 23.7333 10.7665 23.8854 10.9186C24.0375 11.0707 24.2526 11.463 24.3629 11.6151C24.4113 11.6864 24.5376 11.8223 24.6669 12.0326C24.8435 12.3271 24.991 12.6382 25.1072 12.9613C25.1136 12.793 25.1556 12.531 25.6348 12.6959C26.1137 12.8642 26.6573 13.2171 27.1136 13.9119C27.5699 14.6067 27.683 15.3911 27.9127 15.6898C28.1457 15.9778 28.3853 16.4567 28.4015 16.6575C28.4177 16.8582 28.3302 17.5053 28.8092 19.2561C28.945 18.7125 29.1522 17.5053 29.1522 17.5053L29.2655 16.4405L29.395 13.146L25.9548 10.288L23.2655 8.33643L21.5146 8.50475L21.6245 8.75392L21.6247 8.75413Z" fill="#CAA13E"/>
<path fill-rule="evenodd" clip-rule="evenodd" d="M28.0164 13.6569C28.0164 13.6569 27.9678 13.3369 27.1588 12.7929C26.3496 12.2557 25.7186 12.2557 25.1362 11.7994C24.6895 11.4401 24.2235 10.6148 23.9202 10.343C23.6256 10.0744 23.5771 9.29763 23.5771 9.29763L24.5706 8.46563L26.0482 6.32995L27.2973 4.95459L27.8959 5.78659L28.7279 6.76387L29.1906 8.72504L29.3589 11.5957L28.0149 13.6571L28.0164 13.6569Z" fill="#B59544"/>
<path fill-rule="evenodd" clip-rule="evenodd" d="M29.0164 17.0975C29.0409 16.6622 28.9871 16.226 28.8577 15.8096C28.6443 15.1462 28.1782 13.9681 27.9617 13.527C27.8742 13.0382 27.9391 12.9994 28.0329 12.9444C28.1268 12.8893 28.4796 12.6884 28.6729 11.9833C28.8662 11.2782 29.4659 11.2552 29.4659 11.2552L29.8347 10.9834L30.3947 12.3846L30.8833 13.6501L31.0354 14.6177L31.1487 15.4429L30.8833 17.1873L29.5728 18.3718L29.0162 17.0975H29.0164Z" fill="#C89D3A"/>
<path fill-rule="evenodd" clip-rule="evenodd" d="M10.7285 36.5405V36.5047C10.7557 36.4877 10.7798 36.466 10.7996 36.4407C10.8222 36.4083 10.8386 36.3694 10.8546 36.3598C10.887 36.3436 11.0391 36.2958 11.12 36.3112C11.2008 36.3266 11.4146 36.4147 11.5279 36.4083C11.7608 36.4019 12.0326 36.2237 12.4631 36.3048C13.1104 36.4245 13.2625 36.8646 13.638 37.1138C13.894 37.2887 14.1589 37.2108 14.1977 37.2108H14.285C14.3012 37.2108 14.4209 37.0749 14.4857 37.0815C14.6152 37.0879 14.628 37.1948 14.7089 37.2012C14.8998 37.2238 15.2689 37.1042 15.4534 37.1528C15.5081 37.1699 15.5579 37.2001 15.5985 37.2406C15.639 37.2811 15.6692 37.3308 15.6864 37.3855C15.7252 37.5052 15.6928 37.6573 15.5989 37.7448C15.3984 37.9291 15.2074 38.1041 15.1686 38.2568C15.218 38.2945 15.2654 38.3346 15.3107 38.3771C13.7095 37.9691 12.1688 37.3523 10.7285 36.5425V36.5405Z" fill="#CEB052"/>
<path fill-rule="evenodd" clip-rule="evenodd" d="M27.9609 30.0744C27.9609 30.0744 28.4657 29.4013 28.6406 29.0679C28.8153 28.7242 28.0872 24.3722 28.0872 24.3722L29.5501 19.5794L29.511 18.0196C29.511 18.0196 29.5823 16.5793 29.7506 15.9547C29.9513 16.314 30.576 16.7477 30.7119 16.9774C30.7759 16.5371 30.9933 15.6085 30.961 14.6182C31.0807 14.8025 31.3687 16.657 31.3687 16.657L31.6567 17.9061L32.0322 19.233L32.4497 20.6344L32.6989 21.6021L32.8411 21.835L32.961 22.2427L33.0743 22.683L33.4011 23.7153L33.5931 24.5631L33.7453 26.1004C33.7783 26.2181 33.8022 26.3382 33.8165 26.4597C33.8229 26.628 33.7939 26.725 33.7939 26.7543C33.7939 26.7835 33.8489 27.1231 33.8263 27.3789C33.7939 27.6349 33.7939 27.8352 33.5931 28.0189C33.3924 28.2026 33.2663 29.3004 33.2663 29.3004L32.9071 29.061C32.9071 29.061 32.9783 28.734 32.81 28.4364C32.6417 28.1388 32.3149 28.0772 32.1303 28.1258C31.946 28.1646 31.5771 28.2226 31.4573 28.3263C31.344 28.4298 31.0658 28.7502 30.81 28.8959C30.49 29.0879 29.9686 29.1031 29.6904 29.1677C29.4088 29.2317 29.0982 29.4237 28.7712 29.6466C28.5148 29.8127 28.244 29.9554 27.9622 30.0733L27.9609 30.0744Z" fill="#CCA847"/>
<path fill-rule="evenodd" clip-rule="evenodd" d="M27.9609 37.1459C27.9609 37.1459 27.9823 37.1597 28.0234 37.1824C30.3227 36.1051 32.3828 34.5782 34.0821 32.6917C34.0635 32.0368 34.0394 31.3654 34.013 31.1166C33.9582 30.5891 33.997 30.0519 33.9808 29.7413C33.9646 29.4307 33.7898 28.1652 33.709 27.8384C33.6215 27.5115 33.453 27.3496 33.4274 27.3496C33.4048 27.3562 33.2687 27.9646 33.2687 28.1176C33.2687 28.2706 33.2362 28.6388 33.2362 28.7326C33.2136 28.726 33.204 28.6686 33.204 28.6452C33.1716 28.726 33.1328 28.8685 33.1166 28.8848C33.1003 28.901 33.1392 28.7489 33.1166 28.7164C33.0939 28.684 33.0526 28.7002 33.0615 28.6194C33.0654 28.5714 33.0729 28.5238 33.0841 28.4771C33.0841 28.4771 32.9871 28.6194 32.916 28.9818C32.8448 29.3411 32.8448 29.3509 32.819 29.3831C32.7964 29.4221 32.6669 29.5514 32.6602 29.6001C32.6538 29.6873 32.7801 29.7748 32.7897 29.8232C32.7961 29.9043 32.6765 30.2795 32.6376 30.4632C32.5988 30.6469 32.615 31.0068 32.5736 31.1913C32.5412 31.3596 32.5096 31.4567 32.3989 31.5277C32.4798 31.544 32.5574 31.5666 32.5574 31.5666C32.5574 31.5666 32.6707 32.0455 32.3827 32.4534C32.2792 32.5957 32.2534 32.6605 32.1433 32.79C31.9264 33.0294 31.7581 33.302 31.7418 33.4793C31.7306 33.427 31.7231 33.374 31.7192 33.3206C31.7192 33.3206 31.3828 33.7123 31.2403 33.9356C31.056 34.2236 30.8002 34.2074 30.7283 34.2787C30.6564 34.3499 30.6408 34.4792 30.6643 34.5829C30.6003 34.5989 30.48 34.6217 30.3989 34.8709C30.3601 35.0002 30.263 35.1269 30.1109 35.2139C29.9588 35.301 29.7743 35.3272 29.6804 35.3498C29.7613 35.3724 29.7937 35.3724 29.8325 35.3982C29.7841 35.4791 29.5607 35.6054 29.3115 35.7673C29.0624 35.9194 28.9425 36.1426 28.881 36.2883C28.817 36.4242 28.7225 36.5116 28.5704 36.5278C28.6344 36.5667 28.7291 36.6571 28.7776 36.6864C28.7063 36.7026 28.5856 36.7026 28.3699 36.8871C28.1433 37.0748 28.0657 37.1299 27.962 37.1461L27.9609 37.1459Z" fill="#C39D3C"/>
<path fill-rule="evenodd" clip-rule="evenodd" d="M23.4581 38.6453C23.582 38.5584 23.7162 38.4873 23.8577 38.4335C24.3624 38.2329 24.8964 38.1941 25.1067 38.1295C25.3075 38.0655 25.466 37.9771 25.7152 37.9287C25.7086 37.9855 25.703 38.0388 25.697 38.0891C24.9624 38.3201 24.2144 38.5058 23.457 38.6453H23.4581Z" fill="#D2BA6B"/>
<path fill-rule="evenodd" clip-rule="evenodd" d="M32.7679 25.3691C32.7679 25.3691 32.6645 25.9289 32.4799 26.2818C32.2954 26.6346 32.0959 27.1231 32.0959 27.1231C32.0971 27.013 32.1102 26.9034 32.1348 26.7961C31.9018 26.932 31.3354 27.259 31.1748 27.4045C31.0227 27.5404 30.7669 27.78 30.7022 27.8933C30.8543 27.4468 31.0128 27.0455 31.0389 26.861C30.8059 27.0293 29.7183 27.9257 29.1521 28.5179L27.3883 29.9451C27.1848 30.0549 26.9751 30.1531 26.7605 30.2391C26.4565 30.3684 26.0972 30.4784 25.8318 30.5821C25.9031 30.3912 26.0161 30.2227 26.1749 30.061C26.3432 29.9024 26.8479 29.3555 26.9256 29.101C26.9968 28.8356 27.0131 28.6771 26.9192 28.4537C26.8317 28.4763 26.6312 28.4861 26.4953 28.525C26.3594 28.5638 26.2137 28.7093 26.2137 28.7093C26.2137 28.7093 26.3172 28.1171 26.5405 27.5573C26.3722 27.5637 26.0842 27.6121 26.0842 27.6121C26.0842 27.6121 26.4855 26.939 27.1722 26.4699C26.9619 26.5147 26.7561 26.5785 26.5574 26.6606C26.1561 26.829 25.716 27.0781 25.3892 27.214C25.5735 26.958 26.868 25.1106 27.6383 23.3887C28.4063 21.6703 28.6933 21.2302 28.8616 20.308C28.9488 19.8517 28.9256 19.1773 28.9488 18.5734C28.9715 17.9746 29.0459 17.4374 28.9975 17.0781C29.198 17.3273 29.9489 18.0296 29.9748 19.5993C29.9974 21.1688 29.2565 23.2887 28.4699 24.4309C28.6619 24.4859 29.1594 24.5508 29.6705 23.6629C30.1817 22.775 30.1755 22.5271 30.36 22.158C30.3827 22.3425 30.376 22.4072 30.376 22.4072C30.376 22.4072 31.1206 21.5044 31.4732 20.3684C31.5445 20.8571 31.7548 21.2876 31.4246 22.184C31.1302 22.993 30.7451 23.1906 30.7451 23.1906C30.7451 23.1906 30.936 23.1581 31.2174 22.9898C31.2661 23.1095 31.2565 23.2458 31.3373 23.294C31.4182 23.3422 31.5283 23.4235 31.5445 23.5012C31.6317 23.3717 31.7676 23.2066 31.8099 23.0837C31.7774 23.3397 31.7548 24.459 31.8739 25.0286C32.1232 25.006 32.3788 24.9898 32.5535 24.5399C32.4339 24.9802 32.4339 25.2454 32.5147 25.6208C32.6474 25.5304 32.7671 25.3685 32.7671 25.3685L32.7679 25.3691Z" fill="#C0993A"/>
<path fill-rule="evenodd" clip-rule="evenodd" d="M24.3591 7.53101C24.3591 7.53101 24.1099 7.63448 23.686 7.63448C23.3172 7.63448 23.4207 7.49219 22.8447 7.49219C21.958 7.49219 18.8609 8.00419 18.3171 7.99693C17.9642 7.99053 19.5079 8.14904 19.5079 8.14904L23.4531 8.20408L24.2458 8.14008L24.5404 7.54061L24.3591 7.53101Z" fill="#A88F33"/>
<path fill-rule="evenodd" clip-rule="evenodd" d="M14.1294 15.2428C14.1294 15.2428 13.6245 15.6279 13.4109 15.9225C13.1974 16.2171 13.0841 16.411 12.8413 16.6506C12.8983 16.6528 12.9552 16.6451 13.0096 16.628C13.0096 16.628 13.0096 16.692 12.9708 16.7088C13.0044 16.7051 13.0383 16.7089 13.0702 16.72C13.1021 16.731 13.1311 16.7491 13.1551 16.7728C13.0839 16.8117 12.8897 17.006 13.0418 17.2358C13.1551 17.4105 13.3947 17.4265 13.3947 17.4265C13.3947 17.4265 13.3397 17.5852 13.5694 17.569C14.0646 17.5464 14.6179 17.3294 14.8735 17.3845C15.1295 17.4485 15.275 17.4719 15.4561 17.786C15.6481 18.0966 15.8154 18.1452 15.8154 18.1452C15.8154 18.1452 15.9287 17.857 15.9029 17.4267C15.9957 17.1948 16.0472 16.9483 16.055 16.6986L15.8866 15.4591L15.1521 14.5303L14.2007 15.0578L14.1294 15.2422V15.2428Z" fill="#E3C571"/>
<path fill-rule="evenodd" clip-rule="evenodd" d="M15.0322 15.0581C15.0322 15.0581 15.1035 15.2264 15.4013 15.2424C15.3689 15.3137 15.3689 15.3235 15.3787 15.3783C15.3851 15.4333 15.3947 15.5142 15.3947 15.5142C15.4275 15.4983 15.4571 15.4766 15.4821 15.4502C15.4984 15.5215 15.4659 15.6345 15.4821 15.7156C15.4921 15.7649 15.5084 15.8127 15.5306 15.8579C15.5353 15.8468 15.5407 15.8361 15.5468 15.8257C15.5532 15.8095 15.6108 16.0004 15.7701 16.1457C15.77 16.1233 15.7755 16.1013 15.7861 16.0817C15.7886 16.1222 15.802 16.1614 15.825 16.1949C15.813 16.1893 15.8022 16.1816 15.7928 16.1723C15.7928 16.1723 15.8088 16.6843 15.8962 16.9491C15.9108 16.932 15.9238 16.9135 15.9351 16.894C15.9351 16.878 15.9287 17.0365 15.9124 17.15C15.8898 17.2633 15.906 17.4218 15.906 17.4218C15.9644 17.3759 16.0285 17.3378 16.0968 17.3085C16.1938 17.2695 16.3528 17.1498 16.4496 16.8844C16.5058 16.7341 16.5491 16.5793 16.5791 16.4217C16.6104 16.482 16.632 16.5468 16.6431 16.6137C16.6497 16.6946 16.8018 16.6525 16.8018 16.6525L16.8343 16.2997L17.0263 15.5003L17.201 15.0052L18.0424 13.6947L19.5626 12.5239L20.8895 12.8281L22.0091 11.3071L20.0803 10.1484L18.2551 10.3394L16.5985 12.6338L15.2718 14.7148L15.0322 15.0579V15.0581Z" fill="#D8B65B"/>
<path fill-rule="evenodd" clip-rule="evenodd" d="M24.592 11.7381C24.592 11.7381 24.4787 11.7607 24.1519 11.9301C23.8251 12.0995 23.5985 12.1532 23.4722 12.4024C23.3459 12.6516 23.3363 12.8491 23.3363 12.8491C23.3363 12.8491 23.5597 12.752 23.6892 12.7196C23.8251 12.6874 23.9772 12.697 23.961 12.752C23.9454 12.7898 23.9238 12.8247 23.897 12.8555C23.897 12.8555 24.153 12.8491 24.1462 12.9754C24.1393 13.1017 24.0977 13.2408 24.0493 13.3022C24.0007 13.3662 23.8001 13.461 23.7775 13.5354C23.7225 13.6875 23.8001 13.6939 23.7709 13.8168C23.7483 13.9367 23.6416 14.1696 23.292 14.5773C22.9327 14.9852 22.78 15.2732 22.78 15.2732C22.78 15.2732 22.6052 14.9464 22.5146 14.6648C22.4506 14.697 22.1069 14.8879 22.1069 14.8879L21.3107 12.1146L21.3267 11.9301C21.3267 11.9301 21.398 11.8428 21.4142 11.6809C21.2945 11.6421 21.2783 11.6096 21.1196 11.4578C20.9609 11.3059 20.8316 11.1211 20.5664 10.9948C20.5276 10.9236 20.479 10.8267 20.2848 10.7877C20.0907 10.7486 19.9742 10.7166 19.9742 10.7166C19.9742 10.7166 20.0777 10.6776 20.1263 10.5967C20.0064 10.613 19.9096 10.6518 19.6474 10.6454C19.382 10.6388 19.3528 10.6292 19.2073 10.6518C19.0618 10.6744 18.8873 10.7392 18.8222 10.5159C18.751 10.4608 18.5988 10.5095 18.4694 10.7002C18.3399 10.8909 18.2946 11.0432 18.0455 11.1177C18.0279 11.2275 17.9895 11.333 17.9322 11.4283C17.8609 11.5482 17.7476 11.6679 17.5955 11.8458C17.356 12.1274 17.3948 12.5901 17.0129 12.943C16.6279 13.2956 17.0769 11.9655 17.0769 11.9655L17.6918 10.4935L19.4426 8.78149L22.1611 8.59717L22.4265 10.0052L23.7534 10.4615L24.5916 11.7398L24.592 11.7381Z" fill="#D3AE4D"/>
<path fill-rule="evenodd" clip-rule="evenodd" d="M25.0229 12.0485L23.8805 10.4013L23.0812 9.78626C23.0812 9.78626 22.5116 8.73794 22.4727 8.70552C22.4403 8.6829 21.9031 8.62466 21.5601 8.60205L21.6241 8.76056C21.699 8.78488 21.7655 8.82975 21.8161 8.89005C21.9682 9.06477 22.0653 9.3948 21.719 9.74765C21.8549 9.79608 21.911 9.81165 22.0296 9.79608C21.91 9.93858 21.6382 10.2428 21.622 10.5082C21.6058 10.7249 21.7416 10.7896 21.7416 10.7896C21.7416 10.7896 21.5345 11.0291 21.5249 11.4296C21.6227 11.3193 21.7298 11.2175 21.8449 11.1254C22.0845 10.9334 22.4145 10.7175 22.6379 10.5816C22.6348 10.6386 22.6425 10.6957 22.6605 10.7499C22.6605 10.7499 23.0778 10.4069 23.4285 10.559C23.587 10.6302 23.5157 10.8536 23.5157 10.8536C23.5157 10.8536 23.7327 10.7727 23.8848 10.9248C24.0369 11.0769 24.2537 11.4684 24.3637 11.6207C24.4122 11.692 24.5385 11.8279 24.6677 12.038C24.8444 12.3325 24.9919 12.6436 25.1081 12.9669C25.1145 12.8374 25.1405 12.6562 25.3641 12.6562L25.0242 12.0478L25.0229 12.0485Z" fill="#CAA13E"/>
<path fill-rule="evenodd" clip-rule="evenodd" d="M7.89677 16.7283C7.89677 16.7283 7.81592 16.5276 7.89677 16.1361C7.97763 15.7446 8.10392 15.5601 8.14595 14.9841C8.18797 14.4081 8.56344 13.6896 8.56344 13.6896L9.60216 13.2173L10.3369 13.4178L10.5536 14.4017L9.62477 14.9137C9.62477 14.9137 9.57635 15.1305 9.31416 15.3052C9.05197 15.4799 8.68952 15.6158 8.60227 15.7939C8.55011 15.903 8.51204 16.0183 8.48899 16.137C8.48899 16.137 8.2236 16.0819 8.06509 16.2566C7.89677 16.4348 7.90317 16.5933 7.89677 16.7292V16.7283Z" fill="#F4EFC8"/>
<path fill-rule="evenodd" clip-rule="evenodd" d="M9.99369 16.466C9.99369 16.466 9.90622 16.5211 9.84158 16.658C9.77758 16.5546 9.62462 15.9395 9.61822 15.3861C9.61182 14.8328 9.57876 14.6956 9.70676 14.5049C9.83476 14.3141 10.3367 14.1132 10.2655 13.7697C10.1942 13.4429 9.89641 13.307 9.53076 13.4009C9.27476 13.4649 9.08425 14.0093 8.81886 14.2811C8.61812 14.4882 8.37876 14.4558 8.31412 14.5691C8.22665 14.7212 8.3075 14.8733 8.28169 14.9704C8.27508 15.0028 8.19422 15.1775 8.04852 15.3879C7.75412 15.8117 7.25577 16.4106 7.19092 16.9477C7.21353 16.6435 7.19753 16.6371 7.27838 16.3005L7.22974 16.2196L7.54974 15.1711L7.75689 14.3071L8.21982 12.8603L9.03518 11.3815L9.82814 10.4946L10.6533 10.5497L10.7504 11.7891L11.2229 14.1162L12.2164 15.3394L10.6241 16.411L9.99305 16.466H9.99369Z" fill="#EBCC73"/>
<path fill-rule="evenodd" clip-rule="evenodd" d="M10.4886 16.9058C10.4886 16.9058 10.3527 16.9383 10.304 16.9124C10.2554 16.8866 10.2072 16.8574 10.2232 16.825C10.2392 16.7925 10.3266 16.7377 10.3266 16.7117C10.3284 16.6882 10.321 16.6649 10.3059 16.6468C10.2908 16.6286 10.2692 16.6171 10.2458 16.6146C10.1713 16.605 10.1487 16.6535 10.1487 16.6535C10.1487 16.6535 10.0775 16.5986 10.0194 16.5895C10.0538 16.5853 10.0883 16.583 10.1229 16.5828C10.0335 16.5423 9.93861 16.5151 9.84131 16.502C9.92216 16.4536 10.0809 16.3111 10.1843 16.3111C10.2878 16.3111 10.3527 16.2951 10.3365 16.24C10.3202 16.185 10.2394 16.1041 10.1521 16.0717C10.1843 16.0329 10.2072 15.9746 10.1295 15.8157C10.0485 15.6572 10.0809 15.5503 10.1069 15.5117C10.1295 15.4631 10.2104 15.3758 10.2492 15.3208C10.288 15.2657 10.3205 15.1913 10.3851 15.1524C10.4175 15.1298 10.521 15.0884 10.6247 15.049C10.7379 15.0101 10.8318 14.9615 10.8965 15.0101C10.9677 15.0586 10.9353 15.1234 10.9353 15.1234C10.9353 15.1234 11.1586 15.0424 11.3592 15.146C11.5599 15.2429 12.0487 15.3045 12.0487 15.3045L12.2238 15.6574L11.0652 16.6509L10.5863 16.8905L10.4892 16.9065L10.4886 16.9058Z" fill="#E5C66B"/>
<path fill-rule="evenodd" clip-rule="evenodd" d="M12.0973 15.2816C12.0973 15.2816 11.738 15.5212 11.6571 15.6084C11.7056 15.6151 11.7864 15.6475 11.754 15.6959C11.7152 15.7443 11.4822 15.9127 11.3527 16.0714C11.2168 16.2299 11.0873 16.4306 11.0421 16.5277C10.9937 16.6149 10.6246 16.8707 10.4985 16.9029C10.7639 16.9029 11.2979 16.5761 11.4984 16.5761C11.492 16.6732 11.5535 16.7833 11.6667 16.7929C11.78 16.8025 12.1069 16.8641 12.547 16.5923C12.9871 16.3269 12.8416 16.1294 13.0259 16.0001C13.3787 15.7669 13.521 15.5598 13.7152 15.4305C13.9093 15.3012 14.0098 15.2718 14.0098 15.2718C14.0098 15.2718 14.0162 15.1747 14.0738 15.1845C14.0896 15.1864 14.1045 15.1924 14.1171 15.2021C14.1296 15.2118 14.1393 15.2248 14.145 15.2396C14.145 15.2396 14.4817 15 14.913 14.9354C14.903 14.9309 14.8949 14.9228 14.8904 14.9128C14.8904 14.9128 14.9226 14.8965 14.9293 14.8803C14.9293 14.8803 14.9519 14.8479 14.9681 14.8641C14.9843 14.8803 15.0069 15 15.0393 15.0487C15.1106 15.0162 15.2465 14.712 15.2465 14.712L15.5735 13.7768V12.9224L15.3175 12.971L13.3975 13.7864L12.2323 14.9936L12.0964 15.2816H12.0973Z" fill="#E6BD62"/>
<path fill-rule="evenodd" clip-rule="evenodd" d="M17.6243 11.0908C17.7282 11.0656 17.8278 11.0252 17.9198 10.9709C17.881 11.0746 17.881 11.1879 17.7127 11.4338C17.5443 11.6798 17.5379 11.7154 17.402 11.971C17.2662 12.2364 17.2499 12.6183 17.1204 12.7864C17.1785 12.7582 17.2407 12.7396 17.3048 12.7315C17.3048 12.7315 17.1755 12.8448 17.1204 12.9645C17.0654 13.0842 16.9683 13.3333 16.729 13.4857C16.4896 13.638 16.1852 13.7348 15.8584 14.0941C15.5313 14.4467 15.1949 14.8935 15.0264 15.0541C15.1138 14.902 15.2335 14.5978 15.2659 14.3972C15.2984 14.1967 15.2593 13.9569 15.3144 13.6917C15.3694 13.4266 15.3694 13.2354 15.6344 12.7725C15.8993 12.3096 16.3529 10.7012 16.3529 10.7012L17.3302 10.3906L17.6248 11.0897L17.6243 11.0908Z" fill="#B6933F"/>
<path fill-rule="evenodd" clip-rule="evenodd" d="M16.9188 10.4984C16.9188 10.4984 16.6244 10.9223 16.5436 11.2978C16.4627 11.6733 16.5369 11.6408 16.4885 11.8254C16.4596 11.9379 16.4596 12.0559 16.4885 12.1684C16.5905 12.0042 16.7301 11.8665 16.8958 11.7669C17.1742 11.5988 17.4007 11.4789 17.5358 11.3366C17.6717 11.1845 17.7849 10.9353 18.0793 10.7444C17.9597 10.7282 17.7913 10.6732 17.7593 10.6804C17.8792 10.5445 18.2383 10.3374 18.6007 10.0882C18.96 9.8322 18.9374 9.72895 19.52 9.47337C19.3291 9.5058 19.2384 9.45716 19.0797 9.47337C19.1437 9.33748 19.3677 9.27263 19.5917 9.04948C19.8157 8.82633 19.4494 8.49609 19.4494 8.49609L17.7427 9.52841L16.9175 10.4993L16.9188 10.4984Z" fill="#C49937"/>
<path fill-rule="evenodd" clip-rule="evenodd" d="M12.2881 9.72835L12.3269 9.41773L12.8157 8.63459L13.327 7.25923V5.37891L13.2882 4.29155L13.369 3.57944L13.4305 3.35309L13.4953 3.26562L13.9126 3.48237L14.4888 4.26552L14.5439 5.77699L13.9839 8.16205L12.3852 9.90648L12.2881 9.72835Z" fill="#DFC068"/>
<path fill-rule="evenodd" clip-rule="evenodd" d="M13.5597 3.17794C13.5597 3.17794 13.3037 3.18456 13.2491 4.2493C13.1945 5.31405 13.168 5.87384 13.1292 6.40141C13.0904 6.92898 12.9999 7.2492 12.9545 7.56002C12.909 7.87085 12.8832 8.29453 12.7377 8.55352C12.6737 8.6732 12.537 9.04866 12.2166 9.33026C11.8573 9.64088 11.3206 9.85784 11.2393 9.87405C11.0968 9.90626 10.3751 9.97752 10.0807 10.1394C9.9772 10.1945 9.79906 10.2591 9.60173 10.4436C9.21005 10.7963 8.68909 11.4273 8.31362 12.1879C7.73762 13.3239 7.16162 16.5309 7.16162 16.5309L7.29111 16.3142C7.29111 16.3142 7.30733 16.0262 7.59533 15.5212C7.87693 15.0164 7.79607 14.45 8.18754 13.4824C8.33965 13.1135 8.53058 12.6346 8.76354 12.2267C9.13261 11.5632 9.57911 10.9936 10.029 10.683C10.7635 10.1783 11.5727 10.0682 11.5727 10.0682L12.4433 9.49218C12.4433 9.49218 12.5954 9.19778 12.7962 8.86114C13.0776 8.38882 13.4362 7.86125 13.5145 7.09432C13.6344 5.95832 13.3462 5.214 13.3624 4.54093C13.3786 3.86786 13.385 3.37272 13.5211 3.25282C13.6572 3.13293 13.5599 3.17837 13.5599 3.17837L13.5597 3.17794Z" fill="#A88F33"/>
<path fill-rule="evenodd" clip-rule="evenodd" d="M13.56 8.25902C13.56 8.25902 13.944 7.31395 14.1198 6.47577C14.1522 6.30745 14.2168 6.13934 14.2331 6.00345C14.3139 5.21049 14.3365 4.88366 14.2331 4.44995C14.1522 4.12995 13.8416 3.84153 13.6797 3.61795C13.5212 3.38478 13.4467 3.29795 13.4791 3.24889C13.5116 3.19982 13.6376 3.11961 13.7605 3.12921C13.8911 3.13301 14.0196 3.16334 14.1382 3.21835C14.2567 3.27336 14.3628 3.35191 14.45 3.44921C14.6992 3.73721 14.8965 4.7147 14.8965 4.7147L15.1041 6.00451L15.6317 7.62905L13.5604 8.2603L13.56 8.25902Z" fill="#C99E3D"/>
<path fill-rule="evenodd" clip-rule="evenodd" d="M17.1682 7.27512C17.1682 7.27512 17.0969 7.30733 16.9676 7.27512C16.9731 7.32795 16.964 7.38127 16.9411 7.42923C16.9183 7.47718 16.8826 7.5179 16.8381 7.5469C16.7022 7.49186 15.4301 7.60194 15.4301 7.60194C15.4301 7.60194 14.8379 7.49826 14.6534 6.71512C14.5241 6.19394 14.7505 5.47565 14.676 5.00312C14.5627 4.30722 14.4042 4.17112 14.388 3.95458C14.3718 3.73805 14.3556 3.6828 14.3556 3.5469C14.2843 3.53069 14.2423 3.50808 14.1713 3.50808C14.155 3.44408 14.1873 3.38818 14.1162 3.2749C14.155 3.29112 14.4204 3.32354 14.731 3.61794C14.987 3.85752 14.987 3.94477 15.0257 3.99341C15.0741 4.04184 15.4658 4.37741 15.6341 4.71192C15.8024 5.04642 16.1292 6.11309 16.2037 6.28781C16.2263 6.35906 16.2749 6.43031 16.3957 6.59202C16.5834 6.82519 16.8584 7.21069 17.169 7.27469L17.1682 7.27512Z" fill="#B58634"/>
<path fill-rule="evenodd" clip-rule="evenodd" d="M15.0713 4.00977C15.2673 4.32646 15.4435 4.65506 15.5986 4.99366C15.7896 5.42395 15.9029 5.77681 16.1424 6.06481C16.0129 5.68955 15.7832 4.95163 15.6473 4.68945C15.4952 4.41211 15.1846 4.11345 15.0713 4.00998V4.00977Z" fill="#A88F33"/>
<path fill-rule="evenodd" clip-rule="evenodd" d="M12.8704 9.33029C12.8704 9.33029 12.5436 9.41114 11.9351 9.73157C11.7344 9.83504 11.5437 9.92229 11.3591 10.0034C10.8798 10.2201 10.3657 10.4204 9.95776 10.5309C9.99019 10.5698 10.0062 10.5858 10.0062 10.5858C10.0062 10.5858 10.0062 10.7445 10.0937 10.8349C10.0452 10.8836 9.39776 11.3237 9.58891 12.7961C9.71819 12.7477 9.87029 12.6828 9.89291 12.6828C9.93195 12.6894 9.94155 12.7961 9.98997 12.7961C10.0384 12.7961 10.1971 12.7321 10.3654 12.5145C10.359 12.602 10.262 13.4822 10.7829 14.0744C10.88 13.9611 11.126 13.5857 11.126 13.5857L11.1324 13.466C11.1324 13.466 11.155 13.0485 11.2911 12.6666C11.4272 12.2847 11.6924 12.0031 11.6924 12.0031L13.0771 10.0258L12.87 9.33008L12.8704 9.33029Z" fill="#E6C367"/>
<path fill-rule="evenodd" clip-rule="evenodd" d="M11.5761 12.234C11.5127 12.2788 11.4428 12.3137 11.3689 12.3375C11.3463 12.2566 11.3139 11.9782 11.5048 11.7064C11.7282 11.3794 12.2167 10.9555 12.3526 10.6184C12.4401 10.4015 12.4012 9.85789 13.178 9.162C13.9547 8.4661 14.2587 8.22674 14.2587 8.22674L15.5144 7.5957L17.0581 8.20413L16.2912 11.21L15.6958 12.618L13.3278 12.1715L11.5759 12.234H11.5761Z" fill="#DCBA5A"/>
<path fill-rule="evenodd" clip-rule="evenodd" d="M12.48 11.4176L12.7746 11.0488V10.7866C12.7746 10.7866 13.1014 10.6991 13.4541 10.3399C13.8067 9.98063 14.2954 9.29135 14.726 9.33338C15.1565 9.38202 15.1985 10.2686 15.2147 10.518C15.2309 10.7674 15.286 11.3334 15.3732 11.6378C15.4703 11.942 14.3247 13.094 14.3247 13.094L13.5466 13.6862L12.48 11.4176Z" fill="#E9CE77"/>
<path fill-rule="evenodd" clip-rule="evenodd" d="M13.3916 14.4888C13.3916 14.4888 13.6312 14.1133 13.4556 14.0325C13.5591 13.7995 13.75 13.5535 13.75 13.5535C13.75 13.5535 13.8859 13.2171 14.326 12.8028C14.7661 12.3885 15.0381 12.1133 15.1094 11.8351C15.1533 11.6538 15.1772 11.4683 15.1806 11.2817C15.2282 11.3206 15.2791 11.3552 15.3327 11.3852C15.404 11.4176 15.7404 11.6958 15.692 12.2558C15.6435 12.8158 15.436 13.0488 15.436 13.0488C15.436 13.0488 15.2354 13.2493 15.0931 13.353C14.9408 13.4565 14.886 13.5761 14.6302 13.586C14.6565 13.5651 14.6861 13.5486 14.7177 13.5373C14.7177 13.5373 14.4523 13.5051 14.3098 13.6344C14.1673 13.7637 13.8643 14.162 13.7122 14.2818C13.5601 14.3789 13.3922 14.489 13.3922 14.489L13.3916 14.4888Z" fill="#CDAE50"/>
<path fill-rule="evenodd" clip-rule="evenodd" d="M24.152 8.19392C23.7697 8.05457 23.3679 7.97597 22.9612 7.96096C22.2815 7.93835 21.288 7.97717 20.3139 7.98357C19.2654 7.98997 18.314 7.62432 16.9936 7.55968C16.7769 7.43019 16.2256 6.86379 14.5049 8.06443C14.6083 8.05803 15.7542 7.79904 16.152 8.2976C16.5533 8.79275 16.44 9.63413 16.3852 9.83467C16.2815 10.2814 15.9449 10.9318 15.8092 11.3882C15.6735 11.8445 15.7055 12.0843 15.6085 12.4043C15.5114 12.7243 15.2978 12.8832 15.4239 13.2521C15.5922 13.1486 15.6799 13.1486 15.9611 12.5175C16.2423 11.8865 16.1845 11.4366 16.6506 10.9026C17.1069 10.3654 17.8666 9.63072 18.1554 9.44619C18.4443 9.26165 20.7378 8.07083 23.1393 9.20683C23.7185 9.14539 24.1522 8.19371 24.1522 8.19371L24.152 8.19392Z" fill="#D2A83E"/>
<path fill-rule="evenodd" clip-rule="evenodd" d="M15.4726 7.7538C15.4702 7.72948 15.4648 7.70555 15.4566 7.68255C15.4341 7.63522 15.4046 7.59156 15.3691 7.55306C15.3691 7.55306 14.7995 7.44959 14.5115 7.4818C14.0066 7.53684 13.5502 8.16148 13.3367 8.48191C13.1231 8.80234 12.8578 9.29727 12.5698 9.55306C12.5729 9.52814 12.5672 9.5029 12.5535 9.4818C12.5535 9.4818 12.5698 9.50442 12.5375 9.53684C12.5053 9.56927 12.5051 9.58527 12.5213 9.60084L12.57 9.64927C12.586 9.64927 13.0327 9.44852 13.6411 8.88127C14.2884 8.28906 14.7835 7.98527 15.0425 7.88116C15.1806 7.82247 15.325 7.77974 15.4728 7.7538H15.4726Z" fill="#C29637"/>
<path fill-rule="evenodd" clip-rule="evenodd" d="M26.5214 5.32031C26.5214 5.32031 26.4177 5.44959 26.2882 5.5921C26.0002 5.89631 25.6248 6.23914 25.3043 6.59199C25.0003 6.92863 24.6573 7.19082 24.272 7.63093C23.8867 8.07103 23.44 8.55957 23.3269 8.70207C23.2235 8.84458 23.1426 9.07754 23.1426 9.19722C23.0876 9.15839 23.0229 9.11637 23.0229 9.11637C23.0502 9.16717 23.0827 9.21495 23.12 9.25887C23.2009 9.37215 23.327 9.51487 23.3918 9.60191C23.4714 9.71272 23.5285 9.83802 23.5599 9.97077C23.5987 9.97717 23.8479 10.0258 24.1587 9.51445C24.4696 9.00309 24.877 8.4433 24.877 8.4433L25.5243 7.48202L25.9322 6.66666L26.4442 5.75402L26.522 5.32031H26.5214Z" fill="#AC8132"/>
<path fill-rule="evenodd" clip-rule="evenodd" d="M27.1847 4.66699C27.1847 4.66699 26.793 4.98699 26.6409 5.17899C26.4888 5.37099 26.1289 5.87489 26.1289 5.87489L26.2584 5.85867L26.9155 5.27627L27.1715 4.81995L27.1845 4.66785L27.1847 4.66699Z" fill="#A88F33"/>
<path fill-rule="evenodd" clip-rule="evenodd" d="M27.0647 30.385C27.0647 30.385 27.0583 30.1196 27.2072 29.9611C27.3593 29.8024 27.7444 29.5694 28.1198 28.6956C28.4953 27.8218 28.5371 27.6245 28.5371 27.6245C28.5371 27.6245 27.8641 28.2005 27.4491 28.3364C27.5462 28.1356 27.6012 27.9933 27.6499 27.8896C27.5948 27.8412 27.3619 27.7862 27.3393 27.7604C27.4685 27.6309 27.5398 27.3136 27.802 27.1033C28.1386 26.8473 28.7534 26.4074 29.2313 26.0153C29.7092 25.6232 30.6487 24.7112 30.7686 24.4458C30.8398 24.5493 30.8558 24.6139 30.8558 24.6139C30.8558 24.6139 30.3835 25.2289 30.1375 25.6204C29.9206 25.9571 29.9368 26.148 29.9368 26.148L30.3835 25.956C30.3835 25.956 30.5128 26.4349 29.9272 27.1632C30.1832 27.0662 30.2865 27.1244 30.432 27.0433C30.1924 27.1957 29.8623 27.4028 29.5517 27.9722C29.2475 28.5418 28.8332 29.2053 28.1344 29.6193C27.4547 30.0563 27.063 30.3831 27.063 30.3831L27.0647 30.385Z" fill="#A67A2E"/>
<path fill-rule="evenodd" clip-rule="evenodd" d="M25.3106 8.53086C25.3106 8.53086 25.0453 9.08404 25.0064 9.51454C25 9.61822 24.974 9.69908 24.974 9.81876C24.9676 10.2038 24.9966 10.6343 24.91 10.8349C24.8776 10.754 24.8614 10.699 24.8289 10.6668C24.7805 10.8026 24.693 11.2265 24.6218 11.385C24.5896 11.2816 24.5183 10.9223 24.5249 10.4984C24.5315 10.0745 24.5409 9.99348 24.5409 9.90622C24.5249 10.0355 24.4375 10.2104 24.405 10.3139C24.3566 10.2266 24.3016 10.1134 24.2367 10.0195C24.1979 10.0835 24.1495 10.178 24.1074 10.2266C24.1008 10.1878 24.0848 10.0841 24.075 9.93865C24.0686 9.77033 24.0588 9.55358 24.0686 9.50814C24.0846 9.42089 24.2207 9.07785 24.5087 8.76382C24.8518 8.38836 25.2046 7.66686 25.3081 7.4435C25.4115 7.22014 25.8517 6.2915 25.8517 6.2915H26.1883L25.6995 7.40468C25.6995 7.40468 25.4051 8.0131 25.253 8.23668C25.1009 8.46025 24.7805 9.10089 24.638 9.35006C24.7415 9.21417 24.8289 9.14292 24.9326 9.01342C25.0329 8.92276 25.3111 8.53129 25.3111 8.53129L25.3106 8.53086Z" fill="#8C6228"/>
<path fill-rule="evenodd" clip-rule="evenodd" d="M27.1912 4.62451C27.1362 4.79376 27.0493 4.9509 26.9352 5.08745C26.7344 5.32702 26.3039 5.64723 26.0938 5.9028C25.9018 6.15198 25.5178 6.83166 25.6923 7.63742C25.7563 7.4627 25.8768 7.11646 26.1972 6.72478C26.5177 6.3331 26.8607 5.88339 27.0292 5.53395C27.1973 5.1811 27.22 4.90291 27.22 4.90291L27.284 4.82206L27.2451 4.63752L27.1901 4.62451H27.1912Z" fill="#CBA94C"/>
<path fill-rule="evenodd" clip-rule="evenodd" d="M33.7445 26.0904C33.7445 26.0904 33.615 25.7378 33.5762 25.4174C33.5373 25.097 33.6402 25.0334 33.5211 24.6667C33.4499 24.4433 33.3206 24.4747 33.2882 24.4433C33.2557 24.4119 33.2331 24.0744 33.2395 23.8899C33.2459 23.7054 33.2331 23.466 33.2007 23.3623C33.1523 23.3235 33.1199 23.2911 33.0486 23.0517C32.9677 22.8122 32.9289 22.6925 32.8901 22.6214C32.8513 22.5504 32.7378 22.4855 32.7378 22.4143C32.7378 22.2718 32.8673 22.1975 32.8673 22.1583C32.8609 22.0774 32.7638 22.1423 32.7378 22.1195C32.7056 22.0806 32.8188 21.8477 32.7768 21.8152C32.7606 21.7992 32.6473 21.9351 32.6181 21.8963C32.5857 21.8573 32.5468 21.4722 32.4886 21.2166C32.4338 20.9675 32.3753 20.7863 32.3689 20.7119C32.3625 20.6406 31.9222 19.385 31.8155 19.0807C31.7296 18.8237 31.6572 18.5623 31.5988 18.2976C31.5664 18.1455 31.5437 17.8347 31.5275 17.8671C31.5113 17.8995 31.5211 18.058 31.4951 18.0516C31.4725 18.045 31.3916 17.4918 31.3658 17.4044C31.3432 17.3169 31.2071 17.0204 31.1738 16.8058C31.1414 16.5888 31.0704 16.0224 31.0217 15.6373C30.9731 15.2523 30.9505 15.0938 30.9505 14.9973C30.9584 14.7615 30.9454 14.5254 30.9116 14.2918C30.8476 13.8839 30.7196 13.3888 30.6074 13.101C30.3907 12.5572 29.8145 11.1656 29.7114 10.8194C29.7114 10.7319 29.8247 10.7806 29.8247 10.7806C29.8247 10.7806 30.1061 11.4861 30.3132 12.0296C30.514 12.5734 30.7049 13.0524 30.7536 13.101C30.7924 13.1494 31.0966 13.6834 31.2325 14.5572C31.3684 15.431 31.4168 16.2368 31.4979 16.774C31.5367 17.03 31.5691 17.3015 31.65 17.5733C31.7372 17.8679 31.8731 18.1722 32.0513 18.6381C32.2034 19.0298 32.3167 19.3566 32.3781 19.6382C32.4493 19.9974 32.4493 20.2692 32.4914 20.4474C32.5304 20.5995 32.5884 20.9035 32.7245 21.3434C32.8607 21.7832 33.061 22.3499 33.1969 22.7025C33.4625 23.408 33.5809 23.997 33.621 24.311C33.6564 24.6347 33.7763 25.7544 33.7439 26.0909L33.7445 26.0904Z" fill="#A88F33"/>
<path fill-rule="evenodd" clip-rule="evenodd" d="M27.2072 4.58571L27.191 4.62454C27.191 4.62454 27.2395 4.64075 27.2299 4.7056C27.2305 4.79433 27.2251 4.88301 27.2136 4.97099C27.1976 5.08427 27.1652 5.17152 27.1588 5.24278C27.1588 5.39488 27.1814 5.5696 26.9668 6.00331C26.9028 6.12299 26.8633 6.22646 26.8309 6.29771C26.7501 6.47243 26.7339 6.49846 26.6626 6.57931C26.7759 6.51531 27.1838 6.25931 27.3907 6.29771C27.2484 6.37856 27.0314 6.53728 26.8956 6.74443C26.928 6.75083 27.0639 6.77686 27.2796 6.74443C27.6388 6.68939 28.0401 6.5599 28.3927 6.58571C28.778 6.60832 28.6259 6.12299 28.6259 6.12299L28.1813 5.14571L27.3399 4.55371L27.2072 4.58592V4.58571Z" fill="#BE9C44"/>
<path fill-rule="evenodd" clip-rule="evenodd" d="M29.4014 11.9065C29.4014 11.9065 29.0259 11.531 28.8738 10.2425C28.7217 8.94798 28.7541 7.04249 28.7541 7.04249L28.4499 6.29817C28.4499 6.29817 28.3859 5.80303 28.2266 5.61871C28.0672 5.43439 27.7542 5.12356 27.6117 4.97145C27.4692 4.81935 27.3075 4.6122 27.2104 4.57977C27.2589 4.49892 27.4758 4.0426 28.3074 4.0362C29.139 4.0298 29.3954 4.49252 29.4822 4.66084C29.5691 4.82916 29.9612 5.55684 30.1067 6.94351C30.2426 8.32846 30.2492 8.43214 30.2266 8.91108C30.2103 9.17646 30.1229 9.79129 29.9706 10.4481C29.8315 11.0049 29.6794 11.6264 29.401 11.9078L29.4014 11.9065Z" fill="#A17C34"/>
<path fill-rule="evenodd" clip-rule="evenodd" d="M28.224 13.01C28.3492 13.0191 28.4742 12.9909 28.5833 12.929C28.703 12.9226 29.1367 12.9776 29.4699 12.5537C29.4925 12.6506 29.551 12.913 29.3986 13.1459C29.4797 13.0649 29.5994 13.0326 29.6156 13.01C29.622 13.1297 29.7353 13.4986 29.2564 14.395C29.3856 14.2527 29.5377 14.2591 29.6736 14.2429C29.6802 14.4112 29.7707 14.9774 29.5313 15.2818C29.3728 15.489 29.1138 15.4241 29.1138 15.4241C29.1176 15.3789 29.1176 15.3334 29.1138 15.2882C29.1074 15.2008 29.075 15.1135 29.0978 15.0553C28.9727 14.9981 28.8587 14.9191 28.7612 14.8221C28.4796 14.5567 28.114 14.1038 28.0881 13.7672C28.0557 13.3917 28.3924 13.3108 28.3924 13.3108C28.3642 13.2856 28.3401 13.2561 28.3211 13.2234C28.3049 13.1685 28.2887 13.0811 28.224 13.01Z" fill="#8C6228"/>
<path fill-rule="evenodd" clip-rule="evenodd" d="M25.728 8.93864C25.728 8.93864 25.7118 8.91603 25.6245 9.01949C25.6407 8.91603 25.6569 8.81875 25.6633 8.72488C25.7046 8.63798 25.7581 8.55738 25.8221 8.48552C25.7734 8.58237 25.741 8.66984 25.741 8.66984C25.741 8.66984 25.8609 8.44648 26.0356 8.31059C26.1553 8.21352 26.3074 8.16829 26.372 8.07763C26.4433 7.98056 26.4271 7.96435 26.4433 7.94813C26.4433 7.94813 26.602 7.84467 26.8448 7.54024C26.877 7.50141 26.9256 7.45939 26.9581 7.42056C27.0129 7.39795 27.1424 7.33971 27.2945 7.26184C27.4532 7.17459 27.6311 7.05491 27.7412 7.00584C27.958 6.90877 28.1879 6.91859 28.2946 6.76627C28.3754 6.74365 28.4627 6.50088 28.4467 6.29395C28.5664 6.34237 29.1812 6.72424 29.3918 7.55923C29.5439 8.15144 29.2719 9.06408 29.1586 9.5044C29.0453 9.94472 29.0293 10.2713 28.8706 10.4719C28.6698 10.7375 28.0228 11.1119 27.8641 11.2973C27.7282 11.4494 27.3205 11.8344 27.3365 12.1126C27.3527 12.3198 27.6083 12.4326 27.6636 12.4719C27.7188 12.5111 27.7184 12.5593 27.8221 12.5359C27.9257 12.5124 27.9644 12.4646 28.0066 12.4646C28.055 12.471 28.055 12.4808 28.0776 12.4808C28.094 12.4803 28.1103 12.4781 28.1263 12.4742C28.1263 12.4742 28.1101 12.7688 27.4208 12.8582C27.3721 12.8648 27.3237 12.8808 27.2621 12.8906C27.3431 12.8518 27.3915 12.8518 27.479 12.7321C27.3819 12.7159 27.1036 12.6997 27.0323 12.6771C27.0549 12.6383 27.1294 12.5346 27.1908 12.4862C27.2458 12.4377 27.1844 12.4222 27.136 12.4473C27.0526 12.5041 26.9726 12.5656 26.8964 12.6317C26.8156 12.7029 26.7443 12.8 26.6148 12.8877C26.576 12.7582 26.5824 12.5122 26.7347 12.3343C26.6957 12.3407 26.6212 12.4539 26.5502 12.4313C26.5373 12.3133 26.545 12.1939 26.5728 12.0785C26.6116 11.9328 26.822 11.6772 26.822 11.6772L27.8381 9.86152L28.0548 8.48616L25.728 8.93821V8.93864Z" fill="#92723A"/>
<path fill-rule="evenodd" clip-rule="evenodd" d="M25.6734 9.0163C25.6734 9.0163 25.6183 9.05512 25.7284 9.12958C25.7122 9.15219 25.6734 9.23304 25.6247 9.28808C25.5699 9.35208 25.5114 9.39176 25.4888 9.4468C25.4404 9.56008 25.4016 9.63774 25.4016 9.68638C25.4016 9.73502 25.3854 10.0456 25.2495 10.2462C25.2008 10.3174 25.1458 10.4371 25.107 10.518C25.0261 10.6602 24.9549 10.774 24.9386 10.838C24.9064 10.9512 24.8838 11.2618 24.8838 11.2618C24.8838 11.2618 24.9551 11.1744 24.9809 11.1422C24.9418 11.223 24.8998 11.3103 24.8384 11.3751C24.8772 11.3427 24.9905 11.2618 25.1814 11.0935C25.4468 10.8704 25.8611 10.4949 26.3661 10.1975C26.2137 10.2526 26.0845 10.2526 25.981 10.2688C26.0618 10.1879 26.79 9.33352 27.1718 9.25267C27.195 9.22327 27.2065 9.18636 27.2042 9.14899L26.8772 9.11678L26.2137 9.25907L26.1169 8.74707L25.6734 9.01566V9.0163Z" fill="#B18E3E"/>
<path fill-rule="evenodd" clip-rule="evenodd" d="M26.7282 11.9288C26.7282 11.9288 26.6407 12.0161 26.5599 12.2331C26.4976 12.1681 26.4443 12.0951 26.4012 12.0161C26.2815 11.8156 26.0972 11.5598 25.6667 11.7055C25.6603 11.5696 25.6504 11.4983 25.6667 11.4013C25.7379 11.3853 25.9547 11.2106 26.1714 10.9548C26.3237 10.78 26.466 10.5793 26.5631 10.3237C26.6271 10.2751 26.7378 10.1942 26.8831 10.1004C27.0902 9.95807 27.3394 9.76373 27.3782 9.54698C27.2812 9.58581 27.074 9.68287 26.7632 9.66687C26.8831 9.61183 27.0674 9.55359 27.0448 9.31402C27.0934 9.28159 27.1323 9.25898 27.1323 9.25898C27.0958 9.24681 27.0574 9.24132 27.019 9.24276C27.0124 9.22015 27.0028 9.18794 26.9477 9.20394C26.8927 9.21994 26.8837 9.22015 26.8765 9.24276C26.8539 9.24938 26.7794 9.24277 26.7244 9.28181C26.6693 9.32085 26.5172 9.44991 26.459 9.47253C26.4816 9.4337 26.5138 9.37567 26.5138 9.37567C26.5138 9.37567 26.3553 9.39167 26.242 9.43967C26.0349 9.51093 25.7955 9.64042 25.5527 9.7665C25.5753 9.72767 25.5852 9.7025 25.6012 9.69525C25.6172 9.68799 25.6562 9.67925 25.6562 9.67263C25.6562 9.66602 25.6402 9.60863 25.6498 9.58538C25.7224 9.43162 25.808 9.28437 25.9058 9.14527C26.0191 8.99295 26.0417 8.7762 26.0417 8.7762L26.5368 8.52703L27.9284 8.20703L28.8315 8.26207L28.7182 8.88671L28.1848 9.97727L27.7285 10.9708L27.2073 11.5794L26.7284 11.9288H26.7282Z" fill="#543E26"/>
<path fill-rule="evenodd" clip-rule="evenodd" d="M28.9838 9.22561C28.9838 9.22561 28.44 9.89867 28.2879 10.0024C28.385 9.79521 28.9838 8.56214 29.2005 8.2191C29.1521 8.18027 29.0873 8.18027 29.2394 7.5791C29.1101 7.8831 29.0646 8.04182 28.958 8.12267C28.8513 8.20353 28.8381 8.17771 28.766 8.17771C28.7796 8.15308 28.7852 8.12482 28.782 8.09686C28.782 8.09686 28.3257 8.04182 28.014 8.04182C27.7023 8.04182 27.0853 8.21014 26.7421 8.34603C26.4703 8.45931 26.3182 8.45931 26.2211 8.53035C26.1241 8.61121 26.069 8.69867 26.0204 8.72129C25.9815 8.7439 25.7972 8.80214 25.755 8.86358C25.7162 8.92758 25.6515 8.99947 25.6515 9.01569C25.6515 9.0319 25.6353 9.05473 25.6839 9.0383C25.6999 9.0319 25.8198 8.96705 25.9557 8.88619C26.1401 8.78273 26.3634 8.66305 26.5253 8.59179C26.9881 8.40726 27.1338 8.43969 27.3407 8.40086C27.5574 8.36203 27.8683 8.27137 28.0752 8.27137C28.2823 8.26497 28.674 8.27137 28.7647 8.28758C28.7259 8.32001 28.6934 8.35883 28.7097 8.49473C28.7097 8.53355 28.6772 8.57558 28.6457 8.66945C28.5488 8.93483 28.3643 9.37494 28.2617 9.5983C28.1194 9.9023 27.9577 10.1581 27.8777 10.3166C27.7977 10.4751 27.6217 10.8926 27.4474 11.116C27.2731 11.3393 27.182 11.4752 27.1274 11.5238C27.0727 11.5725 26.6806 11.8603 26.7099 11.964C26.7811 11.9413 27.231 11.772 27.5577 11.4042C27.8843 11.0364 27.9493 10.812 28.2049 10.6112C28.4605 10.4105 28.6612 10.074 28.7809 9.79585C28.8812 9.53686 28.8586 9.45601 28.9846 9.22625L28.9838 9.22561Z" fill="#806031"/>
<path fill-rule="evenodd" clip-rule="evenodd" d="M17.2654 14.2494C17.2654 14.2494 17.1941 14.5438 17.0322 14.6895C16.8737 14.832 16.5921 14.9549 16.5599 15.1944C16.5211 15.4338 16.8415 15.5537 16.8415 15.5537C16.8415 15.5537 16.6666 15.8417 16.6666 16.0584C16.6666 16.2818 16.6602 16.3238 16.6828 16.5374C16.6571 16.5539 16.6353 16.5757 16.6188 16.6014C16.6188 16.6014 16.6348 16.8085 16.7935 16.9378C16.9522 17.0671 17.0879 17.1449 17.1688 17.1125C17.1811 17.1389 17.1919 17.166 17.2012 17.1936C17.2012 17.1936 17.3211 16.8894 17.4019 16.624C17.4828 16.3522 17.554 16.3908 17.5863 16.0252C17.6185 15.6595 17.9703 15.0317 17.9703 15.0317L18.2103 14.4951L17.8188 14.1909L17.2654 14.2492V14.2494Z" fill="#B6903C"/>
<path fill-rule="evenodd" clip-rule="evenodd" d="M17.9934 14.7769C17.9127 14.8597 17.8382 14.9484 17.7705 15.0422C17.667 15.1847 17.5862 15.314 17.4341 15.3693C17.282 15.4245 17.1849 15.4241 17.1945 15.5764C17.2041 15.7287 17.3466 15.7932 17.4275 15.8708C17.5149 15.9517 17.5862 16.0876 17.5474 16.2399C17.5958 16.2173 17.6832 16.1913 17.7641 16.0165C17.845 15.8418 18.4105 14.7771 18.4105 14.7771H17.9934V14.7769Z" fill="#685026"/>
<path fill-rule="evenodd" clip-rule="evenodd" d="M20.2241 12.3203C20.2241 12.3203 20.2725 12.191 20.2241 12.0971C20.1754 12.0001 19.881 11.9676 19.7353 11.8576C19.5832 11.7443 19.3987 11.6656 19.2466 11.7153C19.2692 11.6602 19.3599 11.5403 19.2854 11.5145C19.2142 11.4919 18.949 11.6116 18.8777 11.6666C18.8065 11.7217 18.6446 11.7863 18.6123 11.8254C18.5801 11.8644 18.5249 11.9386 18.4925 11.9062C18.46 11.8836 18.444 11.8254 18.389 11.8576C18.3339 11.8898 18.069 12.1067 18.0201 12.233C17.9713 12.3593 17.8614 12.6409 17.5314 12.9611C17.2014 13.2814 17.0589 13.4887 17.1559 13.6084C17.253 13.7281 17.2984 13.6408 17.3146 13.7443C17.3271 13.8459 17.3216 13.9488 17.2984 14.0485C17.2596 14.2168 17.195 14.3753 17.2822 14.4078C17.5056 14.479 17.7225 14.3438 17.771 14.3851C17.868 14.4724 17.7159 14.7864 17.9457 14.8479C18.1789 14.9119 18.4086 14.7928 18.4086 14.7928L19.2564 14.3365L20.072 13.9062L20.4893 13.0808L20.2655 12.3915L20.2228 12.3203H20.2241Z" fill="#D4B968"/>
<path fill-rule="evenodd" clip-rule="evenodd" d="M19.4239 14.2916C19.4239 14.2916 19.2814 14.0748 19.4563 13.8837C19.6312 13.6925 19.8802 13.6119 19.9772 13.4922C19.9588 13.4694 19.934 13.4526 19.906 13.4438C19.9704 13.3285 20.0687 13.2358 20.1876 13.1782C20.1392 13.1297 20.0743 13.0909 20.0033 13.0909C19.8446 13.0909 19.7473 13.188 19.6018 13.188C19.4595 13.188 19.4433 13.1167 19.4433 13.1167C19.4433 13.1167 19.6828 13.0941 19.66 12.9872C19.6374 12.874 19.596 12.874 19.596 12.874C19.596 12.874 20.0587 12.682 20.1396 12.5796C20.2204 12.4772 20.2108 12.3562 20.2271 12.3078C20.2819 12.3078 20.6023 12.1395 20.7318 12.2107C20.8613 12.282 20.7706 12.4761 20.7706 12.4761C20.7706 12.4761 21.1625 12.1815 21.3622 11.8926C21.5369 11.9088 21.6182 11.7729 21.7462 11.7729C21.9049 11.7729 22.1541 11.9897 22.2025 12.4524C22.235 12.7178 22.2834 12.8699 22.235 13.3392C22.2123 13.6046 22.2187 14.1712 22.299 14.4524C22.3538 14.6758 22.4833 14.6532 22.4833 14.6532C22.4634 14.7212 22.424 14.782 22.37 14.8279C22.2825 14.9087 22.2729 15.1225 22.2825 15.2033C22.2954 15.2625 22.3117 15.3208 22.3312 15.3781C22.3312 15.3781 22.2277 15.4977 22.2017 15.5788C22.1791 15.6597 22.0724 15.7147 21.9945 15.7147C21.9167 15.7147 21.9557 15.7081 21.8522 15.7147C21.7488 15.7213 21.7163 15.7373 21.6515 15.7147C21.5866 15.6921 21.5382 15.6661 21.5642 15.4587C21.5868 15.2516 20.7649 14.7694 20.7649 14.7694L19.4209 14.2905L19.4239 14.2916Z" fill="#CCA849"/>
<path fill-rule="evenodd" clip-rule="evenodd" d="M17.8805 16.3364C17.8805 16.3364 18.1749 16.728 19.3853 16.728C19.9613 16.728 20.1621 16.673 20.2813 16.6406C20.4108 16.6081 20.8961 16.4174 21.3849 15.8412C21.825 15.3202 21.7279 15.1067 21.7279 15.1067L21.4719 15.0679L20.6399 15.1812L18.1781 16.2297L17.8794 16.3364H17.8805Z" fill="#585136"/>
<path fill-rule="evenodd" clip-rule="evenodd" d="M18.7829 16.4337C18.7829 16.4337 17.7344 16.6669 17.7344 16.0034C17.7344 15.3561 18.3816 14.6765 18.5435 14.5568C18.7119 14.4369 19.1131 14.3008 19.1131 14.3008H20.0808L20.2651 14.7895L20.1843 15.8445L18.7829 16.4335V16.4337Z" fill="#252211"/>
<path fill-rule="evenodd" clip-rule="evenodd" d="M19.751 14.4985C19.751 14.4985 19.5504 14.314 19.0941 14.5625C18.6378 14.811 18.2687 15.3305 18.2461 15.8022C18.2235 16.2195 18.5891 16.5303 19.1587 16.5465C19.5826 16.5625 19.8384 16.5141 19.9679 16.4825C19.9355 16.4437 19.7672 16.2333 19.7672 16.2333L19.7512 14.4987L19.751 14.4985Z" fill="#C3B378"/>
<path fill-rule="evenodd" clip-rule="evenodd" d="M19.5534 14.602C19.5534 14.602 19.505 14.5632 19.3614 14.6408C19.2417 14.7048 19.067 14.874 18.9311 14.9937C18.8436 15.0649 18.7886 15.0971 18.7391 15.1522C18.5384 15.3918 18.37 15.7834 18.4673 15.9776C18.5646 16.1717 18.8848 16.3951 19.7004 16.243L19.5511 14.6022L19.5534 14.602Z" fill="#E6D89C"/>
<path fill-rule="evenodd" clip-rule="evenodd" d="M19.2883 15.0034C19.2883 15.0034 19.1588 15.2042 19.1588 15.5246C19.1588 15.8514 19.3434 16.3724 20.023 16.4112C20.544 16.4437 20.8934 15.6605 21.2721 15.3563C21.5601 15.1233 21.7348 15.1167 21.7348 15.1167C21.7348 15.1167 21.4404 14.7967 20.6541 14.3822C19.8773 13.9647 19.0067 13.9097 18.5342 14.5505C18.7575 14.5343 19.4792 14.3498 19.4792 14.3498L19.8321 14.4631L19.2883 15.0037V15.0034Z" fill="#252211"/>
<path fill-rule="evenodd" clip-rule="evenodd" d="M20.3042 15.4271C20.2816 15.3786 20.2654 15.3138 20.3592 15.2978C20.4531 15.2818 20.4951 15.2912 20.5276 15.3618C20.56 15.4324 20.5916 15.4913 20.5436 15.5205C20.4951 15.5463 20.3688 15.5205 20.304 15.4266L20.3042 15.4271ZM20.1521 14.9707C20.1521 14.9707 20.1197 14.9933 20.1359 14.9481C20.1423 14.8933 20.1845 14.796 20.288 14.8188C20.3915 14.8417 20.3691 14.9547 20.352 14.9872C20.3349 15.0196 20.2485 15.0744 20.1837 15.0512C20.1755 15.0491 20.1678 15.045 20.1615 15.0395C20.1551 15.0339 20.1501 15.0268 20.1469 15.019C20.1438 15.0111 20.1425 15.0026 20.1433 14.9941C20.144 14.9857 20.1468 14.9775 20.1512 14.9703L20.1521 14.9707Z" fill="#6F674D"/>
<path fill-rule="evenodd" clip-rule="evenodd" d="M11.3921 15.1777C11.3921 15.1777 11.6481 15.3697 11.9455 15.3622C12.2399 15.3556 12.6185 15.0516 12.7933 14.8572C12.8967 14.744 12.9853 14.6243 13.0813 14.5304C13.1623 14.4496 13.2172 14.4107 13.256 14.3557C13.311 14.2917 13.3693 14.1714 13.3985 14.1323C13.3272 14.1874 13.2238 14.2846 13.1169 14.3493C13.0134 14.4133 12.7901 14.5336 12.6994 14.566C12.6121 14.5985 11.7059 15.078 11.7059 15.078L11.3921 15.1777Z" fill="#AC924C"/>
<path fill-rule="evenodd" clip-rule="evenodd" d="M11.7832 12.7866C11.7832 12.7866 11.9255 12.6896 12.2007 12.6279C12.4661 12.5639 13.0001 12.5146 13.0001 12.5146L13.4402 12.7066L13.6149 13.3701L13.2949 14.0596L12.8872 14.3156L12.4243 13.5713L11.7843 12.7879L11.7832 12.7866Z" fill="#9F8E57"/>
<path fill-rule="evenodd" clip-rule="evenodd" d="M11.2075 13.3785L11.0552 13.4922C11.0552 13.4922 11.0942 13.421 11.1264 13.2042C11.1586 12.9875 11.3272 12.4599 11.5731 12.1557C11.8191 11.8515 11.8127 11.8677 11.8127 11.8677C11.7901 11.8636 11.7668 11.8643 11.7445 11.8698C11.7222 11.8754 11.7013 11.8857 11.6832 11.8999C11.7157 11.8282 11.9228 11.5722 12.1299 11.4442C12.3371 11.3162 12.4179 11.2759 12.6347 11.3802C12.8514 11.4846 12.9065 11.5387 13.0652 11.5323C13.2239 11.5259 13.3596 11.3576 13.3596 11.3576C13.3596 11.3576 13.392 11.4611 13.2723 11.7007C13.1527 11.9402 12.6801 12.4288 12.6801 12.4288L11.6962 13.1018L11.2075 13.3792V13.3785Z" fill="#EAC970"/>
<path fill-rule="evenodd" clip-rule="evenodd" d="M11.9349 12.7055C11.9349 12.7055 12.647 12.8026 12.8638 12.602C12.8702 12.6246 12.8962 12.6246 12.8962 12.6409C12.8945 12.6531 12.8888 12.6644 12.88 12.6731C12.9036 12.6693 12.9274 12.6672 12.9513 12.6667C12.9798 12.6752 13.0091 12.6806 13.0387 12.6829C13.0626 12.6824 13.0864 12.6802 13.11 12.6763C13.1077 12.6924 13.1023 12.7078 13.0939 12.7218C13.0855 12.7357 13.0745 12.7478 13.0613 12.7573C13.0938 12.7573 13.1253 12.7637 13.1253 12.7895C13.1253 12.8154 13.1317 12.8932 13.0929 12.9094C13.0607 12.9183 13.0265 12.916 12.9958 12.9028C12.9984 12.9641 13.0151 13.024 13.0445 13.0778C13.1085 13.1974 13.245 13.3338 13.4285 13.2945C13.4285 13.2945 13.5253 13.5275 13.1177 14.0452C13.0628 14.1165 13.0044 14.2135 12.9333 14.2944C12.9053 14.3556 12.8838 14.4196 12.8693 14.4853C12.8693 14.4853 13.5588 14.2199 13.7562 13.6147C13.9569 13.0063 13.9957 12.4077 13.9569 11.8479C13.9503 11.6892 13.9245 11.5761 13.8857 11.495C13.7886 11.2943 13.5166 11.3267 13.4067 11.44C13.248 11.5987 12.9826 11.9934 12.6138 12.2652C12.2383 12.537 12.2223 12.5852 11.9341 12.7055H11.9349Z" fill="#D7BC6B"/>
<path fill-rule="evenodd" clip-rule="evenodd" d="M11.0807 13.5794C11.0807 13.5794 10.9449 13.6602 10.8736 13.9634C10.8023 14.274 10.9376 14.6526 11.0159 14.7723C11.0942 14.892 11.2719 15.219 11.6405 15.2352C11.7318 15.2348 11.822 15.216 11.9059 15.1802C12.0346 15.1212 12.1553 15.0461 12.2652 14.9568C12.4239 14.8372 12.5532 14.7337 12.537 14.7239C12.4981 14.7077 11.5597 13.9309 11.5597 13.9309L11.2068 13.5371L11.0805 13.5798L11.0807 13.5794Z" fill="#585136"/>
<path fill-rule="evenodd" clip-rule="evenodd" d="M11.9681 14.8676C11.9681 14.8676 12.1591 14.8516 12.2724 14.7804C12.3856 14.7091 11.6089 13.939 11.6089 13.939L11.6639 14.771L11.9681 14.8676Z" fill="#453A25"/>
<path fill-rule="evenodd" clip-rule="evenodd" d="M11.1423 13.5208C11.1423 13.5208 11.0452 13.7054 11.0452 13.754C11.029 13.9125 11.0776 14.4109 11.1165 14.5694C11.1553 14.7377 11.3656 14.9933 11.6376 14.9933C11.8057 14.9933 12.0389 14.8898 12.0389 14.864C12.0389 14.8316 11.7993 14.8 11.7347 14.6794C11.6959 14.6154 11.6796 14.4563 11.6707 14.2954C11.6643 14.192 11.6643 14.0787 11.7031 14.0394C11.7906 13.9424 11.8066 13.664 11.8066 13.664L12.1172 13.0869H11.7087L11.2199 13.3911L11.1423 13.5208Z" fill="#84754B"/>
<path fill-rule="evenodd" clip-rule="evenodd" d="M11.0229 13.6993C11.0229 13.6993 11.3429 13.2754 11.6314 13.1782C11.9198 13.0809 12.0489 13.1393 12.0489 13.1393L11.8805 13.5698L11.641 13.8352L11.6572 13.9711C11.6572 13.9711 11.6181 14.3304 11.8577 14.5795C12.0973 14.8287 12.2752 14.8191 12.3789 14.8191C12.4826 14.8191 12.7802 14.7316 12.9323 14.3724C13.0682 14.036 13.1815 13.6044 12.9097 13.1718C12.6441 12.7412 12.1749 12.7246 12.0843 12.7246C11.9936 12.7246 11.2817 12.7602 11.0229 13.6987V13.6993Z" fill="#252211"/>
<path fill-rule="evenodd" clip-rule="evenodd" d="M19.2394 15.139C19.1197 15.0839 19.233 14.7475 19.3527 14.6438C19.4724 14.5402 19.6245 14.4207 19.8901 14.4043C19.9869 14.3979 20.0808 14.4593 20.0648 14.5242C20.0422 14.6438 19.8739 14.8122 19.7218 14.9318C19.5114 15.097 19.3753 15.2004 19.2394 15.139Z" fill="#F7F7E7"/>
<path fill-rule="evenodd" clip-rule="evenodd" d="M12.7667 13.3041C12.8542 13.2977 12.9675 13.3681 12.9901 13.4628C13.0127 13.5663 12.935 13.7734 12.7667 13.7734C12.6308 13.7734 12.5596 13.6051 12.5596 13.5567C12.5611 13.5169 12.5722 13.478 12.592 13.4434C12.5984 13.4336 12.6146 13.3203 12.7667 13.3041Z" fill="#F8F6DE"/>
<path fill-rule="evenodd" clip-rule="evenodd" d="M11.5048 13.3789C11.5048 13.3789 11.2815 13.4824 11.178 13.6989C11.1041 13.8588 11.0817 14.0377 11.114 14.2109C11.1302 14.2918 11.2111 14.4923 11.2661 14.5635C11.3211 14.6348 11.3956 14.6834 11.4506 14.6768C11.5057 14.6702 11.6187 14.5247 11.6187 14.4375C11.6187 14.3502 11.6254 13.9811 11.732 13.7804C11.8259 13.5799 11.5055 13.3791 11.5055 13.3791L11.5048 13.3789Z" fill="#D4C38B"/>
<path fill-rule="evenodd" clip-rule="evenodd" d="M11.5372 13.3625C11.4984 13.3851 11.4338 13.4175 11.4498 13.4596C11.466 13.4984 11.6019 13.5236 11.6505 13.6183C11.7055 13.7154 11.7055 13.8188 11.6893 13.8675C11.7316 13.8474 11.77 13.8199 11.8026 13.7864C11.8739 13.7055 11.9611 13.5957 12.0356 13.5957C12.0842 13.5957 12.1326 13.6183 12.1781 13.6183C12.2493 13.6183 12.3204 13.5957 12.3302 13.5212C12.3462 13.4242 12.1943 13.3367 12.1068 13.3529C12.123 13.2889 12.1457 13.1944 12.0744 13.1295C12.0031 13.0647 11.78 13.1782 11.7314 13.2106C11.6827 13.243 11.5372 13.3627 11.5372 13.3627V13.3625Z" fill="#E2D59D"/>
<path fill-rule="evenodd" clip-rule="evenodd" d="M16.6795 20.1619L17.1584 20.0205L17.2943 20.1176C17.2943 20.1176 17.3911 20.3247 17.5435 20.3505C17.4948 20.454 17.3685 20.5425 17.3751 20.6159C17.3818 20.6893 17.4464 20.7454 17.4464 20.7454C17.4464 20.7454 17.0159 21.4573 17.8639 22.1747C17.6631 22.2556 17.4076 22.3667 17.2717 22.4307C17.3685 22.4534 17.5757 22.4947 17.6631 22.5733C17.7506 22.6518 17.7506 22.6767 17.8315 22.7254C17.9123 22.774 17.9607 22.8386 17.9447 22.8677C17.8897 22.8352 17.7052 22.7384 17.673 22.8288C17.6407 22.9193 16.8736 22.8839 16.8736 22.8839L15.5791 23.133C15.5791 23.133 15.6275 23.0035 15.4916 22.8839C15.3331 22.7416 15.139 22.8903 14.9318 22.7318C14.6601 22.5246 14.6502 22.285 14.563 22.1946C14.6502 22.1395 14.8284 22.0587 15.2523 22.0026C15.2361 21.9702 15.181 21.8731 15.2134 21.7858C15.2523 21.6726 15.414 21.6013 15.3655 21.4658C15.4368 21.4496 15.469 21.4496 15.6471 21.2263C15.8155 21.0029 15.9189 20.9545 16.0484 20.9383C16.1779 20.9221 16.2556 20.9383 16.4951 20.7149C16.6633 20.5564 16.6084 20.4205 16.6084 20.4205C16.6084 20.4205 16.7183 20.3849 16.6797 20.1615L16.6795 20.1619Z" fill="#CBAC5A"/>
<path fill-rule="evenodd" clip-rule="evenodd" d="M15.2654 20.2337C15.2718 20.2013 15.2978 20.1851 15.4725 20.2013C15.6473 20.2175 16.754 20.0978 17.0551 20.0816C17.3593 20.059 18.4304 20.075 18.9516 20.1851C19.4728 20.2952 20.0001 20.4246 20.2557 20.4893C20.5117 20.5605 20.5923 20.5861 20.5825 20.6186C20.5761 20.651 20.5185 20.6826 20.4855 20.6736C20.4532 20.6672 19.6052 20.4082 19.3433 20.3536C19.0813 20.299 18.1748 20.1529 17.6793 20.1616C17.2165 20.1682 17.032 20.1552 16.6405 20.2004C16.2489 20.2491 15.6016 20.3137 15.4075 20.2879C15.2155 20.2653 15.2552 20.2653 15.265 20.2329L15.2654 20.2337Z" fill="#D6BC6F"/>
<path fill-rule="evenodd" clip-rule="evenodd" d="M17.8705 22.7702C17.8705 22.7702 18.5339 23.1294 18.7735 23.5695C18.9482 23.8963 18.67 24.0583 18.67 24.0583C18.67 24.0583 19.0455 24.0583 18.9969 24.2654C18.9742 24.3947 18.3496 24.7441 17.9321 24.9287C17.5082 25.1132 17.5244 25.1036 17.3173 25.1358C17.1165 25.1682 16.5664 25.0718 16.4531 25.2329C16.3398 25.3939 16.3891 25.5599 16.4206 25.5857C16.4531 25.6083 16.7153 25.6408 16.7153 25.6408C16.7153 25.6408 16.6602 25.7929 16.1166 25.8091C15.5731 25.8253 15.437 25.8639 15.4045 25.9224C15.3721 25.9772 15.508 25.945 15.7574 25.9864C16.0066 26.0252 16.356 26.0504 16.356 26.0504C16.356 26.0504 16.2427 26.1474 15.9483 26.2251C15.6117 26.3123 15.0841 26.3934 14.9256 26.4905C15.0065 26.5455 15.1264 26.6264 15.1816 26.6328C15.0457 26.6652 14.8546 26.7365 14.8224 26.7623C14.8708 26.7947 14.9356 26.8335 14.9356 26.8335C14.9356 26.8335 14.6636 27.1603 14.5051 27.2414C14.3466 27.3225 13.434 27.7462 13.12 27.6653C12.3368 27.4582 12.2397 26.6006 12.0488 26.5359C11.7608 26.4389 11.6249 26.6328 11.3691 26.4969C11.4824 26.416 11.5441 26.3676 11.6637 26.3126C11.5342 26.2486 10.8644 25.8238 10.8644 25.8238C10.7943 25.6711 10.7166 25.5221 10.6314 25.3773C10.5019 25.1539 10.3114 24.8561 10.1685 24.5939C9.85787 24.0179 9.84166 23.7526 9.56006 23.4257C9.6087 23.3617 9.77681 23.3707 9.77681 23.3707L12.1363 24.1474L16.32 24.2686L17.408 22.7153L17.8707 22.7704L17.8705 22.7702Z" fill="#DFC677"/>
<path fill-rule="evenodd" clip-rule="evenodd" d="M11.6733 25.1391C11.6986 25.1672 11.728 25.1912 11.7606 25.2104C11.8417 25.2654 11.9613 25.3302 12.0422 25.4271C12.0746 25.3787 12.1555 25.2912 12.2982 25.4271C12.4409 25.563 12.6182 25.4661 12.7285 25.4984C12.8418 25.5374 12.8482 25.5534 12.8482 25.5534C12.8482 25.5534 12.9122 25.4984 13.0553 25.4401C13.1428 25.4077 13.2462 25.3851 13.3595 25.3529C13.463 25.3302 13.5763 25.2978 13.6541 25.2978C13.7254 25.3462 13.981 25.6178 15.0069 25.217C15.9746 24.8415 16.1977 24.7995 16.3596 24.8575C16.3758 24.8187 16.3921 24.7442 16.6412 24.754C16.6412 24.6506 16.4341 24.2977 16.4341 24.2977L15.2917 23.9062H14.6668L12.7931 24.2493L11.7548 24.8417L11.674 25.1404L11.6733 25.1391Z" fill="#C4A859"/>
<path fill-rule="evenodd" clip-rule="evenodd" d="M11.0483 24.4825C11.0483 24.4825 11.071 24.6572 11.3299 24.8418C11.5859 25.0261 11.6664 25.1362 11.6664 25.1362C11.6664 25.1362 11.715 25.0722 11.7538 25.0069C11.7927 24.9356 11.8251 24.8548 11.8897 24.8322C12.0192 24.7771 12.3136 24.8806 12.3785 24.8644C12.4335 24.8484 12.4173 24.7351 12.4755 24.7351C12.6114 24.7285 12.6987 24.8223 12.7473 24.8223C12.796 24.8223 12.9154 24.8159 12.9316 24.7901C12.9479 24.7643 12.9543 24.4955 13.1388 24.366C13.3395 24.2237 13.5855 24.2852 13.6508 24.3176C13.6508 24.366 13.6572 24.4859 13.7867 24.4923C13.9162 24.4987 13.929 24.4761 14.0427 24.5149C14.1564 24.5538 14.2919 24.5085 14.3533 24.6992C14.4083 24.6832 14.5378 24.667 14.5054 24.4825C14.5694 24.4341 14.6253 24.4016 14.7614 24.2107C14.7938 24.1623 14.8487 24.1072 14.8909 24.036C15.0042 24.036 15.1401 24.0134 15.3212 24.1719C15.2662 24.2107 15.2337 24.2359 15.2177 24.2754C15.2651 24.3223 15.3083 24.3731 15.347 24.4275C15.3956 24.4915 15.4281 24.57 15.4895 24.5862C15.6254 24.625 15.8488 24.57 16.0979 24.5862C16.3375 24.6024 16.538 24.6896 16.6255 24.7447C16.6579 24.7287 16.6579 24.7221 16.7388 24.7383C16.8196 24.7545 16.8811 24.7609 16.7938 24.6574C16.8423 24.68 16.8973 24.7287 16.9459 24.68C16.9946 24.6314 17.0332 24.5604 17.1691 24.5442C17.305 24.5279 17.3536 24.5506 17.4087 24.4083C17.4799 24.2335 17.2339 24.2335 17.2339 24.2335C17.2339 24.2335 17.3472 24.1299 17.4735 23.994C17.6256 23.8517 17.8003 23.6671 17.8424 23.4406C17.9136 23.0231 17.5059 22.9683 17.5059 22.9683L15.5286 23.5767L13.1111 23.4568L11.0496 24.4827L11.0483 24.4825Z" fill="#927D49"/>
<path fill-rule="evenodd" clip-rule="evenodd" d="M9.2721 18.7701C9.2721 18.7701 9.2081 18.8509 9.16863 19.0419C9.12916 19.2328 9.14602 19.2102 9.11359 19.3461C9.08116 19.482 8.68287 20.8347 8.8322 21.291C8.98154 21.7474 9.2401 21.9157 9.4018 22.2845C9.43423 22.3654 9.4658 22.414 9.48266 22.4853C9.5377 22.7246 9.48927 22.9092 9.55391 23.1487C9.57652 23.2296 9.63498 23.3235 9.72223 23.4205C9.91423 23.6211 10.2272 23.812 10.3622 23.9479C10.553 24.1486 10.825 24.5565 11.1712 24.5951C11.3557 24.6177 11.6179 24.5401 11.8347 24.4108C12.0267 24.2909 12.1453 24.1228 12.3467 24.0268C12.489 23.9556 12.6411 23.9298 12.7769 23.8973C13.0585 23.8423 13.3143 23.8333 13.4664 23.8649C13.6994 23.9135 14.2496 24.0819 14.5544 24.0819C14.7927 24.078 15.0295 24.0454 15.2599 23.9848C15.7227 23.8489 16.2824 23.6157 16.6515 23.5123C16.8683 23.4483 17.043 23.4314 17.2211 23.3926C17.5253 23.3213 17.7809 23.2243 17.9266 23.0397C17.8295 22.9264 17.7099 22.7517 17.0624 22.7581C16.3279 22.7743 15.4799 23.182 15.0624 23.2469C14.6449 23.3117 14.4638 23.3665 13.9976 23.1982C13.5407 23.0282 13.5255 22.9158 13.5255 22.9158C13.5255 22.9158 13.0457 22.5802 12.845 21.7247C12.6443 20.8693 12.845 20.2459 13.3662 19.6535C13.5021 19.5014 13.4696 19.3655 13.4696 19.3655C13.4696 19.3655 13.8127 18.9028 13.7188 18.4695C13.6154 18.039 12.9519 18.1264 12.9519 18.1264L9.27231 18.7701H9.2721Z" fill="#6E6342"/>
<path fill-rule="evenodd" clip-rule="evenodd" d="M9.8254 20.2104C9.79687 20.2641 9.78345 20.3245 9.78658 20.3852C9.79298 20.4724 9.819 20.5857 10.081 20.8415C10.3043 21.0646 10.2557 21.3138 10.2557 21.3138C10.2557 21.3138 10.3681 21.3364 10.6732 21.1937C10.9128 21.0804 10.9932 21.2812 10.9932 21.2812C11.0629 21.2446 11.1385 21.2205 11.2166 21.2099C11.2873 21.2034 11.3557 21.1816 11.4171 21.1459C11.4171 21.1459 11.6987 21.4339 11.9447 21.5698C12.168 21.6897 12.2975 21.7706 12.4076 21.6897C12.5111 21.6184 12.5111 21.4727 12.5044 21.4081C12.4788 21.3484 12.4463 21.292 12.4076 21.2398C12.3363 21.1363 12.2231 21.0164 12.2156 20.9198C12.1994 20.6966 12.3839 20.431 12.3449 20.3664C12.3058 20.3018 12.1605 20.2855 11.8013 20.415C11.4292 20.5379 9.82391 20.2111 9.82391 20.2111L9.8254 20.2104Z" fill="#39331F"/>
<path fill-rule="evenodd" clip-rule="evenodd" d="M10.673 21.6571C10.673 21.6571 10.4887 21.4824 10.5533 20.6344C10.6315 20.6332 10.7097 20.6408 10.7863 20.657C10.7863 20.657 10.8867 21.3141 10.673 21.6571Z" fill="#292311"/>
<path fill-rule="evenodd" clip-rule="evenodd" d="M9.35913 18.123C9.38485 18.104 9.40871 18.0826 9.43038 18.059C9.36638 18.1787 9.07091 18.6576 9.31049 19.4118C9.55006 20.1625 10.1519 20.7223 10.893 20.7483C11.6341 20.7743 12.0237 20.4117 12.4691 19.8681C12.6438 19.6513 12.8446 19.3793 13.0225 19.195C13.2879 18.9068 13.495 18.8259 13.495 18.5478C13.495 17.9782 12.9124 17.7224 12.0548 17.4668C11.1972 17.2112 10.4237 17.2428 10.0224 17.4177C9.63091 17.6085 9.46259 17.8092 9.35891 18.1232L9.35913 18.123Z" fill="#252211"/>
<path fill-rule="evenodd" clip-rule="evenodd" d="M12.1134 21.9126L12.1774 21.8802C12.1774 21.8802 12.1934 21.6242 12.2971 21.631C12.4006 21.6472 12.4492 21.7833 12.4394 21.8317C12.433 21.8802 12.4072 21.9612 12.3035 21.9514C12.1676 21.9546 12.1128 21.9126 12.1128 21.9126H12.1134Z" fill="#3F3824"/>
<path fill-rule="evenodd" clip-rule="evenodd" d="M11.8252 20.8253C11.8252 20.8253 11.8892 20.8027 11.9675 20.8804C12.0315 20.8804 12.3105 20.8479 12.398 20.903C12.4855 20.958 12.5113 21.0064 12.5113 21.0064C12.5113 21.0064 12.1844 21.0777 12.0063 21.0064C11.8252 20.945 11.8252 20.8253 11.8252 20.8253Z" fill="#2D2815"/>
<path fill-rule="evenodd" clip-rule="evenodd" d="M13.2655 20.8739C13.2655 20.8577 13.0907 20.738 12.9062 20.699C12.8738 20.6926 12.8672 20.7152 12.8422 20.7152C12.826 20.7088 12.8196 20.6602 12.8196 20.6602L12.7146 20.7154C12.7146 20.7154 12.6984 20.738 12.7535 20.7794C12.8019 20.8182 12.883 20.8507 12.9056 20.9153C12.9282 20.9799 12.9282 21.0026 12.938 21.0124C12.9444 21.0188 13.0577 21.0124 13.1127 20.9799C13.1678 20.9475 13.2714 20.8946 13.2648 20.8733L13.2655 20.8739Z" fill="#82764F"/>
<path fill-rule="evenodd" clip-rule="evenodd" d="M11.6313 21.5307C11.6313 21.5307 11.6636 21.3076 11.8805 21.2977C12.1037 21.2815 12.1459 21.4983 12.1459 21.4983L12.0164 21.6278C12.0164 21.6246 11.9193 21.4887 11.6324 21.5307H11.6313Z" fill="#2D2816"/>
<path fill-rule="evenodd" clip-rule="evenodd" d="M13.0391 20.5697C13.0391 20.5697 12.9192 20.6992 12.654 20.738C12.6314 20.7056 12.5828 20.641 12.654 20.5375C12.7253 20.434 12.8061 20.4016 12.887 20.4338C12.9226 20.4396 12.9559 20.4555 12.9829 20.4795C13.0098 20.5036 13.0293 20.5349 13.0391 20.5697Z" fill="#574F35"/>
<path fill-rule="evenodd" clip-rule="evenodd" d="M13.5275 20.7282C13.5341 20.6957 13.5115 20.6893 13.5275 20.6731C13.5435 20.6569 13.6312 20.6247 13.6474 20.6407C13.6538 20.6473 13.6474 20.6731 13.6474 20.7047C13.6474 20.7363 13.6474 20.7687 13.6312 20.7919C13.6085 20.8244 13.5439 20.8406 13.5115 20.831C13.4791 20.8214 13.4727 20.7759 13.4727 20.767C13.4887 20.7606 13.5275 20.7444 13.5275 20.7282ZM14.08 20.3787C14.08 20.3625 14.1351 20.3301 14.1675 20.3301C14.2159 20.3301 14.2159 20.3689 14.2225 20.3787C14.2385 20.3851 14.2385 20.3721 14.2547 20.4013C14.2709 20.4306 14.2938 20.4822 14.2773 20.5146C14.2609 20.547 14.1965 20.5694 14.1805 20.563C14.1579 20.5468 14.0866 20.4013 14.08 20.3787Z" fill="#82764F"/>
<path fill-rule="evenodd" clip-rule="evenodd" d="M12.9678 20.8029C12.9678 20.8029 13.039 20.8189 13.1361 20.9C13.1037 20.9226 13.055 20.9484 13.055 20.9484C13.055 20.9484 13.0486 20.874 12.9678 20.8027V20.8029Z" fill="#6E6342"/>
<path fill-rule="evenodd" clip-rule="evenodd" d="M12.8092 20.0907C12.793 20.0747 12.8576 20.0359 12.8965 20.0423C12.9353 20.0487 12.9515 20.0747 12.9935 20.0811C13.0355 20.0875 13.0422 20.0649 13.0575 20.0487C13.0729 20.0325 13.1288 20.0423 13.1384 20.0487C13.1444 20.0558 13.1498 20.0634 13.1546 20.0713C13.1553 20.059 13.1585 20.047 13.164 20.036C13.1696 20.025 13.1773 20.0152 13.1868 20.0073C13.1992 19.9982 13.2135 19.992 13.2287 19.9892C13.2438 19.9864 13.2594 19.987 13.2743 19.9911C13.2807 20.0137 13.3131 20.0946 13.3067 20.1108C13.3003 20.127 13.2032 20.1498 13.1868 20.1334C13.203 20.1724 13.2743 20.2533 13.2839 20.2693C13.2935 20.2853 13.2126 20.3243 13.1804 20.3179C13.1352 20.3147 12.8568 20.1528 12.8083 20.0914L12.8092 20.0907ZM13.2331 19.5536C13.2271 19.5373 13.2156 19.5235 13.2007 19.5147C13.1781 19.5083 13.1036 19.5147 13.1036 19.5536C13.1036 19.5924 13.1676 19.8096 13.2395 19.9226C13.3206 20.0359 13.3754 20.1296 13.4304 20.1556C13.4477 20.1635 13.4673 20.1645 13.4853 20.1585C13.5033 20.1525 13.5184 20.1398 13.5275 20.1232C13.5339 20.107 13.5501 19.9873 13.5437 19.7057C13.5373 19.4241 13.5275 19.1523 13.5113 19.1361C13.4951 19.1199 13.4304 19.1201 13.4078 19.1523C13.3852 19.1845 13.2395 19.5051 13.2329 19.5536H13.2331Z" fill="#585136"/>
<path fill-rule="evenodd" clip-rule="evenodd" d="M12.945 21.2105C12.945 21.2105 12.8317 21.1392 12.7217 21.1879C12.6182 21.2365 12.6246 21.4275 12.6246 21.4275C12.6479 21.4366 12.673 21.4399 12.6979 21.437C12.7227 21.4342 12.7465 21.4254 12.7671 21.4112C12.8383 21.3628 12.9288 21.282 12.945 21.2107V21.2105Z" fill="#574F35"/>
<path fill-rule="evenodd" clip-rule="evenodd" d="M13.1587 21.4664C13.1523 21.4024 13.0947 21.4024 13.0947 21.3693C13.0987 21.3535 13.1079 21.3395 13.1207 21.3295C13.1336 21.3196 13.1495 21.3142 13.1658 21.3143C13.1982 21.3143 13.2298 21.3531 13.2694 21.3783C13.3083 21.4009 13.3665 21.4423 13.3729 21.4916C13.3793 21.5409 13.3089 21.6759 13.2306 21.6759C13.1523 21.6759 13.1756 21.5302 13.1594 21.4655L13.1587 21.4664ZM13.7834 21.3789C13.7834 21.3789 13.6539 21.4178 13.6635 21.3789C13.6731 21.3401 13.7025 21.3305 13.7445 21.3305C13.7659 21.3082 13.7946 21.2943 13.8254 21.2915C13.843 21.2906 13.8603 21.2964 13.8738 21.3077C13.8738 21.3077 13.9613 21.2689 13.9871 21.2915C14.0129 21.3141 13.9937 21.3141 14.0097 21.3401C14.0301 21.369 14.0435 21.4022 14.0488 21.4372C14.0488 21.463 13.9517 21.518 13.8738 21.5084C13.7834 21.489 13.7994 21.3951 13.7834 21.3789ZM14.5373 21.2332C14.5373 21.2332 14.5761 21.2558 14.5439 21.2819C14.5213 21.3045 14.408 21.3459 14.3107 21.3531C14.2137 21.3531 14.1264 21.3691 14.1264 21.3369C14.1264 21.3047 14.2073 21.2398 14.2557 21.2236C14.2654 21.2115 14.2777 21.2017 14.2918 21.1949C14.3058 21.1882 14.3212 21.1847 14.3368 21.1848C14.3756 21.1848 14.5275 21.1686 14.5697 21.1622C14.6085 21.1556 14.641 21.1782 14.6181 21.2106C14.6085 21.2332 14.5373 21.2332 14.5373 21.2332ZM14.7606 20.234C14.7606 20.234 14.712 20.3374 14.6572 20.3374C14.6021 20.331 14.6021 20.3148 14.6021 20.2986C14.6021 20.276 14.6572 20.2178 14.6506 20.2015C14.6346 20.2015 14.5955 20.2015 14.6021 20.1627C14.6021 20.1303 14.6572 20.0915 14.7056 20.0987C14.7422 20.0686 14.7878 20.0516 14.8351 20.0503C14.8901 20.0503 14.9386 20.0663 14.9386 20.0987C14.9386 20.1311 14.8746 20.2022 14.8511 20.2186C14.8253 20.2444 14.7929 20.2613 14.7606 20.2346V20.234ZM14.0227 22.1465C14.0227 22.1465 13.9587 22.1531 13.9587 22.1853C13.9587 22.2015 13.9747 22.2015 13.9976 22.1919C14.0107 22.1912 14.0237 22.189 14.0364 22.1853C14.0428 22.1919 14.0428 22.2242 14.0914 22.2242C14.1314 22.2188 14.1699 22.2056 14.2047 22.1853C14.2435 22.1693 14.276 22.1529 14.276 22.1213C14.2597 22.0663 14.2273 22.0403 14.1789 22.0403C14.1541 22.0387 14.1293 22.0443 14.1076 22.0565C14.1076 22.0565 14.0914 22.0241 14.0364 22.0565C13.9813 22.0889 13.9877 22.0889 14.004 22.1051C14.033 22.1309 14.0234 22.1478 14.0234 22.1478L14.0227 22.1465ZM13.6571 22.4831C13.6571 22.4669 13.7379 22.4345 13.7605 22.4443C13.7832 22.4507 13.8478 22.5736 13.8478 22.5866C13.8478 22.6028 13.7669 22.6417 13.7345 22.6417C13.7021 22.6417 13.6473 22.5866 13.6473 22.5777C13.6473 22.5713 13.6861 22.5617 13.6861 22.555C13.6957 22.539 13.6571 22.5 13.6571 22.4838V22.4831ZM13.4011 22.0106C13.4173 22.0042 13.4173 21.988 13.4399 21.9718C13.447 21.9671 13.455 21.9641 13.4635 21.9629C13.4719 21.9618 13.4805 21.9627 13.4885 21.9654C13.4942 21.9552 13.5021 21.9464 13.5117 21.9397C13.5212 21.9329 13.5321 21.9284 13.5436 21.9263C13.5824 21.9199 13.6148 21.9263 13.6076 21.9426C13.6076 21.9912 13.64 22.0234 13.64 22.0622C13.64 22.1011 13.6174 22.1497 13.5365 22.1821C13.4557 22.2047 13.3456 22.2047 13.3294 22.1983C13.3132 22.1919 13.297 22.1271 13.3132 22.0947C13.3294 22.0622 13.3746 22.0268 13.4006 22.0106H13.4011Z" fill="#82764F"/>
<path fill-rule="evenodd" clip-rule="evenodd" d="M13.5039 22.0322C13.5039 22.0322 13.4489 22.0647 13.4489 22.0809C13.444 22.0965 13.4418 22.1129 13.4425 22.1293C13.4425 22.1389 13.5137 22.1229 13.5233 22.1131C13.5265 22.1067 13.5039 22.0491 13.5039 22.0322Z" fill="#6E6342"/>
<path fill-rule="evenodd" clip-rule="evenodd" d="M13.0227 21.8802C13.0549 21.8868 13.11 21.8802 13.152 21.8964C13.1844 21.9126 13.207 21.9451 13.1746 21.9839C13.1422 22.0227 13.1106 22.0809 13.0387 22.0711C12.9579 22.0647 12.8802 22.0227 12.8802 21.9903C12.8789 21.9698 12.8816 21.9492 12.8883 21.9297C12.8949 21.9103 12.9054 21.8924 12.919 21.877C12.9515 21.8512 12.9675 21.8674 13.0225 21.8802H13.0227Z" fill="#585136"/>
<path fill-rule="evenodd" clip-rule="evenodd" d="M12.9837 21.9126C12.9837 21.9126 12.8802 21.9935 12.8542 22.0325C12.8217 22.0713 12.6632 22.2719 12.6148 22.3139C12.6309 22.2855 12.6492 22.2585 12.6696 22.233C12.6056 22.274 12.5577 22.3356 12.5337 22.4077C12.4949 22.5276 12.7507 22.5923 12.9188 22.6409C13.0869 22.6896 13.152 22.7049 13.152 22.7049C13.0901 22.6119 13.037 22.5133 12.9933 22.4105C12.9293 22.2584 12.8962 22.2422 12.9382 22.1709C12.9706 22.0997 13.0193 22.0513 13.0193 21.9962C12.9999 21.945 12.9837 21.9126 12.9837 21.9126Z" fill="#574F35"/>
<path fill-rule="evenodd" clip-rule="evenodd" d="M9.29437 22.1686C9.31793 22.1729 9.34207 22.1729 9.36563 22.1686C9.41405 22.162 9.91901 21.9766 10.4466 22.0099C10.8415 22.0337 11.233 22.0981 11.6148 22.2019C12.2783 22.3766 13.1034 22.7228 13.6374 22.9204C13.7797 22.9752 13.919 23.0725 14.0214 23.1111C14.4293 23.2698 14.4453 23.2698 14.6849 23.3118C14.9665 23.3507 15.2545 23.2568 15.5555 23.1921C15.9243 23.1111 16.5554 23.0723 17.1088 22.9914C17.2877 22.9666 17.4642 22.9266 17.6363 22.8717C17.6363 22.8717 17.1962 23.3118 16.1411 23.4703C15.7146 23.5351 15.2812 23.5406 14.8532 23.4865C14.5166 23.4541 14.2934 23.4055 14.1251 23.3571C13.9342 23.302 13.5425 23.1563 13.0603 23.0371C12.7237 22.9496 12.3482 22.8849 11.9179 22.8041C10.8564 22.6097 9.7044 22.3866 9.29395 22.1699L9.29437 22.1686Z" fill="#252211"/>
<path fill-rule="evenodd" clip-rule="evenodd" d="M8.1034 20.1685C7.8474 20.3852 7.57582 20.5924 7.31065 20.7929L6.51129 21.4071C6.2395 21.6076 5.97412 21.8148 5.70212 22.0155C5.43012 22.2162 5.15854 22.407 4.87012 22.5915C5.12612 22.3748 5.39769 22.174 5.66948 21.9767C5.94126 21.7793 6.22308 21.5858 6.48526 21.3857L7.28462 20.7707C7.55961 20.5702 7.825 20.363 8.1034 20.1689V20.1685ZM6.68921 22.4338C6.68921 22.4338 6.97721 22.1943 7.33646 21.8578C7.78297 21.4406 8.32996 20.9064 8.50468 20.8095L6.689 22.4341L6.68921 22.4338Z" fill="#CFB66C"/>
<path fill-rule="evenodd" clip-rule="evenodd" d="M6.68945 22.4339C6.83196 22.2916 6.98407 22.1525 7.13617 22.0164L7.36913 21.8159C7.44039 21.7519 7.52145 21.68 7.59249 21.6087C7.73479 21.4664 7.87409 21.3141 8.01639 21.1686C8.08691 21.0954 8.16148 21.0263 8.23975 20.9615C8.27887 20.9268 8.32233 20.8974 8.36903 20.874C8.40807 20.8514 8.45009 20.81 8.50492 20.8027C8.47271 20.8514 8.43388 20.874 8.40145 20.916C8.36263 20.9484 8.3302 20.9873 8.29799 21.0195C8.22673 21.0907 8.14588 21.1554 8.07463 21.2202C7.92252 21.3497 7.76401 21.4762 7.61191 21.6117C7.4598 21.7472 7.31751 21.8933 7.16519 22.0292C7.00028 22.1685 6.84817 22.3044 6.68945 22.4345V22.4339ZM8.62481 21.1394C8.62481 21.1394 7.56988 22.1719 7.35292 22.34L8.62481 21.1394Z" fill="#CFB66C"/>
<path fill-rule="evenodd" clip-rule="evenodd" d="M8.62443 21.1392C8.52953 21.249 8.42778 21.3528 8.31979 21.4498L7.99979 21.754C7.89633 21.8575 7.79905 21.9611 7.68918 22.0646C7.5759 22.1617 7.47243 22.2566 7.35254 22.3462L7.66315 22.042C7.76683 21.9385 7.88011 21.8513 7.99019 21.7476L8.30081 21.4434C8.40747 21.3367 8.51115 21.233 8.62443 21.1392ZM8.67286 21.6989C8.57562 21.9703 8.46104 22.2352 8.32982 22.4919C8.05803 23.0357 7.65035 23.7152 7.47222 24.0616L8.67286 21.6989Z" fill="#CFB66C"/>
<path fill-rule="evenodd" clip-rule="evenodd" d="M8.67303 21.6992C8.67303 21.8189 8.6406 21.9226 8.60177 22.026C8.56393 22.1296 8.52077 22.2311 8.47249 22.3303C8.42385 22.4273 8.36881 22.531 8.31377 22.6249C8.25873 22.7187 8.19409 22.8156 8.14545 22.9129L7.81863 23.4889C7.70535 23.6809 7.59527 23.8739 7.47559 24.0585C7.55644 23.8513 7.66652 23.6572 7.7702 23.4663C7.88348 23.2743 7.98695 23.0823 8.0902 22.8836C8.14061 22.7847 8.18597 22.6832 8.22609 22.5796C8.27452 22.476 8.32295 22.3789 8.36199 22.285C8.41041 22.1816 8.44924 22.0843 8.49788 21.9906C8.55271 21.8902 8.59815 21.7931 8.6726 21.6992H8.67303Z" fill="#CFB66C"/>
<path fill-rule="evenodd" clip-rule="evenodd" d="M9.82541 24.353C9.82541 24.353 9.50541 24.7769 9.53741 25.3141C9.62466 25.0327 9.73474 24.6022 9.82541 24.353ZM10.1296 24.778C10.1296 24.778 10.0163 25.93 9.92247 26.4964C10.0552 25.8417 10.081 25.8967 10.1296 24.778ZM12.2493 26.5644C12.2493 26.5644 11.7704 27.9724 11.7606 28.3637C11.8642 27.9613 12.0648 27.1394 12.2493 26.5634V26.5644Z" fill="#DEC270"/>
<path fill-rule="evenodd" clip-rule="evenodd" d="M13.3691 24.2656C13.3691 24.2656 14.1459 25.5471 14.7285 26.6409C14.5708 26.0905 14.2082 25.081 13.3691 24.2656Z" fill="#CBAF59"/>
<path fill-rule="evenodd" clip-rule="evenodd" d="M15.4565 26.1523C15.883 26.9062 16.2676 27.683 16.6085 28.4792C16.5439 27.929 16.369 26.9873 15.4565 26.1523Z" fill="#E3C677"/>
<path fill-rule="evenodd" clip-rule="evenodd" d="M21.5926 28.0419C21.7218 27.961 21.9776 27.5207 22.201 27.4108C22.4241 27.2976 22.5925 27.2749 22.7932 27.0516C22.9937 26.8184 23.0492 26.6761 23.4889 26.4918C24.1039 26.2262 23.6809 25.8832 23.6809 25.8832C23.7486 25.8166 23.8211 25.755 23.8976 25.6988C24.0563 25.5792 24.2407 25.4335 24.2247 25.1777C24.2021 24.7474 24.1212 24.1227 23.7683 23.7603C24.1114 23.689 24.7682 23.6406 25.1764 23.5371C25.6487 23.4172 25.8656 23.2489 25.8656 23.2489C25.8656 23.2489 25.5938 22.7862 26.0339 22.3203C26.4741 21.8544 26.8333 21.576 27.0987 21.0548C26.7945 21.016 26.3307 20.8543 25.1471 21.304C25.211 21.334 25.2727 21.3686 25.3317 21.4074C25.3317 21.4074 24.6035 21.6082 24.3382 21.8315C23.8752 22.223 23.817 22.5434 23.3154 22.783C22.8139 23.0226 22.3089 22.9577 21.8917 23.1519C21.4744 23.346 21.4127 23.5111 21.2604 23.5824C21.2928 23.6212 21.254 23.6858 21.3154 23.7409C21.2766 23.7959 21.0501 24.1648 20.8203 24.1648C20.8429 24.2522 21.037 24.3169 21.037 24.3169C21.037 24.3169 20.8947 24.4205 20.5323 24.4464C20.7166 24.6384 20.8915 24.8476 21.3737 25.1519C21.3349 25.2327 21.1729 25.3526 21.2378 25.5047C21.309 25.6568 21.4938 25.864 22.2313 26.0323C21.8558 26.0483 21.4159 26.1357 20.8233 26.0549C20.2311 25.9836 20.134 25.9416 19.7683 26.0323C19.8072 26.0711 19.9106 26.0711 20.0013 26.1746C19.9042 26.181 19.2958 26.1033 19.0887 26.3753C18.8719 26.6567 18.7781 27.1196 18.7943 27.4303C18.681 27.4853 18.5709 27.5824 18.6259 27.7831C18.681 27.9839 18.969 28.0485 19.1535 28.1746C19.3378 28.3105 19.3541 28.3589 19.529 28.3267C19.7133 28.2879 19.9851 28.1035 20.1438 28.1035C20.3025 28.1035 20.4156 28.2232 20.4156 28.2232C20.4156 28.2232 20.8461 28.0161 20.8881 28.0549C20.927 28.0937 20.8945 28.3429 20.9366 28.3817C20.9792 28.4109 21.4641 28.1229 21.5936 28.0419H21.5926Z" fill="#ECD592"/>
<path fill-rule="evenodd" clip-rule="evenodd" d="M31.0002 15.0908C28.9776 9.86758 23.9775 8.8999 23.9775 8.8999H9.71213L9.76717 14.2202H12.6081V26.1005H9.71191V31.4113H23.5826C26.9256 31.4113 29.6052 28.0519 29.6052 28.0519C33.8965 21.9615 31 15.0908 31 15.0908H31.0002ZM23.6571 24.4726C23.6571 24.4726 22.5691 26.0423 21.3853 26.0423H19.0173L18.9612 14.2332H22.0001C22.0001 14.2332 23.4081 14.5276 24.3918 17.314C24.3918 17.314 25.6959 21.3033 23.6571 24.4726Z" fill="white" fill-opacity="0.8"/>
</g>
<defs>
<clipPath id="clip0_3938_35123">
<rect width="40" height="40" fill="white" transform="translate(0 0.00976562)"/>
</clipPath>
</defs>
</svg>
