<svg width="20" height="17" viewBox="0 0 20 17" fill="none" xmlns="http://www.w3.org/2000/svg">
<path d="M6 16.0049C4.17526 16.0058 2.58119 14.7717 2.125 13.0049H0V11.0049H2.126C2.64564 8.99233 4.62012 7.71314 6.66928 8.06145C8.71845 8.40976 10.1594 10.2695 9.98486 12.3407C9.81035 14.4119 8.07856 16.0044 6 16.0049ZM6 10.0049C4.9074 10.006 4.01789 10.8837 4.00223 11.9762C3.98658 13.0687 4.85057 13.9716 5.94269 14.004C7.03481 14.0364 7.95083 13.1864 8 12.0949V12.4949V12.0049C8 10.9003 7.10457 10.0049 6 10.0049ZM20 13.0049H11V11.0049H20V13.0049ZM11 8.00489C9.17563 8.00535 7.58209 6.77133 7.126 5.00489H0V3.00489H7.126C7.64564 0.992333 9.62012 -0.286863 11.6693 0.0614499C13.7184 0.409763 15.1594 2.2695 14.9849 4.34072C14.8103 6.41194 13.0786 8.00436 11 8.00489ZM11 2.00489C9.9074 2.00599 9.01789 2.88374 9.00223 3.97623C8.98658 5.06872 9.85056 5.97159 10.9427 6.00401C12.0348 6.03642 12.9508 5.18639 13 4.09489V4.49489V4.00489C13 2.90032 12.1046 2.00489 11 2.00489ZM20 5.00489H16V3.00489H20V5.00489Z" fill="#2A3037"/>
</svg>
