<svg width="19" height="25" viewBox="0 0 19 25" fill="none" xmlns="http://www.w3.org/2000/svg">
<mask id="mask0" mask-type="alpha" maskUnits="userSpaceOnUse" x="-1" y="0" width="21" height="25">
<path fill-rule="evenodd" clip-rule="evenodd" d="M-0.333008 0.333862H19.4616V24.0821H-0.333008V0.333862Z" fill="white"/>
</mask>
<g mask="url(#mask0)">
<path fill-rule="evenodd" clip-rule="evenodd" d="M9.56432 2.08337C8.57498 2.08337 2.33332 4.28137 1.61348 4.88221C1.40115 5.09571 1.39298 5.46671 1.43848 7.95054C1.45948 9.14754 1.48865 10.7739 1.48865 13.0255C1.48865 19.0934 8.16432 21.7872 9.56315 22.283C10.9608 21.7849 17.64 19.0759 17.64 13.0255C17.64 10.7715 17.6692 9.14404 17.6913 7.94704C17.7357 5.46554 17.7275 5.09454 17.5023 4.87054C16.7965 4.28137 10.5537 2.08337 9.56432 2.08337ZM9.56431 24.082C9.47914 24.082 9.39397 24.0704 9.31114 24.0447C8.92031 23.9269 -0.261358 21.0545 -0.261358 13.0255C-0.261358 10.789 -0.290524 9.17087 -0.311524 7.98321C-0.365191 5.01637 -0.376858 4.39804 0.389642 3.63271C1.30548 2.71454 8.24131 0.333374 9.56431 0.333374C10.8861 0.333374 17.822 2.71454 18.7401 3.63271C19.5055 4.39804 19.4938 5.01637 19.4401 7.97971C19.4191 9.16737 19.39 10.7855 19.39 13.0255C19.39 21.0545 10.2083 23.9269 9.81747 24.0447C9.73464 24.0704 9.64947 24.082 9.56431 24.082Z" fill="#2D9CDB"/>
</g>
<path fill-rule="evenodd" clip-rule="evenodd" d="M8.74015 14.9395C8.50798 14.9395 8.28515 14.8473 8.12065 14.6828L5.91331 12.4731C5.57265 12.1313 5.57265 11.576 5.91448 11.2353C6.25515 10.8935 6.81048 10.8935 7.15231 11.2353L8.74015 12.8255L12.6695 8.89615C13.0113 8.55431 13.5643 8.55431 13.9061 8.89615C14.248 9.23798 14.248 9.79215 13.9061 10.134L9.35848 14.6828C9.19515 14.8473 8.97231 14.9395 8.74015 14.9395Z" fill="#2D9CDB"/>
</svg>
