<svg width="24" height="25" viewBox="0 0 24 25" fill="none" xmlns="http://www.w3.org/2000/svg">
<path d="M13.9715 22.8385H10.0282C9.51916 22.8385 9.07872 22.4843 8.96979 21.987L8.52887 19.946C7.94068 19.6883 7.38295 19.3661 6.86595 18.9851L4.87587 19.6189C4.39054 19.7736 3.86294 19.5694 3.60837 19.1281L1.63237 15.7145C1.38059 15.2731 1.46733 14.7162 1.84145 14.3723L3.3852 12.964C3.315 12.326 3.315 11.6823 3.3852 11.0443L1.84145 9.63921C1.46678 9.29511 1.38001 8.73757 1.63237 8.29588L3.60404 4.88013C3.85861 4.43888 4.3862 4.23461 4.87154 4.38938L6.86162 5.02313C7.12602 4.82721 7.40127 4.64637 7.68604 4.48146C7.95941 4.32729 8.24074 4.18771 8.52887 4.06329L8.97087 2.02446C9.07928 1.52717 9.51924 1.17241 10.0282 1.17188H13.9715C14.4805 1.17241 14.9205 1.52717 15.0289 2.02446L15.4752 4.06438C15.7794 4.19818 16.0756 4.34938 16.3625 4.51721C16.6303 4.67188 16.8893 4.84151 17.1381 5.02529L19.1293 4.39154C19.6143 4.23735 20.1412 4.44155 20.3957 4.88229L22.3674 8.29804C22.6192 8.73948 22.5324 9.29635 22.1583 9.64029L20.6145 11.0486C20.6847 11.6866 20.6847 12.3303 20.6145 12.9683L22.1583 14.3766C22.5324 14.7206 22.6192 15.2774 22.3674 15.7189L20.3957 19.1346C20.1412 19.5754 19.6143 19.7796 19.1293 19.6254L17.1381 18.9916C16.8862 19.1772 16.6243 19.349 16.3538 19.5062C16.0698 19.6708 15.7768 19.8194 15.4763 19.9515L15.0289 21.987C14.92 22.4839 14.4802 22.8381 13.9715 22.8385ZM11.9955 7.67188C9.6023 7.67188 7.6622 9.61197 7.6622 12.0052C7.6622 14.3984 9.6023 16.3385 11.9955 16.3385C14.3888 16.3385 16.3289 14.3984 16.3289 12.0052C16.3289 9.61197 14.3888 7.67188 11.9955 7.67188Z" fill="white"/>
</svg>
