<svg width="40" height="40" viewBox="0 0 40 40" fill="none" xmlns="http://www.w3.org/2000/svg">
<path d="M0 20C0 8.95431 8.95431 0 20 0C31.0457 0 40 8.95431 40 20C40 31.0457 31.0457 40 20 40C8.95431 40 0 31.0457 0 20Z" fill="#58BE05"/>
<path d="M31.5 10.8571V18.5714C31.5 24.8571 26.325 30 20 30H13.905C13.3875 30 13.1575 29.3714 13.5025 29.0286L14.0775 28.4571C14.1925 28.3429 14.3075 28.2857 14.48 28.2857H20C25.405 28.2857 29.775 23.9429 29.775 18.5714V11.7143H20C18.9075 11.7143 17.815 11.8857 16.8375 12.2286C16.2625 12.4571 15.6875 12.6857 15.17 12.9714C14.71 13.2 14.3075 13.5429 13.905 13.8286C13.445 14.2286 12.985 14.6286 12.64 15.0286C11.145 16.7429 10.225 18.9714 10.225 21.4286V27.6L17.9875 19.8857C18.1025 19.7714 18.2175 19.7143 18.39 19.7143H21.035L25.4625 15.3143C25.5775 15.2 25.6925 15.1429 25.865 15.1429H26.67C27.1875 15.1429 27.4175 15.7714 27.0725 16.1143L21.8975 21.2571C21.7825 21.3714 21.6675 21.4286 21.495 21.4286H18.85L10.3975 29.8286C10.2825 29.9429 10.1675 30 9.995 30H9.3625C8.9025 30 8.5 29.6 8.5 29.1429V21.4286C8.5 20.4571 8.615 19.4857 8.845 18.5714C9.305 16.8 10.225 15.1429 11.4325 13.8286C11.7775 13.4286 12.18 13.0286 12.64 12.6286C13.5025 11.9429 14.48 11.3143 15.515 10.9143C16.895 10.3429 18.39 10 20 10H30.6375C31.0975 10 31.5 10.4 31.5 10.8571Z" fill="white"/>
</svg>
