<svg width="36" height="32" viewBox="0 0 36 32" fill="none" xmlns="http://www.w3.org/2000/svg">
<path d="M36 1.35V13.5C36 23.4 27.9 31.5 18 31.5H8.46C7.65 31.5 7.29 30.51 7.83 29.97L8.73 29.07C8.91 28.89 9.09 28.8 9.36 28.8H18C26.46 28.8 33.3 21.96 33.3 13.5V2.7H18C16.29 2.7 14.58 2.97 13.05 3.51C12.15 3.87 11.25 4.23 10.44 4.68C9.72 5.04 9.09 5.58 8.46 6.03C7.74 6.66 7.02 7.29 6.48 7.92C4.14 10.62 2.7 14.13 2.7 18V27.72L14.85 15.57C15.03 15.39 15.21 15.3 15.48 15.3H19.62L26.55 8.37C26.73 8.19 26.91 8.1 27.18 8.1H28.44C29.25 8.1 29.61 9.09 29.07 9.63L20.97 17.73C20.79 17.91 20.61 18 20.34 18H16.2L2.97 31.23C2.79 31.41 2.61 31.5 2.34 31.5H1.35C0.63 31.5 0 30.87 0 30.15V18C0 16.47 0.18 14.94 0.54 13.5C1.26 10.71 2.7 8.1 4.59 6.03C5.13 5.4 5.76 4.77 6.48 4.14C7.83 3.06 9.36 2.07 10.98 1.44C13.14 0.54 15.48 0 18 0H34.65C35.37 0 36 0.63 36 1.35Z" fill="url(#paint0_linear)"/>
<defs>
<linearGradient id="paint0_linear" x1="0" y1="0" x2="16.3855" y2="51.0012" gradientUnits="userSpaceOnUse">
<stop stop-color="#9EF01A"/>
<stop offset="0.552864" stop-color="#70E000"/>
<stop offset="1" stop-color="#38B000"/>
</linearGradient>
</defs>
</svg>
