<svg width="38" height="38" viewBox="0 0 38 38" fill="none" xmlns="http://www.w3.org/2000/svg">
<path d="M10.0938 22.5029H11.2812V28.4404H10.0938V22.5029Z" fill="#219653"/>
<path d="M11.875 22.5029H13.0625V28.4404H11.875V22.5029Z" fill="#219653"/>
<path d="M26.7188 22.5029H27.9062V28.4404H26.7188V22.5029Z" fill="#219653"/>
<path d="M24.9375 22.5029H26.125V28.4404H24.9375V22.5029Z" fill="#219653"/>
<path d="M36.8125 14.2803V12.6089L18.9935 1.1875L1.1875 12.6083V14.2797L2.14166 13.6675L2.66356 14.4471L1.1875 15.3947V16.5086H1.96709V17.6023H1.1875V18.7168H2.86188V19.8746H3.26562V33.3777H2.86188V34.5859H2.07812V35.6992H1.1875V36.8125H36.8125V35.6992H35.9219V34.5859H35.1381V33.3777H34.7344V19.8746H35.1381V18.7168H36.8125V17.6023H36.0329V16.5086H36.8125V15.3947L35.3358 14.4477L35.8577 13.6681L36.8125 14.2803ZM18.9935 2.85831L35.1073 13.1872L34.5859 13.9668L18.9935 3.97278L3.41406 13.9662L2.89216 13.1866L18.9935 2.85831ZM33.7951 15.3947H4.20494L18.9935 5.62994L33.7951 15.3947ZM8.01562 33.3777V32.3594H10.0938V31.2461H15.4814V30.9166H15.8116V25.0931C15.8116 20.8757 22.1884 20.8097 22.1884 25.0931V30.9166H22.5186V31.2461H27.9062V32.3594H29.9844V33.4727H8.01562V33.3777ZM9.5 29.0344V21.9094H13.6562V29.0344H9.5ZM24.3438 29.0344V21.9094H28.5V29.0344H24.3438ZM3.85938 19.8746H7.42188V33.3777H3.85938V19.8746ZM34.1406 33.3777H30.5781V19.8746H34.1406V33.3777ZM35.1429 17.6023H2.85772V16.5086H35.1429V17.6023Z" fill="#219653"/>
<path d="M18.4693 7.06641V7.599C17.5567 7.80859 16.8774 8.53119 16.8774 9.39866C16.8774 10.427 17.8298 11.2642 18.9995 11.2642C19.5843 11.2642 20.0605 11.6828 20.0605 12.197C20.0605 12.7118 19.5843 13.1304 18.9995 13.1304C18.4147 13.1304 17.9385 12.7118 17.9385 12.197H16.8774C16.8774 13.0645 17.5567 13.7877 18.4693 13.9967V14.5292H19.5303V13.9967C20.4429 13.7871 21.1222 13.0645 21.1222 12.197C21.1222 11.1686 20.1698 10.3314 19.0001 10.3314C18.4153 10.3314 17.9391 9.91344 17.9391 9.39866C17.9391 8.88388 18.4153 8.46528 19.0001 8.46528C19.5849 8.46528 20.0611 8.88388 20.0611 9.39866H21.1222C21.1222 8.53119 20.4429 7.808 19.5303 7.599V7.06641H18.4693Z" fill="#219653"/>
<path d="M4.21509 20.4155H4.63546V32.8724H4.21509V20.4155Z" fill="#219653"/>
<path d="M6.64526 20.4155H7.06564V32.8724H6.64526V20.4155Z" fill="#219653"/>
<path d="M5.83545 20.4155H6.25523V32.8724H5.83545V20.4155Z" fill="#219653"/>
<path d="M5.02539 20.4155H5.44517V32.8724H5.02539V20.4155Z" fill="#219653"/>
<path d="M30.9338 20.4155H31.3542V32.8724H30.9338V20.4155Z" fill="#219653"/>
<path d="M33.364 20.4155H33.7844V32.8724H33.364V20.4155Z" fill="#219653"/>
<path d="M32.5542 20.4155H32.974V32.8724H32.5542V20.4155Z" fill="#219653"/>
<path d="M31.7441 20.4155H32.1639V32.8724H31.7441V20.4155Z" fill="#219653"/>
<path d="M16.2783 25.3398V30.9169H21.7218V25.3398C21.7218 21.3552 16.2783 21.4158 16.2783 25.3398ZM18.7359 23.0878V25.2561H16.9059C16.9784 23.9505 17.8185 23.2231 18.7359 23.0878ZM18.7364 30.2508H16.9012V28.4416H18.7364V30.2508ZM18.7364 27.6626H16.9012V25.8534H18.7364V27.6626ZM21.1839 30.2508H19.348V28.4416H21.1839V30.2508ZM21.4689 26.6146V28.153H20.6994V26.6146H21.4689ZM21.1839 26.4662H20.5515V27.6626H19.3486V25.8534H21.1845V26.4662H21.1839ZM19.348 25.2561V23.0836C20.2665 23.2095 21.1067 23.9303 21.1779 25.2561H19.348Z" fill="#219653"/>
<path d="M21.1939 27.5897C21.1938 27.571 21.1889 27.5527 21.1797 27.5364C21.1705 27.5201 21.1574 27.5064 21.1414 27.4966C21.1255 27.4869 21.1073 27.4813 21.0886 27.4806C21.0699 27.4798 21.0514 27.4838 21.0347 27.4922C21.0179 27.5006 21.0037 27.5131 20.9932 27.5286C20.9827 27.5441 20.9763 27.562 20.9746 27.5806C20.973 27.5992 20.9761 27.618 20.9837 27.635C20.9913 27.6521 21.0032 27.667 21.0181 27.6782L20.9724 27.9715H21.1945L21.1488 27.6782C21.1627 27.6681 21.1741 27.6548 21.182 27.6394C21.1898 27.624 21.1939 27.607 21.1939 27.5897Z" fill="#219653"/>
<path d="M21.0852 27.3312C21.1266 27.3312 21.1675 27.3229 21.2058 27.307C21.244 27.2911 21.2787 27.2678 21.3079 27.2385C21.3371 27.2092 21.3603 27.1744 21.3761 27.1361C21.3918 27.0978 21.3999 27.0568 21.3998 27.0154C21.3998 26.974 21.3915 26.933 21.3756 26.8948C21.3597 26.8565 21.3364 26.8218 21.3071 26.7926C21.2778 26.7634 21.243 26.7402 21.2047 26.7245C21.1664 26.7087 21.1254 26.7006 21.084 26.7007C21.0004 26.7008 20.9202 26.7342 20.8612 26.7934C20.8022 26.8527 20.7691 26.9329 20.7693 27.0166C20.7694 27.1002 20.8028 27.1803 20.8621 27.2393C20.9213 27.2983 21.0015 27.3314 21.0852 27.3312Z" fill="#219653"/>
</svg>
