<svg width="60" height="60" viewBox="0 0 60 60" fill="none" xmlns="http://www.w3.org/2000/svg">
<circle cx="30" cy="30" r="30" fill="white"/>
<path d="M39.0798 45.4208C39.2212 45.2308 39.3612 45.0408 39.4912 44.8421C39.5678 44.7248 39.6372 44.6034 39.7092 44.4834C39.8205 44.2988 39.9318 44.1141 40.0325 43.9228C40.1065 43.7821 40.1712 43.6381 40.2392 43.4948C40.3245 43.3148 40.4118 43.1354 40.4872 42.9501C40.5532 42.7901 40.6078 42.6261 40.6658 42.4628C40.7285 42.2861 40.7952 42.1121 40.8498 41.9314C40.9045 41.7494 40.9465 41.5634 40.9925 41.3788C41.0338 41.2108 41.0812 41.0454 41.1152 40.8741C41.1585 40.6548 41.1865 40.4321 41.2172 40.2101C41.2365 40.0681 41.2638 39.9288 41.2785 39.7848C41.3132 39.4154 41.3332 39.0421 41.3332 38.6668C41.3332 38.4808 41.3205 38.2981 41.3085 38.1154L41.2978 37.9594C41.2978 37.9581 41.2972 37.9574 41.2972 37.9561C40.9412 32.2594 36.3685 27.7014 30.6665 27.3674V23.2321C30.9678 23.2794 31.3258 23.3168 31.7065 23.3168C32.2658 23.3168 32.8718 23.2361 33.4118 22.9861C35.0045 22.2501 35.3132 20.4308 35.3252 20.3534C35.3778 20.0261 35.1812 19.7094 34.8652 19.6114C34.7798 19.5854 32.7605 18.9701 31.2558 19.6668C31.0352 19.7688 30.8412 19.8928 30.6672 20.0288V20.0001V17.6061L31.6138 16.6421H33.9998C35.8378 16.6421 37.3332 15.1248 37.3332 13.2594V10.6668C37.3332 10.4021 37.1765 10.1621 36.9332 10.0561C36.6918 9.94944 36.4085 9.99744 36.2132 10.1781L35.0718 11.2348H32.6665C30.8358 11.2348 29.3465 12.7414 29.3352 14.5968C28.7758 14.1661 28.0872 13.9014 27.3332 13.9014H24.9278L23.7865 12.8448C23.5918 12.6641 23.3085 12.6161 23.0665 12.7228C22.8232 12.8288 22.6665 13.0688 22.6665 13.3334V15.9261C22.6665 17.7914 24.1618 19.3088 25.9998 19.3088H28.3865L29.3332 20.2728V22.2061C29.0672 21.8928 28.7252 21.6014 28.2798 21.3954C26.7752 20.6988 24.7558 21.3141 24.6705 21.3401C24.3538 21.4381 24.1572 21.7548 24.2105 22.0821C24.2232 22.1594 24.5312 23.9794 26.1238 24.7141C26.6645 24.9641 27.2705 25.0448 27.8305 25.0448C28.4352 25.0448 28.9818 24.9501 29.3338 24.8721V27.3668C26.3785 27.5401 23.7272 28.8434 21.8058 30.8588C21.7992 30.8648 21.7905 30.8674 21.7845 30.8741C21.7318 30.9294 21.6865 30.9908 21.6352 31.0474C21.4632 31.2361 21.2938 31.4268 21.1352 31.6268C21.0605 31.7201 20.9925 31.8174 20.9212 31.9128C20.7798 32.1028 20.6398 32.2928 20.5098 32.4914C20.4332 32.6088 20.3638 32.7301 20.2918 32.8501C20.1805 33.0348 20.0692 33.2194 19.9685 33.4108C19.8945 33.5514 19.8298 33.6954 19.7618 33.8388C19.6765 34.0188 19.5892 34.1981 19.5138 34.3834C19.4478 34.5434 19.3932 34.7074 19.3352 34.8708C19.2725 35.0474 19.2058 35.2214 19.1512 35.4021C19.0965 35.5841 19.0545 35.7701 19.0085 35.9548C18.9672 36.1228 18.9198 36.2881 18.8858 36.4594C18.8425 36.6788 18.8145 36.9014 18.7838 37.1234C18.7645 37.2654 18.7372 37.4048 18.7225 37.5488C18.6865 37.9181 18.6665 38.2914 18.6665 38.6668C18.6665 38.8528 18.6792 39.0354 18.6912 39.2181L18.7018 39.3741C18.7018 39.3754 18.7025 39.3761 18.7025 39.3774C19.0725 45.2954 23.9905 50.0001 29.9998 50.0001C33.2232 50.0001 36.1292 48.6414 38.1945 46.4741C38.2012 46.4681 38.2098 46.4654 38.2158 46.4588C38.2685 46.4034 38.3138 46.3421 38.3652 46.2854C38.5372 46.0968 38.7065 45.9061 38.8652 45.7061C38.9398 45.6128 39.0085 45.5161 39.0798 45.4208ZM31.8152 20.8754C32.4005 20.6054 33.2118 20.6434 33.8105 20.7388C33.6432 21.1048 33.3492 21.5461 32.8518 21.7761C32.2665 22.0461 31.4552 22.0088 30.8565 21.9128C31.0232 21.5468 31.3178 21.1054 31.8152 20.8754ZM26.6825 23.5041C26.1852 23.2741 25.8905 22.8328 25.7238 22.4661C26.3218 22.3714 27.1312 22.3328 27.7198 22.6048C28.2178 22.8354 28.5118 23.2774 28.6792 23.6434C28.0832 23.7388 27.2732 23.7768 26.6825 23.5041ZM39.9505 39.6368C39.9385 39.7581 39.9165 39.8768 39.9005 39.9968C39.8745 40.1928 39.8485 40.3888 39.8112 40.5808C39.7832 40.7248 39.7458 40.8668 39.7112 41.0094C39.6718 41.1721 39.6332 41.3354 39.5858 41.4948C39.5405 41.6488 39.4872 41.7994 39.4345 41.9508C39.3852 42.0928 39.3352 42.2341 39.2798 42.3734C39.2158 42.5328 39.1458 42.6894 39.0732 42.8448C39.0165 42.9681 38.9585 43.0901 38.8965 43.2108C38.8125 43.3748 38.7225 43.5361 38.6292 43.6954C38.5692 43.7988 38.5072 43.9008 38.4432 44.0014C38.3358 44.1701 38.2245 44.3354 38.1072 44.4981C38.0472 44.5814 37.9858 44.6628 37.9232 44.7441C37.7925 44.9141 37.6565 45.0814 37.5145 45.2434C37.4878 45.2741 37.4598 45.3034 37.4325 45.3341H29.9998C29.6318 45.3341 29.3332 45.0354 29.3332 44.6674C29.3332 44.2994 29.6318 44.0008 29.9998 44.0008H35.3332C36.4358 44.0008 37.3332 43.1034 37.3332 42.0008C37.3332 40.8981 36.4358 40.0008 35.3332 40.0008H33.9998C33.6318 40.0008 33.3332 39.7021 33.3332 39.3341C33.3332 38.9661 33.6318 38.6674 33.9998 38.6674H39.9998C39.9998 38.9941 39.9818 39.3174 39.9505 39.6368ZM30.6665 14.6174C30.6665 13.4874 31.5638 12.5681 32.6665 12.5681H35.3332C35.5012 12.5681 35.6625 12.5048 35.7865 12.3901L35.9998 12.1921V13.2594C35.9998 14.3894 35.1025 15.3088 33.9998 15.3088H31.3332C31.1538 15.3088 30.9832 15.3801 30.8572 15.5088L30.6665 15.7028V14.6174ZM29.1425 18.1754C29.0172 18.0474 28.8458 17.9754 28.6665 17.9754H25.9998C24.8972 17.9754 23.9998 17.0561 23.9998 15.9261V14.8588L24.2132 15.0568C24.3372 15.1714 24.4985 15.2348 24.6665 15.2348H27.3332C28.4358 15.2348 29.3332 16.1541 29.3332 17.2841V17.3334V18.3694L29.1425 18.1754ZM26.5958 37.3334H27.9292C28.2972 37.3334 28.5958 37.6321 28.5958 38.0001C28.5958 38.3681 28.2972 38.6668 27.9292 38.6668H19.9998C19.9998 38.3394 20.0178 38.0161 20.0492 37.6968C20.0612 37.5754 20.0832 37.4568 20.0992 37.3368C20.1252 37.1408 20.1512 36.9448 20.1885 36.7528C20.2165 36.6081 20.2545 36.4661 20.2885 36.3234C20.3278 36.1608 20.3665 35.9988 20.4132 35.8394C20.4585 35.6854 20.5118 35.5341 20.5652 35.3828C20.6145 35.2408 20.6645 35.0988 20.7198 34.9601C20.7838 34.8014 20.8538 34.6448 20.9258 34.4888C20.9825 34.3654 21.0405 34.2428 21.1025 34.1228C21.1865 33.9588 21.2765 33.7974 21.3698 33.6381C21.4298 33.5348 21.4918 33.4328 21.5558 33.3321C21.6632 33.1634 21.7745 32.9974 21.8925 32.8348C21.9525 32.7521 22.0138 32.6708 22.0758 32.5894C22.2072 32.4194 22.3425 32.2521 22.4852 32.0894C22.5118 32.0588 22.5398 32.0294 22.5672 31.9988H30.5952C30.9632 31.9988 31.2618 32.2974 31.2618 32.6654C31.2618 33.0334 30.9632 33.3321 30.5952 33.3321H26.5952C25.4925 33.3321 24.5952 34.2294 24.5952 35.3321C24.5952 36.4348 25.4925 37.3334 26.5958 37.3334ZM20.0992 40.0001H27.9285C29.0312 40.0001 29.9285 39.1028 29.9285 38.0001C29.9285 36.8974 29.0312 36.0001 27.9285 36.0001H26.5952C26.2272 36.0001 25.9285 35.7014 25.9285 35.3334C25.9285 34.9654 26.2272 34.6668 26.5952 34.6668H30.5952C31.6978 34.6668 32.5952 33.7694 32.5952 32.6668C32.5952 31.5641 31.6978 30.6668 30.5952 30.6668H24.0245C25.6938 29.4168 27.7578 28.6668 29.9992 28.6668C35.0605 28.6668 39.2445 32.4488 39.8998 37.3334H33.9998C32.8972 37.3334 31.9998 38.2308 31.9998 39.3334C31.9998 40.4361 32.8972 41.3334 33.9998 41.3334H35.3332C35.7012 41.3334 35.9998 41.6321 35.9998 42.0001C35.9998 42.3681 35.7012 42.6668 35.3332 42.6668H29.9998C28.8972 42.6668 27.9998 43.5641 27.9998 44.6668C27.9998 45.7694 28.8972 46.6668 29.9998 46.6668H35.9745C34.3052 47.9168 32.2412 48.6668 29.9998 48.6668C24.9385 48.6668 20.7545 44.8848 20.0992 40.0001Z" fill="#219653"/>
<path d="M42.6668 24.6665H41.3335V25.9998H42.6668V24.6665Z" fill="black"/>
<path d="M47.3333 40.6665H46V41.9998H47.3333V40.6665Z" fill="#FFDF6D"/>
<path d="M16.0001 43.3335H14.6667V44.6668H16.0001V43.3335Z" fill="#FFDF6D"/>
<path d="M16.6666 14.6665H15.3333V15.9998H16.6666V14.6665Z" fill="#FFDF6D"/>
<path d="M48.6666 32H47.3333V33.3333H48.6666V32Z" fill="#FFDF6D"/>
<path d="M11.9998 34.6665H10.6665V35.9998H11.9998V34.6665Z" fill="#FFDF6D"/>
<path d="M19.3333 25.9997C19.3333 24.897 18.436 23.9997 17.3333 23.9997H16.6667V23.333C16.6667 22.2303 15.7693 21.333 14.6667 21.333H12C10.8973 21.333 10 22.2303 10 23.333C10 24.4357 10.8973 25.333 12 25.333H12.6667V25.9997C12.6667 27.1023 13.564 27.9997 14.6667 27.9997H17.3333C18.436 27.9997 19.3333 27.1023 19.3333 25.9997ZM17.3333 26.6663H14.6667C14.2987 26.6663 14 26.3677 14 25.9997V24.6663C14 24.2977 13.702 23.9997 13.3333 23.9997H12C11.632 23.9997 11.3333 23.701 11.3333 23.333C11.3333 22.965 11.632 22.6663 12 22.6663H14.6667C15.0347 22.6663 15.3333 22.965 15.3333 23.333V24.6663C15.3333 25.035 15.6313 25.333 16 25.333H17.3333C17.7013 25.333 18 25.6317 18 25.9997C18 26.3677 17.7013 26.6663 17.3333 26.6663Z" fill="black"/>
<path d="M47.9998 14H45.3332C44.2305 14 43.3332 14.8973 43.3332 16V16.6667H42.6665C41.5638 16.6667 40.6665 17.564 40.6665 18.6667C40.6665 19.7693 41.5638 20.6667 42.6665 20.6667H45.3332C46.4358 20.6667 47.3332 19.7693 47.3332 18.6667V18H47.9998C49.1025 18 49.9998 17.1027 49.9998 16C49.9998 14.8973 49.1025 14 47.9998 14ZM47.9998 16.6667H46.6665C46.2978 16.6667 45.9998 16.9647 45.9998 17.3333V18.6667C45.9998 19.0347 45.7012 19.3333 45.3332 19.3333H42.6665C42.2985 19.3333 41.9998 19.0347 41.9998 18.6667C41.9998 18.2987 42.2985 18 42.6665 18H43.9998C44.3685 18 44.6665 17.702 44.6665 17.3333V16C44.6665 15.632 44.9652 15.3333 45.3332 15.3333H47.9998C48.3678 15.3333 48.6665 15.632 48.6665 16C48.6665 16.368 48.3678 16.6667 47.9998 16.6667Z" fill="black"/>
</svg>
