<svg width="342" height="180" viewBox="0 0 342 180" fill="none" xmlns="http://www.w3.org/2000/svg">
<path opacity="0.02" d="M246.472 0.328257C234.826 1.14854 221.648 3.50687 207.193 7.35196L205.405 7.81337C194.678 10.6844 181.041 13.1965 164.798 15.3498C159.23 15.5548 105.598 17.2467 75.0534 15.965C71.8355 15.8112 68.5154 15.8624 65.2975 16.1188C45.2238 17.5543 27.7039 25.6033 15.9049 38.8817C3.08428 53.288 -2.12569 73.2312 0.785764 96.5069C0.785764 96.5581 0.785764 96.6094 0.785764 96.6094C2.62458 118.142 9.00935 134.958 19.6336 146.493C29.9514 157.721 43.9468 163.924 61.2623 164.95C68.1578 165.667 76.126 165.719 85.0136 165.103C89.151 164.796 93.5437 164.386 98.0386 163.77C99.1112 163.617 100.286 163.514 101.563 163.411C111.217 162.745 125.416 163.514 143.754 165.821C148.912 166.693 154.122 167.615 159.69 168.641C174.145 171.204 189.111 173.921 204.23 175.921C207.806 176.639 233.089 181.458 259.548 179.561C285.751 177.715 304.854 169.974 316.296 156.593C319.258 153.619 321.914 150.287 324.213 146.749C335.041 129.882 340.966 112.092 341.886 93.9435C342.703 77.3839 339.127 60.9782 331.517 46.4694C318.083 20.6816 293.464 3.50687 265.728 0.533329C259.956 -0.0818856 253.469 -0.184422 246.472 0.328257Z" fill="black"/>
<path opacity="0.02" d="M34.6166 154.922C36.7941 158.072 39.262 160.835 41.8751 163.307C69.9412 194.373 140.784 172.612 141.655 172.321C161.398 167.862 181.189 162.047 198.997 157.297C216.369 153.565 233.886 150.803 245.306 151.481C261.226 152.45 271.92 151.336 278.501 150.027C305.551 146.198 323.504 126.376 323.939 83.533C323.939 83.4846 323.939 83.3876 323.939 83.3392C326.553 29.1551 288.808 11.4168 257.5 15.391C226.192 19.3651 170.398 21.6915 170.398 21.6915C155.688 20.8191 137.936 14.1171 125.5 11.4999C109.144 8.10738 83.6459 5.20431 66.9998 8.49994C16.3356 18.4353 -7.57932 94.3891 34.6166 154.922Z" fill="black"/>
<g opacity="0.6">
<path d="M288.518 132.729V116.735" stroke="#636369" stroke-miterlimit="10" stroke-linecap="round"/>
<path d="M304.293 106.509C304.293 97.9305 297.373 91 288.808 91C280.243 91 273.323 97.9305 273.323 106.509C273.323 107.527 272.5 108.351 271.484 108.351H269.21C266.887 108.351 265 110.241 265 112.567C265 123.908 274.146 133.068 285.469 133.068H291.518C302.841 133.068 311.987 123.908 311.987 112.567C311.987 110.241 310.099 108.351 307.777 108.351H306.083C305.115 108.351 304.293 107.527 304.293 106.509Z" stroke="#636369" stroke-width="0.75" stroke-miterlimit="10" stroke-linecap="round"/>
<path d="M282.13 119.594V120.079C282.13 122.163 283.824 123.859 285.904 123.859H291.13C293.211 123.859 294.905 122.163 294.905 120.079" stroke="#636369" stroke-width="0.75" stroke-miterlimit="10" stroke-linecap="round"/>
</g>
<g opacity="0.6">
<path d="M57.9907 154.733V141.812" stroke="#636369" stroke-miterlimit="10" stroke-linecap="round"/>
<path d="M70.7398 133.54C70.7398 126.603 65.1454 121 58.219 121C51.2925 121 45.6981 126.603 45.6981 133.54C45.6981 134.341 45.0511 135.027 44.2139 135.027H42.3871C40.5223 135.027 39 136.552 39 138.419C39 147.567 46.4212 155 55.5549 155H60.4263C69.56 155 76.9812 147.567 76.9812 138.419C76.9812 136.552 75.4589 135.027 73.5941 135.027H72.224C71.3868 135.027 70.7398 134.379 70.7398 133.54Z" stroke="#636369" stroke-width="0.75" stroke-miterlimit="10" stroke-linecap="round"/>
<path d="M52.8149 144.137V144.556C52.8149 146.233 54.185 147.605 55.8595 147.605H60.0839C61.7584 147.605 63.1285 146.233 63.1285 144.556" stroke="#636369" stroke-width="0.75" stroke-miterlimit="10" stroke-linecap="round"/>
</g>
<g opacity="0.6">
<path d="M259.565 153.501V145.649" stroke="#636369" stroke-miterlimit="10" stroke-linecap="round"/>
<path d="M267.308 140.609C267.308 136.393 263.92 133 259.71 133C255.5 133 252.113 136.393 252.113 140.609C252.113 141.094 251.726 141.53 251.194 141.53H250.081C248.919 141.53 248 142.451 248 143.614C248 149.187 252.5 153.695 258.065 153.695H261.017C266.582 153.695 271.082 149.187 271.082 143.614C271.082 142.451 270.163 141.53 269.001 141.53H268.179C267.695 141.53 267.308 141.142 267.308 140.609Z" stroke="#636369" stroke-width="0.75" stroke-miterlimit="10" stroke-linecap="round"/>
<path d="M256.42 147.055V147.297C256.42 148.315 257.243 149.139 258.259 149.139H260.823C261.84 149.139 262.662 148.315 262.662 147.297" stroke="#636369" stroke-width="0.75" stroke-miterlimit="10" stroke-linecap="round"/>
</g>
<g opacity="0.6">
<path d="M68.7422 119.735V111.023" stroke="#636369" stroke-miterlimit="10" stroke-linecap="round"/>
<path d="M77.3641 105.444C77.3641 100.783 73.5873 97 68.9329 97C64.2786 97 60.5017 100.783 60.5017 105.444C60.5017 105.979 60.0439 106.438 59.5098 106.438H58.289C57.0301 106.438 56 107.469 56 108.73C56 114.92 60.9977 119.926 67.178 119.926H70.4589C76.6393 119.926 81.637 114.92 81.637 108.73C81.637 107.469 80.6069 106.438 79.3479 106.438H78.4323C77.7838 106.438 77.3641 106.017 77.3641 105.444Z" stroke="#636369" stroke-width="0.75" stroke-miterlimit="10" stroke-linecap="round"/>
<path d="M65.2705 112.59V112.857C65.2705 114.003 66.1861 114.92 67.3306 114.92H70.1919C71.3364 114.92 72.252 114.003 72.252 112.857" stroke="#636369" stroke-width="0.75" stroke-miterlimit="10" stroke-linecap="round"/>
</g>
<path d="M100.888 125C100.36 125 99.9278 124.832 99.5918 124.496C99.2558 124.112 99.0878 123.68 99.0878 123.2V76.4C99.0878 75.872 99.2558 75.44 99.5918 75.104C99.9278 74.768 100.36 74.6 100.888 74.6H109.96C110.488 74.6 110.92 74.768 111.256 75.104C111.592 75.44 111.76 75.872 111.76 76.4V92.384L125.08 75.968C125.272 75.68 125.584 75.392 126.016 75.104C126.496 74.768 127.12 74.6 127.888 74.6H138.256C138.688 74.6 139.048 74.768 139.336 75.104C139.624 75.392 139.768 75.728 139.768 76.112C139.768 76.448 139.696 76.736 139.552 76.976L122.272 98.72L140.848 122.624C141.04 122.816 141.136 123.104 141.136 123.488C141.136 123.872 140.992 124.232 140.704 124.568C140.416 124.856 140.056 125 139.624 125H128.896C128.032 125 127.36 124.808 126.88 124.424C126.448 124.04 126.16 123.752 126.016 123.56L111.76 105.776V123.2C111.76 123.68 111.592 124.112 111.256 124.496C110.92 124.832 110.488 125 109.96 125H100.888ZM165.55 125C165.07 125 164.638 124.832 164.254 124.496C163.918 124.112 163.75 123.68 163.75 123.2V107.72L147.046 76.904C146.998 76.76 146.95 76.64 146.902 76.544C146.854 76.4 146.83 76.256 146.83 76.112C146.83 75.728 146.974 75.392 147.262 75.104C147.598 74.768 147.982 74.6 148.414 74.6H157.414C158.134 74.6 158.686 74.792 159.07 75.176C159.502 75.512 159.79 75.824 159.934 76.112L170.23 94.688L180.598 76.112C180.742 75.824 181.006 75.512 181.39 75.176C181.822 74.792 182.398 74.6 183.118 74.6H192.118C192.55 74.6 192.91 74.768 193.198 75.104C193.486 75.392 193.63 75.728 193.63 76.112C193.63 76.256 193.606 76.4 193.558 76.544C193.558 76.64 193.534 76.76 193.486 76.904L176.782 107.72V123.2C176.782 123.68 176.59 124.112 176.206 124.496C175.87 124.832 175.438 125 174.91 125H165.55ZM222.102 125.72C217.59 125.72 213.701 124.976 210.437 123.488C207.173 122 204.629 119.816 202.805 116.936C201.029 114.056 200.045 110.48 199.853 106.208C199.805 104.24 199.781 102.128 199.781 99.872C199.781 97.616 199.805 95.456 199.853 93.392C200.045 89.216 201.053 85.664 202.877 82.736C204.701 79.808 207.245 77.6 210.509 76.112C213.773 74.624 217.637 73.88 222.102 73.88C225.27 73.88 228.198 74.288 230.886 75.104C233.574 75.872 235.926 77.024 237.942 78.56C239.958 80.048 241.518 81.872 242.622 84.032C243.773 86.144 244.374 88.544 244.422 91.232C244.47 91.664 244.326 92.024 243.99 92.312C243.702 92.6 243.342 92.744 242.91 92.744H233.19C232.566 92.744 232.086 92.624 231.75 92.384C231.414 92.096 231.126 91.592 230.886 90.872C230.214 88.328 229.11 86.6 227.574 85.688C226.086 84.728 224.237 84.248 222.029 84.248C219.39 84.248 217.302 84.992 215.766 86.48C214.23 87.92 213.39 90.344 213.245 93.752C213.101 97.688 213.101 101.72 213.245 105.848C213.39 109.256 214.23 111.704 215.766 113.192C217.302 114.632 219.39 115.352 222.029 115.352C224.237 115.352 226.109 114.872 227.646 113.912C229.182 112.952 230.262 111.224 230.886 108.728C231.078 108.008 231.341 107.528 231.677 107.288C232.062 107 232.566 106.856 233.19 106.856H242.91C243.342 106.856 243.702 107 243.99 107.288C244.326 107.576 244.47 107.936 244.422 108.368C244.374 111.056 243.773 113.48 242.622 115.64C241.518 117.752 239.958 119.576 237.942 121.112C235.926 122.6 233.574 123.752 230.886 124.568C228.198 125.336 225.27 125.72 222.102 125.72Z" fill="#E7EAEB"/>
<path d="M99.5918 124.496L98.8392 125.155L98.8612 125.18L98.8847 125.203L99.5918 124.496ZM99.5918 75.104L100.299 75.8111L100.299 75.8111L99.5918 75.104ZM111.256 75.104L110.549 75.8111L110.549 75.8111L111.256 75.104ZM111.76 92.384H110.76V95.2035L112.536 93.0141L111.76 92.384ZM125.08 75.968L125.856 76.5981L125.886 76.5617L125.912 76.5227L125.08 75.968ZM126.016 75.104L126.571 75.936L126.58 75.9297L126.589 75.9232L126.016 75.104ZM139.336 75.104L138.577 75.7548L138.602 75.7839L138.629 75.8111L139.336 75.104ZM139.552 76.976L140.335 77.5982L140.376 77.5468L140.409 77.4905L139.552 76.976ZM122.272 98.72L121.489 98.0978L121 98.7131L121.482 99.3336L122.272 98.72ZM140.848 122.624L140.058 123.238L140.097 123.287L140.141 123.331L140.848 122.624ZM140.704 124.568L141.411 125.275L141.438 125.248L141.463 125.219L140.704 124.568ZM126.88 124.424L126.215 125.171L126.235 125.189L126.255 125.205L126.88 124.424ZM126.016 123.56L126.816 122.96L126.806 122.947L126.796 122.935L126.016 123.56ZM111.76 105.776L112.54 105.151L110.76 102.93V105.776H111.76ZM111.256 124.496L111.963 125.203L111.986 125.18L112.008 125.155L111.256 124.496ZM100.888 124C100.593 124 100.426 123.916 100.299 123.789L98.8847 125.203C99.4299 125.748 100.127 126 100.888 126V124ZM100.344 123.837C100.157 123.623 100.088 123.422 100.088 123.2H98.0878C98.0878 123.938 98.3547 124.601 98.8392 125.155L100.344 123.837ZM100.088 123.2V76.4H98.0878V123.2H100.088ZM100.088 76.4C100.088 76.1049 100.172 75.9379 100.299 75.8111L98.8847 74.3969C98.3395 74.9421 98.0878 75.6391 98.0878 76.4H100.088ZM100.299 75.8111C100.426 75.6843 100.593 75.6 100.888 75.6V73.6C100.127 73.6 99.4299 73.8517 98.8847 74.3969L100.299 75.8111ZM100.888 75.6H109.96V73.6H100.888V75.6ZM109.96 75.6C110.255 75.6 110.422 75.6843 110.549 75.8111L111.963 74.3969C111.418 73.8517 110.721 73.6 109.96 73.6V75.6ZM110.549 75.8111C110.676 75.9379 110.76 76.1049 110.76 76.4H112.76C112.76 75.6391 112.508 74.9421 111.963 74.3969L110.549 75.8111ZM110.76 76.4V92.384H112.76V76.4H110.76ZM112.536 93.0141L125.856 76.5981L124.303 75.3379L110.983 91.7539L112.536 93.0141ZM125.912 76.5227C126.003 76.3852 126.199 76.184 126.571 75.936L125.461 74.2719C124.969 74.6 124.54 74.9747 124.248 75.4133L125.912 76.5227ZM126.589 75.9232C126.856 75.7366 127.262 75.6 127.888 75.6V73.6C126.978 73.6 126.136 73.7994 125.442 74.2848L126.589 75.9232ZM127.888 75.6H138.256V73.6H127.888V75.6ZM138.256 75.6C138.388 75.6 138.473 75.6342 138.577 75.7548L140.095 74.4532C139.622 73.9018 138.988 73.6 138.256 73.6V75.6ZM138.629 75.8111C138.742 75.9242 138.768 76.0106 138.768 76.112H140.768C140.768 75.4454 140.506 74.8598 140.043 74.3969L138.629 75.8111ZM138.768 76.112C138.768 76.3032 138.728 76.4055 138.694 76.4615L140.409 77.4905C140.664 77.0665 140.768 76.5927 140.768 76.112H138.768ZM138.769 76.3538L121.489 98.0978L123.055 99.3422L140.335 77.5982L138.769 76.3538ZM121.482 99.3336L140.058 123.238L141.637 122.01L123.061 98.1064L121.482 99.3336ZM140.141 123.331C140.115 123.305 140.11 123.286 140.115 123.3C140.122 123.319 140.136 123.376 140.136 123.488H142.136C142.136 122.95 142.001 122.363 141.555 121.917L140.141 123.331ZM140.136 123.488C140.136 123.597 140.102 123.733 139.945 123.917L141.463 125.219C141.881 124.731 142.136 124.147 142.136 123.488H140.136ZM139.997 123.861C139.909 123.949 139.808 124 139.624 124V126C140.303 126 140.923 125.763 141.411 125.275L139.997 123.861ZM139.624 124H128.896V126H139.624V124ZM128.896 124C128.168 124 127.748 123.838 127.505 123.643L126.255 125.205C126.972 125.778 127.895 126 128.896 126V124ZM127.544 123.677C127.112 123.292 126.893 123.063 126.816 122.96L125.216 124.16C125.426 124.441 125.784 124.788 126.215 125.171L127.544 123.677ZM126.796 122.935L112.54 105.151L110.98 106.401L125.236 124.185L126.796 122.935ZM110.76 105.776V123.2H112.76V105.776H110.76ZM110.76 123.2C110.76 123.422 110.691 123.623 110.503 123.837L112.008 125.155C112.493 124.601 112.76 123.938 112.76 123.2H110.76ZM110.549 123.789C110.422 123.916 110.255 124 109.96 124V126C110.721 126 111.418 125.748 111.963 125.203L110.549 123.789ZM109.96 124H100.888V126H109.96V124ZM164.254 124.496L163.501 125.155L163.545 125.205L163.595 125.249L164.254 124.496ZM163.75 107.72H164.75V107.466L164.629 107.243L163.75 107.72ZM147.046 76.904L146.097 77.2202L146.125 77.3034L146.167 77.3805L147.046 76.904ZM146.902 76.544L145.953 76.8602L145.976 76.9276L146.008 76.9912L146.902 76.544ZM147.262 75.104L147.969 75.8111L147.969 75.8111L147.262 75.104ZM159.07 75.176L158.363 75.8831L158.407 75.9271L158.456 75.9654L159.07 75.176ZM159.934 76.112L159.04 76.5592L159.049 76.5782L159.059 76.5968L159.934 76.112ZM170.23 94.688L169.355 95.1728L170.227 96.7453L171.103 95.1754L170.23 94.688ZM180.598 76.112L181.471 76.5994L181.482 76.5795L181.492 76.5592L180.598 76.112ZM181.39 75.176L182.049 75.9286L182.054 75.9234L181.39 75.176ZM193.198 75.104L192.439 75.7548L192.464 75.7839L192.491 75.8111L193.198 75.104ZM193.558 76.544L192.609 76.2278L192.558 76.3817V76.544H193.558ZM193.486 76.904L194.365 77.3805L194.407 77.3034L194.435 77.2202L193.486 76.904ZM176.782 107.72L175.903 107.243L175.782 107.466V107.72H176.782ZM176.206 124.496L175.499 123.789L175.499 123.789L176.206 124.496ZM165.55 124C165.328 124 165.127 123.931 164.913 123.743L163.595 125.249C164.149 125.733 164.812 126 165.55 126V124ZM165.007 123.837C164.819 123.623 164.75 123.422 164.75 123.2H162.75C162.75 123.938 163.017 124.601 163.501 125.155L165.007 123.837ZM164.75 123.2V107.72H162.75V123.2H164.75ZM164.629 107.243L147.925 76.4274L146.167 77.3805L162.871 108.197L164.629 107.243ZM147.995 76.5878C147.937 76.4157 147.872 76.2484 147.796 76.0968L146.008 76.9912C146.028 77.0316 146.059 77.1043 146.097 77.2202L147.995 76.5878ZM147.851 76.2278C147.835 76.1802 147.83 76.1428 147.83 76.112H145.83C145.83 76.3692 145.873 76.6198 145.953 76.8602L147.851 76.2278ZM147.83 76.112C147.83 76.0106 147.856 75.9242 147.969 75.8111L146.555 74.3969C146.092 74.8598 145.83 75.4454 145.83 76.112H147.83ZM147.969 75.8111C148.138 75.642 148.275 75.6 148.414 75.6V73.6C147.689 73.6 147.058 73.8939 146.555 74.3969L147.969 75.8111ZM148.414 75.6H157.414V73.6H148.414V75.6ZM157.414 75.6C157.958 75.6 158.221 75.7416 158.363 75.8831L159.777 74.4689C159.151 73.8424 158.31 73.6 157.414 73.6V75.6ZM158.456 75.9654C158.842 76.2653 158.994 76.4672 159.04 76.5592L160.828 75.6648C160.586 75.1808 160.162 74.7587 159.684 74.3866L158.456 75.9654ZM159.059 76.5968L169.355 95.1728L171.105 94.2032L160.809 75.6272L159.059 76.5968ZM171.103 95.1754L181.471 76.5994L179.725 75.6246L169.357 94.2006L171.103 95.1754ZM181.492 76.5592C181.554 76.4353 181.712 76.2233 182.049 75.9286L180.732 74.4234C180.3 74.8007 179.93 75.2127 179.704 75.6648L181.492 76.5592ZM182.054 75.9234C182.261 75.7393 182.58 75.6 183.118 75.6V73.6C182.216 73.6 181.383 73.8446 180.726 74.4286L182.054 75.9234ZM183.118 75.6H192.118V73.6H183.118V75.6ZM192.118 75.6C192.25 75.6 192.335 75.6342 192.439 75.7548L193.957 74.4532C193.485 73.9018 192.85 73.6 192.118 73.6V75.6ZM192.491 75.8111C192.604 75.9242 192.63 76.0105 192.63 76.112H194.63C194.63 75.4454 194.368 74.8598 193.905 74.3969L192.491 75.8111ZM192.63 76.112C192.63 76.1428 192.625 76.1802 192.609 76.2278L194.507 76.8602C194.587 76.6198 194.63 76.3692 194.63 76.112H192.63ZM192.558 76.544C192.558 76.5267 192.559 76.515 192.56 76.5101C192.56 76.505 192.56 76.5048 192.559 76.5099C192.557 76.5209 192.551 76.5462 192.537 76.5878L194.435 77.2202C194.499 77.0263 194.558 76.7912 194.558 76.544H192.558ZM192.607 76.4274L175.903 107.243L177.661 108.197L194.365 77.3805L192.607 76.4274ZM175.782 107.72V123.2H177.782V107.72H175.782ZM175.782 123.2C175.782 123.379 175.722 123.566 175.499 123.789L176.913 125.203C177.458 124.658 177.782 123.981 177.782 123.2H175.782ZM175.499 123.789C175.372 123.916 175.205 124 174.91 124V126C175.671 126 176.368 125.748 176.913 125.203L175.499 123.789ZM174.91 124H165.55V126H174.91V124ZM210.437 123.488L210.852 122.578L210.852 122.578L210.437 123.488ZM202.805 116.936L201.954 117.461L201.961 117.471L202.805 116.936ZM199.853 106.208L198.854 106.232L198.854 106.243L198.855 106.253L199.853 106.208ZM199.853 93.392L198.855 93.3461L198.854 93.3574L198.854 93.3687L199.853 93.392ZM210.509 76.112L210.924 77.0219L210.924 77.0219L210.509 76.112ZM230.886 75.104L230.595 76.0609L230.603 76.0633L230.611 76.0655L230.886 75.104ZM237.942 78.56L237.335 79.3554L237.342 79.36L237.348 79.3646L237.942 78.56ZM242.622 84.032L241.731 84.4871L241.737 84.4991L241.744 84.5109L242.622 84.032ZM244.422 91.232L243.422 91.2499L243.422 91.2963L243.428 91.3424L244.422 91.232ZM243.99 92.312L243.339 91.5527L243.31 91.5777L243.282 91.6049L243.99 92.312ZM231.75 92.384L231.099 93.1433L231.132 93.172L231.168 93.1977L231.75 92.384ZM230.886 90.872L229.919 91.1274L229.927 91.1581L229.937 91.1882L230.886 90.872ZM227.574 85.688L227.031 86.5283L227.047 86.5384L227.063 86.5479L227.574 85.688ZM215.766 86.48L216.449 87.2095L216.455 87.2039L216.461 87.1982L215.766 86.48ZM213.245 93.752L212.246 93.7098L212.246 93.7154L213.245 93.752ZM213.245 105.848L212.246 105.883L212.246 105.89L213.245 105.848ZM215.766 113.192L215.07 113.91L215.076 113.916L215.082 113.922L215.766 113.192ZM227.646 113.912L227.116 113.064L227.116 113.064L227.646 113.912ZM230.886 108.728L229.919 108.47L229.917 108.478L229.915 108.485L230.886 108.728ZM231.677 107.288L232.259 108.102L232.268 108.095L232.277 108.088L231.677 107.288ZM243.99 107.288L243.282 107.995L243.31 108.022L243.339 108.047L243.99 107.288ZM244.422 108.368L243.428 108.258L243.422 108.304L243.422 108.35L244.422 108.368ZM242.622 115.64L241.739 115.169L241.735 115.177L242.622 115.64ZM237.942 121.112L238.535 121.917L238.541 121.912L238.548 121.907L237.942 121.112ZM230.886 124.568L231.16 125.53L231.168 125.527L231.176 125.525L230.886 124.568ZM222.102 124.72C217.697 124.72 213.957 123.993 210.852 122.578L210.023 124.398C213.446 125.959 217.482 126.72 222.102 126.72V124.72ZM210.852 122.578C207.755 121.166 205.365 119.108 203.65 116.401L201.961 117.471C203.894 120.524 206.592 122.834 210.023 124.398L210.852 122.578ZM203.657 116.411C201.991 113.709 201.039 110.309 200.852 106.163L198.855 106.253C199.052 110.651 200.068 114.403 201.954 117.461L203.657 116.411ZM200.853 106.184C200.805 104.225 200.781 102.121 200.781 99.872H198.781C198.781 102.135 198.806 104.255 198.854 106.232L200.853 106.184ZM200.781 99.872C200.781 97.623 200.805 95.4708 200.853 93.4152L198.854 93.3687C198.806 95.4412 198.781 97.609 198.781 99.872H200.781ZM200.852 93.4379C201.038 89.397 202.01 86.0195 203.726 83.2647L202.029 82.2073C200.097 85.3085 199.053 89.035 198.855 93.3461L200.852 93.4379ZM203.726 83.2647C205.442 80.5106 207.832 78.4317 210.924 77.0219L210.095 75.2021C206.659 76.7683 203.961 79.1054 202.029 82.2073L203.726 83.2647ZM210.924 77.0219C214.03 75.6059 217.747 74.88 222.102 74.88V72.88C217.528 72.88 213.517 73.6421 210.095 75.2021L210.924 77.0219ZM222.102 74.88C225.183 74.88 228.012 75.2769 230.595 76.0609L231.176 74.1471C228.383 73.2991 225.356 72.88 222.102 72.88V74.88ZM230.611 76.0655C233.191 76.8028 235.428 77.9024 237.335 79.3554L238.548 77.7646C236.423 76.1456 233.956 74.9412 231.16 74.1425L230.611 76.0655ZM237.348 79.3646C239.243 80.7637 240.7 82.4696 241.731 84.4871L243.512 83.5769C242.335 81.2744 240.672 79.3323 238.535 77.7554L237.348 79.3646ZM241.744 84.5109C242.81 86.4653 243.376 88.7039 243.422 91.2499L245.421 91.2141C245.371 88.3841 244.737 85.8227 243.499 83.5531L241.744 84.5109ZM243.428 91.3424C243.436 91.415 243.425 91.4451 243.421 91.4546C243.417 91.4648 243.402 91.4988 243.339 91.5527L244.64 93.0713C245.222 92.5726 245.501 91.8895 245.415 91.1216L243.428 91.3424ZM243.282 91.6049C243.194 91.6931 243.094 91.744 242.91 91.744V93.744C243.589 93.744 244.209 93.5069 244.697 93.0191L243.282 91.6049ZM242.91 91.744H233.19V93.744H242.91V91.744ZM233.19 91.744C232.674 91.744 232.431 91.6415 232.331 91.5703L231.168 93.1977C231.74 93.6065 232.457 93.744 233.19 93.744V91.744ZM232.4 91.6247C232.268 91.5116 232.053 91.2119 231.834 90.5558L229.937 91.1882C230.198 91.9721 230.559 92.6804 231.099 93.1433L232.4 91.6247ZM231.852 90.6166C231.145 87.9381 229.933 85.9259 228.084 84.8281L227.063 86.5479C228.286 87.2741 229.282 88.7179 229.919 91.1274L231.852 90.6166ZM228.116 84.8477C226.43 83.7604 224.382 83.248 222.029 83.248V85.248C224.093 85.248 225.741 85.6956 227.031 86.5283L228.116 84.8477ZM222.029 83.248C219.194 83.248 216.834 84.0528 215.07 85.7618L216.461 87.1982C217.769 85.9312 219.585 85.248 222.029 85.248V83.248ZM215.082 85.7505C213.265 87.4531 212.395 90.195 212.246 93.7098L214.245 93.7942C214.384 90.493 215.194 88.3869 216.449 87.2095L215.082 85.7505ZM212.246 93.7154C212.101 97.6764 212.101 101.732 212.246 105.883L214.245 105.813C214.102 101.708 214.102 97.6996 214.245 93.7886L212.246 93.7154ZM212.246 105.89C212.395 109.409 213.267 112.163 215.07 113.91L216.461 112.474C215.192 111.245 214.384 109.103 214.245 105.806L212.246 105.89ZM215.082 113.922C216.847 115.576 219.203 116.352 222.029 116.352V114.352C219.576 114.352 217.756 113.688 216.449 112.462L215.082 113.922ZM222.029 116.352C224.384 116.352 226.449 115.839 228.175 114.76L227.116 113.064C225.77 113.905 224.091 114.352 222.029 114.352V116.352ZM228.175 114.76C230.009 113.614 231.195 111.612 231.856 108.971L229.915 108.485C229.328 110.836 228.354 112.29 227.116 113.064L228.175 114.76ZM231.852 108.986C232.027 108.33 232.213 108.134 232.259 108.102L231.096 106.474C230.47 106.922 230.128 107.686 229.919 108.47L231.852 108.986ZM232.277 108.088C232.443 107.964 232.717 107.856 233.19 107.856V105.856C232.414 105.856 231.68 106.036 231.078 106.488L232.277 108.088ZM233.19 107.856H242.91V105.856H233.19V107.856ZM242.91 107.856C243.094 107.856 243.194 107.907 243.282 107.995L244.697 106.581C244.209 106.093 243.589 105.856 242.91 105.856V107.856ZM243.339 108.047C243.402 108.101 243.417 108.135 243.421 108.145C243.425 108.155 243.436 108.185 243.428 108.258L245.415 108.478C245.501 107.711 245.222 107.027 244.64 106.529L243.339 108.047ZM243.422 108.35C243.376 110.896 242.81 113.162 241.739 115.169L243.504 116.111C244.737 113.798 245.371 111.216 245.421 108.386L243.422 108.35ZM241.735 115.177C240.703 117.151 239.242 118.864 237.335 120.317L238.548 121.907C240.673 120.288 242.332 118.353 243.508 116.103L241.735 115.177ZM237.348 120.307C235.434 121.72 233.187 122.824 230.595 123.611L231.176 125.525C233.96 124.68 236.417 123.48 238.535 121.917L237.348 120.307ZM230.611 123.606C228.023 124.346 225.189 124.72 222.102 124.72V126.72C225.35 126.72 228.372 126.326 231.16 125.53L230.611 123.606Z" fill="#98A3AA"/>
<path fill-rule="evenodd" clip-rule="evenodd" d="M76 49.1924C77.7538 50.7142 80 51.4595 82.4923 50.4968L84 51.5527V51.9254C83.9385 53.1055 83.6308 55.2485 82.9231 57.4224C81.2923 62.2984 79.1692 63.8822 76.3385 65.5904L76 65.8078L75.6615 65.5904C72.8308 63.8822 70.6769 62.2984 69.0769 57.4224C68.3385 55.2485 68.0308 53.1055 68 51.9254V51.5527L69.5077 50.4968C72 51.4595 74.2462 50.7142 76 49.1924ZM75.9846 49.8136C77.6204 51.2074 79.7154 51.8901 82.0399 51.0083L83.4462 51.9754V52.3167C83.3888 53.3976 83.1018 55.3603 82.4417 57.3514C80.9207 61.8172 78.9405 63.2679 76.3003 64.8323L75.9846 65.0315L75.6689 64.8323C73.0287 63.2679 71.0198 61.8172 69.5275 57.3514C68.8388 55.3603 68.5518 53.3976 68.5231 52.3167V51.9754L69.9293 51.0083C72.2538 51.8901 74.3488 51.2074 75.9846 49.8136Z" fill="#98A3AA"/>
<path d="M269.128 46.6504C266.936 46.1144 264.74 45.5785 262.671 45.3366C261.636 45.2175 260.635 45.1691 259.656 45.1878C258.681 45.2064 257.725 45.2882 256.783 45.4297C256.367 45.4929 255.95 45.5674 255.548 45.6455C255.648 45.7572 255.779 45.8911 255.95 46.0586C256.389 46.494 257.077 47.1565 257.781 47.7743C258.086 48.0422 258.391 48.299 258.681 48.5261C258.767 48.4479 258.86 48.3735 258.953 48.3102C259.154 48.1725 259.37 48.072 259.586 48.0087C259.787 47.9529 259.988 47.9269 260.189 47.9269C260.412 47.9269 260.628 47.9604 260.829 48.0087C261.019 48.0571 261.201 48.1204 261.368 48.2097C261.54 48.299 261.692 48.4107 261.822 48.5447C261.96 48.6898 262.076 48.861 262.143 49.0285C262.213 49.2034 262.239 49.382 262.195 49.5309C262.143 49.7021 262.016 49.8175 261.819 49.8919C261.662 49.9514 261.458 49.9849 261.212 49.9961C260.97 50.011 260.68 50.0073 260.311 49.9031C259.951 49.8026 259.515 49.6053 258.968 49.2294C258.894 49.1773 258.812 49.1215 258.734 49.062C258.596 49.2332 258.48 49.4341 258.399 49.6425C258.32 49.8435 258.268 50.0519 258.261 50.2529C258.253 50.4464 258.287 50.6362 258.35 50.8186C258.421 51.0158 258.525 51.1982 258.659 51.3619C258.927 51.6932 259.307 51.9611 259.5 52.0951H259.504C259.787 52.2961 259.787 52.2961 259.787 52.6868V53.8443C259.787 53.9373 259.787 53.9373 259.809 53.9373L260.252 53.941L260.695 53.9447C260.713 53.9447 260.713 53.9447 260.713 53.8368V52.5863C260.713 52.1584 260.713 52.1584 260.978 52.002C261.134 51.909 261.45 51.7229 261.655 51.4959C261.748 51.3917 261.822 51.2801 261.878 51.1647C261.938 51.0381 261.979 50.9079 261.997 50.7851C262.005 50.7255 262.012 50.6809 262.016 50.6325C262.038 50.398 262.057 50.1524 262.31 49.7505C262.481 49.4751 262.768 49.129 263.188 48.794C263.505 48.5409 263.903 48.2916 264.394 48.0832C264.952 47.845 265.626 47.6664 266.27 47.5287C266.91 47.391 267.52 47.2979 267.959 47.2346C268.458 47.1639 268.76 47.1304 268.994 47.3835C269.195 47.6031 269.273 48.0236 269.322 48.8461C269.411 50.4092 269.411 53.5056 269.411 55.0538C269.411 56.7434 269.411 56.7434 269.009 56.8885C268.871 56.9406 268.663 57.0151 268.313 57.1118C267.967 57.2086 267.476 57.3314 266.757 57.4728C265.942 57.6366 264.848 57.8264 263.654 57.9753C262.745 58.0869 261.77 58.1762 260.803 58.206C259.761 58.2395 258.737 58.2097 257.785 58.1316C256.694 58.046 255.686 57.9008 254.833 57.7333C254.033 57.5733 253.367 57.391 252.838 57.2272C252.314 57.0597 251.916 56.9071 251.651 56.8067C251 56.5573 251 56.5573 251 54.7709V48.1948C251 46.3973 251 46.3973 252.061 46.0958C252.678 45.9209 253.713 45.6306 254.904 45.3701C254.844 45.1878 254.837 44.9942 254.833 44.7039C254.83 44.4062 254.826 43.9857 254.826 43.5502C254.826 42.9957 254.826 42.4077 254.826 42.002C254.826 41.6299 254.83 41.4029 254.844 41.2317C254.859 41.0456 254.889 40.9116 254.949 40.7255C255.004 40.5469 255.086 40.3162 255.209 40.0631C255.332 39.81 255.499 39.5234 255.73 39.2294C255.965 38.9243 256.266 38.6116 256.605 38.3251C256.917 38.0571 257.267 37.8115 257.632 37.6143C258.012 37.4096 258.413 37.2533 258.83 37.1491C259.247 37.0486 259.679 36.9965 260.133 37.0002C260.598 37.0039 261.086 37.0597 261.558 37.1825C262.001 37.2942 262.44 37.4617 262.842 37.6887C263.233 37.9083 263.59 38.1799 263.907 38.4739C264.264 38.8089 264.562 39.1699 264.785 39.5048C264.993 39.8212 265.138 40.1189 265.235 40.3757C265.332 40.625 265.388 40.8335 265.425 40.9749C265.462 41.1237 265.481 41.2019 265.492 41.3396C265.503 41.4699 265.503 41.6448 265.503 41.9797V45.2771H265.101V41.976C265.101 41.6448 265.101 41.4773 265.094 41.3656C265.086 41.2577 265.071 41.1945 265.038 41.0716C265.004 40.9414 264.956 40.7516 264.863 40.5171C264.774 40.2864 264.643 40.0147 264.45 39.7244C264.242 39.4118 263.966 39.0769 263.635 38.7642C263.345 38.4926 263.01 38.2395 262.649 38.0348C262.277 37.8264 261.875 37.6738 261.461 37.5696C261.019 37.4579 260.565 37.4021 260.133 37.3984C259.716 37.3947 259.314 37.4431 258.927 37.5361C258.544 37.6291 258.179 37.7706 257.825 37.9641C257.483 38.1502 257.159 38.3772 256.865 38.6265C256.549 38.8982 256.27 39.1885 256.05 39.4713C255.842 39.7393 255.689 39.9998 255.574 40.2343C255.459 40.4687 255.384 40.6771 255.336 40.8372C255.287 40.9935 255.261 41.1051 255.25 41.2614C255.235 41.4326 255.231 41.6485 255.231 41.9983C255.231 42.404 255.228 42.9883 255.231 43.5465C255.231 43.9782 255.235 44.3951 255.239 44.6965C255.243 44.9719 255.246 45.1394 255.302 45.2845C255.764 45.1915 256.244 45.1022 256.724 45.0314C257.677 44.89 258.652 44.8044 259.649 44.7858C260.646 44.7672 261.666 44.8156 262.716 44.9384C264.807 45.184 267.014 45.7199 269.221 46.2596L269.128 46.6504ZM255.105 45.7386C253.877 46.0028 252.805 46.3042 252.172 46.4829C251.406 46.6987 251.406 46.6987 251.406 48.1948V54.7858C251.406 56.2968 251.406 56.2968 251.8 56.4494C252.057 56.5499 252.44 56.6987 252.965 56.8625C253.482 57.0262 254.134 57.2049 254.919 57.3575C255.756 57.5249 256.75 57.6664 257.825 57.752C258.771 57.8264 259.779 57.8599 260.799 57.8264C261.741 57.7966 262.705 57.7073 263.613 57.5956C264.811 57.4468 265.89 57.2607 266.687 57.1007C267.383 56.9592 267.87 56.8402 268.213 56.7434C268.551 56.6466 268.748 56.5759 268.879 56.5275C269.016 56.4792 269.016 56.4792 269.016 55.0687C269.016 53.5167 269.016 50.4166 268.931 48.8796C268.89 48.1539 268.834 47.8003 268.711 47.6626C268.618 47.5622 268.399 47.5882 268.03 47.6403C267.598 47.7036 266.996 47.7929 266.367 47.9269C265.741 48.0608 265.09 48.232 264.562 48.4591C264.111 48.6489 263.743 48.8796 263.453 49.1141C263.069 49.4192 262.816 49.7281 262.664 49.97C262.463 50.2901 262.444 50.4873 262.429 50.6734C262.422 50.7367 262.418 50.8 262.41 50.8483C262.388 51.0047 262.336 51.1758 262.258 51.3396C262.187 51.4885 262.09 51.6336 261.968 51.7676C261.718 52.0393 261.372 52.244 261.197 52.3482C261.13 52.3891 261.13 52.3891 261.13 52.5863V53.8368C261.13 54.3504 261.13 54.3504 260.706 54.3467L260.263 54.3429L259.82 54.3392C259.4 54.3355 259.4 54.3355 259.4 53.848V52.6905C259.4 52.5045 259.4 52.5045 259.288 52.4263C259.08 52.2812 258.667 51.9909 258.365 51.615C258.201 51.414 258.071 51.1907 257.989 50.9525C257.907 50.7255 257.866 50.4873 257.878 50.238C257.889 49.9924 257.948 49.7393 258.041 49.4974C258.138 49.2518 258.272 49.021 258.428 48.8201C258.138 48.593 257.837 48.3362 257.535 48.072C256.821 47.4468 256.125 46.7769 255.686 46.3377C255.406 46.0847 255.228 45.8986 255.105 45.7386ZM259.18 48.6414C259.121 48.6824 259.065 48.727 259.009 48.7754C259.072 48.8201 259.132 48.8647 259.191 48.9057C259.694 49.2518 260.092 49.4341 260.416 49.5234C260.732 49.6128 260.978 49.6128 261.186 49.6016C261.391 49.5904 261.555 49.5644 261.67 49.5197C261.744 49.49 261.793 49.4565 261.804 49.4155C261.822 49.3597 261.804 49.2741 261.767 49.1773C261.718 49.0545 261.633 48.928 261.528 48.8201C261.428 48.7159 261.309 48.6303 261.179 48.5595C261.045 48.4888 260.892 48.4367 260.728 48.3958C260.553 48.3511 260.371 48.3251 260.185 48.3251C260.025 48.3251 259.857 48.3437 259.694 48.3921C259.519 48.4479 259.344 48.5298 259.18 48.6414Z" fill="#98A3AA"/>
</svg>
