<svg width="107" height="197" viewBox="0 0 107 197" fill="none" xmlns="http://www.w3.org/2000/svg">
<g clip-path="url(#clip0_1597_11070)">
<rect width="107" height="197" fill="#7ACB37"/>
<g opacity="0.3">
<path d="M-1277.22 -147.265C-1135.15 -164.358 -838.718 -168.689 -789.489 -49.2636C-727.953 100.018 -629.952 150.158 -429.391 -13.9375C-228.829 -178.033 311.319 -632.715 262.318 -290.849C213.317 51.017 305.621 -131.311 436.669 -98.2644" stroke="white"/>
<path d="M-1249.87 194.601C-914.84 292.602 -1057.28 388.325 -766.698 282.346C-476.112 176.368 -325.691 172.949 100.502 390.604C526.694 608.258 487.95 411.116 567.718 220.81" stroke="white"/>
<path d="M-1275.92 -134.211C-1132.64 -148.157 -848.028 -149.975 -799.115 -35.1449C-738.481 108.12 -643.383 155.75 -445.453 -3.05435C-240.605 -164.382 280.984 -597.575 254.612 -261.624C228.239 74.3267 314.303 -108.707 442.909 -86.296" stroke="white"/>
<path d="M-1274.61 -121.068C-1130.13 -131.867 -857.336 -131.172 -808.74 -20.9368C-749.008 116.311 -656.813 161.432 -461.515 7.91825C-252.38 -150.642 250.651 -562.346 246.906 -232.31C243.162 97.7259 322.985 -86.0135 449.15 -74.2381" stroke="white"/>
<path d="M-1273.31 -107.826C-1127.61 -115.477 -866.645 -112.27 -818.365 -6.6292C-759.535 124.602 -670.243 167.214 -477.577 18.9904C-264.155 -136.803 220.317 -527.018 239.201 -202.897C258.085 121.224 331.668 -63.2203 455.391 -62.0807" stroke="white"/>
<path d="M-1272.01 -94.472C-1125.1 -98.976 -875.955 -93.2565 -827.99 7.78922C-770.063 133.004 -683.674 173.106 -493.64 30.1733C-275.931 -122.852 189.983 -491.579 231.495 -173.373C273.007 144.834 340.349 -40.3162 461.63 -49.8125" stroke="white"/>
<path d="M-1270.71 -80.9934C-1122.58 -82.35 -885.263 -74.1181 -837.615 22.3328C-780.59 141.531 -697.104 179.123 -509.702 41.4813C-287.706 -108.777 159.65 -456.015 223.79 -143.723C287.931 168.569 349.032 -17.2871 467.871 -37.4192" stroke="white"/>
<path d="M-1269.4 -67.3765C-1120.07 -65.5857 -894.572 -54.8414 -847.24 37.0147C-791.117 150.197 -710.534 185.279 -525.764 52.9277C-299.481 -94.563 129.316 -420.312 216.085 -113.935C302.854 192.442 357.715 5.88044 474.112 -24.8875" stroke="white"/>
<path d="M-1268.1 -53.6022C-1117.55 -48.6641 -903.881 -35.4073 -856.865 51.8539C-801.644 159.019 -723.964 191.592 -541.826 64.5314C-311.256 -80.1918 98.9826 -384.452 208.38 -83.9903C317.777 216.472 366.398 29.2053 480.353 -12.1985" stroke="white"/>
<path d="M-1266.8 -39.6504C-1115.04 -31.565 -913.19 -15.7957 -866.49 66.8707C-812.172 168.02 -737.395 198.082 -557.889 76.3126C-323.032 -65.643 68.6482 -348.415 200.674 -53.8677C332.699 240.68 375.079 52.7076 486.593 0.668045" stroke="white"/>
<path d="M-1265.5 -25.4966C-1112.52 -14.2638 -922.499 4.01783 -876.115 82.0894C-822.698 177.222 -750.825 204.774 -573.95 88.2959C-334.807 -50.8923 38.315 -312.175 192.969 -23.5431C347.622 265.089 383.762 76.4119 492.834 13.7366" stroke="white"/>
<path d="M-1264.19 -11.1123C-1110.01 3.26779 -931.809 24.0619 -885.741 97.5386C-833.226 186.654 -764.256 211.697 -590.013 100.51C-346.583 -35.9111 7.98049 -275.706 185.262 7.01203C362.544 289.73 392.444 100.347 499.073 27.0356" stroke="white"/>
<path d="M-1262.89 3.53598C-1107.5 21.0634 -941.117 44.3699 -895.366 113.252C-843.753 196.351 -777.686 218.884 -606.075 112.987C-358.358 -20.666 -22.3531 -238.972 177.557 37.8311C377.467 314.634 401.126 124.546 505.314 40.5985" stroke="white"/>
<path d="M-1261.59 18.4877C-1104.98 39.1625 -950.426 64.9815 -904.99 129.269C-854.28 206.351 -791.116 226.375 -622.137 125.768C-370.133 -5.11728 -52.6865 -201.934 169.852 68.9536C392.39 339.842 409.809 149.048 511.555 54.465" stroke="white"/>
<path d="M-1260.29 33.7897C-1102.47 57.6118 -959.736 85.9432 -914.616 145.635C-864.808 216.701 -804.547 234.215 -638.2 138.9C-381.909 10.7816 -83.0209 -164.547 162.146 100.426C407.312 365.399 418.491 173.9 517.795 68.6817" stroke="white"/>
<path d="M-1258.98 49.4968C-1099.95 76.4662 -969.044 107.31 -924.241 162.407C-875.335 227.457 -817.978 242.461 -654.262 152.436C-393.684 27.0855 -113.354 -126.754 154.441 132.304C422.235 391.363 427.173 199.158 524.035 83.3035" stroke="white"/>
<path d="M-1257.68 65.6743C-1097.44 95.7911 -978.354 129.147 -933.867 179.65C-885.863 238.683 -831.409 251.177 -670.325 166.443C-405.46 43.86 -143.689 -88.4909 146.735 164.653C437.158 417.796 435.855 224.886 530.275 98.3957" stroke="white"/>
<path d="M-1256.38 82.395C-1094.93 115.659 -987.663 151.528 -943.492 197.436C-896.391 250.452 -844.84 260.437 -686.387 180.993C-417.236 61.1776 -174.023 -49.6846 139.028 197.544C452.08 444.773 444.537 251.157 536.515 114.031" stroke="white"/>
<path d="M-1255.08 99.7447C-1092.41 136.156 -996.972 174.537 -953.117 215.85C-906.918 262.85 -858.27 270.325 -702.449 196.173C-429.011 79.1243 -204.356 -10.2492 131.323 231.065C467.003 472.378 453.22 278.058 542.756 130.296" stroke="white"/>
<path d="M-1253.78 117.818C-1089.9 157.376 -1006.28 198.27 -962.742 234.988C-917.445 275.971 -871.7 280.936 -718.511 212.075C-440.786 97.7941 -234.69 29.9093 123.618 265.308C481.926 500.707 461.902 305.681 548.997 147.283" stroke="white"/>
<path d="M-1252.47 136.712C-1087.38 179.418 -1015.59 222.824 -972.368 254.947C-927.972 289.914 -885.131 292.369 -734.574 228.798C-452.562 117.285 -265.024 70.889 115.912 300.373C496.848 529.857 470.584 334.126 555.237 165.092" stroke="white"/>
<path d="M-1251.17 165.568C-1084.87 211.422 -1024.9 257.34 -981.992 284.869C-938.499 313.819 -898.561 313.764 -750.636 255.484C-464.337 146.739 -295.358 121.831 108.207 345.401C511.771 568.97 479.267 372.533 561.477 192.863" stroke="white"/>
</g>
<ellipse cx="52.0581" cy="144.385" rx="8.05814" ry="8.03846" fill="#BEF584"/>
<path d="M68.9067 159C68.9067 154.01 69.892 149.068 71.8064 144.458C73.7207 139.848 76.5266 135.659 80.0639 132.13C83.6012 128.601 87.8005 125.802 92.4222 123.893C97.0438 121.983 101.997 121 107 121V159H68.9067Z" fill="#BEF584"/>
<path d="M69.6395 197C67.1383 197 64.6616 196.509 62.3507 195.554C60.0399 194.599 57.9402 193.199 56.1716 191.435C54.403 189.671 53 187.576 52.0428 185.271C51.0857 182.966 50.593 180.495 50.593 178C50.593 175.505 51.0857 173.034 52.0428 170.729C53 168.424 54.403 166.329 56.1716 164.565C57.9402 162.801 60.0399 161.401 62.3507 160.446C64.6616 159.491 67.1383 159 69.6395 159V178V197Z" fill="#BEF584"/>
<rect x="68.9067" y="159" width="38.093" height="38" fill="#58BE05"/>
<circle cx="42.5" cy="13.5" r="3.5" fill="#BEF584"/>
<circle cx="59.5" cy="13.5" r="3.5" fill="#BEF584"/>
<circle cx="76.5" cy="13.5" r="3.5" fill="#BEF584"/>
<circle cx="93.5" cy="13.5" r="3.5" fill="#BEF584"/>
<circle cx="59.5" cy="30.5" r="3.5" fill="#BEF584"/>
<circle cx="76.5" cy="30.5" r="3.5" fill="#BEF584"/>
<circle cx="93.5" cy="30.5" r="3.5" fill="#BEF584"/>
<circle cx="76.5" cy="47.5" r="3.5" fill="#BEF584"/>
<circle cx="93.5" cy="47.5" r="3.5" fill="#BEF584"/>
<circle cx="93.5" cy="64.5" r="3.5" fill="#BEF584"/>
</g>
<defs>
<clipPath id="clip0_1597_11070">
<rect width="107" height="197" fill="white"/>
</clipPath>
</defs>
</svg>
