<svg width="14" height="15" viewBox="0 0 14 15" fill="none" xmlns="http://www.w3.org/2000/svg">
<path d="M0 7.50977C0 3.64377 3.13401 0.509766 7 0.509766C10.866 0.509766 14 3.64377 14 7.50977C14 11.3758 10.866 14.5098 7 14.5098C3.13401 14.5098 0 11.3758 0 7.50977Z" fill="#E31D34"/>
<path d="M6.98453 10.3245C8.63971 8.9003 10.9107 7.55307 12.1809 7.05265C11.9884 6.93717 11.6805 6.74469 11.3341 6.55225C9.71739 7.09115 7.79265 8.28439 6.09912 9.63176C6.40707 9.86272 6.67649 10.0937 6.98444 10.3246L6.98453 10.3245Z" fill="white"/>
<path d="M6.21507 6.51352C5.98411 6.39804 5.71467 6.28256 5.52219 6.20557C4.90632 6.51352 4.09797 6.97542 3.09717 7.70677C3.32812 7.82224 3.55907 7.97621 3.79004 8.09169C4.55989 7.51432 5.36825 6.97542 6.21507 6.51349V6.51352Z" fill="white"/>
<path d="M7.67731 5.85938C7.36936 5.70541 6.36856 5.32048 5.63721 5.1665C5.44475 5.24349 5.13681 5.35897 4.94434 5.43595C5.21378 5.51294 6.17608 5.78237 6.98443 6.1673C7.1769 6.05182 7.48483 5.93634 7.67731 5.85935V5.85938Z" fill="white"/>
<path d="M4.21318 5.74416C3.28936 6.16758 2.32706 6.74496 1.82666 7.09138C2.01912 7.16837 2.21159 7.24535 2.44253 7.36083C3.59731 6.59098 4.52113 6.09058 4.86756 5.9366C4.59811 5.85962 4.36716 5.78263 4.21318 5.74414V5.74416Z" fill="white"/>
<path d="M8.3701 5.58993C8.56257 5.51294 8.832 5.47445 9.02448 5.39747C8.4086 5.12802 7.63875 4.85857 6.94588 4.70459C6.8304 4.74308 6.52245 4.82007 6.2915 4.89705C6.56095 4.97404 7.3308 5.12801 8.3701 5.58993Z" fill="white"/>
<path d="M4.521 8.51562C4.75195 8.66959 5.0214 8.86204 5.29085 9.05452C6.98452 7.74577 8.6782 6.70647 10.5258 6.12907C10.2563 6.01359 10.0254 5.89811 9.75594 5.74414C8.67814 6.01359 6.7536 6.78344 4.521 8.51559V8.51562Z" fill="white"/>
</svg>
