<svg width="41" height="35" viewBox="0 0 41 35" fill="none" xmlns="http://www.w3.org/2000/svg">
<path d="M40.5 1.5V15C40.5 26 31.5 35 20.5 35H9.9C9 35 8.6 33.9 9.2 33.3L10.2 32.3C10.4 32.1 10.6 32 10.9 32H20.5C29.9 32 37.5 24.4 37.5 15V3H20.5C18.6 3 16.7 3.3 15 3.9C14 4.3 13 4.7 12.1 5.2C11.3 5.6 10.6 6.2 9.9 6.7C9.1 7.4 8.3 8.1 7.7 8.8C5.1 11.8 3.5 15.7 3.5 20V30.8L17 17.3C17.2 17.1 17.4 17 17.7 17H22.3L30 9.3C30.2 9.1 30.4 9 30.7 9H32.1C33 9 33.4 10.1 32.8 10.7L23.8 19.7C23.6 19.9 23.4 20 23.1 20H18.5L3.8 34.7C3.6 34.9 3.4 35 3.1 35H2C1.2 35 0.5 34.3 0.5 33.5V20C0.5 18.3 0.7 16.6 1.1 15C1.9 11.9 3.5 9 5.6 6.7C6.2 6 6.9 5.3 7.7 4.6C9.2 3.4 10.9 2.3 12.7 1.6C15.1 0.6 17.7 0 20.5 0H39C39.8 0 40.5 0.7 40.5 1.5Z" fill="white"/>
</svg>
