<svg width="114" height="75" viewBox="0 0 114 75" fill="none" xmlns="http://www.w3.org/2000/svg">
<path opacity="0.3" d="M114 -5.11806C114.014 -4.05398 113.606 -2.99718 112.964 -2.15903C111.492 -0.242226 109.043 0.369987 106.732 -0.00171661C103.787 -0.482742 101.388 -2.33395 99.1065 -4.13415C99.0627 -4.17059 99.0336 -4.20703 99.0044 -4.25076C98.7347 -4.23619 98.465 -4.2289 98.2025 -4.21433C94.6888 -4.05399 91.1751 -3.89365 87.6614 -3.7406C86.6773 -3.69687 85.6859 -3.65313 84.7017 -3.61669C84.0019 -3.58753 83.2729 -3.52924 82.5585 -3.53653C83.7759 -2.71295 84.986 -1.88209 86.2326 -1.09496C87.8291 -0.0891724 89.4766 0.836441 91.1314 1.74019C93.3329 2.94275 95.5855 4.04327 97.8818 5.05634C99.2742 4.62633 100.674 4.23276 102.081 3.86835C103.466 3.50393 104.865 3.0375 106.294 2.92088C107.475 2.82613 108.729 3.03749 109.662 3.81005C110.683 4.65549 110.982 5.97466 111.011 7.24281C111.033 8.41622 110.938 9.69896 110.493 10.7995C110.049 11.8927 109.203 12.6944 108.051 12.9933C106.856 13.3067 105.551 13.0953 104.399 12.709C103.233 12.3154 102.117 11.7542 101.104 11.0473C100.01 10.282 98.9826 9.34184 98.2025 8.25589C97.6777 7.52707 97.2257 6.5067 97.561 5.64668C97.2038 5.48634 96.8466 5.34059 96.4894 5.18025C93.0413 3.59869 89.7244 1.78392 86.5534 -0.285942C85.0808 -1.24071 83.6156 -2.23193 82.2232 -3.3033C82.2305 -3.25957 82.2451 -3.21583 82.2524 -3.17939C84.7382 -0.424423 86.9689 2.56374 89.2579 5.47905C91.5542 8.40164 93.9453 11.3097 96.7227 13.7877C100.244 13.6273 103.823 14.4072 107.082 15.7264C108.605 16.3386 110.158 17.1548 111.142 18.5105C112.192 19.9608 112.432 21.8193 112.163 23.5539C111.915 25.1865 111.281 26.7681 110.202 28.0362C109.072 29.37 107.417 30.2664 105.66 30.3685C102.336 30.558 99.5366 27.7082 97.9037 25.1209C96.1031 22.2639 95.2574 18.7801 95.6001 15.4129C95.6438 14.9975 95.7021 14.5894 95.7823 14.1812C95.7896 14.1229 95.826 14.0792 95.8625 14.0427C93.712 12.0749 91.7729 9.8593 89.9431 7.58537C87.5083 4.56074 85.2048 1.41949 82.6679 -1.52496C82.697 -1.39377 82.7335 -1.26258 82.7626 -1.13139C82.9376 -0.336967 83.1126 0.450165 83.2948 1.2373C83.6739 2.85529 84.0675 4.46598 84.4903 6.07669C85.336 9.28352 86.2909 12.4612 87.348 15.6024C88.5872 15.8211 89.7973 16.2219 90.9491 16.7321C92.0937 17.2423 93.1944 17.8764 94.1056 18.7583C95.8625 20.4564 96.8248 23.0365 95.8042 25.376C95.323 26.4765 94.5284 27.475 93.6099 28.2403C92.7279 28.9691 91.6417 29.5449 90.4753 29.5522C87.9166 29.5741 86.721 26.7754 86.1743 24.6909C85.4526 21.9287 85.6348 18.9696 86.6554 16.3021C86.6846 16.2147 86.7429 16.1637 86.8085 16.1345C86.3055 14.6477 85.8244 13.1609 85.3724 11.6595C84.4029 8.48182 83.5354 5.2677 82.7918 2.03172C82.5804 1.12068 82.3836 0.209648 82.194 -0.701385C82.0774 -1.26987 81.9826 -1.84564 81.8951 -2.41413C81.4723 -2.88786 81.0422 -3.35432 80.5975 -3.81348C79.1396 -5.33673 77.565 -6.74335 75.881 -8.01151C75.9248 -7.64709 75.9539 -7.27541 75.9977 -6.93286C76.0851 -6.20403 76.1653 -5.46791 76.2382 -4.73909C76.3767 -3.28873 76.4861 -1.83108 76.5663 -0.373421C76.6319 0.807274 76.6683 1.99526 76.6975 3.18325C78.673 4.72836 80.5684 6.79823 81.2537 9.26895C81.866 11.4992 81.3776 13.9116 79.4895 15.3692C77.6743 16.7759 74.8313 17.614 72.8047 16.1491C70.9166 14.7862 70.3626 12.3446 70.9094 10.1654C71.6383 7.28655 73.9128 5.21667 76.056 3.32172C76.0852 3.29257 76.1216 3.28528 76.1508 3.27071C76.0633 0.821846 75.8956 -1.62699 75.6405 -4.06856C75.5603 -4.87756 75.4582 -5.68655 75.3634 -6.48826C75.3124 -6.88911 75.2614 -7.29726 75.2104 -7.69811C75.1739 -7.98965 75.1156 -8.28846 75.0937 -8.57999C74.999 -8.64558 74.9115 -8.71847 74.824 -8.78406C72.5569 -10.3583 70.1366 -11.7067 67.6799 -12.9602C63.7653 -14.9572 59.8069 -16.8522 55.8412 -18.7544C55.9287 -18.6451 56.0235 -18.5358 56.111 -18.4264C56.4244 -18.0402 56.7379 -17.6539 57.0441 -17.2603C57.671 -16.4659 58.2906 -15.6569 58.8957 -14.8479C59.3622 -14.2284 59.8142 -13.5943 60.2662 -12.9602C60.3026 -12.9894 60.3464 -13.004 60.412 -12.9967C63.2842 -12.6687 66.3386 -9.66594 65.0702 -6.64131C64.5526 -5.40959 63.3498 -4.57144 61.9866 -4.70263C60.3755 -4.85568 59.5737 -6.29877 59.2893 -7.74914C58.9759 -9.36713 59.231 -11.0434 59.9746 -12.5084C59.4643 -13.2226 58.9467 -13.9369 58.4146 -14.6438C57.8168 -15.4382 57.2117 -16.2327 56.5994 -17.0125C56.2932 -17.4061 55.987 -17.7923 55.6736 -18.1859C55.5205 -18.3754 55.3747 -18.5576 55.2216 -18.7471C55.105 -18.8929 55.0102 -19.0532 54.9154 -19.2063C53.8438 -19.7237 52.7649 -20.2412 51.6933 -20.7587C48.9305 -22.0997 46.1749 -23.4335 43.4121 -24.7745C42.0562 -25.4377 40.693 -26.0937 39.337 -26.7569C37.9811 -27.4128 36.6033 -28.0469 35.2693 -28.7466C34.9631 -28.907 34.6642 -29.0746 34.3581 -29.2349C35.4078 -26.4289 36.5377 -23.6448 37.7697 -20.9117C39.9785 -16.0213 42.53 -11.3277 45.3001 -6.75793C48.5368 -4.50585 51.8829 -2.39954 55.3455 -0.511879C55.4622 -0.606628 55.6371 -0.621216 55.7829 -0.548332C57.8314 -1.05122 60.1131 -1.26988 62.1397 -0.621223C64.1371 0.0128555 65.821 1.52882 66.1345 3.67157C66.3022 4.82311 66.1637 6.03297 65.9887 7.17722C65.8429 8.08097 65.5367 9.1086 64.5891 9.45116C63.5976 9.80828 62.5844 9.19608 61.7971 8.64217C60.864 7.98622 59.9965 7.23553 59.2164 6.41196C57.5106 4.62634 56.2203 2.48359 55.3966 0.165924C55.1268 0.0201569 54.8498 -0.125618 54.5801 -0.271378C52.4587 -1.4375 50.3957 -2.69836 48.391 -4.05399C47.5235 -4.63705 46.6852 -5.24925 45.8469 -5.86876C48.0338 -2.31937 50.352 1.15712 52.7358 4.5826C53.4502 5.60296 54.1719 6.61604 54.8936 7.63639C54.9665 7.65826 55.0321 7.71656 55.0539 7.8186C55.0612 7.84045 55.0612 7.86232 55.0685 7.88419C56.891 10.4569 58.728 13.0224 60.5505 15.5952C62.8832 16.6228 65.1795 17.7233 67.5633 18.6271C69.3275 19.2903 71.1208 19.8734 72.9432 20.3763C73.0963 20.3325 73.2713 20.3763 73.366 20.4929C75.5238 19.2466 78.0242 18.1388 80.5611 18.7145C81.6036 18.955 82.6241 19.4798 83.3312 20.2888C84.1113 21.178 84.4247 22.3514 84.2935 23.5175C84.0165 25.8643 82.2596 27.9196 80.0581 28.7067C77.9295 29.4647 75.4801 28.94 73.8253 27.4021C72.9068 26.5567 72.309 25.3833 72.1122 24.1589C71.9518 23.1677 72.0101 21.9943 72.4548 21.0468C69.5899 20.2305 66.7906 19.2028 64.0788 17.9857C63.1092 17.5484 62.1615 17.082 61.243 16.5572C64.1079 20.6095 66.9364 24.6982 69.5826 28.9035C71.3832 31.7605 73.1109 34.6831 74.7001 37.664C74.7146 37.6713 74.7292 37.6713 74.7438 37.6859C76.7704 39.2674 78.6949 40.9656 80.6413 42.6346C81.7348 43.5748 82.821 44.515 83.9071 45.4552C83.9363 45.426 83.9655 45.3969 84.0165 45.375C85.3432 44.9158 86.8012 44.7992 88.2009 44.8138C89.6151 44.8357 91.0293 45.0324 92.3925 45.3969C93.6537 45.7394 94.9513 46.2058 95.9281 47.1023C96.9414 48.0352 97.3496 49.4127 97.2111 50.761C97.0653 52.1458 96.3801 53.4139 95.5417 54.5072C94.7253 55.5713 93.7193 56.5479 92.5019 57.1382C91.3428 57.6994 90.0087 57.8598 88.7986 57.3642C87.6177 56.8832 86.6992 55.943 85.9702 54.9153C84.1769 52.3717 83.3823 49.1722 83.6812 46.082C81.6983 44.3546 79.7155 42.6273 77.7326 40.8854C76.8724 40.1274 76.0268 39.3622 75.1885 38.5823C77.7764 43.5383 79.9706 48.6839 81.5452 54.0553C81.5744 54.0043 81.6473 53.9751 81.7056 54.0043C82.5658 54.4999 83.2657 55.2069 83.9655 55.9065C84.6799 56.6135 85.3724 57.3423 86.0139 58.1149C87.2386 59.5798 88.3029 61.1978 88.9736 62.9907C89.6151 64.6962 89.9359 66.5401 89.6807 68.3476C89.4547 69.9874 88.7403 71.5471 87.625 72.7788C86.5461 73.9741 85.0517 74.8196 83.4333 74.9726C81.8879 75.1184 80.3497 74.6738 79.0448 73.8429C77.7035 72.9829 76.6246 71.7366 75.9831 70.279C75.2468 68.6027 75.0354 66.7369 75.2177 64.9294C75.6113 61.1686 77.6525 57.8816 79.9633 54.9882C80.2476 54.6311 80.5465 54.274 80.8381 53.9241C80.8819 53.8731 80.9402 53.8439 81.0058 53.8294C78.5418 46.0601 74.8605 38.7062 70.6396 31.7387C70.5813 31.6512 70.523 31.5564 70.472 31.469C70.2678 33.5461 70.0492 35.6306 69.8305 37.7077C70.2897 38.1232 70.6469 38.6333 70.9895 39.1508C71.3832 39.7412 71.7404 40.3607 72.0538 41.002C72.6735 42.2702 73.1401 43.6185 73.4316 44.996C73.8909 47.1533 74.2335 50.2217 72.1997 51.7304C70.3845 53.0714 67.7674 52.5248 66.3167 50.9214C64.6619 49.092 64.3631 46.3808 64.8952 44.0558C65.4711 41.5341 67.0676 39.2747 69.2691 37.9191C69.2764 37.9191 69.2837 37.9191 69.2837 37.9118C69.5097 35.5067 69.743 33.1016 69.9908 30.6964C65.4784 23.3936 60.3755 16.4843 55.382 9.50948C55.5205 10.3695 55.6225 11.2368 55.7246 12.0895C55.8923 13.4961 56.0016 14.9101 56.0745 16.324C56.1401 17.6067 56.162 18.8967 56.1547 20.1868C56.1839 20.1868 56.213 20.2013 56.2349 20.2159C58.4291 21.7756 60.0912 24.2245 60.5213 26.9065C60.9223 29.4501 60.1714 32.0666 58.225 33.8085C56.6067 35.2589 54.1719 36.0023 52.0943 35.0985C51.0445 34.6394 50.2864 33.794 49.9583 32.6934C49.5647 31.3888 49.8344 29.9895 50.3593 28.765C50.9789 27.322 51.861 25.9809 52.7285 24.6763C53.6251 23.328 54.5874 22.0307 55.6007 20.7698C55.6007 18.0805 55.4695 15.3984 55.1852 12.7163C55.0321 11.2659 54.7696 9.83744 54.5947 8.38708C54.3104 7.98622 54.0261 7.59264 53.7418 7.19179C49.7615 1.58712 45.9198 -4.11229 42.5081 -10.0668C42.5081 -9.61493 42.479 -9.16306 42.479 -8.72576C42.4717 -7.88761 42.4644 -7.04218 42.4644 -6.20403C42.4571 -4.52044 42.4644 -2.83685 42.479 -1.16055C42.4935 0.851013 42.53 2.86257 42.581 4.87413C44.4545 6.58687 46.2624 8.53284 46.9987 11.0254C47.6183 13.1099 47.2757 15.6097 45.5553 17.0965C44.0244 18.423 41.7062 18.4084 40.0806 17.235C38.0249 15.7555 38.105 13.1609 38.5424 10.9161C38.8122 9.50947 39.2204 8.1247 39.7453 6.79824C40.1535 5.7706 40.7731 4.32022 41.976 4.05055C41.852 0.821854 41.7864 -2.41414 41.7791 -5.63554C41.7791 -6.55387 41.7791 -7.47946 41.7791 -8.39778C41.7791 -8.87881 41.7864 -9.35984 41.7937 -9.84087C41.801 -10.2927 41.801 -10.7446 41.8885 -11.1819C41.0647 -12.6541 40.2556 -14.1336 39.4974 -15.6423C38.7028 -12.1221 37.828 -8.62372 36.9897 -5.11806C36.1368 -1.55411 35.2766 2.00984 34.4237 5.5738C34.1612 6.68162 33.8915 7.78942 33.6218 8.89724C33.702 8.94097 33.7676 9.01385 33.7968 9.13047C34.6861 12.4612 35.8306 15.7045 37.1428 18.8822C39.1402 18.9259 41.0939 20.0483 42.3405 21.5715C43.7693 23.3061 44.4181 25.6748 44.0244 27.8904C43.8422 28.9327 43.3902 29.9749 42.5518 30.6527C41.7645 31.2941 40.7075 31.5783 39.7307 31.2358C37.8863 30.5871 37.0334 28.4152 36.5669 26.6879C35.9327 24.3119 35.9691 21.7829 36.6398 19.4215C36.5304 19.1737 36.4211 18.9259 36.3117 18.6781C35.4807 16.7321 34.7371 14.7424 34.081 12.7309C33.804 11.8854 33.5562 11.04 33.3156 10.1873C32.0618 15.3911 30.8079 20.5876 29.5322 25.7841C29.8311 26.615 30.0571 27.475 30.3195 28.3132C30.6767 29.4501 31.0412 30.5798 31.413 31.7095C31.916 33.2182 32.4481 34.705 32.9949 36.1991C33.024 36.2428 33.0459 36.2865 33.0459 36.3448C33.1188 36.5416 33.1917 36.7384 33.2646 36.9279C34.2779 37.2486 35.262 37.8243 36.1368 38.3855C37.1355 39.0269 38.0686 39.7995 38.8122 40.7324C40.066 42.3066 40.7294 44.4129 40.3066 46.4172C39.8546 48.5672 37.8135 50.4841 35.5244 49.6896C33.25 48.9025 32.1857 46.2423 31.7118 44.0777C31.1432 41.4903 31.3838 38.7208 32.3971 36.2792C32.419 36.2282 32.4481 36.1918 32.4773 36.1626C32.419 36.0096 32.3606 35.8565 32.3023 35.7108C31.4932 33.4951 30.735 31.2649 30.0425 29.0128C29.8019 28.2257 29.5395 27.4313 29.3208 26.6296C29.2843 26.7826 29.2479 26.9357 29.2114 27.0888C28.723 29.0857 28.2273 31.09 27.7316 33.087C27.5202 33.9397 27.3088 34.7997 27.0901 35.6525C27.1484 35.6379 27.214 35.6524 27.2651 35.7253C27.6806 36.3813 27.892 37.1757 28.0961 37.9191C28.3002 38.6552 28.4752 39.3986 28.621 40.142C28.8907 41.5122 29.1239 42.9261 29.0656 44.3255C29.0146 45.5426 28.6939 46.7598 27.9503 47.7437C27.2359 48.6766 26.2518 49.369 25.1291 49.7261C22.862 50.4476 20.4199 49.4637 19.1004 47.5323C17.7226 45.5207 18.0944 42.9334 19.3191 40.9437C20.0845 39.6974 21.1635 38.7062 22.3663 37.8972C23.0515 37.4381 23.7659 37.0372 24.5022 36.6728C25.151 36.3521 25.8071 36.0242 26.485 35.7691C26.6454 35.0913 26.8058 34.4207 26.9589 33.7429C27.3744 31.9354 27.7972 30.1279 28.22 28.3277C29.0657 24.7201 29.9186 21.1124 30.7715 17.5047C30.7715 17.5047 30.7715 17.5047 30.7715 17.4974C28.0888 18.6052 25.4353 19.764 22.7891 20.9447C22.7599 20.9885 22.7235 21.0176 22.6797 21.0395C22.6797 21.0613 22.6724 21.0832 22.6651 21.0978C22.2496 22.0161 21.5498 22.8105 20.8281 23.5029C20.0846 24.2172 19.2389 24.8294 18.335 25.3323C16.7531 26.1996 14.7338 26.9138 12.9186 26.4692C12.1095 26.2725 11.3659 25.7623 10.9941 25.0043C10.6078 24.2317 10.615 23.3134 10.8775 22.5044C11.5409 20.4856 13.633 19.5891 15.6086 19.3632C17.9778 19.0935 20.4199 19.4506 22.6287 20.3325C22.6579 20.3471 22.6798 20.369 22.7089 20.3835C24.3418 19.6329 25.9893 18.8968 27.6441 18.1825C28.7376 17.7088 29.8384 17.2423 30.9464 16.7831C32.5939 9.84472 34.2633 2.91358 35.9254 -4.01756C36.8949 -8.06254 37.828 -12.1148 38.8559 -16.1452C38.8924 -16.2983 39.0017 -16.3711 39.1183 -16.393C38.8632 -16.9105 38.608 -17.4279 38.3602 -17.9454C36.5159 -21.8009 34.8756 -25.7511 33.3958 -29.7597C33.3521 -29.7815 33.301 -29.8107 33.2573 -29.8326C33.1261 -29.9054 33.1553 -30.0731 33.25 -30.1532C31.6535 -34.5189 30.2612 -38.9575 29.0219 -43.4397C28.7959 -44.2487 28.5699 -45.0577 28.3585 -45.874C27.5567 -48.9424 26.835 -52.0253 26.1643 -55.1301C24.8886 -51.1143 23.6201 -47.0984 22.5267 -43.017C21.7539 -40.1381 21.0541 -37.2447 20.4126 -34.3367C20.4636 -34.3002 20.5074 -34.2565 20.5292 -34.1836C21.3967 -31.6692 22.2715 -29.162 23.1317 -26.6476C23.3577 -26.5893 23.5764 -26.4435 23.7805 -26.3415C24.1085 -26.1666 24.4293 -25.9844 24.7501 -25.8021C25.377 -25.4523 25.9966 -25.0879 26.6236 -24.7308C26.7912 -24.636 26.9589 -24.534 27.1338 -24.4393C28.3002 -25.2701 29.8967 -25.3503 31.2161 -24.8474C32.6377 -24.3081 33.6874 -23.0618 34.0738 -21.6041C34.4164 -20.3141 34.2779 -18.492 33.0094 -17.7413C31.6171 -16.9178 29.9915 -18.0766 29.0511 -19.0605C28.4168 -19.731 27.892 -20.5182 27.5202 -21.3636C27.3452 -21.7717 27.1922 -22.1872 27.0828 -22.6172C26.9808 -23.0253 26.8641 -23.4772 26.9006 -23.8999C26.7183 -24.002 26.5434 -24.104 26.3611 -24.206C25.7342 -24.5631 25.1145 -24.9203 24.4876 -25.2847C24.1887 -25.4596 23.8826 -25.6345 23.5837 -25.8167C23.5108 -25.8604 23.4306 -25.9042 23.3504 -25.9552C23.8169 -24.5777 24.2835 -23.2075 24.7355 -21.8228C25.1146 -20.6566 25.4863 -19.4832 25.8508 -18.3098C25.8946 -18.1713 25.654 -18.0766 25.603 -18.2224C24.0429 -22.2892 22.6214 -26.3998 21.1853 -30.5104C20.85 -31.4651 20.5147 -32.4272 20.1793 -33.3819C19.9242 -32.1867 19.6763 -30.9987 19.4358 -29.7961C18.7942 -26.5383 18.2257 -23.2658 17.7372 -19.9861C18.7432 -17.9673 19.567 -15.8537 20.4418 -13.7765C21.0468 -12.3335 21.6519 -10.8831 22.2569 -9.43999C23.4525 -9.04643 24.6043 -8.48526 25.6832 -7.84389C26.7329 -7.2171 27.7316 -6.4664 28.5262 -5.5335C30.006 -3.80618 30.9464 -1.28444 29.9842 0.916611C29.1823 2.75326 27.2796 4.11616 25.2312 3.64971C23.19 3.18326 21.8997 1.17169 21.3238 -0.708679C20.4636 -3.5511 20.7917 -6.61945 21.1634 -9.51289C21.178 -9.65136 21.2582 -9.74612 21.353 -9.79714C20.4418 -12.0128 19.5305 -14.2284 18.6412 -16.4513C18.2913 -17.3259 17.934 -18.1932 17.6133 -19.0751C17.4821 -18.1859 17.3582 -17.2895 17.2415 -16.4003C16.651 -11.918 16.2064 -7.41388 15.9075 -2.89516C15.7835 -0.956482 15.6961 0.989479 15.6232 2.92815C15.6232 2.95731 15.6305 2.98648 15.6232 3.01563C16.5927 4.16718 17.4165 5.52278 17.9632 6.91483C18.4589 8.1757 18.7214 9.53863 18.5756 10.8942C18.3131 13.2994 16.6438 15.2307 14.3475 15.9596C12.1241 16.6665 9.74025 15.9304 8.26771 14.1375C7.56059 13.2775 7.07219 12.2353 6.9191 11.1274C6.75873 9.93946 7.00656 8.77336 7.53872 7.70927C8.99669 4.81583 12.1168 3.49666 15.0764 2.65122C15.1129 1.33205 15.1639 0.0201492 15.2222 -1.29903C15.3534 -4.03212 15.5503 -6.75794 15.8054 -9.48375C15.594 -9.27239 15.368 -9.07559 15.1712 -8.87881C14.7702 -8.47067 14.362 -8.05524 13.9538 -7.64709C13.1446 -6.82352 12.3354 -6.00723 11.5263 -5.18365C11.1618 -4.81196 10.79 -4.44756 10.4182 -4.07585C10.3963 -4.03212 10.3672 -4.00298 10.3307 -3.96653C10.841 -3.17211 10.9066 -2.1226 10.8119 -1.21157C10.7098 -0.249519 10.3963 0.69796 9.86418 1.50696C8.77071 3.17597 6.80245 4.11617 4.8269 4.08701C2.84406 4.05785 0.66441 2.93545 0.124962 0.902023C-0.414487 -1.15327 0.861238 -3.21584 2.63267 -4.18517C4.92168 -5.44604 7.68453 -5.13265 10.1266 -4.53502C10.462 -4.89214 10.7973 -5.24925 11.1326 -5.59909C11.9272 -6.42995 12.7291 -7.2681 13.5237 -8.09896C13.9246 -8.51439 14.3183 -8.92982 14.7192 -9.35254C15.0837 -9.73882 15.4482 -10.2198 15.8929 -10.5187C16.0314 -11.969 16.1845 -13.4194 16.3594 -14.8698C16.8916 -19.3739 17.5768 -23.8562 18.4152 -28.3166C18.9619 -31.2028 19.5743 -34.0743 20.2376 -36.9386C17.4019 -34.1108 14.6172 -31.2465 11.9418 -28.2729C11.9491 -28.2656 11.9637 -28.2583 11.971 -28.2437C12.299 -27.6752 12.3646 -26.9901 12.4521 -26.3488C12.5323 -25.7293 12.5906 -25.1025 12.5906 -24.4684C12.5906 -23.2075 12.4084 -21.9321 11.9491 -20.7514C11.1326 -18.6451 9.41223 -16.7283 7.12322 -16.2764C5.06748 -15.8682 2.70556 -16.6627 1.66311 -18.5649C0.496733 -20.7004 1.26219 -23.3387 2.84408 -25.0296C5.00188 -27.3254 8.23127 -27.9959 11.1982 -28.5425C11.3003 -28.5644 11.3878 -28.5352 11.4607 -28.4915C13.2904 -30.6561 15.1785 -32.7624 17.1322 -34.8177C18.1673 -35.911 19.2316 -36.9896 20.3178 -38.0246C20.3761 -38.0756 20.4345 -38.0974 20.4928 -38.112C20.7698 -39.2636 21.0541 -40.4078 21.3457 -41.5521C22.4756 -45.9469 23.7295 -50.3199 25.1875 -54.6199C25.3697 -55.152 25.5519 -55.684 25.7415 -56.2161C25.7633 -56.2817 25.8071 -56.3254 25.8508 -56.3618C24.5387 -62.6078 23.4598 -68.8976 22.5194 -75.2093C22.3444 -76.3972 22.1986 -77.5634 22.1184 -78.7586C22.0965 -79.0575 22.5777 -79.0866 22.636 -78.8024C23.1536 -76.3827 23.4525 -73.9192 23.8388 -71.4704C24.2325 -68.9705 24.6553 -66.4779 25.1073 -63.9854C25.9966 -59.1022 27.0026 -54.2409 28.1763 -49.4161C28.6501 -47.4628 29.1604 -45.5096 29.6999 -43.5709C32.6085 -42.7984 35.4807 -41.9238 38.3748 -41.1075C41.4292 -40.2402 44.4837 -39.3729 47.5454 -38.5274C49.9146 -37.8715 52.2911 -37.2374 54.6676 -36.5961C55.3455 -36.7418 56.0745 -36.7856 56.7452 -36.8657C57.6418 -36.975 58.5385 -37.0844 59.4351 -37.201C60.1714 -37.2885 60.9077 -37.3832 61.644 -37.4707C61.8116 -37.8715 62.1251 -38.1922 62.4167 -38.5129C62.7666 -38.8992 63.1165 -39.2708 63.481 -39.6425C64.1881 -40.3714 64.9171 -41.0711 65.668 -41.7562C66.7614 -42.7547 67.8914 -43.7094 69.0577 -44.6204C69.0067 -44.6933 68.9994 -44.7881 69.0286 -44.8755C68.4381 -46.4279 68.7953 -48.403 69.6919 -49.7514C70.6688 -51.2309 72.4329 -52.1929 74.2189 -52.0763C75.881 -51.967 77.3755 -50.8446 77.9514 -49.2849C78.2429 -48.4978 78.2867 -47.6378 78.017 -46.8361C77.6962 -45.8959 76.9891 -45.2472 76.0633 -44.8974C74.9917 -44.4965 73.8107 -44.3362 72.6735 -44.256C72.083 -44.2196 71.4925 -44.2123 70.9021 -44.2414C70.5303 -44.256 70.1366 -44.2706 69.7576 -44.3435C67.8185 -42.8494 65.9741 -41.246 64.21 -39.5405C63.8091 -39.1542 63.4227 -38.7607 63.029 -38.3671C62.752 -38.0974 62.4896 -37.784 62.1834 -37.5362C63.0655 -37.6456 63.9403 -37.7549 64.8223 -37.8569C68.3944 -38.2942 71.9591 -38.7242 75.5311 -39.1542L75.9904 -39.2125C77.3317 -41.3043 78.9792 -43.3887 81.4796 -44.0884C82.5804 -44.3945 83.7686 -44.3508 84.8184 -43.877C85.7879 -43.4397 86.5971 -42.7036 87.2094 -41.8436C88.354 -40.2548 89.3745 -37.8059 88.3904 -35.911C87.2605 -33.7318 84.2935 -33.965 82.2961 -34.5043C79.8467 -35.1749 77.5285 -36.6106 75.9394 -38.593C75.9321 -38.6003 75.9321 -38.6076 75.9321 -38.6076C74.2262 -38.4036 72.5204 -38.1995 70.8146 -37.9954C67.2426 -37.5654 63.6705 -37.1427 60.0985 -36.72C59.0998 -36.6034 58.1011 -36.4867 57.0951 -36.3701C56.716 -36.3264 56.3297 -36.2827 55.9506 -36.2462C59.282 -35.3571 62.6135 -34.4898 65.9522 -33.637C67.4904 -33.2435 69.0213 -32.8645 70.5594 -32.4782C71.4634 -32.8718 72.4257 -33.1706 73.3733 -33.4111C74.4012 -33.6735 75.4582 -33.8411 76.5225 -33.8265C78.3158 -33.8047 80.2695 -33.2435 81.5088 -31.8733C82.092 -31.2246 82.5148 -30.3865 82.5148 -29.4973C82.5148 -28.6081 82.0264 -27.8137 81.3193 -27.3108C79.679 -26.1447 77.5358 -26.684 75.8519 -27.4566C74.8605 -27.9157 73.9419 -28.5134 73.1036 -29.2203C72.6881 -29.5702 72.3017 -29.9637 71.9445 -30.3719C71.58 -30.7873 71.1791 -31.2319 70.975 -31.7494C70.9677 -31.7567 70.975 -31.7712 70.9677 -31.7785C70.749 -31.8296 70.5303 -31.8878 70.3116 -31.9461C70.246 -31.9316 70.1949 -31.9534 70.1512 -31.9899C69.0796 -32.2595 68.0153 -32.5219 66.9437 -32.7916C63.8674 -33.5714 60.7911 -34.3659 57.722 -35.1821C56.5484 -35.4882 55.382 -35.8016 54.2156 -36.115C54.1719 -36.115 54.1354 -36.115 54.0917 -36.1223C54.0407 -36.1296 54.0042 -36.1515 53.9823 -36.1806C49.0981 -37.4925 44.2212 -38.8335 39.3662 -40.2402C36.1805 -41.1658 32.9803 -42.0623 29.8238 -43.0972C31.0703 -38.6295 32.4773 -34.2055 34.081 -29.8617C36.6398 -28.7539 39.1329 -27.5222 41.6479 -26.3196C44.3962 -25.0004 47.1372 -23.6813 49.8854 -22.3621C53.1659 -20.7805 56.4536 -19.2063 59.734 -17.6247C61.746 -17.6612 63.758 -17.6612 65.7773 -17.6466C66.8635 -17.6393 67.9497 -17.632 69.0286 -17.6247H69.0359C69.0359 -17.632 69.0359 -17.632 69.0432 -17.6393C69.0796 -17.6976 69.1161 -17.7486 69.1525 -17.8069C69.1598 -17.8434 69.1817 -17.8725 69.2108 -17.8944C70.0346 -19.1261 71.2811 -20.059 72.7464 -20.3797C74.1606 -20.6931 75.6259 -20.3505 76.7412 -19.4176C77.8201 -18.5139 78.4762 -17.0563 78.0898 -15.6569C78.0461 -15.4893 77.9805 -15.3362 77.9076 -15.1832C77.7764 -14.4398 77.3098 -13.813 76.5881 -13.5214C75.9612 -13.2663 75.2978 -13.2809 74.6563 -13.434C74.0659 -13.4267 73.4754 -13.6162 72.9432 -13.8713C71.4634 -14.571 70.1804 -15.7443 69.4149 -17.1947C69.2837 -17.1947 69.1525 -17.1947 69.0213 -17.202L65.77 -17.2311C63.9621 -17.2457 62.1542 -17.2822 60.3464 -17.3405C62.2928 -16.4003 64.2391 -15.4674 66.1855 -14.5199C71.026 -12.1585 75.7571 -9.54935 79.6863 -5.81776C80.2258 -5.30758 80.7361 -4.77552 81.2464 -4.23619C81.8223 -5.05977 82.595 -5.77402 83.2875 -6.49556C83.9217 -7.1515 84.5559 -7.80016 85.1902 -8.44881C85.2047 -8.49982 85.2339 -8.54356 85.2995 -8.56542C85.4016 -8.66746 85.5036 -8.77678 85.6057 -8.87881C86.9543 -10.2636 88.3102 -11.6411 89.6588 -13.0185C89.6224 -13.0477 89.5932 -13.0841 89.5932 -13.1279C89.4839 -14.5199 89.6516 -15.9921 90.0452 -17.3332C90.4243 -18.6159 91.1533 -20.0517 92.3925 -20.6785C93.7411 -21.3563 95.1481 -20.4963 95.6584 -19.1844C96.1905 -17.8142 95.8115 -16.2764 94.9075 -15.1613C93.7411 -13.7255 91.9697 -13.0623 90.2201 -12.6469C88.9882 -11.3933 87.7562 -10.1324 86.5242 -8.87881C88.3248 -9.34526 90.14 -9.72425 91.9624 -10.1105C92.8153 -10.2927 93.6682 -10.4749 94.5212 -10.6571C94.5212 -10.6936 94.5357 -10.7373 94.5649 -10.7738C95.8479 -12.3189 97.4663 -13.5214 99.2742 -14.396C100.171 -14.826 101.104 -15.1759 102.066 -15.4309C102.89 -15.6496 103.838 -15.8682 104.61 -15.3727C106.068 -14.4398 105.879 -12.3043 105.091 -11.007C104.1 -9.38171 102.307 -8.63102 100.462 -8.47797C98.6107 -8.32491 96.3145 -8.53626 95.1408 -10.1543C93.158 -9.73882 91.1751 -9.31612 89.1923 -8.90797C88.128 -8.68932 87.0637 -8.49982 85.9848 -8.33219C85.336 -7.67625 84.6945 -7.0203 84.0457 -6.37164C83.2875 -5.60638 82.5439 -4.76095 81.691 -4.09772C81.7639 -4.05399 81.8295 -4.00297 81.9024 -3.95924C82.6752 -4.09772 83.4843 -4.105 84.2571 -4.14874C85.1173 -4.19975 85.9847 -4.24347 86.845 -4.29449C88.6091 -4.38195 90.3805 -4.47672 92.152 -4.56418C94.4191 -4.6735 96.679 -4.7901 98.9461 -4.89943C99.5439 -5.32214 100.105 -5.79588 100.696 -6.23317C101.272 -6.65588 101.847 -7.07861 102.438 -7.47218C103.568 -8.23016 104.756 -8.88611 106.061 -9.30154C108.328 -10.0231 110.945 -9.81899 112.695 -8.05523C113.504 -7.27539 113.985 -6.23317 114 -5.11806Z" fill="#58BE05"/>
</svg>
