<svg width="163" height="181" viewBox="0 0 163 181" fill="none" xmlns="http://www.w3.org/2000/svg">
<path d="M18.5427 146.104L16.4844 144.936C15.9196 145.84 15.2292 146.656 14.5515 147.271C13.9867 147.785 13.1332 147.773 12.5809 147.246L12.5182 147.183C11.9157 146.606 11.9283 145.627 12.5558 145.074C13.196 144.51 13.811 143.807 14.2879 142.953C14.9908 141.723 14.9908 140.606 14.1247 140.117C13.2964 139.652 12.3927 140.054 10.9367 141.347C8.84069 143.217 6.87016 144.183 4.76156 142.991C2.85378 141.912 2.12581 139.728 2.97929 137.155L0.920898 135.987L2.12581 133.866L4.03359 134.946C4.51054 134.18 4.98748 133.59 5.43932 133.138C5.99157 132.573 6.89526 132.573 7.46006 133.113C8.04997 133.678 8.04997 134.619 7.46006 135.184C7.02077 135.611 6.54382 136.163 6.11708 136.929C5.31381 138.334 5.66524 139.138 6.2677 139.477C6.98312 139.878 7.8617 139.376 9.60631 137.933C11.9785 135.874 13.7608 135.51 15.7062 136.615C17.6265 137.707 18.5051 140.004 17.5261 142.74L19.7351 143.995L18.5427 146.104Z" fill="#D5F4B5"/>
<path d="M117.434 179.1C122.617 172.122 126.784 172.059 126.784 172.059C126.784 172.059 128.679 159.797 127.161 154.588C125.655 149.379 118.839 153.948 118.839 153.948C118.839 153.948 127.876 136.226 124.174 134.243C117.27 130.54 106.389 149.329 106.389 149.329C106.389 149.329 108.936 141.058 104.054 141.083C96.6865 141.133 96.0464 160.098 96.0464 160.098C96.0464 160.098 94.5905 156.358 90.0469 158.504C85.152 160.813 83.8215 174.695 83.5454 185.426H109.338C113.053 183.167 116.066 180.945 117.434 179.1Z" fill="#ACE96B"/>
<path d="M107.293 147.823C107.293 147.823 107.594 138.397 102.712 138.422C95.344 138.472 96.0468 160.098 96.0468 160.098C96.0468 160.098 92.9718 153.973 88.4283 156.119C83.4455 158.466 82.843 173.816 83.0438 185.426H91.6163L124.174 134.242C117.271 130.54 107.293 147.823 107.293 147.823Z" fill="#D5F4B5"/>
<path d="M147.394 184.812C147.394 184.812 170.902 187.523 176.601 185.527C182.299 183.531 178.521 180.343 178.521 180.343C178.521 180.343 190.57 178.8 191.725 175.222C192.892 171.633 187.194 171.62 187.194 171.62C187.194 171.62 199.281 164.956 197.925 162.357C195.402 157.538 181.834 164.115 181.834 164.115C181.834 164.115 186.516 160.349 183.692 158.467C179.437 155.63 171.693 166.286 171.693 166.286C171.693 166.286 172.308 163.575 168.869 163.035C162.694 162.069 147.394 184.812 147.394 184.812Z" fill="url(#paint0_linear_2050_32332)"/>
<path d="M168.869 161.027C172.308 161.567 171.706 166.273 171.706 166.273C171.706 166.273 179.713 153.559 183.968 156.396C186.792 158.278 182.952 163.575 182.952 163.575C182.952 163.575 195.415 157.525 197.938 162.332L149.653 183.28C151.423 180.645 163.096 160.136 168.869 161.027Z" fill="#D5F4B5"/>
<path d="M147.244 185.163C147.244 185.163 168.631 170.277 171.719 163.738C174.794 157.199 168.907 157.738 168.907 157.738C168.907 157.738 177.706 146.153 175.622 142.15C173.539 138.146 168.731 143.003 168.731 143.003C168.731 143.003 173.187 127.063 169.836 126.059C163.598 124.176 157.486 144.359 157.486 144.359C157.486 144.359 155.151 133.188 151.172 134.029C145.173 135.284 151.16 151.789 151.16 151.789C151.16 151.789 149.39 146.417 146.039 148.902C140.014 153.345 147.244 185.163 147.244 185.163Z" fill="#ACE96B"/>
<path d="M140.177 149.128C143.955 147.346 144.708 143.581 144.708 143.581C144.708 143.581 144.733 134.242 150.732 133C154.711 132.171 157.498 139.665 157.498 139.665C157.498 139.665 163.572 124.151 169.823 126.034L147.181 184.899C146.39 181.159 135.684 151.262 140.177 149.128Z" fill="#D5F4B5"/>
<path d="M140.653 185.199H97.5149C96.1343 185.199 95.0298 184.082 95.0298 182.714C95.0298 181.334 96.1468 180.229 97.5149 180.229H140.653C142.034 180.229 143.138 181.346 143.138 182.714C143.138 184.082 142.034 185.199 140.653 185.199Z" fill="#FFEAB2"/>
<path d="M148.196 180.367H105.058C103.677 180.367 102.573 179.25 102.573 177.882C102.573 176.501 103.69 175.397 105.058 175.397H148.196C149.577 175.397 150.681 176.514 150.681 177.882C150.694 179.25 149.577 180.367 148.196 180.367Z" fill="#FFD464"/>
<path d="M142.16 175.786H99.0213C97.6406 175.786 96.5361 174.669 96.5361 173.301C96.5361 171.92 97.6532 170.816 99.0213 170.816H142.16C143.54 170.816 144.645 171.933 144.645 173.301C144.657 174.669 143.54 175.786 142.16 175.786Z" fill="#FFEAB2"/>
<path d="M137.126 170.828H93.9881C92.6074 170.828 91.5029 169.711 91.5029 168.343C91.5029 166.962 92.62 165.858 93.9881 165.858H137.126C138.507 165.858 139.612 166.975 139.612 168.343C139.624 169.711 138.507 170.828 137.126 170.828Z" fill="#FFD464"/>
<path d="M146.126 186.643C158.035 186.643 167.689 176.989 167.689 165.08C167.689 153.172 158.035 143.518 146.126 143.518C134.218 143.518 124.563 153.172 124.563 165.08C124.563 176.989 134.218 186.643 146.126 186.643Z" fill="#FFEAB2"/>
<path d="M162.645 172.478C166.725 163.353 162.636 152.648 153.511 148.567C144.386 144.487 133.681 148.577 129.6 157.702C125.52 166.827 129.61 177.532 138.735 181.612C147.86 185.692 158.565 181.603 162.645 172.478Z" fill="#FFD464"/>
<path d="M140.515 176.703L141.544 173.866C140.277 173.339 139.109 172.649 138.193 171.934C137.428 171.331 137.264 170.252 137.804 169.448L137.867 169.348C138.469 168.469 139.699 168.281 140.528 168.946C141.381 169.624 142.398 170.252 143.565 170.678C145.272 171.293 146.678 171.055 147.104 169.863C147.519 168.72 146.816 167.666 144.883 166.11C142.071 163.876 140.427 161.591 141.482 158.692C142.435 156.056 145.034 154.676 148.46 155.203L149.489 152.366L152.414 153.433L151.46 156.069C152.527 156.508 153.368 156.985 154.045 157.449C154.874 158.027 155.074 159.156 154.51 159.985C153.92 160.838 152.74 161.052 151.899 160.437C151.271 159.972 150.468 159.495 149.401 159.106C147.456 158.403 146.527 159.006 146.226 159.847C145.862 160.838 146.69 161.842 148.887 163.725C151.987 166.273 152.828 168.432 151.849 171.13C150.882 173.791 148.171 175.385 144.519 174.732L143.414 177.782L140.515 176.703Z" fill="#F7FDF0"/>
<path d="M68.3338 184.322C68.3338 184.322 34.8096 167.792 29.0486 159.182C23.2876 150.559 31.7597 150.07 31.7597 150.07C31.7597 150.07 16.7987 135.523 18.9073 129.398C21.0159 123.273 28.8603 129.122 28.8603 129.122C28.8603 129.122 19.1332 107.471 23.6767 105.325C32.1236 101.321 43.972 124.352 43.972 124.352C43.972 124.352 41.4241 114.349 47.2478 114.676C56.0211 115.165 55.6571 137.807 55.6571 137.807C55.6571 137.807 56.6486 129.122 61.9327 131.946C71.4088 137.004 68.3338 184.322 68.3338 184.322Z" fill="url(#paint1_linear_2050_32332)"/>
<path d="M63.8399 128.444C59.7105 126.147 55.5938 132.849 55.5938 132.849C55.5938 132.849 56.0079 115.165 47.2347 114.675C41.4235 114.349 43.9588 124.352 43.9588 124.352C43.9588 124.352 32.1105 101.321 23.6636 105.324L68.3583 183.957C68.6846 178.473 72.0107 132.987 63.8399 128.444Z" fill="#ACE96B"/>
<path d="M67.4668 184.534C67.4668 184.534 40.055 187.936 32.9511 184.911C25.8471 181.874 30.9429 178.133 30.9429 178.133C30.9429 178.133 15.7057 175.134 14.5259 170.465C13.3461 165.795 20.6258 166.247 20.6258 166.247C20.6258 166.247 5.76521 156.696 7.72319 153.508C11.363 147.571 28.1189 157.123 28.1189 157.123C28.1189 157.123 22.4583 151.914 26.2236 149.755C31.8968 146.492 40.8709 160.762 40.8709 160.762C40.8709 160.762 40.3186 157.248 44.7617 156.859C52.7192 156.156 67.4668 184.534 67.4668 184.534Z" fill="#D5F4B5"/>
<path d="M44.9252 154.299C40.4821 154.688 40.8586 160.763 40.8586 160.763C40.8586 160.763 31.7213 143.856 26.0482 147.107C22.2829 149.266 26.7385 156.37 26.7385 156.37C26.7385 156.37 11.3508 147.571 7.71094 153.508L67.5424 184.384C65.5091 180.832 52.368 153.646 44.9252 154.299Z" fill="#ACE96B"/>
<path d="M144.908 51.9067L143.929 54.3417L139.837 53.1995L137.967 56.5883L134.766 56.2369L134.578 57.856L138.871 58.3204L140.64 55.1198L144.895 56.2997L146.364 52.6347L144.908 51.9067Z" fill="#FFEAB2"/>
<path d="M151.541 120.72L152.272 118.892C151.468 118.524 150.718 118.037 150.143 117.55C149.658 117.146 149.576 116.43 149.951 115.924L149.996 115.86C150.408 115.3 151.212 115.199 151.733 115.658C152.263 116.126 152.912 116.558 153.661 116.861C154.749 117.302 155.672 117.183 155.973 116.411C156.266 115.676 155.836 114.969 154.612 113.913C152.839 112.388 151.833 110.863 152.583 108.998C153.259 107.308 154.977 106.463 157.189 106.885L157.92 105.057L159.794 105.82L159.117 107.51C159.803 107.822 160.333 108.153 160.762 108.474C161.283 108.869 161.393 109.613 161 110.137C160.598 110.679 159.83 110.789 159.3 110.367C158.907 110.054 158.386 109.724 157.719 109.448C156.476 108.943 155.855 109.32 155.644 109.862C155.388 110.495 155.9 111.175 157.28 112.443C159.236 114.17 159.73 115.603 159.035 117.33C158.35 119.039 156.558 120.012 154.2 119.507L153.414 121.473L151.541 120.72Z" fill="#D5F4B5"/>
<path d="M93.2763 20.2201L93.9663 18.5036C93.2073 18.1586 92.5 17.7014 91.9565 17.2443C91.4994 16.8648 91.4217 16.192 91.7754 15.7175L91.8185 15.6572C92.2067 15.131 92.9657 15.0361 93.4574 15.4674C93.9577 15.9073 94.5701 16.3127 95.2774 16.5974C96.3039 17.0114 97.175 16.8993 97.4597 16.1747C97.7357 15.4847 97.3303 14.8205 96.1745 13.8285C94.5011 12.3967 93.5523 10.9648 94.2596 9.21383C94.8979 7.62671 96.5195 6.83315 98.6069 7.22993L99.297 5.51343L101.065 6.22935L100.427 7.81647C101.074 8.10974 101.574 8.42026 101.98 8.72216C102.471 9.09306 102.575 9.79174 102.204 10.2834C101.824 10.7923 101.1 10.8958 100.599 10.499C100.229 10.2058 99.7369 9.89524 99.1072 9.63647C97.9341 9.16206 97.3476 9.51572 97.1492 10.0246C96.9077 10.6198 97.3907 11.2581 98.6932 12.4484C100.539 14.0701 101.005 15.4157 100.349 17.0373C99.7024 18.6416 98.0117 19.556 95.7863 19.0815L95.0445 20.9274L93.2763 20.2201Z" fill="#ACE96B"/>
<path d="M104.18 185.175H53.5108C51.49 185.175 49.8584 183.544 49.8584 181.523C49.8584 179.502 51.49 177.871 53.5108 177.871H104.18C106.201 177.871 107.832 179.502 107.832 181.523C107.832 183.544 106.201 185.175 104.18 185.175Z" fill="#FFEAB2"/>
<path d="M111.797 177.946H64.0904C62.0696 177.946 60.438 176.314 60.438 174.293C60.438 172.273 62.0696 170.641 64.0904 170.641H111.797C113.818 170.641 115.45 172.273 115.45 174.293C115.45 176.302 113.818 177.946 111.797 177.946Z" fill="#FFD464"/>
<path d="M104.995 170.628H59.371C57.4005 170.628 55.7939 169.034 55.7939 167.051V166.888C55.7939 164.918 57.3879 163.311 59.371 163.311H105.007C106.978 163.311 108.584 164.905 108.584 166.888V167.051C108.572 169.022 106.978 170.628 104.995 170.628Z" fill="#FFEAB2"/>
<path d="M104.958 163.336H59.1081C57.1752 163.336 55.5938 161.767 55.5938 159.822V159.533C55.5938 157.6 57.1626 156.019 59.1081 156.019H104.958C106.89 156.019 108.472 157.588 108.472 159.533V159.822C108.459 161.767 106.89 163.336 104.958 163.336Z" fill="#FFD464"/>
<path d="M106.463 156.458H60.1998C58.179 156.458 56.5474 154.826 56.5474 152.806C56.5474 150.785 58.179 149.153 60.1998 149.153H106.463C108.484 149.153 110.116 150.785 110.116 152.806C110.116 154.814 108.484 156.458 106.463 156.458Z" fill="#FFEAB2"/>
<path d="M104.468 149.229H58.2042C56.1834 149.229 54.5518 147.597 54.5518 145.576C54.5518 143.555 56.1834 141.924 58.2042 141.924H104.468C106.489 141.924 108.12 143.555 108.12 145.576C108.12 147.597 106.489 149.229 104.468 149.229Z" fill="#FFD464"/>
<path d="M106.79 135.108H62.4721C60.489 135.108 58.895 133.502 58.895 131.531V131.381C58.895 129.398 60.5016 127.804 62.4721 127.804H106.79C108.773 127.804 110.367 129.41 110.367 131.381V131.531C110.367 133.502 108.761 135.108 106.79 135.108Z" fill="#FFD464"/>
<path d="M110.756 142.137H68.1828C66.2374 142.137 64.6685 140.568 64.6685 138.623V138.347C64.6685 136.401 66.2374 134.833 68.1828 134.833H110.756C112.702 134.833 114.271 136.401 114.271 138.347V138.623C114.271 140.568 112.702 142.137 110.756 142.137Z" fill="#FFEAB2"/>
<path d="M46.9459 186.23C58.7993 186.23 68.4084 176.621 68.4084 164.767C68.4084 152.914 58.7993 143.305 46.9459 143.305C35.0925 143.305 25.4834 152.914 25.4834 164.767C25.4834 176.621 35.0925 186.23 46.9459 186.23Z" fill="#FFD464"/>
<path d="M59.1574 151.525C66.4748 158.265 66.9266 169.662 60.1866 176.979C53.4467 184.297 42.0502 184.748 34.7328 178.008C27.4155 171.268 26.9637 159.872 33.7036 152.555C40.4436 145.237 51.8401 144.785 59.1574 151.525Z" fill="#FFEAB2"/>
<path d="M58.7572 170.39C59.1713 170.93 59.1462 171.695 58.6819 172.21C57.7907 173.214 56.3348 174.419 54.5023 175.322C51.8289 176.64 48.7413 177.042 45.842 176.05C44.0221 175.435 42.3026 174.168 40.9973 172.436L39.4158 173.214C38.8761 173.477 38.2234 173.251 37.9599 172.712L37.9348 172.674C37.6712 172.134 37.8971 171.482 38.4368 171.218L39.7421 170.578C39.4786 170.151 39.3028 169.888 39.1773 169.649C38.9765 169.248 38.7757 168.733 38.6 168.168L37.257 168.821C36.7173 169.084 36.0646 168.859 35.8011 168.319C35.5375 167.779 35.7634 167.126 36.3031 166.863L37.9222 166.06C37.4578 163.976 37.5331 161.868 38.1481 160.06C39.2024 156.973 41.5244 154.626 44.3233 153.245C45.955 152.442 47.3356 152.115 48.4527 152.002C49.2308 151.914 49.9462 152.467 50.0592 153.245V153.27C50.1722 154.073 49.6074 154.826 48.8041 154.927C47.8878 155.052 46.8084 155.341 45.591 155.943C43.8087 156.822 42.3026 158.265 41.5495 160.349C41.1353 161.554 41.0224 162.972 41.4365 164.328L50.5738 159.847C51.1135 159.583 51.7662 159.809 52.0297 160.349C52.2933 160.889 52.0674 161.541 51.5277 161.805L41.9888 166.486C42.1645 166.951 42.3402 167.415 42.4908 167.704C42.6666 168.068 42.8548 168.432 43.1309 168.896L52.6949 164.202C53.2472 163.939 53.9124 164.164 54.176 164.704C54.4396 165.256 54.2136 165.922 53.6739 166.185L44.5241 170.678C45.3902 171.72 46.457 172.448 47.5364 172.825C49.6952 173.528 51.603 173.302 53.6237 172.298C54.8663 171.695 55.8704 170.93 56.6109 170.202C57.2385 169.637 58.2426 169.712 58.7572 170.39Z" fill="#F7FDF0"/>
<path d="M58.7568 107.17C59.0454 107.634 58.9576 108.224 58.5559 108.601C57.7778 109.329 56.5352 110.17 55.0165 110.735C52.7949 111.563 50.3349 111.651 48.1259 110.634C46.7453 110.007 45.4776 108.877 44.5739 107.408L43.2686 107.898C42.8293 108.061 42.3273 107.835 42.1641 107.396L42.1516 107.358C41.9884 106.919 42.2143 106.417 42.6536 106.254L43.733 105.852C43.5573 105.501 43.4443 105.275 43.369 105.074C43.2435 104.735 43.1305 104.321 43.0301 103.856L41.9256 104.271C41.4863 104.434 40.9843 104.208 40.8211 103.769C40.658 103.329 40.8839 102.827 41.3232 102.664L42.6662 102.162C42.4528 100.48 42.6787 98.8234 43.3063 97.4427C44.3731 95.0831 46.3939 93.4138 48.7033 92.5478C50.0588 92.0457 51.1633 91.8951 52.067 91.8826C52.6945 91.87 53.2091 92.3595 53.2342 92.987V93.0122C53.2593 93.6648 52.7573 94.2045 52.1172 94.2296C51.3767 94.2547 50.5106 94.4053 49.5065 94.7819C48.0255 95.3341 46.7327 96.3633 45.9797 97.9448C45.5655 98.8736 45.3647 99.9781 45.5906 101.083L53.1464 98.246C53.5857 98.0829 54.0877 98.3088 54.2509 98.7481C54.4141 99.1874 54.1881 99.6894 53.7488 99.8526L45.8541 102.815C45.9546 103.191 46.0675 103.58 46.1554 103.819C46.2683 104.12 46.3813 104.421 46.5696 104.81L54.4768 101.836C54.9286 101.66 55.4432 101.898 55.6064 102.35C55.7821 102.802 55.5436 103.317 55.0918 103.48L47.5235 106.316C48.1259 107.208 48.9041 107.86 49.745 108.237C51.3892 108.952 52.9205 108.927 54.5898 108.3C55.619 107.91 56.4599 107.383 57.1125 106.881C57.6146 106.455 58.3928 106.593 58.7568 107.17Z" fill="#ACE96B"/>
<path d="M145.83 15.2876C146.118 15.7519 146.03 16.3419 145.629 16.7184C144.851 17.4464 143.608 18.2873 142.089 18.8521C139.868 19.6805 137.408 19.7683 135.199 18.7517C133.818 18.1241 132.55 16.9945 131.647 15.526L130.341 16.0155C129.902 16.1787 129.4 15.9528 129.237 15.5135L129.224 15.4758C129.061 15.0365 129.287 14.5345 129.726 14.3713L130.806 13.9697C130.63 13.6182 130.517 13.3923 130.442 13.1915C130.316 12.8526 130.203 12.4384 130.103 11.9741L128.998 12.3883C128.559 12.5514 128.057 12.3255 127.894 11.8862C127.731 11.4469 127.957 10.9449 128.396 10.7817L129.739 10.2796C129.526 8.59779 129.751 6.94104 130.379 5.56041C131.446 3.20079 133.467 1.53148 135.776 0.665454C137.132 0.163407 138.236 0.0127872 139.14 0.000236047C139.767 -0.0123151 140.282 0.477187 140.307 1.10475V1.12984C140.332 1.7825 139.83 2.32221 139.19 2.34731C138.449 2.37242 137.583 2.52302 136.579 2.89955C135.098 3.4518 133.805 4.48101 133.052 6.06246C132.638 6.99124 132.437 8.09575 132.663 9.20025L140.219 6.36369C140.658 6.20052 141.16 6.42644 141.324 6.86574C141.487 7.30503 141.261 7.80706 140.822 7.97023L132.927 10.9323C133.027 11.3088 133.14 11.6979 133.228 11.9364C133.341 12.2376 133.454 12.5389 133.642 12.928L141.55 9.95332C142.001 9.7776 142.516 10.0161 142.679 10.4679C142.855 10.9198 142.616 11.4344 142.165 11.5975L134.596 14.4341C135.199 15.3252 135.977 15.9779 136.818 16.3544C138.462 17.0698 139.993 17.0447 141.663 16.4172C142.692 16.0281 143.533 15.5009 144.185 14.9989C144.7 14.5722 145.478 14.7102 145.83 15.2876Z" fill="#ACE96B"/>
<path d="M80.4957 32.9043L77.998 33.1554L77.1571 29.1892L73.467 29.1139L72.3374 26.2522L70.894 26.817L72.3876 30.6451L75.8894 30.7204L76.768 34.8498L80.5208 34.4607L80.4957 32.9043Z" fill="#FFEAB2"/>
<path d="M131.692 92.3094L134.352 93.188C134.352 93.188 138.582 91.8199 138.996 90.9539C139.411 90.0878 139.536 88.0043 140.126 87.9416C140.728 87.8788 141.896 88.0797 142.172 89.5105C142.373 90.5522 140.854 93.552 141.092 93.8657C141.243 94.0666 142.762 94.6188 143.879 94.9953C144.607 95.2464 145.146 95.899 145.259 96.6772C145.335 97.2044 145.033 97.719 144.544 97.9072L143.778 98.2085L144.029 98.9992C144.218 99.5891 143.891 100.217 143.301 100.417L142.711 100.618L142.9 101.095C143.138 101.71 142.799 102.426 142.159 102.601L141.645 102.752L141.67 102.89C141.758 103.467 141.394 104.02 140.841 104.17L140.327 104.308L133.223 101.961C132.558 101.748 131.943 101.384 131.428 100.92L129.068 99.6769C128.817 99.5389 128.704 99.2376 128.792 98.9615L130.976 92.6608C131.064 92.3847 131.39 92.2215 131.692 92.3094Z" fill="#FFEAB2"/>
<path opacity="0.6" d="M46.2181 83.724C46.1804 83.6236 45.352 82.1928 44.2726 80.649C39.2647 73.4321 31.8218 66.4662 23.1113 66.7297V66.6795C27.0524 66.2528 30.9182 67.2946 34.307 69.1647C39.9048 72.1769 45.352 77.9254 48.3266 82.3434L46.2181 83.724Z" fill="#E7EAEB"/>
<path d="M103.553 74.7129C103.553 74.7129 103.804 74.1983 103.792 73.006C103.766 71.5249 103.478 69.3034 103.415 69.1026C103.302 68.7512 108.084 67.245 108.084 67.245C108.084 67.245 115.753 66.8559 116.882 66.0024C118.025 65.1489 118.979 64.7975 118.451 65.6761C117.485 67.2827 115.238 69.6297 114.749 69.956C114.247 70.2824 108.297 71.776 108.197 71.776C108.097 71.776 108.122 75.5162 108.122 75.5162L103.553 74.7129Z" fill="#F7B691"/>
<path d="M108.522 73.1193C108.522 73.1193 103.564 72.2783 103.464 72.7678C101.455 83.7501 101.117 87.3774 100.903 87.4903C100.15 87.8794 89.3435 78.4033 87.5613 77.7757C86.7078 77.4745 85.779 77.5247 84.8879 77.5498C82.7667 77.6126 83.4821 77.5624 82.3651 77.6126C82.3023 77.6126 82.2646 77.6251 82.2646 77.6251L82.2772 79.6207C84.6745 81.767 90.1468 114.362 90.6112 114.35C91.1258 114.325 101.945 117.048 101.757 116.132C101.732 115.981 94.4142 110.007 92.3433 101.372C91.6529 98.4726 91.3015 95.3599 90.925 92.6238C93.3348 93.8287 102.723 98.4475 104.204 97.845C108.848 95.9624 108.522 73.1193 108.522 73.1193Z" fill="#2A3037"/>
<path d="M127.161 130.993C127.161 130.993 137.227 138.875 137.566 140.281C138.055 142.289 147.268 139.653 145.046 139.239C144.531 139.139 142.9 138.724 142.762 138.662C142.046 138.273 133.085 127.479 133.085 127.479L127.161 130.993Z" fill="#F7B691"/>
<path d="M149.376 139.226L142.95 138.699C142.95 138.699 141.117 140.217 137.578 140.293C137.578 140.293 137.013 141.912 137.277 143.794C137.327 144.121 137.377 145.1 137.703 145.075C138.896 144.999 142.059 144.209 145.661 143.481C145.661 143.481 150.506 142.451 153.304 140.782C156.116 139.125 149.376 139.226 149.376 139.226Z" fill="#2A3037"/>
<path d="M82.0515 111.199C82.0515 111.199 89.419 112.442 97.5773 110.534C107.016 108.325 117.446 106.292 120.508 108.061C122.968 109.492 138.331 132.712 138.331 132.712L132.394 137.042L115.475 118.09C115.475 118.09 93.8872 126.06 89.0425 125.169C77.9974 123.173 77.8468 114.35 82.0515 111.199Z" fill="#7F8387"/>
<path d="M90.1091 106.518L97.4892 115.291L83.7959 119.458L82.0513 111.199L90.1091 106.518Z" fill="#2A3037"/>
<path d="M105.108 146.569C105.108 146.569 104.656 158.743 104.38 160.814C104.104 162.873 109.551 169.048 108.848 166.902C108.685 166.412 108.271 164.768 108.271 164.617C108.271 163.802 110.291 149.907 110.291 149.907L105.108 146.569Z" fill="#F7B691"/>
<path d="M110.906 170.704L108.308 164.793C108.308 164.793 106.099 163.902 104.355 160.827C104.355 160.827 102.673 161.09 101.129 162.232C100.865 162.433 99.058 163.739 99.1835 164.052C99.6479 165.169 102.095 167.567 104.781 170.177C104.781 170.177 108.584 173.24 111.383 174.909C114.195 176.578 110.906 170.704 110.906 170.704Z" fill="#2A3037"/>
<path d="M117.056 122.558C114.483 119.119 93.6733 115.856 93.6733 115.856L87.8747 104.698L75.0474 112.605C75.0474 112.605 76.3276 122.809 77.294 125.545C78.5742 129.185 87.1969 129.361 92.4684 129.311C97.3131 129.26 106.162 130.252 106.162 130.252L103.162 156.66C103.162 156.66 109.048 158.003 110.705 157.777C110.881 157.764 120.257 126.838 117.056 122.558Z" fill="#A2A2A2"/>
<path d="M82.3525 77.6504L75.1105 78.052C75.1105 78.052 74.9473 78.1148 74.8971 78.1148C74.3072 78.2277 74.8469 99.3137 75.3741 107.196C75.9012 115.078 76.9681 118.379 76.9681 118.379C76.9681 118.379 86.7831 116.634 89.7954 115.467C91.0505 114.978 94.0753 111.2 94.0753 111.2C94.0753 111.2 90.9877 107.045 89.4314 100.293C88.2265 95.084 86.7454 85.8589 85.9045 83.926C83.934 79.508 82.3525 77.6504 82.3525 77.6504Z" fill="#F7FDF0"/>
<path d="M75.3117 71.6631L75.1108 78.0516C75.1108 78.0516 79.7924 86.122 82.2023 85.005C84.223 84.0637 82.4282 77.9136 82.4282 77.9136C82.4282 77.9136 82.0768 76.5078 81.5998 74.8887C81.2609 73.7591 80.9848 72.5291 80.9974 71.638C81.0476 69.4541 75.3117 71.6631 75.3117 71.6631Z" fill="#F7B691"/>
<path d="M80.9096 57.0918C80.9096 57.0918 83.2944 60.694 83.4701 63.7188C83.6458 66.7437 83.0057 68.8146 83.0057 68.8146L75.3369 59.6523L80.9096 57.0918Z" fill="#031322"/>
<path d="M84.2742 63.091C84.3871 64.1579 83.9729 65.0615 83.3579 65.1243C82.7429 65.187 82.153 64.3838 82.0401 63.3169C81.9271 62.2501 82.3413 61.3464 82.9563 61.2837C83.5839 61.2209 84.1612 62.0367 84.2742 63.091Z" fill="#F7B691"/>
<path d="M72.878 61.1204C72.7022 61.0828 72.7148 69.9062 75.2752 71.9771C77.8357 74.0481 82.2788 74.2363 83.5841 72.1403C85.015 69.8309 83.6594 60.5305 79.8564 58.56C76.0409 56.5895 72.878 61.1204 72.878 61.1204Z" fill="#F7B691"/>
<path d="M72.2243 55.6479C70.2789 57.3549 69.325 58.61 68.0071 61.6474C66.388 65.3877 69.6012 69.2661 72.2997 70.7973C74.9982 72.3411 75.2241 74.2238 75.2241 74.2238L75.337 73.044C75.45 72.1277 75.1739 71.6131 74.9228 71.0609C74.6969 70.5714 73.9564 68.8895 73.6677 68.4377C72.9021 67.2704 72.764 67.0068 73.128 65.9023C73.4167 65.0488 73.0778 63.1536 73.5297 61.7353L77.1695 60.9571C77.1695 60.9571 79.4413 60.4049 80.596 59.087C83.8969 55.2965 77.3703 51.0542 72.2243 55.6479Z" fill="#031322"/>
<path d="M74.0077 66.8811C74.4595 67.8476 74.3591 68.8392 73.7943 69.1027C73.2295 69.3663 72.4137 68.7889 71.9618 67.8225C71.51 66.856 71.6104 65.8645 72.1752 65.6009C72.74 65.3374 73.5558 65.9147 74.0077 66.8811Z" fill="#F7B691"/>
<path opacity="0.6" d="M25.0447 70.044L24.4548 65.9774L27.4671 63.191C27.8059 62.8773 27.6428 62.2999 27.1784 62.2246L23.1369 61.5343L21.4174 57.8066C21.2166 57.3798 20.6267 57.3673 20.4007 57.7815L18.493 61.4088L14.4138 61.8983C13.9494 61.9485 13.7486 62.5133 14.075 62.8522L16.9366 65.7891L16.1334 69.8181C16.0455 70.2825 16.5224 70.6464 16.9366 70.4331L20.6141 68.6131L24.1912 70.6213C24.6179 70.8472 25.1074 70.5084 25.0447 70.044Z" fill="#E7EAEB"/>
<path d="M49.2295 42.5565C49.6437 44.2509 50.3842 46.9369 50.3842 46.9369C50.3214 47.6774 50.108 50.7399 49.8445 54.5052L55.3795 52.2962C55.3795 52.2962 55.3168 46.1712 55.5553 45.7947C55.7686 45.4809 56.1201 45.87 57.8145 43.4476C58.304 42.7448 58.3918 41.5022 58.3918 41.5022C58.3918 41.5022 58.4922 39.9584 58.1408 39.8204C57.7894 39.6823 57.4003 39.9082 57.2748 40.1718C57.1493 40.4354 57.1869 41.0629 57.0614 41.3265C56.9359 41.5901 56.1326 41.9164 55.7937 41.8913C55.4548 41.8787 55.8314 37.3352 55.8314 37.3352C55.8314 37.3352 56.0196 36.0424 56.1201 35.6283C56.1954 35.2643 56.5342 34.2225 56.5342 34.2225C56.5342 34.2225 56.9233 32.6913 56.4464 32.5784C56.1703 32.5156 55.4548 33.7456 54.9653 35.0635C54.4382 36.4817 54.137 37.9879 53.9864 37.9628C53.6349 37.9126 53.8232 35.4275 53.8232 35.4275C53.8232 35.4275 54.1746 34.2853 54.1621 33.7456C54.4884 33.0929 54.7143 31.8629 54.1244 31.7625C54.0115 31.75 53.2458 33.2938 53.2458 33.2938C53.2458 33.2938 52.9446 34.3857 52.7689 34.9003C52.4551 35.804 52.4049 37.2223 52.2417 37.8498C52.1037 38.377 51.9782 38.151 51.928 38.1761C51.8903 38.1887 51.9656 37.4733 52.0409 36.4817C52.0786 35.9797 52.0284 35.4024 52.1664 34.8376C52.2919 34.3104 52.3673 33.5573 52.4049 33.1055C52.5053 31.8127 51.6895 31.9508 51.4134 33.1306C51.3004 33.5824 51.2 34.0719 51.087 34.5614C50.6477 36.4943 50.6603 38.3519 50.4595 38.3644C50.1834 38.3895 50.3716 35.0007 50.3716 35.0007C50.3716 35.0007 49.9574 33.1306 49.5432 34.8627C49.0663 36.8834 49.1165 38.5276 49.1165 38.6029C49.1667 39.0924 48.8153 40.8621 49.2295 42.5565Z" fill="#F7B691"/>
<path d="M75.0994 78.064C75.0994 78.064 67.9327 77.7251 66.0751 76.8842C64.9581 76.3821 55.733 68.9393 55.733 68.9393L55.8334 49.0457L49.3444 48.5562C49.3444 48.5562 45.9807 70.5458 47.148 72.9557C48.3529 75.4408 61.8454 85.67 64.5439 90.1131C66.1003 92.6736 69.3385 127.465 69.8279 127.779C73.3172 129.599 84.1112 131.407 83.8476 130.315C76.8566 99.8403 75.0994 78.064 75.0994 78.064Z" fill="#2A3037"/>
<path d="M122.385 63.0909C130.806 54.6701 130.806 41.0174 122.385 32.5966C113.965 24.1758 100.312 24.1758 91.8912 32.5966C83.4704 41.0174 83.4704 54.6701 91.8912 63.0909C100.312 71.5117 113.965 71.5117 122.385 63.0909Z" fill="#FFEAB2"/>
<path d="M119.936 60.6414C127.004 53.5735 127.004 42.114 119.936 35.0461C112.868 27.9781 101.409 27.9781 94.3406 35.0461C87.2727 42.114 87.2727 53.5735 94.3406 60.6414C101.409 67.7094 112.868 67.7094 119.936 60.6414Z" fill="#FFD464"/>
<path d="M101.543 59.4633L102.572 56.6267C101.304 56.0996 100.137 55.4093 99.221 54.6938C98.4553 54.0914 98.2922 53.012 98.8319 52.2087L98.8946 52.1083C99.4971 51.2297 100.727 51.0414 101.555 51.7066C102.409 52.3844 103.426 53.012 104.593 53.4387C106.3 54.0537 107.706 53.8278 108.132 52.6229C108.546 51.4807 107.844 50.4264 105.911 48.8701C103.099 46.6359 101.455 44.3516 102.509 41.4523C103.463 38.8165 106.061 37.4359 109.488 37.9631L110.517 35.1265L113.441 36.1933L112.488 38.8291C113.554 39.2684 114.395 39.7453 115.073 40.2097C115.901 40.7871 116.102 41.9167 115.537 42.7451C114.948 43.5986 113.768 43.8119 112.927 43.1969C112.299 42.7325 111.496 42.2556 110.429 41.8665C108.484 41.1636 107.555 41.7661 107.254 42.607C106.902 43.5986 107.718 44.6026 109.915 46.4853C113.015 49.0332 113.856 51.192 112.877 53.8905C111.91 56.5514 109.199 58.1454 105.547 57.4928L104.442 60.5427L101.543 59.4633Z" fill="#F7FDF0"/>
<path d="M106.589 69.5293C106.589 69.5293 108.584 68.6758 109.124 68.5001C109.664 68.3243 111.371 67.998 111.371 67.998C111.371 67.998 114.032 65.2744 114.709 65.1991C115.387 65.1238 113.153 68.1737 113.153 68.1737L112.224 69.0649C112.224 69.0649 113.718 67.7846 114.007 67.6089C114.295 67.4332 116.542 64.1824 117.107 64.3958C117.672 64.6092 116.14 66.8935 115.4 68.0984C114.647 69.3159 111.233 70.0564 111.233 70.0564L106.589 69.5293Z" fill="#F7B691"/>
<path opacity="0.6" d="M130.449 78.3276C130.449 78.8673 118.325 79.0054 115.814 89.7617L114.195 89.2346C117.797 78.3151 129.796 78.7544 130.386 78.3527C130.399 78.3527 130.399 78.3402 130.399 78.3402H130.449V78.3276Z" fill="#E7EAEB"/>
<path opacity="0.6" d="M133.36 70.5604L132.982 76.7803L138.47 79.7332L132.25 79.3556L129.297 84.8429L129.674 78.623L124.187 75.6701L130.407 76.0477L133.36 70.5604Z" fill="#E7EAEB"/>
<defs>
<linearGradient id="paint0_linear_2050_32332" x1="172.713" y1="157.986" x2="172.73" y2="182.449" gradientUnits="userSpaceOnUse">
<stop stop-color="#ACE96B"/>
<stop offset="1" stop-color="#D4FFA6"/>
</linearGradient>
<linearGradient id="paint1_linear_2050_32332" x1="43.7569" y1="104.857" x2="43.7139" y2="157.328" gradientUnits="userSpaceOnUse">
<stop stop-color="#B5F075"/>
<stop offset="1" stop-color="#E1FFC0"/>
</linearGradient>
</defs>
</svg>
