<?xml version="1.0" encoding="UTF-8"?><svg id="Capa_1" xmlns="http://www.w3.org/2000/svg" viewBox="0 0 920.02 670.5"><path d="M187.95,95.29c1.59-.25,6.36-2.31,8.1-2.89,1.73-.58,3.47,1.16,6.36-.58,2.89-1.74,6.36-2.31,6.36-2.31,0,0,2.31-.58,3.47-.58s4.62,0,6.36-1.16c1.74-1.16,2.31-2.89,4.63-2.89s5.78-1.73,8.09-2.31c2.31-.58,2.31-1.74,5.2-2.31,2.89-.58,4.1-2.89,6.68-2.89s7.2-1.73,9.52-2.89,4.05-.58,2.89-1.73-1.73-.58,0-1.74c1.73-1.15,5.83-1.11,9.25-4.05,3.42-2.94,5.21-2.08,6.94-2.89,1.72-.81,5.78-1.73,6.36-2.31,.58-.58,4.05-.58,4.05-.58,0,0-2.22,.75-1.74,1.74,.48,.99,.35,.27-3.2,.9-3.55,.63-11.8,2.84-10.95,4.44,.85,1.6,.27,1.02,.27,1.02l1.73-.58s-8.05,2.1-4.05,2.89c4,.79,6.94-2.89,9.25-2.89s7.52-1.16,8.67-2.31c1.15-1.16,.58-2.89,3.47-3.47,2.89-.58,6.94-2.89,6.36-.58-.58,2.31-2.31,.58-.58,2.31,1.73,1.73,.58,2.89,5.2,2.89s5.29-.55,7.52,.58c2.23,1.13,3.47,1.74,4.63,2.31,1.16,.58,1.73-.58,4.05,4.05,2.31,4.63,5.2-.58,2.89,2.31-2.31,2.89-6.36,5.2-2.89,9.83,3.47,4.63,2.31,4.63,4.05,7.52,1.73,2.89,1.4,2.51,1.16,6.36-.24,3.86,2.31,4.63,1.73,8.1-.58,3.47-.58,.58-2.31,4.05-1.73,3.47-3.47-.58-1.73,3.47,1.73,4.05,3.83,2.53,4.63,6.36,.79,3.83-.74,.49-.87,5.2-.13,4.71,1.45,4.63-2.02,9.83-3.47,5.2-8.93,13.58-11.3,14.77-2.37,1.19-.71,3.6-2.58,7.2-1.87,3.61-5.66,3.79-4.85,6.81,.8,3.02,.58,2.23-.05,5.3-.63,3.08-1.46,5.23,.28,6.97,1.73,1.74,2.31,0,1.16,2.31-1.16,2.31-1.73-.58-1.16,2.31,.58,2.89-.58-1.16,.58,3.47,1.16,4.63,2.31,.58,1.73,5.21-.58,4.63-1.73,3.47,0,4.63,1.73,1.16,2.31,.58,6.36,3.47,4.05,2.89,4.99-.21,4.63,4.05-.36,4.26,1.05,4.47,.58,9.25-.47,4.78,0,3.47,.58,5.78,.58,2.31,2.02,1.8,2.89,5.2,.87,3.41,3.47,3.47,1.74,5.78-1.74,2.31-.58,1.73-2.31,2.31-1.74,.58-4.63-2.31-2.31,.58,2.31,2.89,1.74,1.74,5.78,4.63,4.05,2.89,3.47,1.74,4.05,4.05,.58,2.31-.2,3.14,0,5.78,.2,2.64,1.23,1.56,2.89,3.47,1.66,1.91,4.05,3.47,4.05,5.2s2.31,4.05,2.31,1.16,1.16-.58,0-3.47c-1.16-2.89-.58-1.16-1.74-3.47s-1.43,3.22-1.73-.58c-.3-3.8-.58-6.36-1.16-8.67s-.17-2.48-1.16-4.05c-.99-1.57-1.16-.92-1.73-4.51-.58-3.59-1.16-4.17-2.31-6.48-1.16-2.31-2.89-2.71-2.89-6.27s-3.47-7.03,.58-7.03,6.94-.58,6.94,2.89,.2,1.28,.58,7.52c.38,6.24-.07,5.38,3.72,10.21,3.79,4.83,4.79,1.11,5.53,7.14,.74,6.03,.57,2.3,4.05,6.94,3.48,4.64,8.73,6.17,7.52,10.99-1.21,4.82-.23,4.63,.18,7.52,.4,2.89-3.64-1.16-.75,5.2,2.89,6.36,4.59,8.55,10.68,11.79,6.09,3.25,6.09,4.4,13.03,7.29,6.94,2.89,9.83,5.78,15.03,4.63,5.2-1.16,8.1-4.62,12.72,.58,4.63,5.2,7.54,9.33,15.03,10.41,7.49,1.08,9.37,1.28,11.56,4.63,2.19,3.35,7.52,6.36,6.94,9.25-.58,2.89-1.73,5.78,0,6.36,1.73,.58,4.92-.66,6.36,2.31,1.44,2.98-1.16,4.05,3.47,5.2,4.63,1.16,5.78,5.21,8.96,5.78,3.18,.58,7.21,2.44,6.36-2.58-.85-5.02-3.18-4.36,2.02-4.36s6.15-2.52,6.94,2.31c.79,4.83,1.06,4.28,2.52,9.54,1.46,5.26,.95,5.49,.37,10.7-.58,5.2,1.3,7.81-2.31,9.25-3.61,1.44-2.89,3.47-4.63,5.78-1.74,2.31-2.59,.28-4.92,4.63-2.33,4.35-4.34,7.52-4.34,10.99s1.46,1.37,2.89,6.36c1.44,4.99-3.29,2.87-3.47,8.1-.18,5.23-5.76,7.56,.72,10.48,6.48,2.92,7.95,8.02,9.11,10.33,1.16,2.32,7.12,13.1,9.25,17.35,2.13,4.25,2.89,.52,4.34,5.75,1.45,5.23-.87,6.97,.87,8.12,1.73,1.16,5.38,6.29,10.99,9.25,5.61,2.96,17.38,8.72,18.79,14.17,1.41,5.45,1.45,21.68,2.02,26.89,.58,5.2,2.71,7.71,1.16,13.3-1.55,5.59-.13,6.57-1.16,12.14-1.02,5.57-.85,10.47,1.16,12.72,2,2.25,2.89,10.99,1.74,21.4s-1.16,13.49,.58,18.89c1.74,5.4,.58,2.51,1.16,8.87,.58,6.36-.58,12.86,1.73,13.08,2.31,.22,.58-11.92,2.89-7.3,2.31,4.62,1.73,2.31,3.47,10.41,1.73,8.1,5.2,10.41,1.16,10.99s-7-1.55-5.2,2.31c1.8,3.86,8.61,.71,5.2,6.36-3.4,5.65-4.62,1.74-1.73,6.36,2.89,4.63,2.31,6.94,5.78,10.99,3.47,4.05,4.05-1.16,5.78,2.89,1.74,4.05,1.88,5.59,2.89,7.52,1.01,1.93,10.41,4.63,13.88,6.36,3.47,1.74,8.95,4.71,13.3,5.78,4.35,1.07,6.94-2.89,9.25-2.89s6.26-1.38,2.89-1.15-5.2-.58-9.83-3.47c-4.63-2.89-7.63-3.35-9.25-6.94-1.62-3.59-10.41-10.99-6.36-11.57,4.05-.58,5.78,1.73,5.2-2.31-.58-4.05,0-5.2,1.73-6.94,1.74-1.74,2.69-.98,2.31-3.47-.38-2.49-.51-3.29-4.63-3.47-4.11-.18-5.2-.58-5.2-4.05s-2.89-4.05,1.16-5.2c4.05-1.16,4.63,2.31,4.63-3.47s-2.89-4.05,0-6.36q2.89-2.31,3.76-3.76c.87-1.45-7.23-2.02-7.23-4.34s-3.86-3.78-.58-4.05,4.28,2.35,7.52,1.16c3.24-1.2,5.6,1.22,4.05-3.47-1.55-4.69-4.12-6.08-2.31-8.1,1.81-2.02,6.94,2.9,13.3-1.15,6.36-4.05,7.7-4.76,7.9-8.45,.2-3.69,2.84-1.71-.96-4.27-3.8-2.56-.44-4.8-4.05-6.65s-3.47-2.03-4.63-6.07c-1.15-4.05-.58-4.05-.58-4.05,0,0,1.36,6.29,4.44,7.19,3.08,.9,4.6,2.65,10.02,2.64,5.42-.01,9.83-6.48,10.41-9.83,.58-3.35,1.73-4.63,3.47-6.94,1.74-2.31,.87,.28,3.47-5.78,2.6-6.06,3.47-5.79,5.2-9.83,1.74-4.05,2.31-.58,1.74-5.78-.58-5.2,0-9.25,0-10.99s-1.74-1.16,3.47-4.63c5.2-3.47,9.25-6.36,12.72-7.52,3.47-1.16,10.3-.64,14.27-5.21,3.97-4.57,.53-4.67,4.23-12.14,3.71-7.47,5.54-13.36,4.63-20.24-.91-6.88-2.23-7.81-1.16-13.3,1.07-5.49,.63-3.84,2.31-2.89,1.69,.95,0,2.89,2.31-2.89,2.31-5.78,6.59-7.36,9.25-13.88,2.66-6.52,5.46-6.57,4.63-11.57-.83-5,.28-4.37-1.16-8.09-1.43-3.72-1.01-4.01-3.84-4.94-2.82-.94-8.88-3.15-10.04-4.31-1.16-1.16-5.2-8.1-9.25-7.52-4.05,.58-6.68-.34-10.99-.58-4.31-.24-6.94,1.16-9.25-1.73-2.31-2.89,.58-2.89-3.47-4.63-4.05-1.73-3.47-2.32-6.94-3.47-3.47-1.16-2.89-2.89-5.2-.58-2.31,2.31-4.63,4.63-4.05,1.73,.58-2.89,4.62-4.63,1.16-4.63-3.47,0-6.94-2.31-7.51-4.05-.58-1.73-.3-.66-.87-4.63-.57-3.97-4.91-2.88-4.34-6.56,.58-3.68,3.66-7.28,.58-8.07-3.08-.79-2.9-1.28-6.36-3.88-3.46-2.6-4.42-5.3-7.8-5.2s-2.97-.34-7.32,0c-4.34,.34-4.36,1.92-6.86-.58-2.5-2.5-2.89-2.31-5.2-5.78-2.31-3.47-5.47-6.86-8.09-7.52-2.62-.66-2.31,1.15-2.89-1.74-.58-2.89-1.73-4.05-4.63-5.2-2.89-1.15-2.31-2.31-1.74-2.89,.58-.58,2.1-4.05-.69-2.31s-2.8,2.12-6.83,2.31c-4.04,.19-1.2,3.13-6.13,1.45-4.93-1.69-4.28-1.45-8.91-1.45s0,1.73-4.63-1.73c-4.63-3.47-3.47-3.47-5.78-3.47s1.16-2.89-1.16-2.31c-2.31,.58-1.73,.58-1.73,1.74s0,0-2.89,2.31c-2.89,2.31-5.2-1.16-3.47,3.47,1.74,4.63,5.1,7.21,1.16,6.94-3.94-.27-5.2,1.8-4.05-2.89,1.15-4.69,1.15-3.47,1.15-5.78,0-2.31-2.01-2.14,1.02-4.25,3.03-2.11,6.5-4.42,2.45-3.27-4.05,1.16-5.21,4.8-6.94,4.43-1.73-.38-3.47-2.12-6.36,.78-2.89,2.89-1.16-1.16-3.47,1.16-2.31,2.31-5.73,3.47-4.89,5.78s2.58,2.31-.89,4.63c-3.47,2.31,.05,3.47-2.87,3.76-2.91,.29-.6-1.45-5.8-3.76-5.2-2.31-5.78-3.47-7.52-2.31-1.74,1.16-5.78,5.78-9.25,4.05-3.47-1.73-3.62-.88-6.36-5.2-2.74-4.32-5.2-5.2-3.47-10.99,1.74-5.78,.58-2.31,1.74-6.94,1.16-4.63,3.47-6.94,1.73-9.25-1.73-2.31,0-2.31-2.89-3.47s-3.47-2.89-8.09-1.73c-4.63,1.16-8.67,1.16-9.83,1.16s-4.63,2.31-2.89-1.16c1.74-3.47,2.89-2.31,2.89-5.2s.58-3.47,.58-5.2,2.31-1.74,2.89-4.05c.58-2.31,.58-6.36,1.73-7.52,1.16-1.16,5.2-5.78,4.05-6.36-1.16-.58-4.05-2.31-6.36-1.16-2.31,1.16-3.74,1.74-7.81,2.6-4.07,.87-3.76,4.34-4.34,6.65-.58,2.31-1.74,4.63-3.47,5.78-1.73,1.16-3.47-.58-5.2,0-1.73,.58-2.89,1.16-5.2,1.74-2.31,.58-3.86,2.89-5.4,.87-1.54-2.02-2.7-1.45-4.43-3.18-1.74-1.73-1.74-2.89-2.89-5.2-1.16-2.31-4.4-10.86-4.05-13.3,.35-2.44,2.76-8.06,2.31-10.41-.45-2.35,2.89-5.21,3.47-6.94s.58,1.16,0-4.05c-.58-5.2,1.16-6.94,4.05-8.67,2.89-1.74,6.66-1.58,10.85-4.84,4.19-3.26,9.13-4.27,11.29-3.76,2.15,.5,2.15-.75,5.04,2.24,2.9,2.99,3.47,0,5.78,0s3.2,.92,2.76-.99c-.45-1.91-6.05-1.69-3.26-2.65,2.79-.96,4.55-2.14,8.02-1.57,3.47,.58,4.1-3.47,8.41-.58,4.31,2.89,3.16,2.89,4.89,3.47,1.73,.58,3.99-3.21,6.04-1.31,2.05,1.89,4.94,4.21,4.36,7.67-.58,3.47-2.31,2.31-1.16,5.78,1.16,3.47,1.74,6.94,2.89,8.1,1.16,1.16,.58,2.89,1.73,3.47,1.16,.58,4.01,2.49,5.27-.65s1.67-1.51,1.09-6.29c-.58-4.78-1.16-5.2-1.74-10.41s-1.16-5.79-.58-9.83c.58-4.05,1.73-5.78,5.2-8.67,3.47-2.89,6.36-7.52,10.41-8.67,4.05-1.16,3.47-2.89,6.94-4.05,3.47-1.16,6.94-2.31,8.09-5.2,1.16-2.89,1.74-1.74,.58-5.21-1.16-3.47-.58-1.16,0-5.78,.58-4.63,.58-4.05,1.73-6.36s3.47-3.47,2.31-1.16c-1.16,2.31,3.47,1.73,0,5.2-3.47,3.47-1.73,4.05-1.16,3.47s-.58-1.16,1.74-2.89c2.31-1.74,3.47-2.31,2.89-4.63-.58-2.31-2.31-3.47,0-2.31,2.31,1.16,2.31,1.74,4.63-1.16,2.31-2.89,2.31-4.05,2.89-5.21,.58-1.16-1.16-1.16,3.47-2.31,4.63-1.16,4.63-1.74,9.25-2.89s6.36,.58,6.36-.58,0,2.31-1.73-.58c-1.74-2.89-2.89-2.31-.58-5.2,2.31-2.89,2.95-5.52,6.94-5.78,3.99-.26,2.89-2.89,5.2-2.89s5.2,0,6.36-1.16,2.03-2.17,5.2-2.89c3.17-.72,3.47-2.89,6.36-1.74,2.89,1.16,2.31,2.31,1.74,2.31s-2.65,.22-5.78,1.73c-3.13,1.51-4.62,2.31-4.05,3.47,.58,1.16-1.73,2.31,1.16,2.31s4.63-1.74,6.94-2.89c2.31-1.16,2.31-1.74,6.36-2.89,4.05-1.16,5.78-1.74,6.94-2.89s3.47-1.73,0-1.73-5.78,0-7.52-1.16c-1.73-1.16-3.47,1.73-3.47-2.89s1.16-4.63,.58-5.78c-.58-1.16,2.31,1.16-1.16-.58-3.47-1.74-7.49-.51-4.05-1.74,3.45-1.23,2.31-.24,5.78-1.85,3.47-1.61,5.78-1.61,4.05-2.77-1.74-1.16-1.74-1.73-5.2-1.16-3.47,.58-3.81,.6-7.06,1.67-3.25,1.07-2.2,2.38-6.24,3.54-4.04,1.16-8.09,2.89-9.25,4.05-1.16,1.16-2.48,5.56-1.73,2.31,.74-3.25,2.31-6.94,5.78-6.94s2.89-4.05,7.52-4.63c4.63-.58,4.63-2.89,7.52-4.05,2.89-1.16,5.98-4,8.56-2.68,2.58,1.32,7.63,.95,9.94,1.53s6.36,2.31,10.41-.58c4.05-2.89,1.63-5.78,8.91-6.36,7.28-.58,9.6,.58,10.75-2.89,1.15-3.47,3.47-2.31,1.73-5.2-1.73-2.89-2.89-1.73-4.62-1.73s5.3-4.1-.58-2.89c-5.88,1.21-6.36,2.89-9.25,2.89s-5.2-.58,1.16-2.31c6.36-1.73,13.88-.58,9.25-2.89-4.62-2.31-6.94-.58-8.09-2.89s.58,0-1.73-2.31c-2.31-2.31-5.21-2.89-3.47-5.2,1.74-2.31,2.89-2.89,2.31-4.63-.58-1.74,.58,.58-1.16-4.05-1.74-4.63-.58-6.94-2.31-8.1-1.74-1.16-1.16-2.89-2.89,.58-1.74,3.47-3.47,3.47-5.2,5.2s-2.31,1.73-4.62,2.31c-2.31,.58-4.63,1.74-5.2,.58-.58-1.16-1.16,1.16-2.31-2.31-1.16-3.47,.58-2.89,.58-6.36s2.66-1.27,1.73-3.47c-.93-2.2-1.73,0-2.89-.58-1.16-.58-2.89,.58-3.47-1.16-.58-1.74,.58-2.89-1.73-4.05s-1.91-2.13-2.89-1.74c-.98,.39-.58,1.16-2.89,1.16s-2.89,1.16-5.2,0c-2.31-1.16-3.47-2.89-5.2-1.74-1.74,1.16-4.05,2.89-4.05,4.63s1.16,4.05-.58,4.05-2.31,4.63-2.31,4.63c0,0-3.47,2.89-4.63,3.47-1.16,.58-4.05,.58-2.31,2.31,1.74,1.73,2.89,.58,2.89,4.05s0,8.1-6.36,10.99c-6.36,2.89-12.14,2.89-12.14,4.63s.58,2.31,0,5.78c-.58,3.47,1.76,4.33-.58,5.78-2.33,1.46,.75,3.96-2.89,4.05s-5.18,2.91-5.78,1.16c-.6-1.75-2.89-2.89-3.47-5.78-.58-2.89-1.16-1.15,0-4.63s5.21-5.78,3.47-7.52c-1.74-1.73-1.74-1.16-4.05-1.73-2.31-.58-4.39,.27-6.36-1.16-1.97-1.43,0,.88-3.47-1.73-3.47-2.61-3.01-3.26-5.2-4.34-2.2-1.08-2.54-.44-4.05-1.45-1.51-1.01-4.49-.12-6.58-.93-2.09-.81-1.51-.81-1.51-4.28s3.47-1.16,0-3.47c-3.47-2.31-5.63-.15-2.31-4.05,3.32-3.9,5.78-6.94,9.83-9.25,4.05-2.31,1.73-1.74,8.09-4.05,6.36-2.31,10.98-6.36,9.25-5.78-1.73,.58-9.83-.58-2.89-1.16,6.94-.58,4.63,1.73,6.94,.58s2.31-.58,5.78-1.73c3.47-1.16,4.63-1.16,6.94-2.89,2.31-1.73,5.78-1.74,2.31-2.31-3.47-.58-5.2-.58-6.94-1.73s-4.05-2.31-.58-1.16c3.47,1.16,6.36,3.47,9.25,1.73,2.89-1.73,4.05-1.16,4.63-2.89,.58-1.73-.58-2.89,2.31-1.73,2.89,1.16,4.63,2.89,5.2,1.16,.58-1.74-2.31-4.63,0-3.47,2.31,1.16,1.15,3.47,2.89,2.89,1.74-.58,4.05-1.74,6.94-2.89,2.89-1.16,4.63-1.16,3.47-2.31-1.16-1.16-3.47-1.73-1.16-2.89,2.31-1.16,6.36-3.47,5.78-4.05-.58-.58,0-1.74-2.89-2.31-2.89-.58-4.05-4.05-6.94-1.73-2.89,2.31-2.89,2.89-2.89,4.05s-1.73,.58-2.89,1.73c-1.16,1.16-1.74,2.89-4.05,2.89s-.58,2.89-2.89,2.89-5.2,2.89-4.05-.58c1.16-3.47,2.89-.58,2.89-3.47s-1.73-6.94-3.76-4.34c-2.03,2.6-4.92,7.81-4.34,4.34,.58-3.47,1.73-2.31,1.16-4.05-.58-1.73-3.47,0-3.47-1.73s0,1.73,1.74-2.89c1.73-4.63,4.05-4.05,1.73-5.2s0-4.63-3.47-2.31c-3.47,2.31-4.38,.91-8.09,4.05-3.72,3.14-6.36,2.89-1.73,5.2s5.2,1.74,4.05,2.31-.53-.68-2.31,1.73c-1.78,2.41-2.05,2.33-3.47,2.89-1.41,.57-6.94,5.78-8.67,4.63-1.73-1.16,2.31-1.16-.58-3.47-2.89-2.31-.58-2.31-4.05-1.16-3.47,1.16,1.35,3.43-4.63,2.31-5.97-1.11-.6,1.16-8.1,0-7.49-1.16-6.94-1.15-9.25-1.73-2.31-.58,.68-.89-2.89-1.74-3.57-.84-12.72,0-11.56,1.16,1.16,1.16,5.2-1.16,5.2,0s-1.74-.58-3.47,1.74c-1.73,2.31-3.47,6.36-4.05,5.2-.58-1.16,5.2-3.47-.58-4.05-5.78-.58-5.78-1.16-10.41-.58-4.63,.58-12.72,.58-9.83-.58,2.89-1.16,6.36-.58,5.78-2.31-.58-1.74,0-2.31-3.47-2.31s-6.73,.42-8.95-.58c-2.23-1-1.45-.58-4.92-1.74-3.47-1.16-1.73-2.31-5.2-1.16-3.47,1.16-6.36,4.05-6.36,1.73s2.89-4.63,.58-2.89c-2.31,1.73-3.47,5.21-5.2,2.89-1.74-2.31,.52-9.83-2.92-6.65-3.44,3.18-8.07,3.18-9.22,3.76-1.16,.58-1.16,0-2.89,0s-3.47,0-8.67,1.73c-5.2,1.73-3.47,.29-9.25,1.73-5.79,1.44-5.2,3.47-8.67,1.16-3.47-2.31-5.78-2.89-7.52-2.89s-3.38,.16-5.33-1.86c-1.95-2.03-1.61,.13-8.55-.45-6.94-.58-6.36-2.31-12.14-1.73-5.78,.58-2.51,2.89-5.78,.58-3.27-2.31-2.31-2.31-6.36-2.89-4.05-.58-1.1-3.09-5.78-1.16-4.68,1.94-7.44,3.92-10.99,2.31-3.55-1.61-4.39-.93-7.1,.69-2.72,1.62-3.3,.46-7.93,2.2-4.63,1.74-4.62,2.89-9.25,4.05-4.63,1.16-9.17,1.78-11.56,1.74-2.4-.04-5.78,1.16-3.47,2.89,2.31,1.73,.58,2.89,2.31,4.05,1.73,1.16,4.05,0,2.89,2.31-1.16,2.31-.94,2.89-4.63,2.89s-.58-1.73-3.47-1.73-1.73,0-5.2,.58c-3.47,.58-2.76,.31-6.3,1.31-3.53,1-4.11-.73-5.85,1.58-1.73,2.31-.58,1.74-1.16,2.89-.58,1.16-2.31,3.47,2.31,2.89,4.62-.58,5.2-1.73,8.67,0,3.47,1.73,8.68,2.31,1.74,3.47-6.94,1.16-10.94,1.16-12.41,1.74-1.47,.58-.89-1.16-4.94,1.74-4.05,2.89-9.83,1.74-9.83,4.05s-6.94,1.74-4.05,4.05c2.89,2.31,6.36,4.05,2.31,3.47-4.05-.58-10.03-3.37-5.2,1.16,4.83,4.53,7.94,.84,6.36,2.89-1.58,2.05-7.52,5.78-2.89,4.63,4.63-1.16,3.47,1.16,6.94,0,3.47-1.16,2.55-4.34,4.62-1.16,2.08,3.18,4.05,1.16-.58,4.05-4.63,2.89-2.24,4.38-8.67,5.2-6.44,.83-6.36,1.74-10.99,3.47-4.62,1.73-11.48,.92-11.75,2.31s-4.93,5.32-6.75,4.05c-1.82-1.27-10.73,3.61-9.83,3.47Z"/><path d="M0,339.28c-.11-23.63,1.54-47.11,5.21-70.38,7.36-46.66,20.79-91.59,39.69-134.89,16.65-38.13,36.7-74.35,60.73-108.3,4.13-5.83,9.59-10.87,15.04-15.57,3.81-3.28,9.12-5.12,13.68-1.71,4.5,3.37,3.01,8.65,1.18,12.87-4.96,11.41-10.32,22.66-15.7,33.88-24.55,51.24-42.98,104.57-54.3,160.27-5.57,27.43-9.73,55.09-10.82,83.11-.71,18.27-1.54,36.57-1.07,54.82,.47,18.11,1.79,36.27,3.99,54.25,4.75,38.84,13.4,76.88,25.38,114.16,13.36,41.58,30.8,81.44,49.9,120.64,2.51,5.16,4.43,10.69,5.95,16.23,2.19,7.99-3.54,13.43-11.62,11.4-7.38-1.86-13.31-6.29-17.58-12.21-10.75-14.93-21.68-29.82-31.19-45.53-27.36-45.22-48.1-93.35-61.53-144.57-7.17-27.35-12.47-55.03-14.6-83.24-1.14-15.06-1.61-30.16-2.38-45.24Z"/><path d="M920.02,331.42c-.72,76.47-17.53,149.25-49.53,218.6-14.54,31.51-31.21,61.86-51.5,90.06-4.78,6.64-10.94,12.33-16.73,18.19-1.65,1.67-4.16,2.6-6.42,3.55-4.02,1.68-8.23,2.38-11.78-.88-3.49-3.21-2.98-7.74-1.61-11.4,3.23-8.66,6.89-17.19,10.96-25.49,22.74-46.37,41.78-94.16,54.18-144.35,5.19-21.02,9.03-42.41,12.79-63.75,6.6-37.48,7.48-75.4,5.9-113.27-.89-21.37-3.59-42.73-6.67-63.92-10.72-73.6-35.55-142.63-68.85-208.84-2.98-5.92-5.56-12.14-7.34-18.5-.77-2.75,.11-6.8,1.78-9.17,2.2-3.13,6.26-2.43,9.67-1.19,8.03,2.93,13.44,9.09,18.23,15.68,17.86,24.57,32.77,50.93,46.54,77.94,21.38,41.93,38.19,85.56,48.38,131.58,5.11,23.06,8.76,46.36,10.07,69.99,.65,11.73,1.29,23.45,1.94,35.18Z"/></svg>